<svg width="202" height="184" viewBox="0 0 202 184" fill="none" xmlns="http://www.w3.org/2000/svg">
<path d="M130.401 47.1873C130.207 47.4514 130.012 47.7106 129.822 47.9698C130.322 48.2486 130.811 48.4882 131.265 48.7768C131.944 49.2023 132.498 49.7696 132.818 50.4984C133.167 51.3103 133.182 52.1417 132.788 52.9585C132.588 52.8607 132.388 52.7678 132.189 52.6699C132.628 51.6233 132.368 50.7087 131.615 49.9017C131.065 49.3148 130.361 48.9627 129.628 48.6496C129.338 48.5274 129.138 48.5714 128.919 48.767C128.15 49.4371 127.271 49.9506 126.343 50.3761C126.043 50.5131 125.739 50.65 125.414 50.7967C125.524 51.7847 125.629 52.7482 125.739 53.7313C125.948 53.7459 126.108 53.7557 126.263 53.7655C127.341 53.8437 128.424 53.9611 129.403 54.4111C130.127 54.7437 130.661 54.6752 131.155 54.0981C131.315 54.235 131.48 54.3769 131.639 54.5138C131.445 54.6899 131.25 54.861 131.005 55.0811C131.135 55.179 131.245 55.2768 131.365 55.3599C131.964 55.7707 132.498 56.2452 132.878 56.8614C133.567 57.9912 133.582 59.1161 132.858 60.2361C132.678 60.1138 132.498 59.9916 132.318 59.8693C132.957 58.8178 132.818 57.8249 132.089 56.8761C131.709 56.387 131.22 56.0251 130.691 55.6974C130.456 55.5556 130.272 55.5262 130.017 55.6729C129.123 56.1767 128.16 56.5142 127.156 56.7342C126.747 56.8223 126.333 56.8957 125.913 56.9739V62.6375C127.376 62.7158 129.712 62.1191 131.085 61.1311C131.22 61.2974 131.35 61.4637 131.485 61.63C130.262 62.5153 128.864 62.9701 127.376 63.1951C126.782 63.2831 126.183 63.3272 125.584 63.3418C125.184 63.3516 124.78 63.244 124.381 63.244C105.155 63.244 85.93 63.244 66.7047 63.244C66.5 63.244 66.2953 63.244 66.0607 63.244C66.0607 63.5228 66.0457 63.7282 66.0607 63.9287C66.6298 69.7391 69.2557 74.5126 73.6789 78.3715C76.3648 80.7142 79.43 82.382 82.9396 83.2037C87.2829 84.2161 91.6013 84.0889 95.8497 82.7292C98.8551 81.7706 101.471 80.1615 103.792 78.078C104.796 77.1732 105.705 76.1804 106.553 75.1386C106.843 74.7865 106.923 74.762 107.367 74.9185C109.743 75.7549 112.115 76.5961 114.491 77.4324C114.651 77.4911 114.805 77.5645 115 77.6525C114.89 77.8286 114.82 77.9655 114.726 78.0829C113.577 79.4866 112.504 80.9588 111.261 82.2793C107.487 86.2898 102.979 89.2146 97.607 90.7747C95.5851 91.3616 93.5233 91.7285 91.4166 91.885C89.2998 92.0464 87.1781 92.0757 85.0663 91.8605C80.4585 91.3959 76.1701 90.0069 72.2511 87.5614C68.0526 84.9448 64.6429 81.5554 62.0069 77.4275C60.2446 74.674 59.0315 71.6954 58.3276 68.5213C57.9831 66.9611 57.7585 65.3862 57.6636 63.7918C57.6287 63.244 57.6287 63.2391 57.0845 63.2391C54.9828 63.2391 52.881 63.2391 50.7743 63.2391C50.6195 63.2391 50.4647 63.2636 50.2501 63.2782C50.29 63.8798 50.305 64.4423 50.3599 65.0047C50.5796 67.3181 50.964 69.607 51.6329 71.8373C51.9774 72.9964 52.3768 74.1507 52.8261 75.2756C54.8629 80.367 58.0281 84.7003 62.0269 88.4858C64.1486 90.4911 66.4351 92.2713 68.9462 93.7826C70.2891 94.5896 71.682 95.3037 73.1148 95.9346C76.6493 97.4948 80.3586 98.4192 84.2027 98.8398C86.8087 99.1235 89.4196 99.1675 92.0356 98.9718C92.4 98.9425 92.7695 98.874 93.1339 99.0354C93.2337 99.0794 93.3785 99.0452 93.4983 99.0305C96.6984 98.6295 99.8286 97.9399 102.849 96.815C107.926 94.9271 112.344 92.061 116.148 88.2706C118.075 86.3485 119.788 84.265 121.315 82.0299C121.81 81.3011 121.735 81.4136 122.444 81.7071C124.64 82.607 126.832 83.5216 129.024 84.4362C129.133 84.4802 129.228 84.5584 129.368 84.6416C129.288 84.7981 129.223 84.935 129.143 85.0622C126.482 89.2928 123.272 93.0734 119.463 96.3503C116.273 99.099 112.754 101.359 108.89 103.105C105.33 104.714 101.621 105.853 97.7668 106.543C94.6116 107.105 91.4365 107.448 88.2315 107.448C83.8982 107.448 79.6397 106.871 75.4761 105.663C70.0795 104.097 65.177 101.579 60.679 98.2822C57.8983 96.2427 55.3372 93.9685 53.0308 91.4154C50.1203 88.1924 47.7389 84.6269 45.9168 80.7093C43.9598 76.5032 42.7367 72.0965 42.0976 67.5235C41.7532 65.0683 41.5685 62.5984 41.6084 60.1187C41.6883 55.2328 42.517 50.4788 44.2144 45.8765C46.1564 40.6041 49.0619 35.8893 52.7063 31.5903C55.3023 28.5237 58.2228 25.7946 61.5277 23.4714C64.2235 21.5786 67.0991 19.9989 70.1594 18.7468C73.1847 17.5143 76.2999 16.5997 79.5199 15.9982C82.021 15.5335 84.5471 15.2596 87.0932 15.1423C87.3378 15.1325 87.5875 15.1178 87.8321 15.0689C88.7257 14.9026 89.5544 15.0298 90.3133 15.5335C90.1835 15.7096 90.0586 15.8857 89.9288 16.0617C89.2998 15.7047 88.6458 15.5237 87.9269 15.7634V22.8845C88.6508 22.9139 89.3497 22.9432 90.0786 22.9676C90.1285 22.7231 90.1685 22.5079 90.2134 22.2878C90.4231 21.2118 90.7626 20.1799 91.2618 19.1968C91.4265 18.874 91.7311 18.5512 91.7211 18.2382C91.7161 17.9154 91.4016 17.6024 91.2268 17.2845C91.4016 17.1573 91.5713 17.0301 91.746 16.8981C91.9008 17.1279 92.0556 17.3529 92.2403 17.6366C92.425 17.4459 92.5798 17.2893 92.7345 17.1328C93.2387 16.6144 93.8079 16.184 94.4918 15.915C95.635 15.4602 96.6984 15.5922 97.6869 16.321C97.5521 16.497 97.4223 16.6731 97.2875 16.8443C96.3439 16.1547 95.3655 16.1693 94.357 16.6927C93.738 17.0155 93.2637 17.4997 92.8144 18.0132C92.6147 18.2431 92.6097 18.4436 92.7145 18.7224C92.8943 19.2066 93.049 19.7054 93.1688 20.2092C93.4035 21.2118 93.4884 22.2389 93.4434 23.2709C94.4569 23.4372 95.4453 23.6035 96.4039 23.76C96.4588 23.6915 96.4887 23.6719 96.4987 23.6426C97.0229 22.1802 97.7268 20.8157 98.7852 19.6467C98.91 19.5098 98.92 19.3777 98.8501 19.2212C98.6953 18.8544 98.5456 18.4876 98.3908 18.1159C98.5855 18.0279 98.7752 17.9349 98.9699 17.8469C99.1346 18.1893 99.2994 18.5267 99.4841 18.9033C99.6888 18.7566 99.8585 18.6099 100.053 18.5023C100.537 18.2284 101.012 17.9105 101.531 17.7149C102.839 17.2111 104.282 17.4556 105.285 18.6784C105.12 18.8398 104.961 19.0012 104.796 19.1674C104.172 18.336 103.333 18.0132 102.3 18.1795C101.396 18.3262 100.672 18.8104 99.9933 19.3777C99.7687 19.5685 99.7088 19.7592 99.7537 20.0527C99.8585 20.6836 99.9634 21.3194 99.9684 21.9552C99.9684 22.8307 99.8785 23.7062 99.8236 24.6208C100.767 24.9338 101.766 25.2615 102.739 25.5794C102.889 25.3202 103.014 25.0756 103.163 24.8457C103.812 23.8529 104.571 22.9432 105.515 22.1949C105.759 22.0041 105.829 21.8085 105.754 21.5248C105.67 21.1923 105.605 20.8499 105.53 20.5124C105.749 20.488 105.969 20.4684 106.189 20.444C106.274 20.7619 106.354 21.0749 106.453 21.4515C106.613 21.3781 106.748 21.3194 106.878 21.251C107.612 20.8597 108.375 20.5613 109.214 20.4782C110.432 20.3608 111.431 20.7521 112.204 21.6862C112.035 21.8427 111.87 21.9993 111.7 22.1558C110.976 21.1776 109.968 20.982 108.83 21.1923C108.146 21.3194 107.537 21.6324 106.938 21.9699C106.633 22.1411 106.493 22.3416 106.508 22.7084C106.548 23.6622 106.403 24.6061 106.159 25.5256C106.044 25.956 105.919 26.3864 105.794 26.8314C106.753 27.3156 107.681 27.7901 108.585 28.2498C108.65 28.2156 108.67 28.2156 108.68 28.2009C109.688 27.0124 110.792 25.9266 112.18 25.1539C112.284 25.0952 112.374 24.9044 112.374 24.7724C112.374 24.3615 112.324 23.9458 112.294 23.535C112.514 23.535 112.729 23.535 112.948 23.5301C112.998 23.9018 113.043 24.2735 113.098 24.6843C113.423 24.5865 113.707 24.4985 113.992 24.4202C114.661 24.2344 115.335 24.1512 116.034 24.2491C117.217 24.4153 118.05 25.0169 118.54 26.0831C118.57 26.1467 118.6 26.2103 118.63 26.269C118.42 26.3472 118.21 26.4206 117.996 26.4989C117.531 25.3642 116.648 24.8653 115.429 24.8555C114.706 24.8506 114.042 25.0561 113.378 25.3104C113.118 25.4082 112.998 25.5549 112.963 25.8386C112.794 27.12 112.349 28.3183 111.74 29.4627C111.645 29.6437 111.555 29.8247 111.456 30.0252C112.379 30.7148 113.268 31.3848 114.156 32.05C114.231 32.0109 114.281 31.9962 114.321 31.9669C115.375 31.0816 116.508 30.3284 117.796 29.8149C117.926 29.7611 118.05 29.5752 118.08 29.4285C118.17 29.0079 118.21 28.5726 118.27 28.1471C118.485 28.1618 118.704 28.1764 118.919 28.1911C118.884 28.597 118.849 29.003 118.809 29.4578C119.159 29.3992 119.463 29.3502 119.773 29.3062C120.402 29.2133 121.036 29.2133 121.66 29.3405C122.938 29.5997 123.807 30.3186 124.206 31.5511C123.981 31.5952 123.752 31.6343 123.527 31.6783C123.212 30.705 122.499 30.1866 121.515 29.9714C120.607 29.7757 119.728 29.9274 118.854 30.1572C118.67 30.2061 118.55 30.2991 118.48 30.48C118.365 30.7833 118.205 31.0718 118.095 31.3751C117.786 32.2505 117.262 33.0037 116.728 33.752C116.638 33.8743 116.558 34.0064 116.468 34.1335C117.147 34.8574 117.801 35.5519 118.475 36.2659C118.684 36.1535 118.869 36.0605 119.049 35.9578C120.072 35.4003 121.146 34.9747 122.294 34.7302C122.648 34.6568 123.103 34.652 123.317 34.4319C123.542 34.2069 123.537 33.7618 123.632 33.4097C123.847 33.4292 124.061 33.4488 124.276 33.4635C124.216 33.7814 124.161 34.1042 124.091 34.4857C124.296 34.5052 124.481 34.5248 124.66 34.5346C125.444 34.5835 126.193 34.7498 126.882 35.1313C127.915 35.7084 128.459 36.5741 128.504 37.7381C128.504 37.8066 128.514 37.875 128.519 37.9435C128.3 37.968 128.075 37.9924 127.855 38.012C127.89 36.6328 127.062 35.7133 125.764 35.3709C125.274 35.2389 124.755 35.2291 124.251 35.1606C123.916 35.1166 123.747 35.2682 123.612 35.5617C123.118 36.6279 122.429 37.5669 121.595 38.4033C121.315 38.6869 121.036 38.9706 120.756 39.2543C121.251 40.0661 121.73 40.8487 122.194 41.6117C122.274 41.6117 122.314 41.6214 122.344 41.6117C123.662 41.191 125.01 40.9221 126.403 40.9661C126.642 40.9759 126.762 40.8438 126.862 40.6775C127.082 40.3009 127.286 39.9194 127.496 39.5379C127.686 39.6406 127.875 39.7385 128.07 39.8412C127.88 40.2227 127.691 40.609 127.481 41.0345C127.726 41.0883 127.925 41.1324 128.125 41.1813C128.849 41.3573 129.533 41.6263 130.122 42.0861C131.12 42.8637 131.52 43.8713 131.32 45.1038C131.305 45.2065 131.285 45.3092 131.265 45.407C131.045 45.3679 130.826 45.3287 130.606 45.2896C130.891 44.1647 130.581 43.2403 129.638 42.536C128.929 42.0078 128.095 41.7975 127.231 41.6752C127.002 41.641 126.877 41.7584 126.747 41.9149C125.973 42.8295 125.05 43.568 124.036 44.2087C123.891 44.3016 123.752 44.4044 123.607 44.5022C123.951 45.4755 124.291 46.4145 124.62 47.3389C124.68 47.3584 124.71 47.378 124.745 47.378C126.123 47.3095 127.496 47.3291 128.839 47.6861C128.954 47.7155 129.148 47.6323 129.243 47.5345C129.478 47.3046 129.678 47.0356 129.887 46.7813C130.057 46.9085 130.227 47.0405 130.401 47.1677V47.1873ZM66.8145 55.6778C67.7231 55.7805 124.625 55.7169 125.01 55.6045C124.93 55.1252 125.204 54.6312 124.945 54.1421C124.91 54.0736 124.94 53.8975 124.995 53.8584C125.249 53.6921 125.159 53.4671 125.15 53.2471C125.025 51.232 124.62 49.2708 124.041 47.3389C123.577 45.7885 122.958 44.3016 122.249 42.8442C122.114 42.5654 121.835 42.492 121.675 42.2866C121.495 42.0567 121.69 41.7486 121.52 41.46C120.147 39.0782 118.49 36.9115 116.563 34.9405C114.671 33.0086 112.559 31.3408 110.282 29.8736C106.878 27.6727 103.178 26.0978 99.2694 24.9876C96.0993 24.0877 92.8593 23.5888 89.5644 23.4372C87.6024 23.3491 85.6405 23.3345 83.6885 23.5399C80.2837 23.9018 76.9938 24.7675 73.8387 26.0489C71.5871 26.9635 69.4504 28.1226 67.4385 29.4823C63.7193 32.0011 60.4893 35.0285 57.7485 38.5598C53.8795 43.5436 51.5131 49.1387 50.6095 55.3355C50.5945 55.448 50.6095 55.5604 50.6095 55.6876H58.1379C58.2078 55.399 58.2727 55.1349 58.3326 54.8659C59.0515 51.638 60.3046 48.6252 62.1018 45.8325C64.2585 42.4871 66.9793 39.6504 70.1843 37.2588C73.0399 35.1313 76.1851 33.5466 79.6347 32.5782C84.1777 31.3017 88.8006 31.062 93.4734 31.6979C96.4338 32.0989 99.2545 32.9548 101.945 34.2167C104.931 35.6203 107.577 37.5082 109.968 39.7434C111.695 41.3573 113.173 43.1914 114.611 45.0548C114.756 45.2456 114.89 45.4412 115.08 45.7004C112.309 46.6933 109.599 47.6666 106.853 48.6496C103.787 44.732 100.008 41.8171 95.1408 40.4623C90.3332 39.1222 85.5206 39.1516 80.783 40.8096C73.3644 43.4115 67.9577 50.3028 66.8145 55.6778ZM120.367 38.6869C121.475 37.6892 122.379 36.6376 123.033 35.2535C121.49 35.5176 120.172 36.0312 118.929 36.799C119.423 37.4495 119.873 38.0413 120.367 38.682V38.6869ZM97.1477 23.9312C97.8267 24.0974 98.4657 24.254 99.1346 24.4153C99.3543 23.041 99.4342 21.7156 99.1546 20.3608C98.4906 20.8841 97.5521 22.5617 97.1477 23.936V23.9312ZM92.1304 19.0158C91.3866 20.3217 90.9822 21.6031 90.7825 23.0019C91.4914 23.0704 92.1454 23.129 92.8094 23.1926C92.7994 21.7645 92.6696 20.4293 92.1304 19.0158ZM110.877 29.6388C111.57 28.4552 112.08 27.2765 112.289 25.8533C111.036 26.6456 110.068 27.5357 109.239 28.6313C109.798 28.9785 110.307 29.2867 110.877 29.6388ZM105.14 26.5429C105.615 25.3446 105.839 24.1366 105.809 22.8698C104.776 23.6768 104.022 24.6795 103.348 25.8044C103.957 26.0538 104.521 26.2886 105.14 26.5429ZM125.908 56.2794C127.206 56.1082 128.394 55.7805 129.588 55.1545C128.3 54.6459 127.067 54.416 125.784 54.4062C125.669 54.8513 125.903 55.2963 125.484 55.6632C125.898 55.7023 125.878 55.9713 125.908 56.2794ZM125.279 50.1071C126.438 49.662 127.466 49.1143 128.449 48.2975C127.191 47.9943 126.033 47.96 124.81 48.0774C124.97 48.7719 125.12 49.4175 125.279 50.112V50.1071ZM126.008 41.6752C124.815 41.6655 123.672 41.8415 122.534 42.2866C122.808 42.8393 123.053 43.343 123.322 43.881C124.366 43.2746 125.269 42.5849 126.008 41.6752ZM115.929 33.6151C116.663 32.9108 117.641 31.1696 117.636 30.5974C116.558 31.0718 115.609 31.7174 114.706 32.5244C115.13 32.9059 115.519 33.2532 115.929 33.62V33.6151Z" fill="white"/>
<g filter="url(#filter0_b_169_12686)">
<g filter="url(#filter1_dddddd_169_12686)">
<path d="M97.2971 16.8443C97.4319 16.6683 97.5617 16.4922 97.6965 16.321C97.7963 16.2917 97.8962 16.2525 98.001 16.2379C98.4054 16.1792 98.7848 16.2281 99.0344 16.59C99.274 16.9324 99.269 17.2992 99.0793 17.666C99.0494 17.7296 99.0144 17.7883 98.9795 17.847C98.7848 17.935 98.5951 18.0279 98.4004 18.1159C98.3155 18.1062 98.2257 18.0915 98.1408 18.0817C97.6116 18.0132 97.332 17.7198 97.2971 17.2062C97.2921 17.0889 97.2921 16.9666 97.2871 16.8492L97.2971 16.8443Z" fill="#F15E22"/>
</g>
<g filter="url(#filter2_dddddd_169_12686)">
<path d="M118.929 28.1764C118.715 28.1617 118.495 28.147 118.28 28.1324C117.571 27.5259 117.516 27.1786 118.006 26.4841C118.215 26.4059 118.425 26.3325 118.64 26.2543C119.104 26.313 119.488 26.4841 119.598 26.9781C119.713 27.4966 119.483 27.8683 119.014 28.1128C118.984 28.1275 118.959 28.1519 118.929 28.1715V28.1764Z" fill="#F15E22"/>
</g>
<g filter="url(#filter3_dddddd_169_12686)">
<path d="M130.401 47.1873C130.232 47.0601 130.062 46.9281 129.887 46.8009C129.668 45.9157 129.817 45.6027 130.606 45.3043C130.826 45.3434 131.045 45.3826 131.265 45.4217C131.475 45.632 131.689 45.8276 131.699 46.1602C131.719 46.7569 131.375 47.1482 130.766 47.1775C130.641 47.1824 130.521 47.1775 130.396 47.1824L130.401 47.1873Z" fill="#F15E22"/>
</g>
<g filter="url(#filter4_dddddd_169_12686)">
<path d="M106.194 20.4341C105.974 20.4586 105.754 20.4782 105.535 20.5026C104.996 20.2532 104.716 19.8668 104.816 19.2603C104.821 19.2261 104.806 19.1919 104.801 19.1576C104.966 18.9962 105.125 18.8348 105.29 18.6685C105.41 18.6539 105.53 18.6294 105.655 18.6245C106.144 18.605 106.483 18.781 106.648 19.1381C106.818 19.5098 106.713 19.9353 106.378 20.2532C106.319 20.3119 106.254 20.3706 106.194 20.4341Z" fill="#F15E22"/>
</g>
<g filter="url(#filter5_dddddd_169_12686)">
<path d="M112.958 23.5203C112.738 23.5203 112.524 23.5203 112.304 23.5252C111.75 23.2122 111.55 22.7524 111.71 22.146C111.88 21.9894 112.045 21.8329 112.214 21.6764C112.354 21.6667 112.494 21.652 112.629 21.652C113.048 21.652 113.407 21.8867 113.527 22.2242C113.662 22.6057 113.552 23.0165 113.238 23.2904C113.148 23.3687 113.053 23.442 112.958 23.5154V23.5203Z" fill="#F15E22"/>
</g>
<g filter="url(#filter6_dddddd_169_12686)">
<path d="M128.075 39.8509C127.885 39.7482 127.696 39.6504 127.501 39.5477C127.211 38.7211 127.261 38.5255 127.865 38.0168C128.085 37.9924 128.31 37.9679 128.529 37.9484C128.929 38.1293 129.248 38.3641 129.243 38.8581C129.243 39.4058 128.939 39.7531 128.379 39.8216C128.275 39.8314 128.17 39.846 128.07 39.8558L128.075 39.8509Z" fill="#F15E22"/>
</g>
<g filter="url(#filter7_dddddd_169_12686)">
<path d="M132.189 52.6699C132.388 52.7677 132.588 52.8607 132.788 52.9585C133.167 53.6188 133.062 54.2105 132.468 54.4453C132.224 54.5431 131.919 54.4942 131.64 54.5089C131.48 54.3719 131.315 54.2301 131.155 54.0932C131.14 53.9073 131.105 53.7215 131.11 53.5356C131.12 53.1492 131.4 52.8069 131.769 52.7188C131.904 52.6846 132.044 52.6846 132.184 52.6699H132.189Z" fill="#F15E22"/>
</g>
<g filter="url(#filter8_dddddd_169_12686)">
<path d="M132.323 59.8644C132.503 59.9867 132.682 60.1089 132.862 60.2312C132.907 60.4953 133.007 60.7643 132.982 61.0235C132.947 61.4441 132.518 61.7474 132.043 61.7327C131.859 61.7278 131.674 61.6642 131.484 61.6251C131.35 61.4588 131.22 61.2925 131.085 61.1262C131.09 61.0088 131.095 60.8866 131.1 60.7692C131.135 60.2508 131.464 59.928 132.004 59.8888C132.108 59.8791 132.213 59.8742 132.318 59.8693L132.323 59.8644Z" fill="#F15E22"/>
</g>
<g filter="url(#filter9_dddddd_169_12686)">
<path d="M91.7559 16.8981C91.5811 17.0252 91.4114 17.1524 91.2367 17.2845C91.0819 17.2796 90.9222 17.2845 90.7674 17.2649C90.3331 17.216 89.9986 16.8883 89.9537 16.4677C89.9387 16.3307 89.9437 16.1938 89.9437 16.0568C90.0735 15.8808 90.1983 15.7047 90.3281 15.5286C90.4129 15.5042 90.4928 15.4699 90.5777 15.4504C91.4064 15.2645 91.9656 15.7683 91.8358 16.5948C91.8208 16.6976 91.7858 16.7954 91.7609 16.8932L91.7559 16.8981Z" fill="#F15E22"/>
</g>
<g filter="url(#filter10_dddddd_169_12686)">
<path d="M124.296 33.4635C124.081 33.4439 123.866 33.4244 123.652 33.4097C122.908 32.7543 122.883 32.3386 123.542 31.6685C123.766 31.6245 123.996 31.5854 124.221 31.5414C124.885 31.8348 125.084 32.1381 124.994 32.7005C124.93 33.1114 124.595 33.2728 124.291 33.4684L124.296 33.4635Z" fill="#F15E22"/>
</g>
</g>
<path d="M30.5678 146.846C30.2433 150.676 28.7756 153.674 26.1746 155.84C23.5037 157.944 19.9892 159 15.6259 159C10.5487 159 6.6747 157.503 4.00382 154.505C1.33294 151.634 0 147.394 0 141.779C0 136.164 1.36789 131.733 4.10367 128.862C6.90435 125.864 10.9381 124.368 16.215 124.368C20.5133 124.368 23.9281 125.419 26.4692 127.527C28.8754 129.572 30.2433 132.438 30.5728 136.14H26.3743C24.8117 136.14 23.7034 135.47 23.0544 134.13C22.6001 133.303 22.046 132.57 21.392 131.929C20.089 130.97 18.3667 130.496 16.215 130.496C13.2196 130.496 10.9082 131.455 9.28068 133.367C7.71809 135.279 6.93929 138.087 6.93929 141.784C6.93929 145.482 7.71809 148.098 9.28068 150.011C10.7784 151.986 13.0249 152.974 16.0203 152.974C18.1021 152.974 19.8294 152.466 21.1973 151.444C22.4354 150.485 23.314 148.954 23.8332 146.851H30.5728L30.5678 146.846Z" fill="white"/>
<g filter="url(#filter11_dddddd_169_12686)">
<path d="M141.687 125.321H145.201C146.11 125.321 146.893 125.639 147.542 126.28C148.191 126.921 148.521 127.684 148.521 128.579V130.589H141.687V125.326V125.321Z" fill="#F15E22"/>
</g>
<path d="M52.3994 150.387H57.2818C56.563 153.067 55.2001 155.107 53.1782 156.511C51.1613 157.978 48.6202 158.711 45.5599 158.711C41.8507 158.711 38.9501 157.533 36.8683 155.17C34.7816 152.877 33.7432 149.59 33.7432 145.315C33.7432 141.041 34.7516 138.043 36.7685 135.749C38.8503 133.391 41.7508 132.208 45.4601 132.208C49.3641 132.208 52.3944 133.357 54.5411 135.651C56.6229 138.013 57.6663 141.295 57.6663 145.506V146.558C57.6663 146.875 57.6313 147.1 57.5664 147.228H40.6725C40.7374 149.204 41.2266 150.671 42.1352 151.629C42.9789 152.652 44.252 153.16 45.9443 153.16C47.0526 153.16 47.9962 152.935 48.775 152.49C48.9697 152.427 49.1494 152.314 49.3141 152.153C49.4739 151.996 49.6536 151.82 49.8533 151.625C49.9182 151.434 50.1628 151.179 50.5872 150.857C51.0115 150.539 51.6106 150.377 52.3944 150.377L52.3994 150.387ZM40.6775 142.924H50.6371C50.5073 141.202 50.053 139.926 49.2692 139.099C48.4205 138.204 47.2174 137.759 45.6548 137.759C44.222 137.759 43.0488 138.204 42.1402 139.099C41.2266 139.994 40.7374 141.266 40.6775 142.924Z" fill="white"/>
<path d="M61.3403 125.321H64.8549C65.7635 125.321 66.5473 125.625 67.1963 126.231C67.8453 126.838 68.1748 127.586 68.1748 128.481V158.237H61.3403V125.326V125.321Z" fill="white"/>
<path d="M89.7118 150.387H94.5942C93.8753 153.067 92.5125 155.107 90.4956 156.511C88.4787 157.978 85.9376 158.711 82.8773 158.711C79.168 158.711 76.2675 157.533 74.1857 155.17C72.0989 152.877 71.0605 149.59 71.0605 145.315C71.0605 141.041 72.069 138.043 74.0859 135.749C76.1677 133.391 79.0682 132.208 82.7775 132.208C86.6814 132.208 89.7118 133.357 91.8585 135.651C93.9402 138.013 94.9836 141.295 94.9836 145.506V146.558C94.9836 146.875 94.9487 147.1 94.8838 147.228H77.9899C78.0548 149.204 78.544 150.671 79.4526 151.629C80.2963 152.652 81.5693 153.16 83.2617 153.16C84.37 153.16 85.3136 152.935 86.0924 152.49C86.2871 152.427 86.4668 152.314 86.6315 152.153C86.7913 151.996 86.971 151.82 87.1707 151.625C87.2356 151.434 87.4802 151.179 87.9046 150.857C88.3289 150.539 88.928 150.377 89.7118 150.377V150.387ZM77.9948 142.924H87.9545C87.8247 141.202 87.3704 139.926 86.5866 139.099C85.7379 138.204 84.5348 137.759 82.9722 137.759C81.5394 137.759 80.3662 138.204 79.4576 139.099C78.544 139.994 78.0548 141.266 77.9948 142.924Z" fill="white"/>
<path d="M97.7743 149.81H104.414C104.479 151.087 104.968 152.045 105.877 152.681C106.855 153.322 108.153 153.64 109.781 153.64C110.954 153.64 111.962 153.415 112.806 152.97C113.59 152.524 113.979 151.918 113.979 151.15C113.979 150.001 112.611 149.14 109.876 148.568C108.702 148.377 107.824 148.186 107.24 147.995C103.79 147.169 101.479 146.176 100.305 145.032C99.0024 143.882 98.3534 142.351 98.3534 140.439C98.3534 138.013 99.2969 136.008 101.184 134.414C103.136 132.946 105.677 132.213 108.802 132.213C112.187 132.213 114.888 132.946 116.91 134.414C118.797 136.008 119.805 138.082 119.935 140.63H115.737C114.498 140.63 113.555 140.087 112.906 139.001C112.646 138.747 112.382 138.493 112.122 138.238C111.343 137.666 110.265 137.377 108.897 137.377C107.529 137.377 106.616 137.568 105.967 137.95C105.383 138.331 105.088 138.908 105.088 139.671C105.088 140.693 106.78 141.554 110.165 142.254C110.555 142.381 110.899 142.479 111.189 142.542C111.483 142.606 111.758 142.64 112.017 142.64C115.337 143.471 117.649 144.425 118.952 145.511C120.19 146.66 120.809 148.191 120.809 150.103C120.809 152.911 119.765 155.077 117.684 156.608C115.732 158.012 112.801 158.711 108.892 158.711C104.983 158.711 102.412 157.978 100.59 156.511C98.7028 155.043 97.7593 152.906 97.7593 150.099V149.81H97.7743Z" fill="white"/>
<path d="M135.716 158.232C133.569 158.359 131.237 158.33 128.731 158.134C126.225 157.944 124.972 156.378 124.972 153.449V125.321H128.487C129.33 125.321 130.079 125.639 130.733 126.28C131.382 126.921 131.712 127.684 131.712 128.579V132.883H135.716V134.223C135.716 135.181 135.391 135.959 134.737 136.566C134.088 137.172 133.304 137.475 132.396 137.475H131.712V151.634C131.712 152.72 132.361 153.263 133.664 153.263H135.716V158.237V158.232Z" fill="white"/>
<path d="M141.687 132.78H145.201C146.11 132.78 146.893 133.098 147.542 133.739C148.191 134.379 148.521 135.142 148.521 136.037V158.232H141.687V132.785V132.78Z" fill="white"/>
<path d="M170.212 157.181C168.844 157.885 167.397 158.31 165.869 158.472C164.336 158.628 162.988 158.711 161.815 158.711C159.469 158.711 157.422 158.09 155.665 156.848C153.907 155.606 153.029 153.547 153.029 150.676C153.029 147.996 153.828 146.083 155.42 144.934C157.013 143.784 159.05 143.021 161.526 142.64C161.85 142.64 162.24 142.591 162.699 142.498C163.153 142.4 163.677 142.322 164.261 142.259C167.127 141.877 168.56 141.046 168.56 139.769C168.56 138.81 168.056 138.189 167.047 137.906C166.039 137.617 165.11 137.475 164.261 137.475C163.348 137.475 162.534 137.602 161.82 137.857C161.101 138.111 160.582 138.59 160.258 139.29H153.713C153.972 137.314 154.886 135.685 156.449 134.409C158.206 132.941 160.712 132.208 163.967 132.208C167.611 132.208 170.347 132.814 172.169 134.027C174.056 135.304 175 137.089 175 139.383V148.088C175 150.641 174.526 152.632 173.582 154.07C172.639 155.503 171.515 156.54 170.212 157.181ZM168.65 145.413C167.736 145.858 166.468 146.274 164.841 146.655L162.594 147.135C161.421 147.453 160.577 147.868 160.053 148.377C159.599 149.081 159.369 149.781 159.369 150.48C159.369 151.439 159.664 152.202 160.248 152.774C160.832 153.287 161.68 153.542 162.789 153.542C164.611 153.542 166.044 153.033 167.087 152.011C168.126 150.994 168.65 149.59 168.65 147.8V145.408V145.413Z" fill="white"/>
<defs>
<filter id="filter0_b_169_12686" x="85.9429" y="11.4119" width="51.0674" height="54.3213" filterUnits="userSpaceOnUse" color-interpolation-filters="sRGB">
<feFlood flood-opacity="0" result="BackgroundImageFix"/>
<feGaussianBlur in="BackgroundImageFix" stdDeviation="2"/>
<feComposite in2="SourceAlpha" operator="in" result="effect1_backgroundBlur_169_12686"/>
<feBlend mode="normal" in="SourceGraphic" in2="effect1_backgroundBlur_169_12686" result="shape"/>
</filter>
<filter id="filter1_dddddd_169_12686" x="82.4083" y="1.33811" width="31.6888" height="31.6567" filterUnits="userSpaceOnUse" color-interpolation-filters="sRGB">
<feFlood flood-opacity="0" result="BackgroundImageFix"/>
<feColorMatrix in="SourceAlpha" type="matrix" values="0 0 0 0 0 0 0 0 0 0 0 0 0 0 0 0 0 0 127 0" result="hardAlpha"/>
<feOffset/>
<feGaussianBlur stdDeviation="0.177129"/>
<feColorMatrix type="matrix" values="0 0 0 0 0.945098 0 0 0 0 0.368627 0 0 0 0 0.133333 0 0 0 1 0"/>
<feBlend mode="normal" in2="BackgroundImageFix" result="effect1_dropShadow_169_12686"/>
<feColorMatrix in="SourceAlpha" type="matrix" values="0 0 0 0 0 0 0 0 0 0 0 0 0 0 0 0 0 0 127 0" result="hardAlpha"/>
<feOffset/>
<feGaussianBlur stdDeviation="0.354257"/>
<feColorMatrix type="matrix" values="0 0 0 0 0.945098 0 0 0 0 0.368627 0 0 0 0 0.133333 0 0 0 1 0"/>
<feBlend mode="normal" in2="effect1_dropShadow_169_12686" result="effect2_dropShadow_169_12686"/>
<feColorMatrix in="SourceAlpha" type="matrix" values="0 0 0 0 0 0 0 0 0 0 0 0 0 0 0 0 0 0 127 0" result="hardAlpha"/>
<feOffset/>
<feGaussianBlur stdDeviation="1.2399"/>
<feColorMatrix type="matrix" values="0 0 0 0 0.945098 0 0 0 0 0.368627 0 0 0 0 0.133333 0 0 0 1 0"/>
<feBlend mode="normal" in2="effect2_dropShadow_169_12686" result="effect3_dropShadow_169_12686"/>
<feColorMatrix in="SourceAlpha" type="matrix" values="0 0 0 0 0 0 0 0 0 0 0 0 0 0 0 0 0 0 127 0" result="hardAlpha"/>
<feOffset/>
<feGaussianBlur stdDeviation="2.4798"/>
<feColorMatrix type="matrix" values="0 0 0 0 0.945098 0 0 0 0 0.368627 0 0 0 0 0.133333 0 0 0 1 0"/>
<feBlend mode="normal" in2="effect3_dropShadow_169_12686" result="effect4_dropShadow_169_12686"/>
<feColorMatrix in="SourceAlpha" type="matrix" values="0 0 0 0 0 0 0 0 0 0 0 0 0 0 0 0 0 0 127 0" result="hardAlpha"/>
<feOffset/>
<feGaussianBlur stdDeviation="4.25109"/>
<feColorMatrix type="matrix" values="0 0 0 0 0.945098 0 0 0 0 0.368627 0 0 0 0 0.133333 0 0 0 1 0"/>
<feBlend mode="normal" in2="effect4_dropShadow_169_12686" result="effect5_dropShadow_169_12686"/>
<feColorMatrix in="SourceAlpha" type="matrix" values="0 0 0 0 0 0 0 0 0 0 0 0 0 0 0 0 0 0 127 0" result="hardAlpha"/>
<feOffset/>
<feGaussianBlur stdDeviation="7.4394"/>
<feColorMatrix type="matrix" values="0 0 0 0 0.945098 0 0 0 0 0.368627 0 0 0 0 0.133333 0 0 0 1 0"/>
<feBlend mode="normal" in2="effect5_dropShadow_169_12686" result="effect6_dropShadow_169_12686"/>
<feBlend mode="normal" in="SourceGraphic" in2="effect6_dropShadow_169_12686" result="shape"/>
</filter>
<filter id="filter2_dddddd_169_12686" x="102.72" y="11.2893" width="31.8723" height="31.8521" filterUnits="userSpaceOnUse" color-interpolation-filters="sRGB">
<feFlood flood-opacity="0" result="BackgroundImageFix"/>
<feColorMatrix in="SourceAlpha" type="matrix" values="0 0 0 0 0 0 0 0 0 0 0 0 0 0 0 0 0 0 127 0" result="hardAlpha"/>
<feOffset/>
<feGaussianBlur stdDeviation="0.178155"/>
<feColorMatrix type="matrix" values="0 0 0 0 0.945098 0 0 0 0 0.368627 0 0 0 0 0.133333 0 0 0 1 0"/>
<feBlend mode="normal" in2="BackgroundImageFix" result="effect1_dropShadow_169_12686"/>
<feColorMatrix in="SourceAlpha" type="matrix" values="0 0 0 0 0 0 0 0 0 0 0 0 0 0 0 0 0 0 127 0" result="hardAlpha"/>
<feOffset/>
<feGaussianBlur stdDeviation="0.356309"/>
<feColorMatrix type="matrix" values="0 0 0 0 0.945098 0 0 0 0 0.368627 0 0 0 0 0.133333 0 0 0 1 0"/>
<feBlend mode="normal" in2="effect1_dropShadow_169_12686" result="effect2_dropShadow_169_12686"/>
<feColorMatrix in="SourceAlpha" type="matrix" values="0 0 0 0 0 0 0 0 0 0 0 0 0 0 0 0 0 0 127 0" result="hardAlpha"/>
<feOffset/>
<feGaussianBlur stdDeviation="1.24708"/>
<feColorMatrix type="matrix" values="0 0 0 0 0.945098 0 0 0 0 0.368627 0 0 0 0 0.133333 0 0 0 1 0"/>
<feBlend mode="normal" in2="effect2_dropShadow_169_12686" result="effect3_dropShadow_169_12686"/>
<feColorMatrix in="SourceAlpha" type="matrix" values="0 0 0 0 0 0 0 0 0 0 0 0 0 0 0 0 0 0 127 0" result="hardAlpha"/>
<feOffset/>
<feGaussianBlur stdDeviation="2.49416"/>
<feColorMatrix type="matrix" values="0 0 0 0 0.945098 0 0 0 0 0.368627 0 0 0 0 0.133333 0 0 0 1 0"/>
<feBlend mode="normal" in2="effect3_dropShadow_169_12686" result="effect4_dropShadow_169_12686"/>
<feColorMatrix in="SourceAlpha" type="matrix" values="0 0 0 0 0 0 0 0 0 0 0 0 0 0 0 0 0 0 127 0" result="hardAlpha"/>
<feOffset/>
<feGaussianBlur stdDeviation="4.27571"/>
<feColorMatrix type="matrix" values="0 0 0 0 0.945098 0 0 0 0 0.368627 0 0 0 0 0.133333 0 0 0 1 0"/>
<feBlend mode="normal" in2="effect4_dropShadow_169_12686" result="effect5_dropShadow_169_12686"/>
<feColorMatrix in="SourceAlpha" type="matrix" values="0 0 0 0 0 0 0 0 0 0 0 0 0 0 0 0 0 0 127 0" result="hardAlpha"/>
<feOffset/>
<feGaussianBlur stdDeviation="7.48249"/>
<feColorMatrix type="matrix" values="0 0 0 0 0.945098 0 0 0 0 0.368627 0 0 0 0 0.133333 0 0 0 1 0"/>
<feBlend mode="normal" in2="effect5_dropShadow_169_12686" result="effect6_dropShadow_169_12686"/>
<feBlend mode="normal" in="SourceGraphic" in2="effect6_dropShadow_169_12686" result="shape"/>
</filter>
<filter id="filter3_dddddd_169_12686" x="115.119" y="30.6279" width="31.2577" height="31.2358" filterUnits="userSpaceOnUse" color-interpolation-filters="sRGB">
<feFlood flood-opacity="0" result="BackgroundImageFix"/>
<feColorMatrix in="SourceAlpha" type="matrix" values="0 0 0 0 0 0 0 0 0 0 0 0 0 0 0 0 0 0 127 0" result="hardAlpha"/>
<feOffset/>
<feGaussianBlur stdDeviation="0.17472"/>
<feColorMatrix type="matrix" values="0 0 0 0 0.945098 0 0 0 0 0.368627 0 0 0 0 0.133333 0 0 0 1 0"/>
<feBlend mode="normal" in2="BackgroundImageFix" result="effect1_dropShadow_169_12686"/>
<feColorMatrix in="SourceAlpha" type="matrix" values="0 0 0 0 0 0 0 0 0 0 0 0 0 0 0 0 0 0 127 0" result="hardAlpha"/>
<feOffset/>
<feGaussianBlur stdDeviation="0.349439"/>
<feColorMatrix type="matrix" values="0 0 0 0 0.945098 0 0 0 0 0.368627 0 0 0 0 0.133333 0 0 0 1 0"/>
<feBlend mode="normal" in2="effect1_dropShadow_169_12686" result="effect2_dropShadow_169_12686"/>
<feColorMatrix in="SourceAlpha" type="matrix" values="0 0 0 0 0 0 0 0 0 0 0 0 0 0 0 0 0 0 127 0" result="hardAlpha"/>
<feOffset/>
<feGaussianBlur stdDeviation="1.22304"/>
<feColorMatrix type="matrix" values="0 0 0 0 0.945098 0 0 0 0 0.368627 0 0 0 0 0.133333 0 0 0 1 0"/>
<feBlend mode="normal" in2="effect2_dropShadow_169_12686" result="effect3_dropShadow_169_12686"/>
<feColorMatrix in="SourceAlpha" type="matrix" values="0 0 0 0 0 0 0 0 0 0 0 0 0 0 0 0 0 0 127 0" result="hardAlpha"/>
<feOffset/>
<feGaussianBlur stdDeviation="2.44607"/>
<feColorMatrix type="matrix" values="0 0 0 0 0.945098 0 0 0 0 0.368627 0 0 0 0 0.133333 0 0 0 1 0"/>
<feBlend mode="normal" in2="effect3_dropShadow_169_12686" result="effect4_dropShadow_169_12686"/>
<feColorMatrix in="SourceAlpha" type="matrix" values="0 0 0 0 0 0 0 0 0 0 0 0 0 0 0 0 0 0 127 0" result="hardAlpha"/>
<feOffset/>
<feGaussianBlur stdDeviation="4.19327"/>
<feColorMatrix type="matrix" values="0 0 0 0 0.945098 0 0 0 0 0.368627 0 0 0 0 0.133333 0 0 0 1 0"/>
<feBlend mode="normal" in2="effect4_dropShadow_169_12686" result="effect5_dropShadow_169_12686"/>
<feColorMatrix in="SourceAlpha" type="matrix" values="0 0 0 0 0 0 0 0 0 0 0 0 0 0 0 0 0 0 127 0" result="hardAlpha"/>
<feOffset/>
<feGaussianBlur stdDeviation="7.33822"/>
<feColorMatrix type="matrix" values="0 0 0 0 0.945098 0 0 0 0 0.368627 0 0 0 0 0.133333 0 0 0 1 0"/>
<feBlend mode="normal" in2="effect5_dropShadow_169_12686" result="effect6_dropShadow_169_12686"/>
<feBlend mode="normal" in="SourceGraphic" in2="effect6_dropShadow_169_12686" result="shape"/>
</filter>
<filter id="filter4_dddddd_169_12686" x="89.9085" y="3.73562" width="31.707" height="31.6544" filterUnits="userSpaceOnUse" color-interpolation-filters="sRGB">
<feFlood flood-opacity="0" result="BackgroundImageFix"/>
<feColorMatrix in="SourceAlpha" type="matrix" values="0 0 0 0 0 0 0 0 0 0 0 0 0 0 0 0 0 0 127 0" result="hardAlpha"/>
<feOffset/>
<feGaussianBlur stdDeviation="0.177231"/>
<feColorMatrix type="matrix" values="0 0 0 0 0.945098 0 0 0 0 0.368627 0 0 0 0 0.133333 0 0 0 1 0"/>
<feBlend mode="normal" in2="BackgroundImageFix" result="effect1_dropShadow_169_12686"/>
<feColorMatrix in="SourceAlpha" type="matrix" values="0 0 0 0 0 0 0 0 0 0 0 0 0 0 0 0 0 0 127 0" result="hardAlpha"/>
<feOffset/>
<feGaussianBlur stdDeviation="0.354463"/>
<feColorMatrix type="matrix" values="0 0 0 0 0.945098 0 0 0 0 0.368627 0 0 0 0 0.133333 0 0 0 1 0"/>
<feBlend mode="normal" in2="effect1_dropShadow_169_12686" result="effect2_dropShadow_169_12686"/>
<feColorMatrix in="SourceAlpha" type="matrix" values="0 0 0 0 0 0 0 0 0 0 0 0 0 0 0 0 0 0 127 0" result="hardAlpha"/>
<feOffset/>
<feGaussianBlur stdDeviation="1.24062"/>
<feColorMatrix type="matrix" values="0 0 0 0 0.945098 0 0 0 0 0.368627 0 0 0 0 0.133333 0 0 0 1 0"/>
<feBlend mode="normal" in2="effect2_dropShadow_169_12686" result="effect3_dropShadow_169_12686"/>
<feColorMatrix in="SourceAlpha" type="matrix" values="0 0 0 0 0 0 0 0 0 0 0 0 0 0 0 0 0 0 127 0" result="hardAlpha"/>
<feOffset/>
<feGaussianBlur stdDeviation="2.48124"/>
<feColorMatrix type="matrix" values="0 0 0 0 0.945098 0 0 0 0 0.368627 0 0 0 0 0.133333 0 0 0 1 0"/>
<feBlend mode="normal" in2="effect3_dropShadow_169_12686" result="effect4_dropShadow_169_12686"/>
<feColorMatrix in="SourceAlpha" type="matrix" values="0 0 0 0 0 0 0 0 0 0 0 0 0 0 0 0 0 0 127 0" result="hardAlpha"/>
<feOffset/>
<feGaussianBlur stdDeviation="4.25355"/>
<feColorMatrix type="matrix" values="0 0 0 0 0.945098 0 0 0 0 0.368627 0 0 0 0 0.133333 0 0 0 1 0"/>
<feBlend mode="normal" in2="effect4_dropShadow_169_12686" result="effect5_dropShadow_169_12686"/>
<feColorMatrix in="SourceAlpha" type="matrix" values="0 0 0 0 0 0 0 0 0 0 0 0 0 0 0 0 0 0 127 0" result="hardAlpha"/>
<feOffset/>
<feGaussianBlur stdDeviation="7.44371"/>
<feColorMatrix type="matrix" values="0 0 0 0 0.945098 0 0 0 0 0.368627 0 0 0 0 0.133333 0 0 0 1 0"/>
<feBlend mode="normal" in2="effect5_dropShadow_169_12686" result="effect6_dropShadow_169_12686"/>
<feBlend mode="normal" in="SourceGraphic" in2="effect6_dropShadow_169_12686" result="shape"/>
</filter>
<filter id="filter5_dddddd_169_12686" x="96.8091" y="6.80436" width="31.6225" height="31.5684" filterUnits="userSpaceOnUse" color-interpolation-filters="sRGB">
<feFlood flood-opacity="0" result="BackgroundImageFix"/>
<feColorMatrix in="SourceAlpha" type="matrix" values="0 0 0 0 0 0 0 0 0 0 0 0 0 0 0 0 0 0 127 0" result="hardAlpha"/>
<feOffset/>
<feGaussianBlur stdDeviation="0.176757"/>
<feColorMatrix type="matrix" values="0 0 0 0 0.945098 0 0 0 0 0.368627 0 0 0 0 0.133333 0 0 0 1 0"/>
<feBlend mode="normal" in2="BackgroundImageFix" result="effect1_dropShadow_169_12686"/>
<feColorMatrix in="SourceAlpha" type="matrix" values="0 0 0 0 0 0 0 0 0 0 0 0 0 0 0 0 0 0 127 0" result="hardAlpha"/>
<feOffset/>
<feGaussianBlur stdDeviation="0.353515"/>
<feColorMatrix type="matrix" values="0 0 0 0 0.945098 0 0 0 0 0.368627 0 0 0 0 0.133333 0 0 0 1 0"/>
<feBlend mode="normal" in2="effect1_dropShadow_169_12686" result="effect2_dropShadow_169_12686"/>
<feColorMatrix in="SourceAlpha" type="matrix" values="0 0 0 0 0 0 0 0 0 0 0 0 0 0 0 0 0 0 127 0" result="hardAlpha"/>
<feOffset/>
<feGaussianBlur stdDeviation="1.2373"/>
<feColorMatrix type="matrix" values="0 0 0 0 0.945098 0 0 0 0 0.368627 0 0 0 0 0.133333 0 0 0 1 0"/>
<feBlend mode="normal" in2="effect2_dropShadow_169_12686" result="effect3_dropShadow_169_12686"/>
<feColorMatrix in="SourceAlpha" type="matrix" values="0 0 0 0 0 0 0 0 0 0 0 0 0 0 0 0 0 0 127 0" result="hardAlpha"/>
<feOffset/>
<feGaussianBlur stdDeviation="2.4746"/>
<feColorMatrix type="matrix" values="0 0 0 0 0.945098 0 0 0 0 0.368627 0 0 0 0 0.133333 0 0 0 1 0"/>
<feBlend mode="normal" in2="effect3_dropShadow_169_12686" result="effect4_dropShadow_169_12686"/>
<feColorMatrix in="SourceAlpha" type="matrix" values="0 0 0 0 0 0 0 0 0 0 0 0 0 0 0 0 0 0 127 0" result="hardAlpha"/>
<feOffset/>
<feGaussianBlur stdDeviation="4.24218"/>
<feColorMatrix type="matrix" values="0 0 0 0 0.945098 0 0 0 0 0.368627 0 0 0 0 0.133333 0 0 0 1 0"/>
<feBlend mode="normal" in2="effect4_dropShadow_169_12686" result="effect5_dropShadow_169_12686"/>
<feColorMatrix in="SourceAlpha" type="matrix" values="0 0 0 0 0 0 0 0 0 0 0 0 0 0 0 0 0 0 127 0" result="hardAlpha"/>
<feOffset/>
<feGaussianBlur stdDeviation="7.42381"/>
<feColorMatrix type="matrix" values="0 0 0 0 0.945098 0 0 0 0 0.368627 0 0 0 0 0.133333 0 0 0 1 0"/>
<feBlend mode="normal" in2="effect5_dropShadow_169_12686" result="effect6_dropShadow_169_12686"/>
<feBlend mode="normal" in="SourceGraphic" in2="effect6_dropShadow_169_12686" result="shape"/>
</filter>
<filter id="filter6_dddddd_169_12686" x="112.586" y="23.2044" width="31.4015" height="31.3954" filterUnits="userSpaceOnUse" color-interpolation-filters="sRGB">
<feFlood flood-opacity="0" result="BackgroundImageFix"/>
<feColorMatrix in="SourceAlpha" type="matrix" values="0 0 0 0 0 0 0 0 0 0 0 0 0 0 0 0 0 0 127 0" result="hardAlpha"/>
<feOffset/>
<feGaussianBlur stdDeviation="0.175523"/>
<feColorMatrix type="matrix" values="0 0 0 0 0.945098 0 0 0 0 0.368627 0 0 0 0 0.133333 0 0 0 1 0"/>
<feBlend mode="normal" in2="BackgroundImageFix" result="effect1_dropShadow_169_12686"/>
<feColorMatrix in="SourceAlpha" type="matrix" values="0 0 0 0 0 0 0 0 0 0 0 0 0 0 0 0 0 0 127 0" result="hardAlpha"/>
<feOffset/>
<feGaussianBlur stdDeviation="0.351047"/>
<feColorMatrix type="matrix" values="0 0 0 0 0.945098 0 0 0 0 0.368627 0 0 0 0 0.133333 0 0 0 1 0"/>
<feBlend mode="normal" in2="effect1_dropShadow_169_12686" result="effect2_dropShadow_169_12686"/>
<feColorMatrix in="SourceAlpha" type="matrix" values="0 0 0 0 0 0 0 0 0 0 0 0 0 0 0 0 0 0 127 0" result="hardAlpha"/>
<feOffset/>
<feGaussianBlur stdDeviation="1.22866"/>
<feColorMatrix type="matrix" values="0 0 0 0 0.945098 0 0 0 0 0.368627 0 0 0 0 0.133333 0 0 0 1 0"/>
<feBlend mode="normal" in2="effect2_dropShadow_169_12686" result="effect3_dropShadow_169_12686"/>
<feColorMatrix in="SourceAlpha" type="matrix" values="0 0 0 0 0 0 0 0 0 0 0 0 0 0 0 0 0 0 127 0" result="hardAlpha"/>
<feOffset/>
<feGaussianBlur stdDeviation="2.45733"/>
<feColorMatrix type="matrix" values="0 0 0 0 0.945098 0 0 0 0 0.368627 0 0 0 0 0.133333 0 0 0 1 0"/>
<feBlend mode="normal" in2="effect3_dropShadow_169_12686" result="effect4_dropShadow_169_12686"/>
<feColorMatrix in="SourceAlpha" type="matrix" values="0 0 0 0 0 0 0 0 0 0 0 0 0 0 0 0 0 0 127 0" result="hardAlpha"/>
<feOffset/>
<feGaussianBlur stdDeviation="4.21256"/>
<feColorMatrix type="matrix" values="0 0 0 0 0.945098 0 0 0 0 0.368627 0 0 0 0 0.133333 0 0 0 1 0"/>
<feBlend mode="normal" in2="effect4_dropShadow_169_12686" result="effect5_dropShadow_169_12686"/>
<feColorMatrix in="SourceAlpha" type="matrix" values="0 0 0 0 0 0 0 0 0 0 0 0 0 0 0 0 0 0 127 0" result="hardAlpha"/>
<feOffset/>
<feGaussianBlur stdDeviation="7.37198"/>
<feColorMatrix type="matrix" values="0 0 0 0 0.945098 0 0 0 0 0.368627 0 0 0 0 0.133333 0 0 0 1 0"/>
<feBlend mode="normal" in2="effect5_dropShadow_169_12686" result="effect6_dropShadow_169_12686"/>
<feBlend mode="normal" in="SourceGraphic" in2="effect6_dropShadow_169_12686" result="shape"/>
</filter>
<filter id="filter7_dddddd_169_12686" x="116.467" y="38.0266" width="31.1869" height="31.1255" filterUnits="userSpaceOnUse" color-interpolation-filters="sRGB">
<feFlood flood-opacity="0" result="BackgroundImageFix"/>
<feColorMatrix in="SourceAlpha" type="matrix" values="0 0 0 0 0 0 0 0 0 0 0 0 0 0 0 0 0 0 127 0" result="hardAlpha"/>
<feOffset/>
<feGaussianBlur stdDeviation="0.174325"/>
<feColorMatrix type="matrix" values="0 0 0 0 0.945098 0 0 0 0 0.368627 0 0 0 0 0.133333 0 0 0 1 0"/>
<feBlend mode="normal" in2="BackgroundImageFix" result="effect1_dropShadow_169_12686"/>
<feColorMatrix in="SourceAlpha" type="matrix" values="0 0 0 0 0 0 0 0 0 0 0 0 0 0 0 0 0 0 127 0" result="hardAlpha"/>
<feOffset/>
<feGaussianBlur stdDeviation="0.348649"/>
<feColorMatrix type="matrix" values="0 0 0 0 0.945098 0 0 0 0 0.368627 0 0 0 0 0.133333 0 0 0 1 0"/>
<feBlend mode="normal" in2="effect1_dropShadow_169_12686" result="effect2_dropShadow_169_12686"/>
<feColorMatrix in="SourceAlpha" type="matrix" values="0 0 0 0 0 0 0 0 0 0 0 0 0 0 0 0 0 0 127 0" result="hardAlpha"/>
<feOffset/>
<feGaussianBlur stdDeviation="1.22027"/>
<feColorMatrix type="matrix" values="0 0 0 0 0.945098 0 0 0 0 0.368627 0 0 0 0 0.133333 0 0 0 1 0"/>
<feBlend mode="normal" in2="effect2_dropShadow_169_12686" result="effect3_dropShadow_169_12686"/>
<feColorMatrix in="SourceAlpha" type="matrix" values="0 0 0 0 0 0 0 0 0 0 0 0 0 0 0 0 0 0 127 0" result="hardAlpha"/>
<feOffset/>
<feGaussianBlur stdDeviation="2.44055"/>
<feColorMatrix type="matrix" values="0 0 0 0 0.945098 0 0 0 0 0.368627 0 0 0 0 0.133333 0 0 0 1 0"/>
<feBlend mode="normal" in2="effect3_dropShadow_169_12686" result="effect4_dropShadow_169_12686"/>
<feColorMatrix in="SourceAlpha" type="matrix" values="0 0 0 0 0 0 0 0 0 0 0 0 0 0 0 0 0 0 127 0" result="hardAlpha"/>
<feOffset/>
<feGaussianBlur stdDeviation="4.18379"/>
<feColorMatrix type="matrix" values="0 0 0 0 0.945098 0 0 0 0 0.368627 0 0 0 0 0.133333 0 0 0 1 0"/>
<feBlend mode="normal" in2="effect4_dropShadow_169_12686" result="effect5_dropShadow_169_12686"/>
<feColorMatrix in="SourceAlpha" type="matrix" values="0 0 0 0 0 0 0 0 0 0 0 0 0 0 0 0 0 0 127 0" result="hardAlpha"/>
<feOffset/>
<feGaussianBlur stdDeviation="7.32164"/>
<feColorMatrix type="matrix" values="0 0 0 0 0.945098 0 0 0 0 0.368627 0 0 0 0 0.133333 0 0 0 1 0"/>
<feBlend mode="normal" in2="effect5_dropShadow_169_12686" result="effect6_dropShadow_169_12686"/>
<feBlend mode="normal" in="SourceGraphic" in2="effect6_dropShadow_169_12686" result="shape"/>
</filter>
<filter id="filter8_dddddd_169_12686" x="116.438" y="45.2174" width="31.1948" height="31.1627" filterUnits="userSpaceOnUse" color-interpolation-filters="sRGB">
<feFlood flood-opacity="0" result="BackgroundImageFix"/>
<feColorMatrix in="SourceAlpha" type="matrix" values="0 0 0 0 0 0 0 0 0 0 0 0 0 0 0 0 0 0 127 0" result="hardAlpha"/>
<feOffset/>
<feGaussianBlur stdDeviation="0.174369"/>
<feColorMatrix type="matrix" values="0 0 0 0 0.945098 0 0 0 0 0.368627 0 0 0 0 0.133333 0 0 0 1 0"/>
<feBlend mode="normal" in2="BackgroundImageFix" result="effect1_dropShadow_169_12686"/>
<feColorMatrix in="SourceAlpha" type="matrix" values="0 0 0 0 0 0 0 0 0 0 0 0 0 0 0 0 0 0 127 0" result="hardAlpha"/>
<feOffset/>
<feGaussianBlur stdDeviation="0.348737"/>
<feColorMatrix type="matrix" values="0 0 0 0 0.945098 0 0 0 0 0.368627 0 0 0 0 0.133333 0 0 0 1 0"/>
<feBlend mode="normal" in2="effect1_dropShadow_169_12686" result="effect2_dropShadow_169_12686"/>
<feColorMatrix in="SourceAlpha" type="matrix" values="0 0 0 0 0 0 0 0 0 0 0 0 0 0 0 0 0 0 127 0" result="hardAlpha"/>
<feOffset/>
<feGaussianBlur stdDeviation="1.22058"/>
<feColorMatrix type="matrix" values="0 0 0 0 0.945098 0 0 0 0 0.368627 0 0 0 0 0.133333 0 0 0 1 0"/>
<feBlend mode="normal" in2="effect2_dropShadow_169_12686" result="effect3_dropShadow_169_12686"/>
<feColorMatrix in="SourceAlpha" type="matrix" values="0 0 0 0 0 0 0 0 0 0 0 0 0 0 0 0 0 0 127 0" result="hardAlpha"/>
<feOffset/>
<feGaussianBlur stdDeviation="2.44116"/>
<feColorMatrix type="matrix" values="0 0 0 0 0.945098 0 0 0 0 0.368627 0 0 0 0 0.133333 0 0 0 1 0"/>
<feBlend mode="normal" in2="effect3_dropShadow_169_12686" result="effect4_dropShadow_169_12686"/>
<feColorMatrix in="SourceAlpha" type="matrix" values="0 0 0 0 0 0 0 0 0 0 0 0 0 0 0 0 0 0 127 0" result="hardAlpha"/>
<feOffset/>
<feGaussianBlur stdDeviation="4.18485"/>
<feColorMatrix type="matrix" values="0 0 0 0 0.945098 0 0 0 0 0.368627 0 0 0 0 0.133333 0 0 0 1 0"/>
<feBlend mode="normal" in2="effect4_dropShadow_169_12686" result="effect5_dropShadow_169_12686"/>
<feColorMatrix in="SourceAlpha" type="matrix" values="0 0 0 0 0 0 0 0 0 0 0 0 0 0 0 0 0 0 127 0" result="hardAlpha"/>
<feOffset/>
<feGaussianBlur stdDeviation="7.32348"/>
<feColorMatrix type="matrix" values="0 0 0 0 0.945098 0 0 0 0 0.368627 0 0 0 0 0.133333 0 0 0 1 0"/>
<feBlend mode="normal" in2="effect5_dropShadow_169_12686" result="effect6_dropShadow_169_12686"/>
<feBlend mode="normal" in="SourceGraphic" in2="effect6_dropShadow_169_12686" result="shape"/>
</filter>
<filter id="filter9_dddddd_169_12686" x="75.2145" y="0.683517" width="31.3683" height="31.3293" filterUnits="userSpaceOnUse" color-interpolation-filters="sRGB">
<feFlood flood-opacity="0" result="BackgroundImageFix"/>
<feColorMatrix in="SourceAlpha" type="matrix" values="0 0 0 0 0 0 0 0 0 0 0 0 0 0 0 0 0 0 127 0" result="hardAlpha"/>
<feOffset/>
<feGaussianBlur stdDeviation="0.175337"/>
<feColorMatrix type="matrix" values="0 0 0 0 0.945098 0 0 0 0 0.368627 0 0 0 0 0.133333 0 0 0 1 0"/>
<feBlend mode="normal" in2="BackgroundImageFix" result="effect1_dropShadow_169_12686"/>
<feColorMatrix in="SourceAlpha" type="matrix" values="0 0 0 0 0 0 0 0 0 0 0 0 0 0 0 0 0 0 127 0" result="hardAlpha"/>
<feOffset/>
<feGaussianBlur stdDeviation="0.350675"/>
<feColorMatrix type="matrix" values="0 0 0 0 0.945098 0 0 0 0 0.368627 0 0 0 0 0.133333 0 0 0 1 0"/>
<feBlend mode="normal" in2="effect1_dropShadow_169_12686" result="effect2_dropShadow_169_12686"/>
<feColorMatrix in="SourceAlpha" type="matrix" values="0 0 0 0 0 0 0 0 0 0 0 0 0 0 0 0 0 0 127 0" result="hardAlpha"/>
<feOffset/>
<feGaussianBlur stdDeviation="1.22736"/>
<feColorMatrix type="matrix" values="0 0 0 0 0.945098 0 0 0 0 0.368627 0 0 0 0 0.133333 0 0 0 1 0"/>
<feBlend mode="normal" in2="effect2_dropShadow_169_12686" result="effect3_dropShadow_169_12686"/>
<feColorMatrix in="SourceAlpha" type="matrix" values="0 0 0 0 0 0 0 0 0 0 0 0 0 0 0 0 0 0 127 0" result="hardAlpha"/>
<feOffset/>
<feGaussianBlur stdDeviation="2.45472"/>
<feColorMatrix type="matrix" values="0 0 0 0 0.945098 0 0 0 0 0.368627 0 0 0 0 0.133333 0 0 0 1 0"/>
<feBlend mode="normal" in2="effect3_dropShadow_169_12686" result="effect4_dropShadow_169_12686"/>
<feColorMatrix in="SourceAlpha" type="matrix" values="0 0 0 0 0 0 0 0 0 0 0 0 0 0 0 0 0 0 127 0" result="hardAlpha"/>
<feOffset/>
<feGaussianBlur stdDeviation="4.2081"/>
<feColorMatrix type="matrix" values="0 0 0 0 0.945098 0 0 0 0 0.368627 0 0 0 0 0.133333 0 0 0 1 0"/>
<feBlend mode="normal" in2="effect4_dropShadow_169_12686" result="effect5_dropShadow_169_12686"/>
<feColorMatrix in="SourceAlpha" type="matrix" values="0 0 0 0 0 0 0 0 0 0 0 0 0 0 0 0 0 0 127 0" result="hardAlpha"/>
<feOffset/>
<feGaussianBlur stdDeviation="7.36417"/>
<feColorMatrix type="matrix" values="0 0 0 0 0.945098 0 0 0 0 0.368627 0 0 0 0 0.133333 0 0 0 1 0"/>
<feBlend mode="normal" in2="effect5_dropShadow_169_12686" result="effect6_dropShadow_169_12686"/>
<feBlend mode="normal" in="SourceGraphic" in2="effect6_dropShadow_169_12686" result="shape"/>
</filter>
<filter id="filter10_dddddd_169_12686" x="108.08" y="16.5523" width="31.9234" height="31.9051" filterUnits="userSpaceOnUse" color-interpolation-filters="sRGB">
<feFlood flood-opacity="0" result="BackgroundImageFix"/>
<feColorMatrix in="SourceAlpha" type="matrix" values="0 0 0 0 0 0 0 0 0 0 0 0 0 0 0 0 0 0 127 0" result="hardAlpha"/>
<feOffset/>
<feGaussianBlur stdDeviation="0.178441"/>
<feColorMatrix type="matrix" values="0 0 0 0 0.945098 0 0 0 0 0.368627 0 0 0 0 0.133333 0 0 0 1 0"/>
<feBlend mode="normal" in2="BackgroundImageFix" result="effect1_dropShadow_169_12686"/>
<feColorMatrix in="SourceAlpha" type="matrix" values="0 0 0 0 0 0 0 0 0 0 0 0 0 0 0 0 0 0 127 0" result="hardAlpha"/>
<feOffset/>
<feGaussianBlur stdDeviation="0.356882"/>
<feColorMatrix type="matrix" values="0 0 0 0 0.945098 0 0 0 0 0.368627 0 0 0 0 0.133333 0 0 0 1 0"/>
<feBlend mode="normal" in2="effect1_dropShadow_169_12686" result="effect2_dropShadow_169_12686"/>
<feColorMatrix in="SourceAlpha" type="matrix" values="0 0 0 0 0 0 0 0 0 0 0 0 0 0 0 0 0 0 127 0" result="hardAlpha"/>
<feOffset/>
<feGaussianBlur stdDeviation="1.24909"/>
<feColorMatrix type="matrix" values="0 0 0 0 0.945098 0 0 0 0 0.368627 0 0 0 0 0.133333 0 0 0 1 0"/>
<feBlend mode="normal" in2="effect2_dropShadow_169_12686" result="effect3_dropShadow_169_12686"/>
<feColorMatrix in="SourceAlpha" type="matrix" values="0 0 0 0 0 0 0 0 0 0 0 0 0 0 0 0 0 0 127 0" result="hardAlpha"/>
<feOffset/>
<feGaussianBlur stdDeviation="2.49818"/>
<feColorMatrix type="matrix" values="0 0 0 0 0.945098 0 0 0 0 0.368627 0 0 0 0 0.133333 0 0 0 1 0"/>
<feBlend mode="normal" in2="effect3_dropShadow_169_12686" result="effect4_dropShadow_169_12686"/>
<feColorMatrix in="SourceAlpha" type="matrix" values="0 0 0 0 0 0 0 0 0 0 0 0 0 0 0 0 0 0 127 0" result="hardAlpha"/>
<feOffset/>
<feGaussianBlur stdDeviation="4.28259"/>
<feColorMatrix type="matrix" values="0 0 0 0 0.945098 0 0 0 0 0.368627 0 0 0 0 0.133333 0 0 0 1 0"/>
<feBlend mode="normal" in2="effect4_dropShadow_169_12686" result="effect5_dropShadow_169_12686"/>
<feColorMatrix in="SourceAlpha" type="matrix" values="0 0 0 0 0 0 0 0 0 0 0 0 0 0 0 0 0 0 127 0" result="hardAlpha"/>
<feOffset/>
<feGaussianBlur stdDeviation="7.49453"/>
<feColorMatrix type="matrix" values="0 0 0 0 0.945098 0 0 0 0 0.368627 0 0 0 0 0.133333 0 0 0 1 0"/>
<feBlend mode="normal" in2="effect5_dropShadow_169_12686" result="effect6_dropShadow_169_12686"/>
<feBlend mode="normal" in="SourceGraphic" in2="effect6_dropShadow_169_12686" result="shape"/>
</filter>
<filter id="filter11_dddddd_169_12686" x="89.0287" y="72.6636" width="112.15" height="110.583" filterUnits="userSpaceOnUse" color-interpolation-filters="sRGB">
<feFlood flood-opacity="0" result="BackgroundImageFix"/>
<feColorMatrix in="SourceAlpha" type="matrix" values="0 0 0 0 0 0 0 0 0 0 0 0 0 0 0 0 0 0 127 0" result="hardAlpha"/>
<feOffset/>
<feGaussianBlur stdDeviation="0.626879"/>
<feColorMatrix type="matrix" values="0 0 0 0 0.945098 0 0 0 0 0.368627 0 0 0 0 0.133333 0 0 0 1 0"/>
<feBlend mode="normal" in2="BackgroundImageFix" result="effect1_dropShadow_169_12686"/>
<feColorMatrix in="SourceAlpha" type="matrix" values="0 0 0 0 0 0 0 0 0 0 0 0 0 0 0 0 0 0 127 0" result="hardAlpha"/>
<feOffset/>
<feGaussianBlur stdDeviation="1.25376"/>
<feColorMatrix type="matrix" values="0 0 0 0 0.945098 0 0 0 0 0.368627 0 0 0 0 0.133333 0 0 0 1 0"/>
<feBlend mode="normal" in2="effect1_dropShadow_169_12686" result="effect2_dropShadow_169_12686"/>
<feColorMatrix in="SourceAlpha" type="matrix" values="0 0 0 0 0 0 0 0 0 0 0 0 0 0 0 0 0 0 127 0" result="hardAlpha"/>
<feOffset/>
<feGaussianBlur stdDeviation="4.38815"/>
<feColorMatrix type="matrix" values="0 0 0 0 0.945098 0 0 0 0 0.368627 0 0 0 0 0.133333 0 0 0 1 0"/>
<feBlend mode="normal" in2="effect2_dropShadow_169_12686" result="effect3_dropShadow_169_12686"/>
<feColorMatrix in="SourceAlpha" type="matrix" values="0 0 0 0 0 0 0 0 0 0 0 0 0 0 0 0 0 0 127 0" result="hardAlpha"/>
<feOffset/>
<feGaussianBlur stdDeviation="8.77631"/>
<feColorMatrix type="matrix" values="0 0 0 0 0.945098 0 0 0 0 0.368627 0 0 0 0 0.133333 0 0 0 1 0"/>
<feBlend mode="normal" in2="effect3_dropShadow_169_12686" result="effect4_dropShadow_169_12686"/>
<feColorMatrix in="SourceAlpha" type="matrix" values="0 0 0 0 0 0 0 0 0 0 0 0 0 0 0 0 0 0 127 0" result="hardAlpha"/>
<feOffset/>
<feGaussianBlur stdDeviation="15.0451"/>
<feColorMatrix type="matrix" values="0 0 0 0 0.945098 0 0 0 0 0.368627 0 0 0 0 0.133333 0 0 0 1 0"/>
<feBlend mode="normal" in2="effect4_dropShadow_169_12686" result="effect5_dropShadow_169_12686"/>
<feColorMatrix in="SourceAlpha" type="matrix" values="0 0 0 0 0 0 0 0 0 0 0 0 0 0 0 0 0 0 127 0" result="hardAlpha"/>
<feOffset/>
<feGaussianBlur stdDeviation="26.3289"/>
<feColorMatrix type="matrix" values="0 0 0 0 0.945098 0 0 0 0 0.368627 0 0 0 0 0.133333 0 0 0 1 0"/>
<feBlend mode="normal" in2="effect5_dropShadow_169_12686" result="effect6_dropShadow_169_12686"/>
<feBlend mode="normal" in="SourceGraphic" in2="effect6_dropShadow_169_12686" result="shape"/>
</filter>
</defs>
</svg>
