<svg width="254" height="611" viewBox="0 0 254 611" fill="none" xmlns="http://www.w3.org/2000/svg">
<path d="M135.386 15.6326C136.679 15.6256 137.732 16.6676 137.739 17.96L139.308 306.116L140.877 594.271C140.884 595.564 139.842 596.617 138.549 596.624C137.257 596.631 136.203 595.589 136.196 594.297L133.059 17.9855C133.052 16.6931 134.094 15.6396 135.386 15.6326Z" fill="white"/>
<g filter="url(#filter0_ddd_162_12682)">
<path d="M135.49 15.0128C136.749 15.0059 137.775 16.0209 137.782 17.2798L137.943 46.9313L138.105 76.5829C138.111 77.8418 137.096 78.8679 135.838 78.8747C134.579 78.8816 133.553 77.8666 133.546 76.6077L133.223 17.3046C133.216 16.0457 134.231 15.0196 135.49 15.0128Z" fill="white"/>
</g>
<g filter="url(#filter1_ddd_162_12682)">
<path d="M136.383 178.883C137.673 178.876 138.725 179.916 138.732 181.206L138.893 210.801L139.054 240.396C139.061 241.686 138.021 242.738 136.731 242.745C135.441 242.752 134.389 241.712 134.382 240.421L134.06 181.232C134.053 179.942 135.093 178.89 136.383 178.883Z" fill="white"/>
</g>
<g filter="url(#filter2_ddd_162_12682)">
<path d="M137.328 359.477C138.612 359.471 139.658 360.505 139.665 361.788L139.826 391.396L139.987 421.003C139.994 422.286 138.959 423.332 137.676 423.339C136.393 423.346 135.347 422.312 135.34 421.029L135.017 361.814C135.01 360.53 136.045 359.484 137.328 359.477Z" fill="white"/>
</g>
<g filter="url(#filter3_ddd_162_12682)">
<path d="M138.116 532.633C139.399 532.626 140.445 533.66 140.452 534.943L140.613 564.551L140.775 594.158C140.782 595.442 139.747 596.487 138.464 596.494C137.18 596.501 136.134 595.467 136.127 594.184L135.805 534.969C135.798 533.685 136.833 532.64 138.116 532.633Z" fill="white"/>
</g>
<g filter="url(#filter4_dddd_162_12682)">
<path d="M136.793 269.177C138.044 269.17 139.064 270.179 139.071 271.43L139.233 301.095L139.394 330.761C139.401 332.012 138.392 333.032 137.141 333.039C135.89 333.046 134.87 332.037 134.863 330.785L134.54 271.455C134.533 270.203 135.542 269.184 136.793 269.177Z" fill="#F15E22"/>
</g>
<g filter="url(#filter5_dddd_162_12682)">
<path d="M137.788 446.055C139.082 446.048 140.137 447.091 140.144 448.385L140.305 477.973L140.466 507.561C140.473 508.855 139.43 509.91 138.136 509.917C136.842 509.924 135.787 508.881 135.78 507.587L135.458 448.411C135.451 447.117 136.494 446.062 137.788 446.055Z" fill="#F15E22"/>
</g>
<g filter="url(#filter6_dddd_162_12682)">
<path d="M135.885 96.9494C137.179 96.9424 138.234 97.9859 138.241 99.2803L138.402 128.868L138.564 158.455C138.571 159.749 137.527 160.804 136.233 160.811C134.938 160.818 133.883 159.775 133.876 158.48L133.554 99.3058C133.547 98.0115 134.591 96.9565 135.885 96.9494Z" fill="#F15E22"/>
</g>
<path d="M165.797 481.489C165.321 482.161 164.756 482.65 164.102 482.956C163.422 483.235 162.678 483.371 161.871 483.363C159.944 483.342 158.427 482.689 157.321 481.401C156.188 480.139 155.633 478.414 155.656 476.227C155.678 474.066 156.256 472.366 157.389 471.128C158.574 469.838 160.13 469.203 162.057 469.223C163.724 469.24 165.1 469.659 166.185 470.477C167.244 471.348 167.87 472.474 168.064 473.856L166.189 473.837C165.642 473.831 165.241 473.579 164.986 473.082C164.807 472.768 164.55 472.478 164.214 472.215C163.697 471.845 163.009 471.655 162.149 471.646C161.03 471.634 160.14 472.029 159.481 472.829C158.821 473.682 158.483 474.824 158.468 476.256C158.453 477.715 158.78 478.864 159.448 479.704C160.091 480.518 161.011 480.932 162.209 480.944C163.094 480.953 163.826 480.714 164.404 480.225C164.982 479.71 165.354 478.998 165.52 478.088L163.879 478.071C163.489 478.067 163.152 477.933 162.868 477.67C162.61 477.38 162.484 477.04 162.488 476.65L162.497 475.751L168.083 475.81L168.007 483.114L167.264 483.106C166.535 483.099 166.083 482.729 165.909 481.998L165.797 481.489ZM177.763 472.825L177.699 478.918C177.68 480.767 177.186 481.973 176.216 482.536C175.247 483.098 174.189 483.374 173.043 483.362C171.924 483.298 170.899 482.975 169.967 482.392C169.062 481.81 168.619 480.62 168.637 478.824L168.701 472.73L171.435 472.759L171.366 479.399C171.359 480.024 171.537 480.481 171.898 480.772C172.26 481.062 172.675 481.21 173.144 481.214C173.613 481.219 174.031 481.08 174.398 480.798C174.792 480.515 174.992 480.062 174.998 479.437L175.054 474.125C175.058 473.76 175.178 473.449 175.415 473.191C175.678 472.933 176.005 472.806 176.396 472.81L177.763 472.825ZM178.427 472.832L179.833 472.846C180.198 472.85 180.509 472.983 180.766 473.247C181.024 473.51 181.151 473.824 181.147 474.188L181.053 483.25L178.319 483.222L178.427 472.832ZM178.459 469.785L179.865 469.8C180.229 469.803 180.541 469.937 180.798 470.2C181.056 470.463 181.183 470.777 181.179 471.141L181.171 471.962L178.436 471.933L178.459 469.785ZM188.185 469.847L189.513 469.861C189.878 469.865 190.189 470.011 190.446 470.301C190.704 470.564 190.831 470.864 190.827 471.203L190.748 478.82C190.729 480.669 190.182 481.913 189.107 482.553C188.033 483.193 186.871 483.506 185.621 483.493C184.944 483.486 184.281 483.375 183.632 483.16C182.983 482.919 182.466 482.549 182.081 482.05C181.336 481.078 180.972 479.76 180.989 478.093C181.006 476.452 181.398 475.141 182.163 474.16C182.955 473.152 183.963 472.655 185.187 472.668C185.838 472.674 186.409 472.811 186.901 473.076C187.419 473.394 187.831 473.802 188.139 474.3L188.185 469.847ZM183.647 478.003C183.636 479.045 183.823 479.841 184.208 480.392C184.593 480.943 185.15 481.222 185.879 481.23C186.582 481.237 187.132 480.97 187.528 480.427C187.898 479.884 188.089 479.092 188.1 478.05C188.109 477.112 187.922 476.368 187.537 475.817C187.126 475.292 186.569 475.026 185.865 475.019C185.188 475.012 184.652 475.279 184.255 475.822C183.859 476.339 183.656 477.066 183.647 478.003ZM198.429 480.228L200.382 480.248C200.084 481.339 199.529 482.167 198.715 482.731C197.902 483.322 196.883 483.611 195.659 483.598C194.175 483.582 193.021 483.089 192.198 482.116C191.375 481.17 190.972 479.825 190.99 478.08C191.007 476.414 191.425 475.116 192.242 474.187C193.085 473.232 194.249 472.762 195.733 472.778C197.296 472.794 198.502 473.275 199.351 474.222C200.174 475.194 200.577 476.539 200.559 478.258C200.558 478.362 200.557 478.453 200.556 478.531C200.555 478.61 200.555 478.662 200.555 478.688C200.553 478.818 200.539 478.909 200.513 478.961L193.755 478.89C193.773 479.698 193.962 480.299 194.322 480.693C194.657 481.113 195.162 481.327 195.839 481.334C196.282 481.339 196.66 481.251 196.975 481.072C197.053 481.047 197.119 481.009 197.171 480.957C197.25 480.88 197.329 480.803 197.408 480.725C197.435 480.647 197.527 480.544 197.685 480.416C197.868 480.287 198.117 480.225 198.429 480.228ZM193.774 477.133L197.758 477.174C197.713 476.47 197.536 475.948 197.227 475.606C196.892 475.238 196.413 475.051 195.788 475.044C195.215 475.038 194.744 475.215 194.376 475.576C194.007 475.937 193.807 476.456 193.774 477.133Z" fill="#F15E22"/>
<path d="M47.5389 42.8118L43.8466 29.3252L46.6979 29.3622L48.8791 38.8835L50.9554 29.4175L53.9239 29.4561L55.7145 38.9723L57.8947 30.5234C58.0598 29.8484 58.5199 29.5158 59.275 29.5256L60.9936 29.5479L56.9912 42.9346L54.3352 42.9001L52.399 32.5615L50.1559 42.8458L47.5389 42.8118ZM68.9068 39.886L70.8598 39.9114C70.5592 41.0013 70.0015 41.8275 69.1868 42.3899C68.3718 42.9783 67.3524 43.2645 66.1285 43.2486C64.6443 43.2293 63.4918 42.7326 62.6711 41.7583C61.85 40.81 61.4508 39.4636 61.4734 37.7189C61.4951 36.0524 61.9156 34.7557 62.735 33.8287C63.5808 32.8761 64.7458 32.4094 66.2301 32.4287C67.7924 32.449 68.9972 32.9335 69.8443 33.882C70.665 34.8563 71.0642 36.2028 71.0419 37.9214C71.0406 38.0255 71.0394 38.1167 71.0384 38.1948C71.0374 38.2729 71.0367 38.325 71.0363 38.351C71.0346 38.4812 71.0204 38.5722 70.9937 38.6239L64.2365 38.5361C64.252 39.3437 64.4395 39.9452 64.799 40.3405C65.1321 40.7615 65.6372 40.9764 66.3142 40.9852C66.7569 40.991 67.1356 40.9047 67.4505 40.7265C67.5289 40.7015 67.5945 40.6633 67.6473 40.6119C67.7264 40.5348 67.8056 40.4577 67.8847 40.3806C67.9118 40.3028 68.0042 40.1998 68.1622 40.0717C68.3461 39.9438 68.5944 39.8819 68.9068 39.886ZM64.2593 36.7785L68.2434 36.8302C68.2004 36.1265 68.0249 35.6033 67.7168 35.2608C67.3831 34.8918 66.9037 34.7033 66.2787 34.6952C65.7059 34.6877 65.2348 34.8639 64.8655 35.2237C64.4962 35.5835 64.2942 36.1018 64.2593 36.7785ZM71.6958 29.687L73.102 29.7053C73.4665 29.71 73.7773 29.8443 74.0343 30.108C74.2917 30.3458 74.418 30.6469 74.4132 31.0115L74.2554 43.1589L71.5213 43.1234L71.6958 29.687ZM81.9917 40.056L83.9446 40.0814C83.644 41.1713 83.0863 41.9975 82.2717 42.5599C81.4567 43.1483 80.4372 43.4345 79.2134 43.4186C77.7291 43.3994 76.5766 42.9026 75.7559 41.9283C74.9348 40.98 74.5356 39.6336 74.5583 37.8889C74.5799 36.2224 75.0004 34.9257 75.8198 33.9988C76.6656 33.0461 77.8306 32.5794 79.3149 32.5987C80.8773 32.619 82.082 33.1035 82.9291 34.0521C83.3904 34.631 83.7203 35.2994 83.9188 36.0573L81.1846 36.0217C81.0578 35.7597 80.9302 35.5627 80.8017 35.4308C80.4679 35.0618 79.9885 34.8733 79.3636 34.8652C78.7907 34.8577 78.3196 35.0339 77.9503 35.3937C77.4749 35.9084 77.2293 36.7647 77.2138 37.9625C77.1982 39.1603 77.4216 40.0097 77.8839 40.5105C78.217 40.9315 78.722 41.1464 79.399 41.1552C79.8417 41.161 80.2205 41.0748 80.5353 40.8965C80.6138 40.8715 80.6794 40.8333 80.7321 40.7819C80.8113 40.7048 80.8904 40.6277 80.9695 40.5506C81.0226 40.4731 81.1281 40.3703 81.2861 40.2422C81.444 40.114 81.6792 40.052 81.9917 40.056ZM85.6338 42.3692C85.0931 41.8933 84.7106 41.2633 84.4864 40.4791C84.2625 39.6688 84.1562 38.834 84.1673 37.9747C84.1765 37.2717 84.2767 36.5698 84.4682 35.8691C84.6856 35.1687 85.0057 34.5869 85.4284 34.1236C86.1156 33.3512 86.9938 32.9069 88.0631 32.7905C89.1328 32.6482 90.0952 32.7388 90.9505 33.0624C91.9349 33.4659 92.6552 34.1524 93.1114 35.1219C93.5429 35.987 93.7512 36.9924 93.7363 38.1381C93.7255 38.9714 93.6251 39.6863 93.435 40.2828C93.2449 40.8794 93.004 41.3841 92.7121 41.797C92.076 42.6482 91.2749 43.1717 90.3087 43.3675C89.4464 43.5907 88.5739 43.5923 87.6913 43.3725C86.8343 43.1791 86.1485 42.8446 85.6338 42.3692ZM87.598 35.5191C87.0434 36.1109 86.7843 37.006 86.8208 38.2045C86.8577 39.377 87.0684 40.2001 87.4529 40.6739C87.6064 40.8842 87.8774 41.0701 88.266 41.2314C88.6549 41.3666 89.0453 41.3847 89.4373 41.2857C89.8556 41.1609 90.224 40.8662 90.5426 40.4015C90.8612 39.9369 91.0402 39.1839 91.0798 38.1427C91.092 37.2053 90.9449 36.5002 90.6385 36.0274C90.3581 35.555 90.0235 35.2511 89.6346 35.1158C89.2457 34.9806 88.8551 34.9755 88.4628 35.1006C88.0709 35.1997 87.7826 35.3392 87.598 35.5191ZM103.159 43.5344L100.464 43.4994L100.543 37.4062L100.55 36.8594C100.559 36.2344 100.369 35.7762 99.9823 35.4847C99.6214 35.1935 99.2067 35.0449 98.738 35.0388C98.2692 35.0327 97.8508 35.1705 97.4825 35.4522C97.1142 35.7339 96.926 36.1872 96.9179 36.8122L96.8316 43.4522L94.0975 43.4167L94.1766 37.3235C94.1996 35.5528 94.6707 34.3739 95.5899 33.7868C96.5351 33.2001 97.5679 32.888 98.6883 32.8504C99.2872 32.8582 99.8722 32.9309 100.443 33.0686C101.015 33.2062 101.532 33.4734 101.996 33.8701C102.391 33.5366 102.849 33.3082 103.372 33.1848C103.921 33.0356 104.482 32.9518 105.055 32.9332C106.201 32.9481 107.251 33.2612 108.207 33.8726C109.163 34.4841 109.629 35.7012 109.605 37.5239L109.526 43.6172L108.159 43.5994C107.768 43.5943 107.444 43.4729 107.187 43.2352C106.956 42.9717 106.843 42.6447 106.848 42.2541L106.917 36.9421C106.925 36.3171 106.736 35.8589 106.349 35.5674C105.988 35.2762 105.573 35.1276 105.105 35.1215C104.636 35.1154 104.204 35.253 103.81 35.5344C103.442 35.8161 103.254 36.2694 103.245 36.8944L103.238 37.4412L103.159 43.5344ZM117.536 40.5178L119.489 40.5432C119.188 41.6331 118.63 42.4593 117.816 43.0217C117.001 43.6101 115.981 43.8964 114.757 43.8805C113.273 43.8612 112.121 43.3644 111.3 42.3901C110.479 41.4419 110.079 40.0954 110.102 38.3508C110.124 36.6842 110.544 35.3875 111.364 34.4606C112.21 33.5079 113.375 33.0413 114.859 33.0605C116.421 33.0808 117.626 33.5653 118.473 34.5139C119.294 35.4882 119.693 36.8346 119.671 38.5532C119.669 38.6574 119.668 38.7485 119.667 38.8266C119.666 38.9047 119.665 38.9568 119.665 38.9829C119.663 39.1131 119.649 39.204 119.622 39.2558L112.865 39.168C112.881 39.9755 113.068 40.577 113.428 40.9723C113.761 41.3933 114.266 41.6083 114.943 41.6171C115.386 41.6228 115.764 41.5366 116.079 41.3584C116.158 41.3333 116.223 41.2951 116.276 41.2437C116.355 41.1666 116.434 41.0895 116.513 41.0124C116.54 40.9346 116.633 40.8317 116.791 40.7035C116.975 40.5757 117.223 40.5138 117.536 40.5178ZM112.888 37.4103L116.872 37.4621C116.829 36.7583 116.654 36.2352 116.346 35.8926C116.012 35.5237 115.532 35.3351 114.907 35.327C114.335 35.3196 113.864 35.4957 113.494 35.8556C113.125 36.2154 112.923 36.7336 112.888 37.4103Z" fill="white"/>
<path d="M73.9885 391.827L73.9495 396.632L71.1762 396.609L71.2739 384.578C71.277 384.188 71.4099 383.863 71.6724 383.605C71.9612 383.321 72.3009 383.18 72.6915 383.184L77.2617 383.221C78.6939 383.232 79.7586 383.606 80.4558 384.34C81.179 385.075 81.5348 386.159 81.5232 387.591C81.5122 388.945 81.152 390.01 80.4425 390.786C79.7335 391.509 78.7149 391.866 77.3869 391.855L73.9885 391.827ZM74.0082 389.405L76.7034 389.427C77.4326 389.433 77.9547 389.281 78.2697 388.971C78.6105 388.688 78.7838 388.194 78.7895 387.491C78.7944 386.892 78.6421 386.409 78.3325 386.042C77.9705 385.726 77.49 385.566 76.8911 385.561L74.0396 385.538L74.0082 389.405ZM83.2537 395.77C82.7107 395.297 82.3251 394.668 82.0971 393.885C81.8693 393.076 81.7589 392.242 81.7658 391.382C81.7716 390.679 81.8684 389.977 82.0564 389.275C82.2704 388.574 82.5877 387.991 83.0081 387.525C83.6915 386.75 84.5676 386.301 85.6363 386.179C86.7053 386.032 87.6682 386.118 88.525 386.437C89.5114 386.836 90.235 387.519 90.6959 388.486C91.1316 389.349 91.3448 390.353 91.3355 391.499C91.3288 392.333 91.2318 393.048 91.0447 393.645C90.8575 394.243 90.619 394.749 90.3292 395.163C89.6972 396.017 88.8986 396.545 87.9334 396.745C87.0722 396.973 86.1997 396.979 85.316 396.763C84.4582 396.574 83.7707 396.243 83.2537 395.77ZM85.1845 388.91C84.6327 389.505 84.3781 390.401 84.4204 391.599C84.463 392.772 84.6777 393.594 85.0645 394.066C85.219 394.275 85.491 394.46 85.8803 394.619C86.2699 394.753 86.6604 394.769 87.0518 394.668C87.4696 394.541 87.8366 394.244 88.1529 393.778C88.4692 393.312 88.6445 392.558 88.679 391.517C88.6867 390.579 88.5361 389.875 88.2274 389.404C87.9448 388.933 87.6087 388.63 87.2191 388.497C86.8296 388.364 86.439 388.36 86.0473 388.487C85.6558 388.588 85.3682 388.729 85.1845 388.91ZM91.9487 383.34L93.3549 383.351C93.7194 383.354 94.0309 383.487 94.2892 383.75C94.5477 383.986 94.6754 384.287 94.6725 384.651L94.5739 396.799L91.8396 396.777L91.9487 383.34ZM95.3613 386.415L96.7675 386.426C97.1321 386.429 97.4435 386.562 97.7018 386.824C97.9601 387.087 98.0878 387.4 98.0848 387.765L98.0112 396.827L95.277 396.805L95.3613 386.415ZM95.3861 383.368L96.7923 383.379C97.1568 383.382 97.4683 383.515 97.7266 383.777C97.9849 384.04 98.1125 384.354 98.1096 384.718L98.1029 385.538L95.3686 385.516L95.3861 383.368ZM97.922 393.389L100.578 393.41C100.6 393.931 100.792 394.324 101.155 394.587C101.543 394.85 102.063 394.985 102.714 394.99C103.183 394.994 103.587 394.906 103.927 394.727C104.241 394.547 104.399 394.301 104.402 393.988C104.405 393.52 103.861 393.164 102.77 392.92C102.302 392.838 101.951 392.757 101.717 392.677C100.34 392.328 99.4183 391.916 98.9534 391.444C98.4364 390.971 98.1811 390.344 98.1874 389.563C98.1954 388.573 98.5797 387.756 99.3402 387.111C100.126 386.518 101.144 386.227 102.394 386.237C103.748 386.248 104.827 386.557 105.629 387.162C106.379 387.819 106.776 388.669 106.819 389.711L105.14 389.697C104.645 389.693 104.269 389.469 104.012 389.024C103.909 388.919 103.806 388.814 103.702 388.709C103.392 388.472 102.963 388.351 102.416 388.347C101.895 388.343 101.504 388.418 101.242 388.572C101.007 388.726 100.888 388.96 100.885 389.272C100.882 389.689 101.556 390.046 102.908 390.343C103.064 390.397 103.194 390.437 103.297 390.464C103.427 390.491 103.545 390.505 103.649 390.505C104.974 390.855 105.895 391.253 106.413 391.7C106.903 392.173 107.146 392.8 107.139 393.581C107.13 394.727 106.706 395.609 105.868 396.227C105.082 396.793 103.908 397.07 102.345 397.058C100.861 397.046 99.7568 396.737 99.0325 396.132C98.2822 395.527 97.9117 394.652 97.921 393.506L97.922 393.389ZM114.126 389.497C113.74 388.947 113.208 388.669 112.531 388.663C111.802 388.658 111.24 388.913 110.845 389.431C110.45 389.949 110.249 390.663 110.242 391.575L110.198 396.926L107.542 396.904L107.651 383.467L108.979 383.478C109.344 383.481 109.655 383.614 109.914 383.876C110.172 384.139 110.3 384.452 110.297 384.817L110.272 387.903C110.747 387.125 111.415 386.636 112.276 386.435C113.137 386.233 113.957 386.292 114.735 386.611C115.462 386.929 116.07 387.429 116.559 388.11C117.048 388.791 117.288 389.731 117.279 390.929L117.229 396.983L114.612 396.962L114.656 391.571C114.659 391.181 114.623 390.829 114.547 390.516C114.498 390.177 114.358 389.837 114.126 389.497Z" fill="white"/>
<path d="M57.107 569.953C56.6406 570.632 56.0824 571.128 55.4324 571.443C54.7563 571.732 54.0146 571.878 53.2073 571.88C51.2802 571.887 49.7546 571.254 48.6305 569.982C47.4804 568.736 46.9016 567.019 46.8942 564.831C46.8868 562.67 47.4409 560.962 48.5564 559.709C49.7238 558.403 51.2711 557.746 53.1981 557.74C54.8648 557.734 56.2464 558.133 57.3429 558.936C58.4135 559.792 59.0553 560.91 59.2684 562.289L57.3934 562.296C56.8465 562.298 56.442 562.052 56.1799 561.558C55.9966 561.246 55.7352 560.96 55.3957 560.701C54.8737 560.338 54.1829 560.158 53.3236 560.161C52.2038 560.165 51.3198 560.572 50.6715 561.381C50.0234 562.243 49.7018 563.39 49.7066 564.822C49.7116 566.28 50.0541 567.425 50.734 568.256C51.3878 569.061 52.3136 569.461 53.5115 569.457C54.3969 569.454 55.1253 569.204 55.6965 568.708C56.2676 568.185 56.6298 567.468 56.7829 566.556L55.1423 566.561C54.7517 566.563 54.4127 566.433 54.1253 566.174C53.8639 565.888 53.7326 565.55 53.7313 565.16L53.7282 564.261L59.3141 564.242L59.339 571.547L58.5968 571.549C57.8677 571.552 57.4107 571.189 57.2259 570.46L57.107 569.953ZM59.9249 571.545L59.9078 566.506C59.9043 565.49 60.0446 564.643 60.3288 563.965C60.6389 563.261 61.0536 562.7 61.573 562.281C62.0665 561.889 62.6384 561.601 63.2889 561.416C63.9653 561.232 64.6551 561.138 65.3582 561.136C65.4103 561.135 65.4754 561.135 65.5535 561.135C65.6317 561.135 65.6968 561.135 65.7488 561.134L65.7583 563.908L64.8599 563.911C64.1047 563.913 63.5454 564.098 63.1821 564.463C62.8187 564.829 62.6384 565.403 62.641 566.184L62.6593 571.536L59.9249 571.545ZM72.0555 566.269C71.6915 566.453 71.1843 566.624 70.5338 566.782C69.9352 566.914 69.636 566.98 69.636 566.98C69.1677 567.112 68.8297 567.283 68.6221 567.492C68.4408 567.779 68.3506 568.066 68.3516 568.352C68.3529 568.743 68.4712 569.055 68.7064 569.288C68.9414 569.496 69.2803 569.599 69.723 569.597C70.4522 569.595 71.0244 569.385 71.4397 568.967C71.8549 568.548 72.0613 567.975 72.0588 567.246L72.0555 566.269ZM72.6968 571.072C72.1509 571.36 71.5656 571.531 70.9408 571.585C70.3421 571.666 69.8084 571.706 69.3396 571.708C68.4021 571.711 67.581 571.467 66.8762 570.974C66.1713 570.456 65.8168 569.611 65.8128 568.439C65.8091 567.345 66.1189 566.563 66.7423 566.092C67.3918 565.621 68.211 565.306 69.2 565.146C69.3303 565.146 69.4865 565.132 69.6687 565.105C69.8508 565.053 70.059 565.013 70.2933 564.986C71.4386 564.826 72.0103 564.485 72.0085 563.965C72.0072 563.574 71.798 563.327 71.381 563.225C70.9899 563.096 70.6251 563.032 70.2866 563.033C69.922 563.034 69.5967 563.087 69.3106 563.193C69.0245 563.298 68.8168 563.494 68.6876 563.781L66.0704 563.79C66.1718 562.982 66.5341 562.317 67.1573 561.794C67.8584 561.192 68.86 560.889 70.1621 560.885C71.6204 560.88 72.715 561.124 73.4458 561.616C74.2028 562.134 74.5829 562.862 74.5861 563.8L74.5982 567.354C74.6018 568.396 74.4093 569.217 74.0207 569.817C73.6581 570.391 73.2168 570.809 72.6968 571.072ZM81.832 557.994L83.1601 557.989C83.5247 557.988 83.8377 558.13 84.0991 558.415C84.3604 558.675 84.4916 558.974 84.4927 559.313L84.5187 566.93C84.525 568.779 83.9954 570.03 82.93 570.685C81.8645 571.34 80.7067 571.669 79.4567 571.674C78.7797 571.676 78.1153 571.574 77.4635 571.368C76.8117 571.136 76.2896 570.773 75.8973 570.279C75.1388 569.319 74.7567 568.005 74.751 566.338C74.7454 564.697 75.1185 563.381 75.8704 562.389C76.6482 561.371 77.649 560.859 78.873 560.855C79.524 560.853 80.0974 560.981 80.593 561.24C81.1149 561.551 81.533 561.953 81.8472 562.447L81.832 557.994ZM77.4069 566.212C77.4104 567.253 77.6084 568.047 78.0009 568.593C78.3934 569.138 78.9542 569.41 79.6834 569.407C80.3865 569.405 80.9325 569.129 81.3212 568.581C81.6839 568.033 81.8635 567.238 81.86 566.197C81.8568 565.259 81.6589 564.518 81.2664 563.972C80.848 563.453 80.2872 563.194 79.5841 563.197C78.907 563.199 78.3741 563.474 77.9853 564.022C77.5965 564.544 77.4037 565.274 77.4069 566.212ZM94.0299 561.038L94.0507 567.132C94.057 568.981 93.5794 570.193 92.6178 570.769C91.6562 571.346 90.6025 571.636 89.4567 571.639C88.3367 571.591 87.307 571.282 86.3676 570.713C85.4542 570.143 84.9944 568.959 84.9883 567.163L84.9675 561.069L87.7018 561.059L87.7245 567.7C87.7266 568.325 87.9105 568.78 88.276 569.065C88.6416 569.351 89.0587 569.492 89.5275 569.491C89.9962 569.489 90.4124 569.345 90.776 569.057C91.1657 568.769 91.3594 568.313 91.3573 567.688L91.3392 562.375C91.3379 562.011 91.454 561.698 91.6875 561.436C91.9471 561.175 92.2721 561.044 92.6628 561.043L94.0299 561.038ZM100.493 566.172C100.129 566.356 99.6216 566.527 98.9711 566.685C98.3726 566.817 98.0733 566.883 98.0733 566.883C97.605 567.015 97.2671 567.186 97.0594 567.395C96.8781 567.682 96.788 567.969 96.7889 568.255C96.7903 568.646 96.9085 568.958 97.1437 569.191C97.3788 569.399 97.7177 569.502 98.1604 569.5C98.8895 569.498 99.4617 569.288 99.877 568.87C100.292 568.451 100.499 567.878 100.496 567.149L100.493 566.172ZM101.134 570.975C100.588 571.263 100.003 571.434 99.3781 571.488C98.7794 571.569 98.2457 571.609 97.777 571.611C96.8395 571.614 96.0183 571.37 95.3135 570.877C94.6086 570.359 94.2542 569.514 94.2502 568.342C94.2464 567.248 94.5563 566.466 95.1797 565.995C95.8291 565.524 96.6483 565.209 97.6374 565.049C97.7676 565.049 97.9238 565.035 98.106 565.008C98.2881 564.956 98.4963 564.916 98.7306 564.889C99.8759 564.729 100.448 564.388 100.446 563.868C100.445 563.477 100.235 563.23 99.8183 563.128C99.4273 562.999 99.0625 562.935 98.7239 562.936C98.3593 562.937 98.034 562.99 97.7479 563.096C97.4618 563.201 97.2541 563.397 97.1249 563.684L94.5077 563.693C94.6091 562.885 94.9715 562.22 95.5947 561.697C96.2958 561.095 97.2973 560.792 98.5994 560.788C100.058 560.783 101.152 561.027 101.883 561.519C102.64 562.037 103.02 562.765 103.023 563.703L103.036 567.257C103.039 568.299 102.847 569.12 102.458 569.72C102.095 570.294 101.654 570.712 101.134 570.975ZM108.05 571.381C107.19 571.436 106.253 571.426 105.237 571.351C104.247 571.277 103.75 570.64 103.746 569.442L103.707 557.958L105.113 557.953C105.452 557.952 105.752 558.081 106.013 558.341C106.274 558.6 106.406 558.912 106.407 559.277L106.413 561.035L108.014 561.029L108.016 561.576C108.018 561.967 107.888 562.293 107.629 562.554C107.369 562.789 107.057 562.908 106.693 562.909L106.419 562.91L106.439 568.691C106.44 569.134 106.702 569.354 107.222 569.352L108.043 569.35L108.05 571.381ZM115.5 568.152L117.453 568.146C117.17 569.24 116.626 570.075 115.821 570.651C115.015 571.253 114.001 571.556 112.777 571.56C111.292 571.565 110.132 571.087 109.295 570.126C108.459 569.192 108.038 567.852 108.032 566.107C108.026 564.441 108.425 563.137 109.229 562.197C110.059 561.231 111.217 560.745 112.701 560.74C114.263 560.734 115.476 561.199 116.338 562.134C117.175 563.094 117.596 564.434 117.602 566.153C117.603 566.257 117.603 566.348 117.603 566.426C117.603 566.504 117.604 566.556 117.604 566.583C117.604 566.713 117.591 566.804 117.566 566.856L110.808 566.879C110.837 567.686 111.034 568.285 111.4 568.674C111.74 569.089 112.248 569.296 112.925 569.294C113.368 569.292 113.745 569.2 114.057 569.016C114.135 568.99 114.2 568.951 114.252 568.899C114.33 568.82 114.408 568.742 114.486 568.663C114.512 568.585 114.602 568.481 114.758 568.35C114.94 568.219 115.187 568.153 115.5 568.152ZM110.802 565.121L114.786 565.108C114.732 564.405 114.548 563.885 114.234 563.547C113.894 563.184 113.412 563.003 112.787 563.005C112.214 563.007 111.746 563.191 111.382 563.557C111.019 563.923 110.826 564.444 110.802 565.121Z" fill="white"/>
<path d="M77.7089 211.042C77.5649 212.603 76.9682 213.822 75.9187 214.698C74.8435 215.548 73.4335 215.965 71.6888 215.95C69.6576 215.932 68.1136 215.306 67.0567 214.073C65.9994 212.892 65.4808 211.155 65.501 208.864C65.5217 206.52 66.0841 204.767 67.1881 203.605C68.3186 202.391 69.9386 201.793 72.0479 201.812C73.7665 201.827 75.1299 202.269 76.1379 203.137C77.094 203.979 77.6306 205.156 77.7474 206.667L76.0678 206.652C75.4428 206.647 75.0026 206.369 74.747 205.82C74.5677 205.48 74.349 205.179 74.0909 204.916C73.5735 204.521 72.8851 204.319 72.0258 204.312C70.8279 204.301 69.9 204.684 69.2421 205.459C68.6103 206.235 68.2877 207.378 68.2744 208.888C68.2615 210.347 68.5641 211.469 69.1822 212.256C69.774 213.068 70.6688 213.48 71.8667 213.491C72.7 213.498 73.3919 213.296 73.9425 212.884C74.4407 212.498 74.7977 211.876 75.0136 211.018L77.7089 211.042ZM78.2538 215.695L78.2982 210.657C78.3072 209.641 78.4579 208.796 78.7503 208.121C79.069 207.421 79.4906 206.865 80.015 206.453C80.5133 206.067 81.0887 205.785 81.7413 205.609C82.42 205.432 83.1109 205.347 83.8139 205.353C83.866 205.354 83.9311 205.354 84.0093 205.355C84.0874 205.356 84.1525 205.356 84.2046 205.357L84.1801 208.13L83.2817 208.122C82.5265 208.116 81.965 208.293 81.5973 208.654C81.2295 209.016 81.0421 209.587 81.0352 210.368L80.988 215.72L78.2538 215.695ZM91.6409 212.61L93.5939 212.627C93.2978 213.719 92.7436 214.547 91.9313 215.113C91.1188 215.705 90.1005 215.995 88.8766 215.984C87.3923 215.971 86.2378 215.479 85.413 214.508C84.5879 213.564 84.1831 212.219 84.1985 210.474C84.2132 208.808 84.6283 207.509 85.4438 206.579C86.2856 205.623 87.4487 205.151 88.933 205.164C90.4954 205.178 91.7022 205.657 92.5533 206.602C93.3781 207.573 93.7829 208.918 93.7677 210.637C93.7668 210.741 93.766 210.832 93.7653 210.91C93.7646 210.988 93.7642 211.04 93.764 211.066C93.7628 211.197 93.749 211.288 93.7225 211.339L86.9649 211.28C86.9838 212.087 87.1739 212.688 87.535 213.082C87.8698 213.501 88.3758 213.714 89.0529 213.72C89.4956 213.724 89.8739 213.636 90.188 213.457C90.2664 213.431 90.3318 213.393 90.3844 213.341C90.4632 213.264 90.542 213.186 90.6208 213.109C90.6475 213.031 90.7396 212.928 90.897 212.799C91.0804 212.67 91.3284 212.607 91.6409 212.61ZM86.9804 209.522L90.9647 209.557C90.9188 208.854 90.7411 208.331 90.4316 207.99C90.0963 207.622 89.6161 207.436 88.9911 207.43C88.4183 207.425 87.9479 207.603 87.5801 207.965C87.2123 208.326 87.0124 208.845 86.9804 209.522ZM100.213 210.654C99.847 210.834 99.3377 210.998 98.6853 211.149C98.0852 211.274 97.7852 211.336 97.7852 211.336C97.3153 211.462 96.9753 211.629 96.7651 211.835C96.5803 212.12 96.4866 212.406 96.4841 212.692C96.4806 213.083 96.5951 213.396 96.8274 213.633C97.0599 213.843 97.3975 213.95 97.8402 213.954C98.5693 213.96 99.1441 213.757 99.5644 213.344C99.9847 212.931 100.198 212.36 100.205 211.631L100.213 210.654ZM100.796 215.465C100.246 215.746 99.659 215.91 99.0335 215.957C98.4339 216.03 97.8997 216.064 97.431 216.06C96.4935 216.052 95.6754 215.797 94.9767 215.296C94.2782 214.769 93.9341 213.92 93.9444 212.748C93.9541 211.654 94.2735 210.876 94.9026 210.412C95.5577 209.949 96.3808 209.644 97.3717 209.497C97.5019 209.498 97.6582 209.486 97.8408 209.462C98.0235 209.411 98.2322 209.374 98.4668 209.35C99.6139 209.204 100.19 208.87 100.194 208.35C100.198 207.959 99.9917 207.71 99.576 207.602C99.1865 207.468 98.8225 207.4 98.484 207.397C98.1194 207.394 97.7935 207.443 97.5061 207.545C97.2187 207.646 97.0087 207.84 96.876 208.125L94.2589 208.102C94.3701 207.296 94.7406 206.635 95.3701 206.119C96.0785 205.527 97.0837 205.236 98.3858 205.248C99.844 205.26 100.936 205.517 101.66 206.019C102.411 206.546 102.782 207.279 102.774 208.216L102.742 211.771C102.733 212.812 102.531 213.631 102.135 214.226C101.765 214.796 101.319 215.209 100.796 215.465ZM107.706 215.955C106.846 216 105.909 215.978 104.894 215.891C103.905 215.804 103.416 215.162 103.426 213.964L103.528 202.48L104.934 202.493C105.272 202.496 105.571 202.629 105.829 202.891C106.087 203.154 106.214 203.468 106.211 203.832L106.196 205.59L107.797 205.604L107.792 206.151C107.789 206.541 107.656 206.866 107.393 207.124C107.131 207.356 106.817 207.47 106.452 207.467L106.179 207.465L106.128 213.246C106.124 213.689 106.383 213.912 106.903 213.917L107.724 213.924L107.706 215.955ZM115.195 212.818L117.148 212.835C116.852 213.926 116.297 214.755 115.485 215.321C114.673 215.912 113.654 216.203 112.43 216.192C110.946 216.179 109.792 215.687 108.967 214.716C108.142 213.771 107.737 212.427 107.752 210.682C107.767 209.015 108.182 207.717 108.998 206.787C109.839 205.83 111.002 205.359 112.487 205.372C114.049 205.386 115.256 205.865 116.107 206.81C116.932 207.781 117.337 209.126 117.322 210.844C117.321 210.949 117.32 211.04 117.319 211.118C117.318 211.196 117.318 211.248 117.318 211.274C117.317 211.404 117.303 211.495 117.276 211.547L110.519 211.488C110.538 212.295 110.728 212.896 111.089 213.29C111.424 213.709 111.93 213.922 112.607 213.928C113.049 213.932 113.428 213.844 113.742 213.665C113.82 213.639 113.886 213.601 113.938 213.549C114.017 213.472 114.096 213.394 114.175 213.317C114.201 213.239 114.293 213.136 114.451 213.007C114.634 212.878 114.882 212.815 115.195 212.818ZM110.534 209.73L114.518 209.765C114.473 209.061 114.295 208.539 113.985 208.198C113.65 207.83 113.17 207.644 112.545 207.638C111.972 207.633 111.502 207.811 111.134 208.173C110.766 208.534 110.566 209.053 110.534 209.73Z" fill="white"/>
<path d="M155.627 309.921L155.652 297.89C155.653 297.499 155.784 297.174 156.045 296.914C156.332 296.628 156.671 296.473 157.062 296.448L159.757 296.453L162.392 306.732L165.069 296.464L169.171 296.473L169.143 309.95L166.565 309.944L166.587 299.085L163.83 309.938L160.979 309.932L158.228 299.067L158.205 309.927L155.627 309.921ZM175.833 304.729C175.468 304.911 174.96 305.079 174.309 305.234C173.71 305.363 173.41 305.427 173.41 305.427C172.941 305.556 172.602 305.725 172.393 305.933C172.211 306.219 172.119 306.505 172.118 306.792C172.117 307.182 172.234 307.495 172.468 307.73C172.702 307.939 173.04 308.044 173.483 308.044C174.212 308.046 174.785 307.839 175.203 307.423C175.62 307.007 175.83 306.435 175.831 305.706L175.833 304.729ZM176.448 309.535C175.901 309.82 175.315 309.988 174.69 310.039C174.09 310.116 173.556 310.154 173.088 310.153C172.15 310.151 171.33 309.902 170.628 309.406C169.926 308.883 169.577 308.036 169.579 306.864C169.581 305.771 169.895 304.99 170.521 304.523C171.173 304.055 171.994 303.745 172.984 303.59C173.114 303.591 173.271 303.578 173.453 303.552C173.635 303.501 173.844 303.462 174.078 303.436C175.224 303.282 175.798 302.945 175.799 302.424C175.8 302.034 175.592 301.786 175.176 301.681C174.785 301.55 174.421 301.484 174.082 301.483C173.718 301.482 173.392 301.534 173.106 301.637C172.819 301.741 172.61 301.936 172.479 302.222L169.862 302.217C169.968 301.41 170.334 300.746 170.96 300.227C171.664 299.629 172.668 299.332 173.97 299.335C175.428 299.338 176.521 299.587 177.249 300.084C178.004 300.606 178.38 301.336 178.378 302.273L178.37 305.828C178.368 306.87 178.171 307.69 177.779 308.288C177.413 308.86 176.97 309.276 176.448 309.535ZM178.525 306.532L181.181 306.537C181.206 307.058 181.401 307.449 181.765 307.71C182.155 307.971 182.675 308.103 183.326 308.104C183.795 308.105 184.199 308.015 184.538 307.833C184.851 307.652 185.008 307.404 185.008 307.092C185.009 306.623 184.463 306.271 183.37 306.034C182.901 305.955 182.55 305.876 182.316 305.797C180.936 305.456 180.012 305.05 179.545 304.581C179.025 304.111 178.766 303.485 178.767 302.704C178.769 301.714 179.149 300.895 179.905 300.245C180.688 299.648 181.704 299.351 182.954 299.353C184.308 299.356 185.388 299.658 186.194 300.259C186.948 300.911 187.35 301.758 187.4 302.8L185.72 302.797C185.226 302.796 184.848 302.573 184.589 302.13C184.485 302.026 184.381 301.921 184.277 301.817C183.965 301.582 183.536 301.464 182.989 301.463C182.468 301.462 182.077 301.539 181.816 301.695C181.582 301.85 181.464 302.085 181.463 302.397C181.462 302.814 182.139 303.167 183.492 303.456C183.649 303.508 183.779 303.548 183.883 303.574C184.013 303.6 184.13 303.614 184.234 303.614C185.562 303.955 186.485 304.348 187.005 304.791C187.499 305.261 187.745 305.887 187.743 306.668C187.741 307.814 187.323 308.698 186.488 309.322C185.706 309.893 184.533 310.177 182.971 310.174C181.486 310.171 180.38 309.869 179.652 309.268C178.898 308.668 178.522 307.795 178.525 306.649L178.525 306.532ZM192.776 309.999C191.916 310.049 190.979 310.034 189.963 309.954C188.974 309.874 188.48 309.235 188.483 308.037L188.507 296.552L189.913 296.555C190.252 296.556 190.551 296.687 190.811 296.948C191.071 297.209 191.2 297.522 191.199 297.886L191.196 299.644L192.797 299.647L192.796 300.194C192.795 300.585 192.664 300.91 192.403 301.17C192.143 301.404 191.83 301.52 191.465 301.52L191.192 301.519L191.18 307.3C191.179 307.743 191.439 307.965 191.96 307.966L192.78 307.968L192.776 309.999ZM200.243 306.811L202.196 306.815C201.908 307.909 201.359 308.741 200.55 309.312C199.742 309.909 198.726 310.207 197.502 310.204C196.017 310.201 194.86 309.717 194.028 308.751C193.197 307.812 192.783 306.47 192.787 304.725C192.79 303.059 193.196 301.758 194.006 300.822C194.841 299.86 196.001 299.381 197.485 299.384C199.048 299.387 200.258 299.858 201.115 300.797C201.946 301.763 202.36 303.105 202.357 304.824C202.357 304.928 202.356 305.019 202.356 305.097C202.356 305.175 202.356 305.227 202.356 305.253C202.356 305.383 202.342 305.475 202.316 305.527L195.558 305.512C195.583 306.32 195.777 306.919 196.141 307.311C196.478 307.728 196.986 307.937 197.663 307.939C198.105 307.94 198.483 307.849 198.796 307.668C198.874 307.642 198.939 307.603 198.992 307.551C199.07 307.473 199.148 307.395 199.227 307.317C199.253 307.239 199.344 307.135 199.501 307.005C199.683 306.875 199.931 306.811 200.243 306.811ZM195.562 303.755L199.546 303.763C199.496 303.06 199.315 302.539 199.003 302.199C198.665 301.834 198.184 301.651 197.559 301.649C196.986 301.648 196.517 301.83 196.151 302.193C195.786 302.557 195.59 303.078 195.562 303.755ZM202.776 310.02L202.786 304.981C202.788 303.965 202.933 303.119 203.221 302.442C203.535 301.74 203.953 301.181 204.475 300.765C204.97 300.376 205.544 300.091 206.195 299.91C206.873 299.729 207.563 299.639 208.266 299.641C208.318 299.641 208.383 299.641 208.461 299.641C208.539 299.641 208.605 299.641 208.657 299.641L208.651 302.415L207.752 302.413C206.997 302.411 206.437 302.592 206.072 302.956C205.706 303.32 205.523 303.893 205.521 304.674L205.51 310.025L202.776 310.02Z" fill="#F15E22"/>
<path d="M153.838 136.233L153.751 124.202C153.748 123.811 153.876 123.485 154.135 123.222C154.419 122.934 154.757 122.788 155.147 122.785L159.014 122.758C161.072 122.743 162.612 123.279 163.635 124.365C164.659 125.504 165.179 127.193 165.195 129.432C165.204 130.63 165.029 131.712 164.672 132.678C164.262 133.671 163.721 134.43 163.047 134.956C162.478 135.402 161.868 135.719 161.218 135.906C160.595 136.093 159.645 136.191 158.369 136.2L153.838 136.233ZM156.515 133.792L158.742 133.776C160.018 133.766 160.953 133.421 161.547 132.74C162.115 132.111 162.394 131.015 162.383 129.452C162.372 127.942 162.091 126.837 161.539 126.138C161.013 125.439 160.177 125.093 159.031 125.101L156.453 125.12L156.515 133.792ZM165.95 125.755L167.356 125.745C167.721 125.742 168.034 125.87 168.297 126.129C168.559 126.387 168.691 126.699 168.694 127.063L168.759 136.125L166.025 136.145L165.95 125.755ZM165.928 122.708L167.334 122.698C167.699 122.695 168.012 122.823 168.275 123.082C168.537 123.34 168.669 123.652 168.672 124.016L168.678 124.837L165.944 124.856L165.928 122.708ZM168.617 132.689L171.273 132.67C171.303 133.19 171.501 133.58 171.868 133.837C172.26 134.095 172.782 134.221 173.433 134.217C173.902 134.213 174.305 134.119 174.642 133.935C174.953 133.75 175.108 133.502 175.105 133.189C175.102 132.72 174.553 132.373 173.457 132.146C172.988 132.072 172.636 131.996 172.401 131.919C171.018 131.591 170.091 131.194 169.619 130.728C169.095 130.264 168.83 129.64 168.824 128.859C168.817 127.87 169.189 127.047 169.939 126.39C170.716 125.786 171.73 125.479 172.979 125.47C174.334 125.46 175.416 125.752 176.228 126.345C176.988 126.991 177.398 127.834 177.457 128.875L175.778 128.887C175.283 128.891 174.904 128.672 174.64 128.231C174.535 128.128 174.43 128.025 174.325 127.921C174.011 127.689 173.581 127.575 173.034 127.579C172.513 127.583 172.123 127.664 171.864 127.822C171.63 127.98 171.515 128.215 171.517 128.527C171.52 128.944 172.2 129.291 173.556 129.567C173.712 129.618 173.843 129.656 173.947 129.682C174.078 129.707 174.195 129.719 174.299 129.718C175.63 130.047 176.557 130.431 177.081 130.87C177.579 131.335 177.831 131.959 177.837 132.74C177.845 133.886 177.434 134.774 176.606 135.405C175.829 135.983 174.659 136.278 173.096 136.29C171.612 136.3 170.503 136.009 169.77 135.415C169.01 134.822 168.626 133.952 168.618 132.806L168.617 132.689ZM185.493 132.802L187.447 132.788C187.168 133.884 186.627 134.721 185.824 135.3C185.021 135.904 184.007 136.211 182.784 136.22C181.299 136.231 180.137 135.757 179.297 134.8C178.457 133.868 178.03 132.53 178.018 130.785C178.006 129.119 178.4 127.814 179.201 126.87C180.027 125.901 181.182 125.411 182.667 125.4C184.229 125.389 185.443 125.849 186.31 126.78C186.782 127.35 187.126 128.011 187.339 128.765L184.605 128.785C184.473 128.525 184.341 128.331 184.21 128.202C183.869 127.84 183.386 127.661 182.761 127.665C182.188 127.669 181.721 127.855 181.359 128.222C180.894 128.746 180.666 129.607 180.674 130.805C180.683 132.003 180.923 132.848 181.396 133.339C181.737 133.753 182.246 133.958 182.924 133.953C183.366 133.95 183.743 133.856 184.054 133.672C184.132 133.645 184.197 133.606 184.249 133.553C184.326 133.474 184.404 133.396 184.481 133.317C184.533 133.239 184.636 133.134 184.792 133.002C184.947 132.871 185.181 132.804 185.493 132.802ZM189.182 135.041C188.631 134.576 188.236 133.954 187.996 133.175C187.756 132.369 187.633 131.537 187.627 130.677C187.622 129.974 187.708 129.27 187.885 128.566C188.088 127.861 188.396 127.273 188.81 126.801C189.481 126.015 190.35 125.553 191.417 125.415C192.484 125.251 193.448 125.323 194.309 125.629C195.302 126.013 196.036 126.684 196.511 127.644C196.96 128.501 197.189 129.502 197.197 130.647C197.203 131.481 197.117 132.198 196.939 132.798C196.761 133.398 196.53 133.908 196.247 134.326C195.628 135.19 194.838 135.73 193.876 135.945C193.018 136.185 192.146 136.205 191.259 136.003C190.398 135.827 189.706 135.506 189.182 135.041ZM191.007 128.153C190.464 128.756 190.224 129.656 190.284 130.853C190.345 132.025 190.572 132.844 190.966 133.309C191.124 133.517 191.398 133.697 191.79 133.85C192.182 133.978 192.572 133.988 192.962 133.881C193.378 133.748 193.74 133.446 194.05 132.975C194.359 132.504 194.523 131.747 194.541 130.706C194.534 129.768 194.373 129.066 194.057 128.6C193.767 128.133 193.427 127.836 193.035 127.709C192.644 127.581 192.253 127.584 191.863 127.717C191.473 127.824 191.188 127.969 191.007 128.153ZM204.071 135.872L201.297 135.892L197.59 125.527L200.48 125.507L202.603 132.796L204.393 126.416C204.597 125.789 205.012 125.474 205.637 125.469L207.668 125.455L204.071 135.872ZM215.415 132.587L217.368 132.573C217.089 133.669 216.548 134.506 215.745 135.085C214.942 135.689 213.929 135.996 212.705 136.005C211.22 136.016 210.058 135.542 209.218 134.585C208.378 133.653 207.951 132.315 207.939 130.57C207.927 128.904 208.321 127.599 209.122 126.655C209.948 125.686 211.103 125.196 212.588 125.185C214.15 125.174 215.365 125.634 216.231 126.565C217.071 127.523 217.497 128.861 217.51 130.58C217.51 130.684 217.511 130.775 217.512 130.853C217.512 130.931 217.512 130.983 217.513 131.009C217.514 131.139 217.501 131.231 217.476 131.283L210.718 131.332C210.75 132.139 210.949 132.736 211.317 133.124C211.658 133.538 212.168 133.743 212.845 133.738C213.287 133.735 213.664 133.641 213.975 133.457C214.053 133.43 214.118 133.39 214.17 133.338C214.247 133.259 214.325 133.181 214.403 133.102C214.428 133.024 214.518 132.919 214.674 132.787C214.855 132.656 215.102 132.589 215.415 132.587ZM210.705 129.574L214.69 129.545C214.632 128.842 214.446 128.323 214.131 127.987C213.79 127.624 213.307 127.446 212.682 127.45C212.109 127.454 211.642 127.64 211.28 128.007C210.918 128.374 210.726 128.897 210.705 129.574ZM217.977 135.772L217.94 130.733C217.933 129.717 218.07 128.87 218.352 128.191C218.659 127.485 219.072 126.922 219.59 126.502C220.082 126.108 220.652 125.817 221.302 125.63C221.978 125.443 222.667 125.347 223.37 125.342C223.423 125.342 223.488 125.341 223.566 125.341C223.644 125.34 223.709 125.34 223.761 125.339L223.781 128.113L222.883 128.119C222.127 128.124 221.569 128.311 221.207 128.678C220.845 129.045 220.667 129.619 220.672 130.401L220.711 135.752L217.977 135.772Z" fill="#F15E22"/>
<defs>
<filter id="filter0_ddd_162_12682" x="119.123" y="0.912695" width="33.0818" height="92.0621" filterUnits="userSpaceOnUse" color-interpolation-filters="sRGB">
<feFlood flood-opacity="0" result="BackgroundImageFix"/>
<feColorMatrix in="SourceAlpha" type="matrix" values="0 0 0 0 0 0 0 0 0 0 0 0 0 0 0 0 0 0 127 0" result="hardAlpha"/>
<feOffset/>
<feGaussianBlur stdDeviation="0.3267"/>
<feColorMatrix type="matrix" values="0 0 0 0 1 0 0 0 0 1 0 0 0 0 1 0 0 0 1 0"/>
<feBlend mode="normal" in2="BackgroundImageFix" result="effect1_dropShadow_162_12682"/>
<feColorMatrix in="SourceAlpha" type="matrix" values="0 0 0 0 0 0 0 0 0 0 0 0 0 0 0 0 0 0 127 0" result="hardAlpha"/>
<feOffset/>
<feGaussianBlur stdDeviation="0.6534"/>
<feColorMatrix type="matrix" values="0 0 0 0 1 0 0 0 0 1 0 0 0 0 1 0 0 0 1 0"/>
<feBlend mode="normal" in2="effect1_dropShadow_162_12682" result="effect2_dropShadow_162_12682"/>
<feColorMatrix in="SourceAlpha" type="matrix" values="0 0 0 0 0 0 0 0 0 0 0 0 0 0 0 0 0 0 127 0" result="hardAlpha"/>
<feOffset/>
<feGaussianBlur stdDeviation="7.05"/>
<feColorMatrix type="matrix" values="0 0 0 0 1 0 0 0 0 1 0 0 0 0 1 0 0 0 1 0"/>
<feBlend mode="normal" in2="effect2_dropShadow_162_12682" result="effect3_dropShadow_162_12682"/>
<feBlend mode="normal" in="SourceGraphic" in2="effect3_dropShadow_162_12682" result="shape"/>
</filter>
<filter id="filter1_ddd_162_12682" x="119.96" y="164.783" width="33.1948" height="92.0619" filterUnits="userSpaceOnUse" color-interpolation-filters="sRGB">
<feFlood flood-opacity="0" result="BackgroundImageFix"/>
<feColorMatrix in="SourceAlpha" type="matrix" values="0 0 0 0 0 0 0 0 0 0 0 0 0 0 0 0 0 0 127 0" result="hardAlpha"/>
<feOffset/>
<feGaussianBlur stdDeviation="0.3267"/>
<feColorMatrix type="matrix" values="0 0 0 0 1 0 0 0 0 1 0 0 0 0 1 0 0 0 1 0"/>
<feBlend mode="normal" in2="BackgroundImageFix" result="effect1_dropShadow_162_12682"/>
<feColorMatrix in="SourceAlpha" type="matrix" values="0 0 0 0 0 0 0 0 0 0 0 0 0 0 0 0 0 0 127 0" result="hardAlpha"/>
<feOffset/>
<feGaussianBlur stdDeviation="0.6534"/>
<feColorMatrix type="matrix" values="0 0 0 0 1 0 0 0 0 1 0 0 0 0 1 0 0 0 1 0"/>
<feBlend mode="normal" in2="effect1_dropShadow_162_12682" result="effect2_dropShadow_162_12682"/>
<feColorMatrix in="SourceAlpha" type="matrix" values="0 0 0 0 0 0 0 0 0 0 0 0 0 0 0 0 0 0 127 0" result="hardAlpha"/>
<feOffset/>
<feGaussianBlur stdDeviation="7.05"/>
<feColorMatrix type="matrix" values="0 0 0 0 1 0 0 0 0 1 0 0 0 0 1 0 0 0 1 0"/>
<feBlend mode="normal" in2="effect2_dropShadow_162_12682" result="effect3_dropShadow_162_12682"/>
<feBlend mode="normal" in="SourceGraphic" in2="effect3_dropShadow_162_12682" result="shape"/>
</filter>
<filter id="filter2_ddd_162_12682" x="120.917" y="345.377" width="33.1696" height="92.0619" filterUnits="userSpaceOnUse" color-interpolation-filters="sRGB">
<feFlood flood-opacity="0" result="BackgroundImageFix"/>
<feColorMatrix in="SourceAlpha" type="matrix" values="0 0 0 0 0 0 0 0 0 0 0 0 0 0 0 0 0 0 127 0" result="hardAlpha"/>
<feOffset/>
<feGaussianBlur stdDeviation="0.3267"/>
<feColorMatrix type="matrix" values="0 0 0 0 1 0 0 0 0 1 0 0 0 0 1 0 0 0 1 0"/>
<feBlend mode="normal" in2="BackgroundImageFix" result="effect1_dropShadow_162_12682"/>
<feColorMatrix in="SourceAlpha" type="matrix" values="0 0 0 0 0 0 0 0 0 0 0 0 0 0 0 0 0 0 127 0" result="hardAlpha"/>
<feOffset/>
<feGaussianBlur stdDeviation="0.6534"/>
<feColorMatrix type="matrix" values="0 0 0 0 1 0 0 0 0 1 0 0 0 0 1 0 0 0 1 0"/>
<feBlend mode="normal" in2="effect1_dropShadow_162_12682" result="effect2_dropShadow_162_12682"/>
<feColorMatrix in="SourceAlpha" type="matrix" values="0 0 0 0 0 0 0 0 0 0 0 0 0 0 0 0 0 0 127 0" result="hardAlpha"/>
<feOffset/>
<feGaussianBlur stdDeviation="7.05"/>
<feColorMatrix type="matrix" values="0 0 0 0 1 0 0 0 0 1 0 0 0 0 1 0 0 0 1 0"/>
<feBlend mode="normal" in2="effect2_dropShadow_162_12682" result="effect3_dropShadow_162_12682"/>
<feBlend mode="normal" in="SourceGraphic" in2="effect3_dropShadow_162_12682" result="shape"/>
</filter>
<filter id="filter3_ddd_162_12682" x="121.705" y="518.533" width="33.1696" height="92.0618" filterUnits="userSpaceOnUse" color-interpolation-filters="sRGB">
<feFlood flood-opacity="0" result="BackgroundImageFix"/>
<feColorMatrix in="SourceAlpha" type="matrix" values="0 0 0 0 0 0 0 0 0 0 0 0 0 0 0 0 0 0 127 0" result="hardAlpha"/>
<feOffset/>
<feGaussianBlur stdDeviation="0.3267"/>
<feColorMatrix type="matrix" values="0 0 0 0 1 0 0 0 0 1 0 0 0 0 1 0 0 0 1 0"/>
<feBlend mode="normal" in2="BackgroundImageFix" result="effect1_dropShadow_162_12682"/>
<feColorMatrix in="SourceAlpha" type="matrix" values="0 0 0 0 0 0 0 0 0 0 0 0 0 0 0 0 0 0 127 0" result="hardAlpha"/>
<feOffset/>
<feGaussianBlur stdDeviation="0.6534"/>
<feColorMatrix type="matrix" values="0 0 0 0 1 0 0 0 0 1 0 0 0 0 1 0 0 0 1 0"/>
<feBlend mode="normal" in2="effect1_dropShadow_162_12682" result="effect2_dropShadow_162_12682"/>
<feColorMatrix in="SourceAlpha" type="matrix" values="0 0 0 0 0 0 0 0 0 0 0 0 0 0 0 0 0 0 127 0" result="hardAlpha"/>
<feOffset/>
<feGaussianBlur stdDeviation="7.05"/>
<feColorMatrix type="matrix" values="0 0 0 0 1 0 0 0 0 1 0 0 0 0 1 0 0 0 1 0"/>
<feBlend mode="normal" in2="effect2_dropShadow_162_12682" result="effect3_dropShadow_162_12682"/>
<feBlend mode="normal" in="SourceGraphic" in2="effect3_dropShadow_162_12682" result="shape"/>
</filter>
<filter id="filter4_dddd_162_12682" x="118.14" y="252.777" width="37.6541" height="96.6619" filterUnits="userSpaceOnUse" color-interpolation-filters="sRGB">
<feFlood flood-opacity="0" result="BackgroundImageFix"/>
<feColorMatrix in="SourceAlpha" type="matrix" values="0 0 0 0 0 0 0 0 0 0 0 0 0 0 0 0 0 0 127 0" result="hardAlpha"/>
<feOffset/>
<feGaussianBlur stdDeviation="0.3267"/>
<feColorMatrix type="matrix" values="0 0 0 0 0.945098 0 0 0 0 0.368627 0 0 0 0 0.133333 0 0 0 1 0"/>
<feBlend mode="normal" in2="BackgroundImageFix" result="effect1_dropShadow_162_12682"/>
<feColorMatrix in="SourceAlpha" type="matrix" values="0 0 0 0 0 0 0 0 0 0 0 0 0 0 0 0 0 0 127 0" result="hardAlpha"/>
<feOffset/>
<feGaussianBlur stdDeviation="0.6534"/>
<feColorMatrix type="matrix" values="0 0 0 0 0.945098 0 0 0 0 0.368627 0 0 0 0 0.133333 0 0 0 1 0"/>
<feBlend mode="normal" in2="effect1_dropShadow_162_12682" result="effect2_dropShadow_162_12682"/>
<feColorMatrix in="SourceAlpha" type="matrix" values="0 0 0 0 0 0 0 0 0 0 0 0 0 0 0 0 0 0 127 0" result="hardAlpha"/>
<feOffset/>
<feGaussianBlur stdDeviation="8.2"/>
<feColorMatrix type="matrix" values="0 0 0 0 0.945098 0 0 0 0 0.368627 0 0 0 0 0.133333 0 0 0 1 0"/>
<feBlend mode="normal" in2="effect2_dropShadow_162_12682" result="effect3_dropShadow_162_12682"/>
<feColorMatrix in="SourceAlpha" type="matrix" values="0 0 0 0 0 0 0 0 0 0 0 0 0 0 0 0 0 0 127 0" result="hardAlpha"/>
<feOffset dy="4"/>
<feGaussianBlur stdDeviation="5.15"/>
<feComposite in2="hardAlpha" operator="out"/>
<feColorMatrix type="matrix" values="0 0 0 0 0.945098 0 0 0 0 0.368627 0 0 0 0 0.133333 0 0 0 1 0"/>
<feBlend mode="normal" in2="effect3_dropShadow_162_12682" result="effect4_dropShadow_162_12682"/>
<feBlend mode="normal" in="SourceGraphic" in2="effect4_dropShadow_162_12682" result="shape"/>
</filter>
<filter id="filter5_dddd_162_12682" x="119.058" y="429.655" width="37.8078" height="96.6621" filterUnits="userSpaceOnUse" color-interpolation-filters="sRGB">
<feFlood flood-opacity="0" result="BackgroundImageFix"/>
<feColorMatrix in="SourceAlpha" type="matrix" values="0 0 0 0 0 0 0 0 0 0 0 0 0 0 0 0 0 0 127 0" result="hardAlpha"/>
<feOffset/>
<feGaussianBlur stdDeviation="0.3267"/>
<feColorMatrix type="matrix" values="0 0 0 0 0.945098 0 0 0 0 0.368627 0 0 0 0 0.133333 0 0 0 1 0"/>
<feBlend mode="normal" in2="BackgroundImageFix" result="effect1_dropShadow_162_12682"/>
<feColorMatrix in="SourceAlpha" type="matrix" values="0 0 0 0 0 0 0 0 0 0 0 0 0 0 0 0 0 0 127 0" result="hardAlpha"/>
<feOffset/>
<feGaussianBlur stdDeviation="0.6534"/>
<feColorMatrix type="matrix" values="0 0 0 0 0.945098 0 0 0 0 0.368627 0 0 0 0 0.133333 0 0 0 1 0"/>
<feBlend mode="normal" in2="effect1_dropShadow_162_12682" result="effect2_dropShadow_162_12682"/>
<feColorMatrix in="SourceAlpha" type="matrix" values="0 0 0 0 0 0 0 0 0 0 0 0 0 0 0 0 0 0 127 0" result="hardAlpha"/>
<feOffset/>
<feGaussianBlur stdDeviation="8.2"/>
<feColorMatrix type="matrix" values="0 0 0 0 0.945098 0 0 0 0 0.368627 0 0 0 0 0.133333 0 0 0 1 0"/>
<feBlend mode="normal" in2="effect2_dropShadow_162_12682" result="effect3_dropShadow_162_12682"/>
<feColorMatrix in="SourceAlpha" type="matrix" values="0 0 0 0 0 0 0 0 0 0 0 0 0 0 0 0 0 0 127 0" result="hardAlpha"/>
<feOffset dy="4"/>
<feGaussianBlur stdDeviation="5.15"/>
<feComposite in2="hardAlpha" operator="out"/>
<feColorMatrix type="matrix" values="0 0 0 0 0.945098 0 0 0 0 0.368627 0 0 0 0 0.133333 0 0 0 1 0"/>
<feBlend mode="normal" in2="effect3_dropShadow_162_12682" result="effect4_dropShadow_162_12682"/>
<feBlend mode="normal" in="SourceGraphic" in2="effect4_dropShadow_162_12682" result="shape"/>
</filter>
<filter id="filter6_dddd_162_12682" x="117.154" y="80.5493" width="37.8096" height="96.6621" filterUnits="userSpaceOnUse" color-interpolation-filters="sRGB">
<feFlood flood-opacity="0" result="BackgroundImageFix"/>
<feColorMatrix in="SourceAlpha" type="matrix" values="0 0 0 0 0 0 0 0 0 0 0 0 0 0 0 0 0 0 127 0" result="hardAlpha"/>
<feOffset/>
<feGaussianBlur stdDeviation="0.3267"/>
<feColorMatrix type="matrix" values="0 0 0 0 0.945098 0 0 0 0 0.368627 0 0 0 0 0.133333 0 0 0 1 0"/>
<feBlend mode="normal" in2="BackgroundImageFix" result="effect1_dropShadow_162_12682"/>
<feColorMatrix in="SourceAlpha" type="matrix" values="0 0 0 0 0 0 0 0 0 0 0 0 0 0 0 0 0 0 127 0" result="hardAlpha"/>
<feOffset/>
<feGaussianBlur stdDeviation="0.6534"/>
<feColorMatrix type="matrix" values="0 0 0 0 0.945098 0 0 0 0 0.368627 0 0 0 0 0.133333 0 0 0 1 0"/>
<feBlend mode="normal" in2="effect1_dropShadow_162_12682" result="effect2_dropShadow_162_12682"/>
<feColorMatrix in="SourceAlpha" type="matrix" values="0 0 0 0 0 0 0 0 0 0 0 0 0 0 0 0 0 0 127 0" result="hardAlpha"/>
<feOffset/>
<feGaussianBlur stdDeviation="8.2"/>
<feColorMatrix type="matrix" values="0 0 0 0 0.945098 0 0 0 0 0.368627 0 0 0 0 0.133333 0 0 0 1 0"/>
<feBlend mode="normal" in2="effect2_dropShadow_162_12682" result="effect3_dropShadow_162_12682"/>
<feColorMatrix in="SourceAlpha" type="matrix" values="0 0 0 0 0 0 0 0 0 0 0 0 0 0 0 0 0 0 127 0" result="hardAlpha"/>
<feOffset dy="4"/>
<feGaussianBlur stdDeviation="5.15"/>
<feComposite in2="hardAlpha" operator="out"/>
<feColorMatrix type="matrix" values="0 0 0 0 0.945098 0 0 0 0 0.368627 0 0 0 0 0.133333 0 0 0 1 0"/>
<feBlend mode="normal" in2="effect3_dropShadow_162_12682" result="effect4_dropShadow_162_12682"/>
<feBlend mode="normal" in="SourceGraphic" in2="effect4_dropShadow_162_12682" result="shape"/>
</filter>
</defs>
</svg>
