<svg width="1077" height="1014" viewBox="0 0 1077 1014" fill="none" xmlns="http://www.w3.org/2000/svg">
<g filter="url(#filter0_dddddd_36_10356)">
<path d="M625.796 425.811C625.399 426.351 625.003 426.881 624.616 427.411C625.633 427.981 626.631 428.471 627.557 429.061C628.941 429.931 630.07 431.091 630.721 432.581C631.434 434.241 631.464 435.941 630.66 437.611C630.253 437.411 629.846 437.221 629.439 437.021C630.335 434.881 629.805 433.011 628.269 431.361C627.15 430.161 625.715 429.441 624.219 428.801C623.629 428.551 623.222 428.641 622.774 429.041C621.207 430.411 619.416 431.461 617.523 432.331C616.913 432.611 616.292 432.891 615.631 433.191C615.854 435.211 616.068 437.181 616.292 439.191C616.719 439.221 617.045 439.241 617.36 439.261C619.558 439.421 621.767 439.661 623.761 440.581C625.237 441.261 626.325 441.121 627.333 439.941C627.658 440.221 627.994 440.511 628.32 440.791C627.923 441.151 627.526 441.501 627.027 441.951C627.292 442.151 627.516 442.351 627.76 442.521C628.981 443.361 630.07 444.331 630.843 445.591C632.248 447.901 632.278 450.201 630.803 452.491C630.436 452.241 630.07 451.991 629.704 451.741C631.006 449.591 630.721 447.561 629.236 445.621C628.462 444.621 627.465 443.881 626.386 443.211C625.908 442.921 625.532 442.861 625.013 443.161C623.191 444.191 621.227 444.881 619.182 445.331C618.348 445.511 617.503 445.661 616.648 445.821V457.401C619.63 457.561 624.392 456.341 627.19 454.321C627.465 454.661 627.73 455.001 628.004 455.341C625.511 457.151 622.662 458.081 619.63 458.541C618.419 458.721 617.198 458.811 615.977 458.841C615.163 458.861 614.338 458.641 613.524 458.641C574.337 458.641 535.15 458.641 495.963 458.641C495.546 458.641 495.129 458.641 494.651 458.641C494.651 459.211 494.62 459.631 494.651 460.041C495.811 471.921 501.163 481.681 510.179 489.571C515.654 494.361 521.901 497.771 529.055 499.451C537.908 501.521 546.71 501.261 555.37 498.481C561.495 496.521 566.828 493.231 571.559 488.971C573.605 487.121 575.457 485.091 577.187 482.961C577.777 482.241 577.94 482.191 578.845 482.511C583.689 484.221 588.522 485.941 593.366 487.651C593.692 487.771 594.007 487.921 594.404 488.101C594.18 488.461 594.038 488.741 593.844 488.981C591.504 491.851 589.316 494.861 586.782 497.561C579.089 505.761 569.901 511.741 558.952 514.931C554.83 516.131 550.628 516.881 546.334 517.201C542.019 517.531 537.694 517.591 533.39 517.151C523.998 516.201 515.257 513.361 507.269 508.361C498.711 503.011 491.761 496.081 486.388 487.641C482.796 482.011 480.323 475.921 478.888 469.431C478.186 466.241 477.728 463.021 477.535 459.761C477.464 458.641 477.464 458.631 476.355 458.631C472.071 458.631 467.787 458.631 463.493 458.631C463.177 458.631 462.862 458.681 462.424 458.711C462.505 459.941 462.536 461.091 462.648 462.241C463.096 466.971 463.879 471.651 465.243 476.211C465.945 478.581 466.759 480.941 467.675 483.241C471.826 493.651 478.278 502.511 486.429 510.251C490.753 514.351 495.414 517.991 500.532 521.081C503.27 522.731 506.109 524.191 509.029 525.481C516.234 528.671 523.794 530.561 531.63 531.421C536.941 532.001 542.263 532.091 547.595 531.691C548.338 531.631 549.091 531.491 549.834 531.821C550.038 531.911 550.333 531.841 550.577 531.811C557.1 530.991 563.48 529.581 569.636 527.281C579.985 523.421 588.99 517.561 596.744 509.811C600.672 505.881 604.163 501.621 607.276 497.051C608.284 495.561 608.131 495.791 609.576 496.391C614.053 498.231 618.521 500.101 622.988 501.971C623.212 502.061 623.405 502.221 623.69 502.391C623.527 502.711 623.395 502.991 623.232 503.251C617.808 511.901 611.265 519.631 603.501 526.331C596.999 531.951 589.825 536.571 581.949 540.141C574.693 543.431 567.133 545.761 559.277 547.171C552.846 548.321 546.374 549.021 539.841 549.021C531.009 549.021 522.329 547.841 513.842 545.371C502.842 542.171 492.85 537.021 483.681 530.281C478.013 526.111 472.793 521.461 468.092 516.241C462.159 509.651 457.306 502.361 453.591 494.351C449.603 485.751 447.109 476.741 445.807 467.391C445.105 462.371 444.728 457.321 444.81 452.251C444.973 442.261 446.662 432.541 450.122 423.131C454.08 412.351 460.002 402.711 467.431 393.921C472.722 387.651 478.675 382.071 485.411 377.321C490.906 373.451 496.767 370.221 503.005 367.661C509.172 365.141 515.521 363.271 522.085 362.041C527.183 361.091 532.332 360.531 537.521 360.291C538.02 360.271 538.529 360.241 539.027 360.141C540.849 359.801 542.538 360.061 544.085 361.091C543.82 361.451 543.566 361.811 543.301 362.171C542.019 361.441 540.686 361.071 539.221 361.561V376.121C540.696 376.181 542.121 376.241 543.606 376.291C543.708 375.791 543.79 375.351 543.881 374.901C544.309 372.701 545.001 370.591 546.018 368.581C546.354 367.921 546.975 367.261 546.954 366.621C546.944 365.961 546.303 365.321 545.947 364.671C546.303 364.411 546.649 364.151 547.005 363.881C547.321 364.351 547.636 364.811 548.013 365.391C548.389 365.001 548.705 364.681 549.02 364.361C550.048 363.301 551.208 362.421 552.602 361.871C554.932 360.941 557.1 361.211 559.114 362.701C558.84 363.061 558.575 363.421 558.3 363.771C556.377 362.361 554.383 362.391 552.327 363.461C551.065 364.121 550.099 365.111 549.183 366.161C548.776 366.631 548.766 367.041 548.979 367.611C549.346 368.601 549.661 369.621 549.905 370.651C550.384 372.701 550.556 374.801 550.465 376.911C552.531 377.251 554.545 377.591 556.499 377.911C556.611 377.771 556.672 377.731 556.692 377.671C557.761 374.681 559.196 371.891 561.353 369.501C561.607 369.221 561.628 368.951 561.485 368.631C561.17 367.881 560.865 367.131 560.549 366.371C560.946 366.191 561.333 366.001 561.729 365.821C562.065 366.521 562.401 367.211 562.778 367.981C563.195 367.681 563.541 367.381 563.938 367.161C564.925 366.601 565.891 365.951 566.95 365.551C569.616 364.521 572.557 365.021 574.602 367.521C574.266 367.851 573.94 368.181 573.605 368.521C572.333 366.821 570.623 366.161 568.517 366.501C566.675 366.801 565.199 367.791 563.816 368.951C563.358 369.341 563.236 369.731 563.327 370.331C563.541 371.621 563.754 372.921 563.765 374.221C563.765 376.011 563.581 377.801 563.47 379.671C565.393 380.311 567.428 380.981 569.412 381.631C569.717 381.101 569.972 380.601 570.277 380.131C571.6 378.101 573.147 376.241 575.07 374.711C575.569 374.321 575.711 373.921 575.558 373.341C575.385 372.661 575.253 371.961 575.1 371.271C575.548 371.221 575.996 371.181 576.444 371.131C576.617 371.781 576.779 372.421 576.983 373.191C577.309 373.041 577.583 372.921 577.848 372.781C579.344 371.981 580.901 371.371 582.61 371.201C585.093 370.961 587.128 371.761 588.706 373.671C588.36 373.991 588.024 374.311 587.678 374.631C586.202 372.631 584.147 372.231 581.827 372.661C580.433 372.921 579.191 373.561 577.97 374.251C577.349 374.601 577.064 375.011 577.095 375.761C577.176 377.711 576.881 379.641 576.383 381.521C576.149 382.401 575.894 383.281 575.64 384.191C577.594 385.181 579.486 386.151 581.328 387.091C581.46 387.021 581.501 387.021 581.521 386.991C583.577 384.561 585.826 382.341 588.655 380.761C588.868 380.641 589.051 380.251 589.051 379.981C589.051 379.141 588.95 378.291 588.889 377.451C589.336 377.451 589.774 377.451 590.222 377.441C590.323 378.201 590.415 378.961 590.527 379.801C591.188 379.601 591.768 379.421 592.348 379.261C593.712 378.881 595.086 378.711 596.51 378.911C598.922 379.251 600.621 380.481 601.619 382.661C601.68 382.791 601.741 382.921 601.802 383.041C601.374 383.201 600.947 383.351 600.509 383.511C599.563 381.191 597.762 380.171 595.279 380.151C593.804 380.141 592.45 380.561 591.097 381.081C590.568 381.281 590.323 381.581 590.252 382.161C589.906 384.781 589.001 387.231 587.759 389.571C587.566 389.941 587.383 390.311 587.179 390.721C589.062 392.131 590.873 393.501 592.684 394.861C592.837 394.781 592.939 394.751 593.02 394.691C595.167 392.881 597.477 391.341 600.102 390.291C600.367 390.181 600.621 389.801 600.682 389.501C600.866 388.641 600.947 387.751 601.069 386.881C601.507 386.911 601.954 386.941 602.392 386.971C602.321 387.801 602.249 388.631 602.168 389.561C602.88 389.441 603.501 389.341 604.132 389.251C605.414 389.061 606.706 389.061 607.978 389.321C610.583 389.851 612.354 391.321 613.168 393.841C612.71 393.931 612.242 394.011 611.784 394.101C611.143 392.111 609.688 391.051 607.683 390.611C605.831 390.211 604.04 390.521 602.26 390.991C601.883 391.091 601.639 391.281 601.496 391.651C601.262 392.271 600.937 392.861 600.713 393.481C600.082 395.271 599.014 396.811 597.925 398.341C597.742 398.591 597.579 398.861 597.396 399.121C598.78 400.601 600.113 402.021 601.486 403.481C601.914 403.251 602.29 403.061 602.656 402.851C604.743 401.711 606.93 400.841 609.271 400.341C609.993 400.191 610.919 400.181 611.357 399.731C611.815 399.271 611.805 398.361 611.998 397.641C612.435 397.681 612.873 397.721 613.311 397.751C613.188 398.401 613.076 399.061 612.934 399.841C613.351 399.881 613.728 399.921 614.094 399.941C615.692 400.041 617.218 400.381 618.622 401.161C620.729 402.341 621.838 404.111 621.929 406.491C621.929 406.631 621.95 406.771 621.96 406.911C621.512 406.961 621.054 407.011 620.607 407.051C620.678 404.231 618.989 402.351 616.343 401.651C615.346 401.381 614.287 401.361 613.26 401.221C612.578 401.131 612.232 401.441 611.957 402.041C610.95 404.221 609.546 406.141 607.846 407.851C607.276 408.431 606.706 409.011 606.137 409.591C607.144 411.251 608.121 412.851 609.067 414.411C609.23 414.411 609.311 414.431 609.373 414.411C612.059 413.551 614.806 413.001 617.645 413.091C618.134 413.111 618.378 412.841 618.582 412.501C619.029 411.731 619.447 410.951 619.874 410.171C620.261 410.381 620.647 410.581 621.044 410.791C620.657 411.571 620.271 412.361 619.843 413.231C620.342 413.341 620.749 413.431 621.156 413.531C622.632 413.891 624.026 414.441 625.226 415.381C627.262 416.971 628.076 419.031 627.669 421.551C627.638 421.761 627.597 421.971 627.557 422.171C627.109 422.091 626.661 422.011 626.213 421.931C626.793 419.631 626.163 417.741 624.239 416.301C622.794 415.221 621.095 414.791 619.335 414.541C618.867 414.471 618.612 414.711 618.348 415.031C616.77 416.901 614.888 418.411 612.822 419.721C612.527 419.911 612.242 420.121 611.947 420.321C612.649 422.311 613.341 424.231 614.013 426.121C614.135 426.161 614.196 426.201 614.267 426.201C617.076 426.061 619.874 426.101 622.611 426.831C622.845 426.891 623.242 426.721 623.435 426.521C623.914 426.051 624.321 425.501 624.748 424.981C625.094 425.241 625.44 425.511 625.796 425.771V425.811ZM496.187 443.171C498.039 443.381 614.023 443.251 614.806 443.021C614.644 442.041 615.203 441.031 614.674 440.031C614.603 439.891 614.664 439.531 614.776 439.451C615.295 439.111 615.112 438.651 615.091 438.201C614.837 434.081 614.013 430.071 612.832 426.121C611.886 422.951 610.624 419.911 609.179 416.931C608.904 416.361 608.335 416.211 608.009 415.791C607.643 415.321 608.039 414.691 607.693 414.101C604.895 409.231 601.517 404.801 597.589 400.771C593.732 396.821 589.428 393.411 584.788 390.411C577.848 385.911 570.308 382.691 562.34 380.421C555.878 378.581 549.274 377.561 542.558 377.251C538.559 377.071 534.56 377.041 530.581 377.461C523.642 378.201 516.936 379.971 510.505 382.591C505.915 384.461 501.56 386.831 497.459 389.611C489.878 394.761 483.295 400.951 477.708 408.171C469.822 418.361 464.999 429.801 463.157 442.471C463.126 442.701 463.157 442.931 463.157 443.191H478.502C478.644 442.601 478.777 442.061 478.899 441.511C480.364 434.911 482.918 428.751 486.581 423.041C490.977 416.201 496.523 410.401 503.056 405.511C508.877 401.161 515.287 397.921 522.319 395.941C531.579 393.331 541.001 392.841 550.526 394.141C556.56 394.961 562.31 396.711 567.794 399.291C573.879 402.161 579.273 406.021 584.147 410.591C587.668 413.891 590.68 417.641 593.61 421.451C593.905 421.841 594.18 422.241 594.567 422.771C588.919 424.801 583.394 426.791 577.797 428.801C571.549 420.791 563.846 414.831 553.925 412.061C544.125 409.321 534.316 409.381 524.659 412.771C509.538 418.091 498.518 432.181 496.187 443.171ZM605.343 408.431C607.602 406.391 609.444 404.241 610.777 401.411C607.632 401.951 604.946 403.001 602.412 404.571C603.42 405.901 604.335 407.111 605.343 408.421V408.431ZM558.015 378.261C559.399 378.601 560.702 378.921 562.065 379.251C562.513 376.441 562.676 373.731 562.106 370.961C560.753 372.031 558.84 375.461 558.015 378.271V378.261ZM547.789 368.211C546.272 370.881 545.448 373.501 545.041 376.361C546.486 376.501 547.819 376.621 549.173 376.751C549.152 373.831 548.888 371.101 547.789 368.211ZM585.999 389.931C587.413 387.511 588.451 385.101 588.878 382.191C586.324 383.811 584.35 385.631 582.661 387.871C583.801 388.581 584.839 389.211 585.999 389.931ZM574.307 383.601C575.273 381.151 575.731 378.681 575.67 376.091C573.564 377.741 572.027 379.791 570.654 382.091C571.895 382.601 573.045 383.081 574.307 383.601ZM616.638 444.401C619.284 444.051 621.706 443.381 624.138 442.101C621.512 441.061 618.999 440.591 616.384 440.571C616.15 441.481 616.628 442.391 615.773 443.141C616.618 443.221 616.577 443.771 616.638 444.401ZM615.356 431.781C617.717 430.871 619.813 429.751 621.817 428.081C619.253 427.461 616.892 427.391 614.399 427.631C614.725 429.051 615.03 430.371 615.356 431.791V431.781ZM616.842 414.541C614.41 414.521 612.079 414.881 609.759 415.791C610.319 416.921 610.817 417.951 611.367 419.051C613.494 417.811 615.336 416.401 616.842 414.541ZM596.297 398.061C597.792 396.621 599.787 393.061 599.777 391.891C597.579 392.861 595.645 394.181 593.804 395.831C594.669 396.611 595.462 397.321 596.297 398.071V398.061Z" fill="white"/>
<g filter="url(#filter1_dddddd_36_10356)">
<path d="M558.321 363.771C558.595 363.411 558.86 363.051 559.135 362.701C559.338 362.641 559.542 362.561 559.755 362.531C560.58 362.411 561.353 362.511 561.862 363.251C562.35 363.951 562.34 364.701 561.953 365.451C561.892 365.581 561.821 365.701 561.75 365.821C561.353 366.001 560.966 366.191 560.569 366.371C560.396 366.351 560.213 366.321 560.04 366.301C558.962 366.161 558.392 365.561 558.321 364.511C558.31 364.271 558.31 364.021 558.3 363.781L558.321 363.771Z" fill="#F15E22"/>
</g>
<g filter="url(#filter2_dddddd_36_10356)">
<path d="M602.412 386.941C601.975 386.911 601.527 386.881 601.09 386.851C599.645 385.611 599.533 384.901 600.53 383.481C600.957 383.321 601.385 383.171 601.822 383.011C602.769 383.131 603.552 383.481 603.776 384.491C604.01 385.551 603.542 386.311 602.585 386.811C602.524 386.841 602.473 386.891 602.412 386.931V386.941Z" fill="#F15E22"/>
</g>
<g filter="url(#filter3_dddddd_36_10356)">
<path d="M625.796 425.811C625.45 425.551 625.104 425.281 624.748 425.021C624.3 423.211 624.606 422.571 626.214 421.961C626.661 422.041 627.109 422.121 627.557 422.201C627.984 422.631 628.422 423.031 628.442 423.711C628.483 424.931 627.781 425.731 626.539 425.791C626.285 425.801 626.041 425.791 625.786 425.801L625.796 425.811Z" fill="#F15E22"/>
</g>
<g filter="url(#filter4_dddddd_36_10356)">
<path d="M576.454 371.111C576.006 371.161 575.559 371.201 575.111 371.251C574.012 370.741 573.442 369.951 573.645 368.711C573.656 368.641 573.625 368.571 573.615 368.501C573.951 368.171 574.276 367.841 574.612 367.501C574.856 367.471 575.101 367.421 575.355 367.411C576.352 367.371 577.044 367.731 577.38 368.461C577.726 369.221 577.512 370.091 576.831 370.741C576.708 370.861 576.576 370.981 576.454 371.111Z" fill="#F15E22"/>
</g>
<g filter="url(#filter5_dddddd_36_10356)">
<path d="M590.242 377.421C589.794 377.421 589.357 377.421 588.909 377.431C587.779 376.791 587.372 375.851 587.698 374.611C588.044 374.291 588.38 373.971 588.726 373.651C589.011 373.631 589.296 373.601 589.57 373.601C590.425 373.601 591.158 374.081 591.402 374.771C591.677 375.551 591.453 376.391 590.812 376.951C590.629 377.111 590.435 377.261 590.242 377.411V377.421Z" fill="#F15E22"/>
</g>
<g filter="url(#filter6_dddddd_36_10356)">
<path d="M621.054 410.811C620.668 410.601 620.281 410.401 619.884 410.191C619.294 408.501 619.396 408.101 620.627 407.061C621.075 407.011 621.533 406.961 621.98 406.921C622.794 407.291 623.446 407.771 623.436 408.781C623.436 409.901 622.815 410.611 621.675 410.751C621.461 410.771 621.248 410.801 621.044 410.821L621.054 410.811Z" fill="#F15E22"/>
</g>
<g filter="url(#filter7_dddddd_36_10356)">
<path d="M629.439 437.021C629.846 437.221 630.253 437.411 630.66 437.611C631.434 438.961 631.22 440.171 630.009 440.651C629.51 440.851 628.89 440.751 628.32 440.781C627.994 440.501 627.658 440.211 627.333 439.931C627.302 439.551 627.231 439.171 627.241 438.791C627.262 438.001 627.831 437.301 628.584 437.121C628.859 437.051 629.144 437.051 629.429 437.021H629.439Z" fill="#F15E22"/>
</g>
<g filter="url(#filter8_dddddd_36_10356)">
<path d="M629.714 451.731C630.08 451.981 630.447 452.231 630.813 452.481C630.905 453.021 631.108 453.571 631.057 454.101C630.986 454.961 630.111 455.581 629.144 455.551C628.768 455.541 628.391 455.411 628.004 455.331C627.73 454.991 627.465 454.651 627.19 454.311C627.201 454.071 627.211 453.821 627.221 453.581C627.292 452.521 627.964 451.861 629.063 451.781C629.276 451.761 629.49 451.751 629.704 451.741L629.714 451.731Z" fill="#F15E22"/>
</g>
<g filter="url(#filter9_dddddd_36_10356)">
<path d="M547.026 363.881C546.669 364.141 546.323 364.401 545.967 364.671C545.652 364.661 545.326 364.671 545.011 364.631C544.125 364.531 543.444 363.861 543.352 363.001C543.322 362.721 543.332 362.441 543.332 362.161C543.596 361.801 543.851 361.441 544.115 361.081C544.288 361.031 544.451 360.961 544.624 360.921C546.313 360.541 547.453 361.571 547.188 363.261C547.158 363.471 547.087 363.671 547.036 363.871L547.026 363.881Z" fill="#F15E22"/>
</g>
<g filter="url(#filter10_dddddd_36_10356)">
<path d="M613.351 397.751C612.914 397.711 612.476 397.671 612.038 397.641C610.522 396.301 610.471 395.451 611.815 394.081C612.273 393.991 612.741 393.911 613.199 393.821C614.552 394.421 614.959 395.041 614.776 396.191C614.643 397.031 613.962 397.361 613.341 397.761L613.351 397.751Z" fill="#F15E22"/>
</g>
<path d="M422.306 629.576C421.645 637.406 418.653 643.536 413.352 647.966C407.908 652.266 400.744 654.426 391.85 654.426C381.501 654.426 373.605 651.366 368.161 645.236C362.717 639.366 360 630.696 360 619.216C360 607.736 362.788 598.676 368.364 592.806C374.073 586.676 382.295 583.616 393.051 583.616C401.812 583.616 408.773 585.766 413.952 590.076C418.857 594.256 421.645 600.116 422.316 607.686H413.759C410.574 607.686 408.315 606.316 406.992 603.576C406.066 601.886 404.936 600.386 403.603 599.076C400.947 597.116 397.437 596.146 393.051 596.146C386.945 596.146 382.234 598.106 378.917 602.016C375.732 605.926 374.144 611.666 374.144 619.226C374.144 626.786 375.732 632.136 378.917 636.046C381.97 640.086 386.549 642.106 392.654 642.106C396.897 642.106 400.418 641.066 403.206 638.976C405.73 637.016 407.521 633.886 408.579 629.586H422.316L422.306 629.576Z" fill="white"/>
<g filter="url(#filter11_dddddd_36_10356)">
<path d="M648.799 585.566H655.963C657.815 585.566 659.412 586.216 660.735 587.526C662.058 588.836 662.729 590.396 662.729 592.226V596.336H648.799V585.576V585.566Z" fill="#F15E22"/>
</g>
<path d="M466.805 636.816H476.757C475.292 642.296 472.514 646.466 468.392 649.336C464.281 652.336 459.102 653.836 452.864 653.836C445.304 653.836 439.391 651.426 435.148 646.596C430.895 641.906 428.778 635.186 428.778 626.446C428.778 617.706 430.834 611.576 434.945 606.886C439.188 602.066 445.1 599.646 452.661 599.646C460.618 599.646 466.795 601.996 471.17 606.686C475.414 611.516 477.54 618.226 477.54 626.836V628.986C477.54 629.636 477.469 630.096 477.337 630.356H442.902C443.034 634.396 444.032 637.396 445.884 639.356C447.603 641.446 450.198 642.486 453.648 642.486C455.907 642.486 457.83 642.026 459.417 641.116C459.814 640.986 460.181 640.756 460.516 640.426C460.842 640.106 461.208 639.746 461.615 639.346C461.748 638.956 462.246 638.436 463.111 637.776C463.976 637.126 465.197 636.796 466.795 636.796L466.805 636.816ZM442.912 621.556H463.213C462.948 618.036 462.022 615.426 460.425 613.736C458.695 611.906 456.243 610.996 453.057 610.996C450.137 610.996 447.746 611.906 445.894 613.736C444.032 615.566 443.034 618.166 442.912 621.556Z" fill="white"/>
<path d="M485.03 585.566H492.194C494.046 585.566 495.643 586.186 496.966 587.426C498.289 588.666 498.96 590.196 498.96 592.026V652.866H485.03V585.576V585.566Z" fill="white"/>
<path d="M542.859 636.816H552.811C551.345 642.296 548.567 646.466 544.456 649.336C540.345 652.336 535.166 653.836 528.928 653.836C521.368 653.836 515.455 651.426 511.212 646.596C506.959 641.906 504.842 635.186 504.842 626.446C504.842 617.706 506.898 611.576 511.009 606.886C515.252 602.066 521.164 599.646 528.725 599.646C536.682 599.646 542.859 601.996 547.234 606.686C551.478 611.516 553.604 618.226 553.604 626.836V628.986C553.604 629.636 553.533 630.096 553.401 630.356H518.966C519.098 634.396 520.096 637.396 521.948 639.356C523.667 641.446 526.262 642.486 529.712 642.486C531.971 642.486 533.894 642.026 535.481 641.116C535.878 640.986 536.245 640.756 536.58 640.426C536.906 640.106 537.272 639.746 537.679 639.346C537.812 638.956 538.31 638.436 539.175 637.776C540.04 637.126 541.261 636.796 542.859 636.796V636.816ZM518.976 621.556H539.277C539.012 618.036 538.086 615.426 536.489 613.736C534.759 611.906 532.306 610.996 529.121 610.996C526.201 610.996 523.81 611.906 521.958 613.736C520.096 615.566 519.098 618.166 518.976 621.556Z" fill="white"/>
<path d="M559.293 635.636H572.827C572.959 638.246 573.956 640.206 575.808 641.506C577.802 642.816 580.448 643.466 583.765 643.466C586.157 643.466 588.212 643.006 589.932 642.096C591.53 641.186 592.323 639.946 592.323 638.376C592.323 636.026 589.535 634.266 583.959 633.096C581.568 632.706 579.777 632.316 578.586 631.926C571.555 630.236 566.843 628.206 564.452 625.866C561.796 623.516 560.473 620.386 560.473 616.476C560.473 611.516 562.396 607.416 566.243 604.156C570.222 601.156 575.401 599.656 581.771 599.656C588.67 599.656 594.175 601.156 598.296 604.156C602.143 607.416 604.198 611.656 604.463 616.866H595.905C593.382 616.866 591.458 615.756 590.136 613.536C589.606 613.016 589.067 612.496 588.538 611.976C586.95 610.806 584.753 610.216 581.964 610.216C579.176 610.216 577.314 610.606 575.991 611.386C574.801 612.166 574.2 613.346 574.2 614.906C574.2 616.996 577.65 618.756 584.549 620.186C585.343 620.446 586.045 620.646 586.635 620.776C587.235 620.906 587.795 620.976 588.324 620.976C595.091 622.676 599.803 624.626 602.458 626.846C604.982 629.196 606.244 632.326 606.244 636.236C606.244 641.976 604.117 646.406 599.874 649.536C595.895 652.406 589.922 653.836 581.954 653.836C573.987 653.836 568.746 652.336 565.032 649.336C561.185 646.336 559.262 641.966 559.262 636.226V635.636H559.293Z" fill="white"/>
<path d="M636.629 652.856C632.253 653.116 627.501 653.056 622.393 652.656C617.284 652.266 614.73 649.066 614.73 643.076V585.566H621.894C623.614 585.566 625.14 586.216 626.473 587.526C627.796 588.836 628.468 590.396 628.468 592.226V601.026H636.629V603.766C636.629 605.726 635.967 607.316 634.634 608.556C633.311 609.796 631.714 610.416 629.862 610.416H628.468V639.366C628.468 641.586 629.79 642.696 632.446 642.696H636.629V652.866V652.856Z" fill="white"/>
<path d="M648.799 600.816H655.963C657.815 600.816 659.412 601.466 660.735 602.776C662.058 604.086 662.729 605.646 662.729 607.476V652.856H648.799V600.826V600.816Z" fill="white"/>
<path d="M706.943 650.706C704.155 652.146 701.204 653.016 698.09 653.346C694.966 653.666 692.219 653.836 689.828 653.836C685.045 653.836 680.873 652.566 677.291 650.026C673.709 647.486 671.918 643.276 671.918 637.406C671.918 631.926 673.546 628.016 676.792 625.666C680.038 623.316 684.19 621.756 689.237 620.976C689.899 620.976 690.693 620.876 691.629 620.686C692.555 620.486 693.623 620.326 694.814 620.196C700.655 619.416 703.575 617.716 703.575 615.106C703.575 613.146 702.547 611.876 700.492 611.296C698.436 610.706 696.544 610.416 694.814 610.416C692.952 610.416 691.293 610.676 689.838 611.196C688.372 611.716 687.314 612.696 686.653 614.126H673.312C673.841 610.086 675.704 606.756 678.889 604.146C682.471 601.146 687.579 599.646 694.213 599.646C701.642 599.646 707.218 600.886 710.932 603.366C714.779 605.976 716.702 609.626 716.702 614.316V632.116C716.702 637.336 715.735 641.406 713.812 644.346C711.889 647.276 709.599 649.396 706.943 650.706ZM703.758 626.646C701.896 627.556 699.311 628.406 695.994 629.186L691.415 630.166C689.024 630.816 687.304 631.666 686.236 632.706C685.31 634.146 684.841 635.576 684.841 637.006C684.841 638.966 685.442 640.526 686.632 641.696C687.823 642.746 689.553 643.266 691.812 643.266C695.526 643.266 698.446 642.226 700.573 640.136C702.69 638.056 703.758 635.186 703.758 631.526V626.636V626.646Z" fill="white"/>
</g>
<defs>
<filter id="filter0_dddddd_36_10356" x="0.44455" y="0.44455" width="1075.81" height="1013.54" filterUnits="userSpaceOnUse" color-interpolation-filters="sRGB">
<feFlood flood-opacity="0" result="BackgroundImageFix"/>
<feColorMatrix in="SourceAlpha" type="matrix" values="0 0 0 0 0 0 0 0 0 0 0 0 0 0 0 0 0 0 127 0" result="hardAlpha"/>
<feOffset/>
<feGaussianBlur stdDeviation="4.28042"/>
<feColorMatrix type="matrix" values="0 0 0 0 0.588048 0 0 0 0 0.720547 0 0 0 0 0.83068 0 0 0 1 0"/>
<feBlend mode="normal" in2="BackgroundImageFix" result="effect1_dropShadow_36_10356"/>
<feColorMatrix in="SourceAlpha" type="matrix" values="0 0 0 0 0 0 0 0 0 0 0 0 0 0 0 0 0 0 127 0" result="hardAlpha"/>
<feOffset/>
<feGaussianBlur stdDeviation="8.56084"/>
<feColorMatrix type="matrix" values="0 0 0 0 0.588048 0 0 0 0 0.720547 0 0 0 0 0.83068 0 0 0 1 0"/>
<feBlend mode="normal" in2="effect1_dropShadow_36_10356" result="effect2_dropShadow_36_10356"/>
<feColorMatrix in="SourceAlpha" type="matrix" values="0 0 0 0 0 0 0 0 0 0 0 0 0 0 0 0 0 0 127 0" result="hardAlpha"/>
<feOffset/>
<feGaussianBlur stdDeviation="29.963"/>
<feColorMatrix type="matrix" values="0 0 0 0 0.588048 0 0 0 0 0.720547 0 0 0 0 0.83068 0 0 0 1 0"/>
<feBlend mode="normal" in2="effect2_dropShadow_36_10356" result="effect3_dropShadow_36_10356"/>
<feColorMatrix in="SourceAlpha" type="matrix" values="0 0 0 0 0 0 0 0 0 0 0 0 0 0 0 0 0 0 127 0" result="hardAlpha"/>
<feOffset/>
<feGaussianBlur stdDeviation="59.9259"/>
<feColorMatrix type="matrix" values="0 0 0 0 0 0 0 0 0 0.176471 0 0 0 0 0.262745 0 0 0 1 0"/>
<feBlend mode="normal" in2="effect3_dropShadow_36_10356" result="effect4_dropShadow_36_10356"/>
<feColorMatrix in="SourceAlpha" type="matrix" values="0 0 0 0 0 0 0 0 0 0 0 0 0 0 0 0 0 0 127 0" result="hardAlpha"/>
<feOffset/>
<feGaussianBlur stdDeviation="102.73"/>
<feColorMatrix type="matrix" values="0 0 0 0 0 0 0 0 0 0.176471 0 0 0 0 0.262745 0 0 0 1 0"/>
<feBlend mode="normal" in2="effect4_dropShadow_36_10356" result="effect5_dropShadow_36_10356"/>
<feColorMatrix in="SourceAlpha" type="matrix" values="0 0 0 0 0 0 0 0 0 0 0 0 0 0 0 0 0 0 127 0" result="hardAlpha"/>
<feOffset/>
<feGaussianBlur stdDeviation="179.778"/>
<feColorMatrix type="matrix" values="0 0 0 0 0 0 0 0 0 0.176471 0 0 0 0 0.262745 0 0 0 1 0"/>
<feBlend mode="normal" in2="effect5_dropShadow_36_10356" result="effect6_dropShadow_36_10356"/>
<feBlend mode="normal" in="SourceGraphic" in2="effect6_dropShadow_36_10356" result="shape"/>
</filter>
<filter id="filter1_dddddd_36_10356" x="543.421" y="347.609" width="33.6939" height="33.6404" filterUnits="userSpaceOnUse" color-interpolation-filters="sRGB">
<feFlood flood-opacity="0" result="BackgroundImageFix"/>
<feColorMatrix in="SourceAlpha" type="matrix" values="0 0 0 0 0 0 0 0 0 0 0 0 0 0 0 0 0 0 127 0" result="hardAlpha"/>
<feOffset/>
<feGaussianBlur stdDeviation="0.177129"/>
<feColorMatrix type="matrix" values="0 0 0 0 0.945098 0 0 0 0 0.368627 0 0 0 0 0.133333 0 0 0 1 0"/>
<feBlend mode="normal" in2="BackgroundImageFix" result="effect1_dropShadow_36_10356"/>
<feColorMatrix in="SourceAlpha" type="matrix" values="0 0 0 0 0 0 0 0 0 0 0 0 0 0 0 0 0 0 127 0" result="hardAlpha"/>
<feOffset/>
<feGaussianBlur stdDeviation="0.354257"/>
<feColorMatrix type="matrix" values="0 0 0 0 0.945098 0 0 0 0 0.368627 0 0 0 0 0.133333 0 0 0 1 0"/>
<feBlend mode="normal" in2="effect1_dropShadow_36_10356" result="effect2_dropShadow_36_10356"/>
<feColorMatrix in="SourceAlpha" type="matrix" values="0 0 0 0 0 0 0 0 0 0 0 0 0 0 0 0 0 0 127 0" result="hardAlpha"/>
<feOffset/>
<feGaussianBlur stdDeviation="1.2399"/>
<feColorMatrix type="matrix" values="0 0 0 0 0.945098 0 0 0 0 0.368627 0 0 0 0 0.133333 0 0 0 1 0"/>
<feBlend mode="normal" in2="effect2_dropShadow_36_10356" result="effect3_dropShadow_36_10356"/>
<feColorMatrix in="SourceAlpha" type="matrix" values="0 0 0 0 0 0 0 0 0 0 0 0 0 0 0 0 0 0 127 0" result="hardAlpha"/>
<feOffset/>
<feGaussianBlur stdDeviation="2.4798"/>
<feColorMatrix type="matrix" values="0 0 0 0 0.945098 0 0 0 0 0.368627 0 0 0 0 0.133333 0 0 0 1 0"/>
<feBlend mode="normal" in2="effect3_dropShadow_36_10356" result="effect4_dropShadow_36_10356"/>
<feColorMatrix in="SourceAlpha" type="matrix" values="0 0 0 0 0 0 0 0 0 0 0 0 0 0 0 0 0 0 127 0" result="hardAlpha"/>
<feOffset/>
<feGaussianBlur stdDeviation="4.25109"/>
<feColorMatrix type="matrix" values="0 0 0 0 0.945098 0 0 0 0 0.368627 0 0 0 0 0.133333 0 0 0 1 0"/>
<feBlend mode="normal" in2="effect4_dropShadow_36_10356" result="effect5_dropShadow_36_10356"/>
<feColorMatrix in="SourceAlpha" type="matrix" values="0 0 0 0 0 0 0 0 0 0 0 0 0 0 0 0 0 0 127 0" result="hardAlpha"/>
<feOffset/>
<feGaussianBlur stdDeviation="7.4394"/>
<feColorMatrix type="matrix" values="0 0 0 0 0.945098 0 0 0 0 0.368627 0 0 0 0 0.133333 0 0 0 1 0"/>
<feBlend mode="normal" in2="effect5_dropShadow_36_10356" result="effect6_dropShadow_36_10356"/>
<feBlend mode="normal" in="SourceGraphic" in2="effect6_dropShadow_36_10356" result="shape"/>
</filter>
<filter id="filter2_dddddd_36_10356" x="584.911" y="368.046" width="33.8889" height="33.86" filterUnits="userSpaceOnUse" color-interpolation-filters="sRGB">
<feFlood flood-opacity="0" result="BackgroundImageFix"/>
<feColorMatrix in="SourceAlpha" type="matrix" values="0 0 0 0 0 0 0 0 0 0 0 0 0 0 0 0 0 0 127 0" result="hardAlpha"/>
<feOffset/>
<feGaussianBlur stdDeviation="0.178155"/>
<feColorMatrix type="matrix" values="0 0 0 0 0.945098 0 0 0 0 0.368627 0 0 0 0 0.133333 0 0 0 1 0"/>
<feBlend mode="normal" in2="BackgroundImageFix" result="effect1_dropShadow_36_10356"/>
<feColorMatrix in="SourceAlpha" type="matrix" values="0 0 0 0 0 0 0 0 0 0 0 0 0 0 0 0 0 0 127 0" result="hardAlpha"/>
<feOffset/>
<feGaussianBlur stdDeviation="0.356309"/>
<feColorMatrix type="matrix" values="0 0 0 0 0.945098 0 0 0 0 0.368627 0 0 0 0 0.133333 0 0 0 1 0"/>
<feBlend mode="normal" in2="effect1_dropShadow_36_10356" result="effect2_dropShadow_36_10356"/>
<feColorMatrix in="SourceAlpha" type="matrix" values="0 0 0 0 0 0 0 0 0 0 0 0 0 0 0 0 0 0 127 0" result="hardAlpha"/>
<feOffset/>
<feGaussianBlur stdDeviation="1.24708"/>
<feColorMatrix type="matrix" values="0 0 0 0 0.945098 0 0 0 0 0.368627 0 0 0 0 0.133333 0 0 0 1 0"/>
<feBlend mode="normal" in2="effect2_dropShadow_36_10356" result="effect3_dropShadow_36_10356"/>
<feColorMatrix in="SourceAlpha" type="matrix" values="0 0 0 0 0 0 0 0 0 0 0 0 0 0 0 0 0 0 127 0" result="hardAlpha"/>
<feOffset/>
<feGaussianBlur stdDeviation="2.49416"/>
<feColorMatrix type="matrix" values="0 0 0 0 0.945098 0 0 0 0 0.368627 0 0 0 0 0.133333 0 0 0 1 0"/>
<feBlend mode="normal" in2="effect3_dropShadow_36_10356" result="effect4_dropShadow_36_10356"/>
<feColorMatrix in="SourceAlpha" type="matrix" values="0 0 0 0 0 0 0 0 0 0 0 0 0 0 0 0 0 0 127 0" result="hardAlpha"/>
<feOffset/>
<feGaussianBlur stdDeviation="4.27571"/>
<feColorMatrix type="matrix" values="0 0 0 0 0.945098 0 0 0 0 0.368627 0 0 0 0 0.133333 0 0 0 1 0"/>
<feBlend mode="normal" in2="effect4_dropShadow_36_10356" result="effect5_dropShadow_36_10356"/>
<feColorMatrix in="SourceAlpha" type="matrix" values="0 0 0 0 0 0 0 0 0 0 0 0 0 0 0 0 0 0 127 0" result="hardAlpha"/>
<feOffset/>
<feGaussianBlur stdDeviation="7.48249"/>
<feColorMatrix type="matrix" values="0 0 0 0 0.945098 0 0 0 0 0.368627 0 0 0 0 0.133333 0 0 0 1 0"/>
<feBlend mode="normal" in2="effect5_dropShadow_36_10356" result="effect6_dropShadow_36_10356"/>
<feBlend mode="normal" in="SourceGraphic" in2="effect6_dropShadow_36_10356" result="shape"/>
</filter>
<filter id="filter3_dddddd_36_10356" x="609.885" y="407.284" width="33.2355" height="33.2029" filterUnits="userSpaceOnUse" color-interpolation-filters="sRGB">
<feFlood flood-opacity="0" result="BackgroundImageFix"/>
<feColorMatrix in="SourceAlpha" type="matrix" values="0 0 0 0 0 0 0 0 0 0 0 0 0 0 0 0 0 0 127 0" result="hardAlpha"/>
<feOffset/>
<feGaussianBlur stdDeviation="0.17472"/>
<feColorMatrix type="matrix" values="0 0 0 0 0.945098 0 0 0 0 0.368627 0 0 0 0 0.133333 0 0 0 1 0"/>
<feBlend mode="normal" in2="BackgroundImageFix" result="effect1_dropShadow_36_10356"/>
<feColorMatrix in="SourceAlpha" type="matrix" values="0 0 0 0 0 0 0 0 0 0 0 0 0 0 0 0 0 0 127 0" result="hardAlpha"/>
<feOffset/>
<feGaussianBlur stdDeviation="0.349439"/>
<feColorMatrix type="matrix" values="0 0 0 0 0.945098 0 0 0 0 0.368627 0 0 0 0 0.133333 0 0 0 1 0"/>
<feBlend mode="normal" in2="effect1_dropShadow_36_10356" result="effect2_dropShadow_36_10356"/>
<feColorMatrix in="SourceAlpha" type="matrix" values="0 0 0 0 0 0 0 0 0 0 0 0 0 0 0 0 0 0 127 0" result="hardAlpha"/>
<feOffset/>
<feGaussianBlur stdDeviation="1.22304"/>
<feColorMatrix type="matrix" values="0 0 0 0 0.945098 0 0 0 0 0.368627 0 0 0 0 0.133333 0 0 0 1 0"/>
<feBlend mode="normal" in2="effect2_dropShadow_36_10356" result="effect3_dropShadow_36_10356"/>
<feColorMatrix in="SourceAlpha" type="matrix" values="0 0 0 0 0 0 0 0 0 0 0 0 0 0 0 0 0 0 127 0" result="hardAlpha"/>
<feOffset/>
<feGaussianBlur stdDeviation="2.44607"/>
<feColorMatrix type="matrix" values="0 0 0 0 0.945098 0 0 0 0 0.368627 0 0 0 0 0.133333 0 0 0 1 0"/>
<feBlend mode="normal" in2="effect3_dropShadow_36_10356" result="effect4_dropShadow_36_10356"/>
<feColorMatrix in="SourceAlpha" type="matrix" values="0 0 0 0 0 0 0 0 0 0 0 0 0 0 0 0 0 0 127 0" result="hardAlpha"/>
<feOffset/>
<feGaussianBlur stdDeviation="4.19327"/>
<feColorMatrix type="matrix" values="0 0 0 0 0.945098 0 0 0 0 0.368627 0 0 0 0 0.133333 0 0 0 1 0"/>
<feBlend mode="normal" in2="effect4_dropShadow_36_10356" result="effect5_dropShadow_36_10356"/>
<feColorMatrix in="SourceAlpha" type="matrix" values="0 0 0 0 0 0 0 0 0 0 0 0 0 0 0 0 0 0 127 0" result="hardAlpha"/>
<feOffset/>
<feGaussianBlur stdDeviation="7.33822"/>
<feColorMatrix type="matrix" values="0 0 0 0 0.945098 0 0 0 0 0.368627 0 0 0 0 0.133333 0 0 0 1 0"/>
<feBlend mode="normal" in2="effect5_dropShadow_36_10356" result="effect6_dropShadow_36_10356"/>
<feBlend mode="normal" in="SourceGraphic" in2="effect6_dropShadow_36_10356" result="shape"/>
</filter>
<filter id="filter4_dddddd_36_10356" x="558.717" y="352.52" width="33.7133" height="33.6179" filterUnits="userSpaceOnUse" color-interpolation-filters="sRGB">
<feFlood flood-opacity="0" result="BackgroundImageFix"/>
<feColorMatrix in="SourceAlpha" type="matrix" values="0 0 0 0 0 0 0 0 0 0 0 0 0 0 0 0 0 0 127 0" result="hardAlpha"/>
<feOffset/>
<feGaussianBlur stdDeviation="0.177231"/>
<feColorMatrix type="matrix" values="0 0 0 0 0.945098 0 0 0 0 0.368627 0 0 0 0 0.133333 0 0 0 1 0"/>
<feBlend mode="normal" in2="BackgroundImageFix" result="effect1_dropShadow_36_10356"/>
<feColorMatrix in="SourceAlpha" type="matrix" values="0 0 0 0 0 0 0 0 0 0 0 0 0 0 0 0 0 0 127 0" result="hardAlpha"/>
<feOffset/>
<feGaussianBlur stdDeviation="0.354463"/>
<feColorMatrix type="matrix" values="0 0 0 0 0.945098 0 0 0 0 0.368627 0 0 0 0 0.133333 0 0 0 1 0"/>
<feBlend mode="normal" in2="effect1_dropShadow_36_10356" result="effect2_dropShadow_36_10356"/>
<feColorMatrix in="SourceAlpha" type="matrix" values="0 0 0 0 0 0 0 0 0 0 0 0 0 0 0 0 0 0 127 0" result="hardAlpha"/>
<feOffset/>
<feGaussianBlur stdDeviation="1.24062"/>
<feColorMatrix type="matrix" values="0 0 0 0 0.945098 0 0 0 0 0.368627 0 0 0 0 0.133333 0 0 0 1 0"/>
<feBlend mode="normal" in2="effect2_dropShadow_36_10356" result="effect3_dropShadow_36_10356"/>
<feColorMatrix in="SourceAlpha" type="matrix" values="0 0 0 0 0 0 0 0 0 0 0 0 0 0 0 0 0 0 127 0" result="hardAlpha"/>
<feOffset/>
<feGaussianBlur stdDeviation="2.48124"/>
<feColorMatrix type="matrix" values="0 0 0 0 0.945098 0 0 0 0 0.368627 0 0 0 0 0.133333 0 0 0 1 0"/>
<feBlend mode="normal" in2="effect3_dropShadow_36_10356" result="effect4_dropShadow_36_10356"/>
<feColorMatrix in="SourceAlpha" type="matrix" values="0 0 0 0 0 0 0 0 0 0 0 0 0 0 0 0 0 0 127 0" result="hardAlpha"/>
<feOffset/>
<feGaussianBlur stdDeviation="4.25355"/>
<feColorMatrix type="matrix" values="0 0 0 0 0.945098 0 0 0 0 0.368627 0 0 0 0 0.133333 0 0 0 1 0"/>
<feBlend mode="normal" in2="effect4_dropShadow_36_10356" result="effect5_dropShadow_36_10356"/>
<feColorMatrix in="SourceAlpha" type="matrix" values="0 0 0 0 0 0 0 0 0 0 0 0 0 0 0 0 0 0 127 0" result="hardAlpha"/>
<feOffset/>
<feGaussianBlur stdDeviation="7.44371"/>
<feColorMatrix type="matrix" values="0 0 0 0 0.945098 0 0 0 0 0.368627 0 0 0 0 0.133333 0 0 0 1 0"/>
<feBlend mode="normal" in2="effect5_dropShadow_36_10356" result="effect6_dropShadow_36_10356"/>
<feBlend mode="normal" in="SourceGraphic" in2="effect6_dropShadow_36_10356" result="shape"/>
</filter>
<filter id="filter5_dddddd_36_10356" x="572.742" y="358.753" width="33.6232" height="33.5252" filterUnits="userSpaceOnUse" color-interpolation-filters="sRGB">
<feFlood flood-opacity="0" result="BackgroundImageFix"/>
<feColorMatrix in="SourceAlpha" type="matrix" values="0 0 0 0 0 0 0 0 0 0 0 0 0 0 0 0 0 0 127 0" result="hardAlpha"/>
<feOffset/>
<feGaussianBlur stdDeviation="0.176757"/>
<feColorMatrix type="matrix" values="0 0 0 0 0.945098 0 0 0 0 0.368627 0 0 0 0 0.133333 0 0 0 1 0"/>
<feBlend mode="normal" in2="BackgroundImageFix" result="effect1_dropShadow_36_10356"/>
<feColorMatrix in="SourceAlpha" type="matrix" values="0 0 0 0 0 0 0 0 0 0 0 0 0 0 0 0 0 0 127 0" result="hardAlpha"/>
<feOffset/>
<feGaussianBlur stdDeviation="0.353515"/>
<feColorMatrix type="matrix" values="0 0 0 0 0.945098 0 0 0 0 0.368627 0 0 0 0 0.133333 0 0 0 1 0"/>
<feBlend mode="normal" in2="effect1_dropShadow_36_10356" result="effect2_dropShadow_36_10356"/>
<feColorMatrix in="SourceAlpha" type="matrix" values="0 0 0 0 0 0 0 0 0 0 0 0 0 0 0 0 0 0 127 0" result="hardAlpha"/>
<feOffset/>
<feGaussianBlur stdDeviation="1.2373"/>
<feColorMatrix type="matrix" values="0 0 0 0 0.945098 0 0 0 0 0.368627 0 0 0 0 0.133333 0 0 0 1 0"/>
<feBlend mode="normal" in2="effect2_dropShadow_36_10356" result="effect3_dropShadow_36_10356"/>
<feColorMatrix in="SourceAlpha" type="matrix" values="0 0 0 0 0 0 0 0 0 0 0 0 0 0 0 0 0 0 127 0" result="hardAlpha"/>
<feOffset/>
<feGaussianBlur stdDeviation="2.4746"/>
<feColorMatrix type="matrix" values="0 0 0 0 0.945098 0 0 0 0 0.368627 0 0 0 0 0.133333 0 0 0 1 0"/>
<feBlend mode="normal" in2="effect3_dropShadow_36_10356" result="effect4_dropShadow_36_10356"/>
<feColorMatrix in="SourceAlpha" type="matrix" values="0 0 0 0 0 0 0 0 0 0 0 0 0 0 0 0 0 0 127 0" result="hardAlpha"/>
<feOffset/>
<feGaussianBlur stdDeviation="4.24218"/>
<feColorMatrix type="matrix" values="0 0 0 0 0.945098 0 0 0 0 0.368627 0 0 0 0 0.133333 0 0 0 1 0"/>
<feBlend mode="normal" in2="effect4_dropShadow_36_10356" result="effect5_dropShadow_36_10356"/>
<feColorMatrix in="SourceAlpha" type="matrix" values="0 0 0 0 0 0 0 0 0 0 0 0 0 0 0 0 0 0 127 0" result="hardAlpha"/>
<feOffset/>
<feGaussianBlur stdDeviation="7.42381"/>
<feColorMatrix type="matrix" values="0 0 0 0 0.945098 0 0 0 0 0.368627 0 0 0 0 0.133333 0 0 0 1 0"/>
<feBlend mode="normal" in2="effect5_dropShadow_36_10356" result="effect6_dropShadow_36_10356"/>
<feBlend mode="normal" in="SourceGraphic" in2="effect6_dropShadow_36_10356" result="shape"/>
</filter>
<filter id="filter6_dddddd_36_10356" x="604.791" y="392.177" width="33.3885" height="33.3879" filterUnits="userSpaceOnUse" color-interpolation-filters="sRGB">
<feFlood flood-opacity="0" result="BackgroundImageFix"/>
<feColorMatrix in="SourceAlpha" type="matrix" values="0 0 0 0 0 0 0 0 0 0 0 0 0 0 0 0 0 0 127 0" result="hardAlpha"/>
<feOffset/>
<feGaussianBlur stdDeviation="0.175523"/>
<feColorMatrix type="matrix" values="0 0 0 0 0.945098 0 0 0 0 0.368627 0 0 0 0 0.133333 0 0 0 1 0"/>
<feBlend mode="normal" in2="BackgroundImageFix" result="effect1_dropShadow_36_10356"/>
<feColorMatrix in="SourceAlpha" type="matrix" values="0 0 0 0 0 0 0 0 0 0 0 0 0 0 0 0 0 0 127 0" result="hardAlpha"/>
<feOffset/>
<feGaussianBlur stdDeviation="0.351047"/>
<feColorMatrix type="matrix" values="0 0 0 0 0.945098 0 0 0 0 0.368627 0 0 0 0 0.133333 0 0 0 1 0"/>
<feBlend mode="normal" in2="effect1_dropShadow_36_10356" result="effect2_dropShadow_36_10356"/>
<feColorMatrix in="SourceAlpha" type="matrix" values="0 0 0 0 0 0 0 0 0 0 0 0 0 0 0 0 0 0 127 0" result="hardAlpha"/>
<feOffset/>
<feGaussianBlur stdDeviation="1.22866"/>
<feColorMatrix type="matrix" values="0 0 0 0 0.945098 0 0 0 0 0.368627 0 0 0 0 0.133333 0 0 0 1 0"/>
<feBlend mode="normal" in2="effect2_dropShadow_36_10356" result="effect3_dropShadow_36_10356"/>
<feColorMatrix in="SourceAlpha" type="matrix" values="0 0 0 0 0 0 0 0 0 0 0 0 0 0 0 0 0 0 127 0" result="hardAlpha"/>
<feOffset/>
<feGaussianBlur stdDeviation="2.45733"/>
<feColorMatrix type="matrix" values="0 0 0 0 0.945098 0 0 0 0 0.368627 0 0 0 0 0.133333 0 0 0 1 0"/>
<feBlend mode="normal" in2="effect3_dropShadow_36_10356" result="effect4_dropShadow_36_10356"/>
<feColorMatrix in="SourceAlpha" type="matrix" values="0 0 0 0 0 0 0 0 0 0 0 0 0 0 0 0 0 0 127 0" result="hardAlpha"/>
<feOffset/>
<feGaussianBlur stdDeviation="4.21256"/>
<feColorMatrix type="matrix" values="0 0 0 0 0.945098 0 0 0 0 0.368627 0 0 0 0 0.133333 0 0 0 1 0"/>
<feBlend mode="normal" in2="effect4_dropShadow_36_10356" result="effect5_dropShadow_36_10356"/>
<feColorMatrix in="SourceAlpha" type="matrix" values="0 0 0 0 0 0 0 0 0 0 0 0 0 0 0 0 0 0 127 0" result="hardAlpha"/>
<feOffset/>
<feGaussianBlur stdDeviation="7.37198"/>
<feColorMatrix type="matrix" values="0 0 0 0 0.945098 0 0 0 0 0.368627 0 0 0 0 0.133333 0 0 0 1 0"/>
<feBlend mode="normal" in2="effect5_dropShadow_36_10356" result="effect6_dropShadow_36_10356"/>
<feBlend mode="normal" in="SourceGraphic" in2="effect6_dropShadow_36_10356" result="shape"/>
</filter>
<filter id="filter7_dddddd_36_10356" x="612.597" y="422.378" width="33.1603" height="33.0466" filterUnits="userSpaceOnUse" color-interpolation-filters="sRGB">
<feFlood flood-opacity="0" result="BackgroundImageFix"/>
<feColorMatrix in="SourceAlpha" type="matrix" values="0 0 0 0 0 0 0 0 0 0 0 0 0 0 0 0 0 0 127 0" result="hardAlpha"/>
<feOffset/>
<feGaussianBlur stdDeviation="0.174325"/>
<feColorMatrix type="matrix" values="0 0 0 0 0.945098 0 0 0 0 0.368627 0 0 0 0 0.133333 0 0 0 1 0"/>
<feBlend mode="normal" in2="BackgroundImageFix" result="effect1_dropShadow_36_10356"/>
<feColorMatrix in="SourceAlpha" type="matrix" values="0 0 0 0 0 0 0 0 0 0 0 0 0 0 0 0 0 0 127 0" result="hardAlpha"/>
<feOffset/>
<feGaussianBlur stdDeviation="0.348649"/>
<feColorMatrix type="matrix" values="0 0 0 0 0.945098 0 0 0 0 0.368627 0 0 0 0 0.133333 0 0 0 1 0"/>
<feBlend mode="normal" in2="effect1_dropShadow_36_10356" result="effect2_dropShadow_36_10356"/>
<feColorMatrix in="SourceAlpha" type="matrix" values="0 0 0 0 0 0 0 0 0 0 0 0 0 0 0 0 0 0 127 0" result="hardAlpha"/>
<feOffset/>
<feGaussianBlur stdDeviation="1.22027"/>
<feColorMatrix type="matrix" values="0 0 0 0 0.945098 0 0 0 0 0.368627 0 0 0 0 0.133333 0 0 0 1 0"/>
<feBlend mode="normal" in2="effect2_dropShadow_36_10356" result="effect3_dropShadow_36_10356"/>
<feColorMatrix in="SourceAlpha" type="matrix" values="0 0 0 0 0 0 0 0 0 0 0 0 0 0 0 0 0 0 127 0" result="hardAlpha"/>
<feOffset/>
<feGaussianBlur stdDeviation="2.44055"/>
<feColorMatrix type="matrix" values="0 0 0 0 0.945098 0 0 0 0 0.368627 0 0 0 0 0.133333 0 0 0 1 0"/>
<feBlend mode="normal" in2="effect3_dropShadow_36_10356" result="effect4_dropShadow_36_10356"/>
<feColorMatrix in="SourceAlpha" type="matrix" values="0 0 0 0 0 0 0 0 0 0 0 0 0 0 0 0 0 0 127 0" result="hardAlpha"/>
<feOffset/>
<feGaussianBlur stdDeviation="4.18379"/>
<feColorMatrix type="matrix" values="0 0 0 0 0.945098 0 0 0 0 0.368627 0 0 0 0 0.133333 0 0 0 1 0"/>
<feBlend mode="normal" in2="effect4_dropShadow_36_10356" result="effect5_dropShadow_36_10356"/>
<feColorMatrix in="SourceAlpha" type="matrix" values="0 0 0 0 0 0 0 0 0 0 0 0 0 0 0 0 0 0 127 0" result="hardAlpha"/>
<feOffset/>
<feGaussianBlur stdDeviation="7.32164"/>
<feColorMatrix type="matrix" values="0 0 0 0 0.945098 0 0 0 0 0.368627 0 0 0 0 0.133333 0 0 0 1 0"/>
<feBlend mode="normal" in2="effect5_dropShadow_36_10356" result="effect6_dropShadow_36_10356"/>
<feBlend mode="normal" in="SourceGraphic" in2="effect6_dropShadow_36_10356" result="shape"/>
</filter>
<filter id="filter8_dddddd_36_10356" x="612.543" y="437.084" width="33.1687" height="33.115" filterUnits="userSpaceOnUse" color-interpolation-filters="sRGB">
<feFlood flood-opacity="0" result="BackgroundImageFix"/>
<feColorMatrix in="SourceAlpha" type="matrix" values="0 0 0 0 0 0 0 0 0 0 0 0 0 0 0 0 0 0 127 0" result="hardAlpha"/>
<feOffset/>
<feGaussianBlur stdDeviation="0.174369"/>
<feColorMatrix type="matrix" values="0 0 0 0 0.945098 0 0 0 0 0.368627 0 0 0 0 0.133333 0 0 0 1 0"/>
<feBlend mode="normal" in2="BackgroundImageFix" result="effect1_dropShadow_36_10356"/>
<feColorMatrix in="SourceAlpha" type="matrix" values="0 0 0 0 0 0 0 0 0 0 0 0 0 0 0 0 0 0 127 0" result="hardAlpha"/>
<feOffset/>
<feGaussianBlur stdDeviation="0.348737"/>
<feColorMatrix type="matrix" values="0 0 0 0 0.945098 0 0 0 0 0.368627 0 0 0 0 0.133333 0 0 0 1 0"/>
<feBlend mode="normal" in2="effect1_dropShadow_36_10356" result="effect2_dropShadow_36_10356"/>
<feColorMatrix in="SourceAlpha" type="matrix" values="0 0 0 0 0 0 0 0 0 0 0 0 0 0 0 0 0 0 127 0" result="hardAlpha"/>
<feOffset/>
<feGaussianBlur stdDeviation="1.22058"/>
<feColorMatrix type="matrix" values="0 0 0 0 0.945098 0 0 0 0 0.368627 0 0 0 0 0.133333 0 0 0 1 0"/>
<feBlend mode="normal" in2="effect2_dropShadow_36_10356" result="effect3_dropShadow_36_10356"/>
<feColorMatrix in="SourceAlpha" type="matrix" values="0 0 0 0 0 0 0 0 0 0 0 0 0 0 0 0 0 0 127 0" result="hardAlpha"/>
<feOffset/>
<feGaussianBlur stdDeviation="2.44116"/>
<feColorMatrix type="matrix" values="0 0 0 0 0.945098 0 0 0 0 0.368627 0 0 0 0 0.133333 0 0 0 1 0"/>
<feBlend mode="normal" in2="effect3_dropShadow_36_10356" result="effect4_dropShadow_36_10356"/>
<feColorMatrix in="SourceAlpha" type="matrix" values="0 0 0 0 0 0 0 0 0 0 0 0 0 0 0 0 0 0 127 0" result="hardAlpha"/>
<feOffset/>
<feGaussianBlur stdDeviation="4.18485"/>
<feColorMatrix type="matrix" values="0 0 0 0 0.945098 0 0 0 0 0.368627 0 0 0 0 0.133333 0 0 0 1 0"/>
<feBlend mode="normal" in2="effect4_dropShadow_36_10356" result="effect5_dropShadow_36_10356"/>
<feColorMatrix in="SourceAlpha" type="matrix" values="0 0 0 0 0 0 0 0 0 0 0 0 0 0 0 0 0 0 127 0" result="hardAlpha"/>
<feOffset/>
<feGaussianBlur stdDeviation="7.32348"/>
<feColorMatrix type="matrix" values="0 0 0 0 0.945098 0 0 0 0 0.368627 0 0 0 0 0.133333 0 0 0 1 0"/>
<feBlend mode="normal" in2="effect5_dropShadow_36_10356" result="effect6_dropShadow_36_10356"/>
<feBlend mode="normal" in="SourceGraphic" in2="effect6_dropShadow_36_10356" result="shape"/>
</filter>
<filter id="filter9_dddddd_36_10356" x="528.602" y="346.114" width="33.3532" height="33.2854" filterUnits="userSpaceOnUse" color-interpolation-filters="sRGB">
<feFlood flood-opacity="0" result="BackgroundImageFix"/>
<feColorMatrix in="SourceAlpha" type="matrix" values="0 0 0 0 0 0 0 0 0 0 0 0 0 0 0 0 0 0 127 0" result="hardAlpha"/>
<feOffset/>
<feGaussianBlur stdDeviation="0.175337"/>
<feColorMatrix type="matrix" values="0 0 0 0 0.945098 0 0 0 0 0.368627 0 0 0 0 0.133333 0 0 0 1 0"/>
<feBlend mode="normal" in2="BackgroundImageFix" result="effect1_dropShadow_36_10356"/>
<feColorMatrix in="SourceAlpha" type="matrix" values="0 0 0 0 0 0 0 0 0 0 0 0 0 0 0 0 0 0 127 0" result="hardAlpha"/>
<feOffset/>
<feGaussianBlur stdDeviation="0.350675"/>
<feColorMatrix type="matrix" values="0 0 0 0 0.945098 0 0 0 0 0.368627 0 0 0 0 0.133333 0 0 0 1 0"/>
<feBlend mode="normal" in2="effect1_dropShadow_36_10356" result="effect2_dropShadow_36_10356"/>
<feColorMatrix in="SourceAlpha" type="matrix" values="0 0 0 0 0 0 0 0 0 0 0 0 0 0 0 0 0 0 127 0" result="hardAlpha"/>
<feOffset/>
<feGaussianBlur stdDeviation="1.22736"/>
<feColorMatrix type="matrix" values="0 0 0 0 0.945098 0 0 0 0 0.368627 0 0 0 0 0.133333 0 0 0 1 0"/>
<feBlend mode="normal" in2="effect2_dropShadow_36_10356" result="effect3_dropShadow_36_10356"/>
<feColorMatrix in="SourceAlpha" type="matrix" values="0 0 0 0 0 0 0 0 0 0 0 0 0 0 0 0 0 0 127 0" result="hardAlpha"/>
<feOffset/>
<feGaussianBlur stdDeviation="2.45472"/>
<feColorMatrix type="matrix" values="0 0 0 0 0.945098 0 0 0 0 0.368627 0 0 0 0 0.133333 0 0 0 1 0"/>
<feBlend mode="normal" in2="effect3_dropShadow_36_10356" result="effect4_dropShadow_36_10356"/>
<feColorMatrix in="SourceAlpha" type="matrix" values="0 0 0 0 0 0 0 0 0 0 0 0 0 0 0 0 0 0 127 0" result="hardAlpha"/>
<feOffset/>
<feGaussianBlur stdDeviation="4.2081"/>
<feColorMatrix type="matrix" values="0 0 0 0 0.945098 0 0 0 0 0.368627 0 0 0 0 0.133333 0 0 0 1 0"/>
<feBlend mode="normal" in2="effect4_dropShadow_36_10356" result="effect5_dropShadow_36_10356"/>
<feColorMatrix in="SourceAlpha" type="matrix" values="0 0 0 0 0 0 0 0 0 0 0 0 0 0 0 0 0 0 127 0" result="hardAlpha"/>
<feOffset/>
<feGaussianBlur stdDeviation="7.36417"/>
<feColorMatrix type="matrix" values="0 0 0 0 0.945098 0 0 0 0 0.368627 0 0 0 0 0.133333 0 0 0 1 0"/>
<feBlend mode="normal" in2="effect5_dropShadow_36_10356" result="effect6_dropShadow_36_10356"/>
<feBlend mode="normal" in="SourceGraphic" in2="effect6_dropShadow_36_10356" result="shape"/>
</filter>
<filter id="filter10_dddddd_36_10356" x="595.863" y="378.832" width="33.9434" height="33.9181" filterUnits="userSpaceOnUse" color-interpolation-filters="sRGB">
<feFlood flood-opacity="0" result="BackgroundImageFix"/>
<feColorMatrix in="SourceAlpha" type="matrix" values="0 0 0 0 0 0 0 0 0 0 0 0 0 0 0 0 0 0 127 0" result="hardAlpha"/>
<feOffset/>
<feGaussianBlur stdDeviation="0.178441"/>
<feColorMatrix type="matrix" values="0 0 0 0 0.945098 0 0 0 0 0.368627 0 0 0 0 0.133333 0 0 0 1 0"/>
<feBlend mode="normal" in2="BackgroundImageFix" result="effect1_dropShadow_36_10356"/>
<feColorMatrix in="SourceAlpha" type="matrix" values="0 0 0 0 0 0 0 0 0 0 0 0 0 0 0 0 0 0 127 0" result="hardAlpha"/>
<feOffset/>
<feGaussianBlur stdDeviation="0.356882"/>
<feColorMatrix type="matrix" values="0 0 0 0 0.945098 0 0 0 0 0.368627 0 0 0 0 0.133333 0 0 0 1 0"/>
<feBlend mode="normal" in2="effect1_dropShadow_36_10356" result="effect2_dropShadow_36_10356"/>
<feColorMatrix in="SourceAlpha" type="matrix" values="0 0 0 0 0 0 0 0 0 0 0 0 0 0 0 0 0 0 127 0" result="hardAlpha"/>
<feOffset/>
<feGaussianBlur stdDeviation="1.24909"/>
<feColorMatrix type="matrix" values="0 0 0 0 0.945098 0 0 0 0 0.368627 0 0 0 0 0.133333 0 0 0 1 0"/>
<feBlend mode="normal" in2="effect2_dropShadow_36_10356" result="effect3_dropShadow_36_10356"/>
<feColorMatrix in="SourceAlpha" type="matrix" values="0 0 0 0 0 0 0 0 0 0 0 0 0 0 0 0 0 0 127 0" result="hardAlpha"/>
<feOffset/>
<feGaussianBlur stdDeviation="2.49818"/>
<feColorMatrix type="matrix" values="0 0 0 0 0.945098 0 0 0 0 0.368627 0 0 0 0 0.133333 0 0 0 1 0"/>
<feBlend mode="normal" in2="effect3_dropShadow_36_10356" result="effect4_dropShadow_36_10356"/>
<feColorMatrix in="SourceAlpha" type="matrix" values="0 0 0 0 0 0 0 0 0 0 0 0 0 0 0 0 0 0 127 0" result="hardAlpha"/>
<feOffset/>
<feGaussianBlur stdDeviation="4.28259"/>
<feColorMatrix type="matrix" values="0 0 0 0 0.945098 0 0 0 0 0.368627 0 0 0 0 0.133333 0 0 0 1 0"/>
<feBlend mode="normal" in2="effect4_dropShadow_36_10356" result="effect5_dropShadow_36_10356"/>
<feColorMatrix in="SourceAlpha" type="matrix" values="0 0 0 0 0 0 0 0 0 0 0 0 0 0 0 0 0 0 127 0" result="hardAlpha"/>
<feOffset/>
<feGaussianBlur stdDeviation="7.49453"/>
<feColorMatrix type="matrix" values="0 0 0 0 0.945098 0 0 0 0 0.368627 0 0 0 0 0.133333 0 0 0 1 0"/>
<feBlend mode="normal" in2="effect5_dropShadow_36_10356" result="effect6_dropShadow_36_10356"/>
<feBlend mode="normal" in="SourceGraphic" in2="effect6_dropShadow_36_10356" result="shape"/>
</filter>
<filter id="filter11_dddddd_36_10356" x="596.141" y="532.908" width="119.246" height="116.086" filterUnits="userSpaceOnUse" color-interpolation-filters="sRGB">
<feFlood flood-opacity="0" result="BackgroundImageFix"/>
<feColorMatrix in="SourceAlpha" type="matrix" values="0 0 0 0 0 0 0 0 0 0 0 0 0 0 0 0 0 0 127 0" result="hardAlpha"/>
<feOffset/>
<feGaussianBlur stdDeviation="0.626879"/>
<feColorMatrix type="matrix" values="0 0 0 0 0.945098 0 0 0 0 0.368627 0 0 0 0 0.133333 0 0 0 1 0"/>
<feBlend mode="normal" in2="BackgroundImageFix" result="effect1_dropShadow_36_10356"/>
<feColorMatrix in="SourceAlpha" type="matrix" values="0 0 0 0 0 0 0 0 0 0 0 0 0 0 0 0 0 0 127 0" result="hardAlpha"/>
<feOffset/>
<feGaussianBlur stdDeviation="1.25376"/>
<feColorMatrix type="matrix" values="0 0 0 0 0.945098 0 0 0 0 0.368627 0 0 0 0 0.133333 0 0 0 1 0"/>
<feBlend mode="normal" in2="effect1_dropShadow_36_10356" result="effect2_dropShadow_36_10356"/>
<feColorMatrix in="SourceAlpha" type="matrix" values="0 0 0 0 0 0 0 0 0 0 0 0 0 0 0 0 0 0 127 0" result="hardAlpha"/>
<feOffset/>
<feGaussianBlur stdDeviation="4.38815"/>
<feColorMatrix type="matrix" values="0 0 0 0 0.945098 0 0 0 0 0.368627 0 0 0 0 0.133333 0 0 0 1 0"/>
<feBlend mode="normal" in2="effect2_dropShadow_36_10356" result="effect3_dropShadow_36_10356"/>
<feColorMatrix in="SourceAlpha" type="matrix" values="0 0 0 0 0 0 0 0 0 0 0 0 0 0 0 0 0 0 127 0" result="hardAlpha"/>
<feOffset/>
<feGaussianBlur stdDeviation="8.77631"/>
<feColorMatrix type="matrix" values="0 0 0 0 0.945098 0 0 0 0 0.368627 0 0 0 0 0.133333 0 0 0 1 0"/>
<feBlend mode="normal" in2="effect3_dropShadow_36_10356" result="effect4_dropShadow_36_10356"/>
<feColorMatrix in="SourceAlpha" type="matrix" values="0 0 0 0 0 0 0 0 0 0 0 0 0 0 0 0 0 0 127 0" result="hardAlpha"/>
<feOffset/>
<feGaussianBlur stdDeviation="15.0451"/>
<feColorMatrix type="matrix" values="0 0 0 0 0.945098 0 0 0 0 0.368627 0 0 0 0 0.133333 0 0 0 1 0"/>
<feBlend mode="normal" in2="effect4_dropShadow_36_10356" result="effect5_dropShadow_36_10356"/>
<feColorMatrix in="SourceAlpha" type="matrix" values="0 0 0 0 0 0 0 0 0 0 0 0 0 0 0 0 0 0 127 0" result="hardAlpha"/>
<feOffset/>
<feGaussianBlur stdDeviation="26.3289"/>
<feColorMatrix type="matrix" values="0 0 0 0 0.945098 0 0 0 0 0.368627 0 0 0 0 0.133333 0 0 0 1 0"/>
<feBlend mode="normal" in2="effect5_dropShadow_36_10356" result="effect6_dropShadow_36_10356"/>
<feBlend mode="normal" in="SourceGraphic" in2="effect6_dropShadow_36_10356" result="shape"/>
</filter>
</defs>
</svg>
