<svg width="124" height="33" viewBox="0 0 124 33" fill="none" xmlns="http://www.w3.org/2000/svg">
<g filter="url(#filter0_d_8_14387)">
<path d="M97.6831 1.48792H100C100.6 1.48792 101.116 1.70187 101.544 2.13308C101.972 2.56428 102.189 3.07778 102.189 3.68015V5.03302H97.6831V1.4912V1.48792Z" fill="#F15E22"/>
<path d="M24.4176 15.9744C24.2036 18.5517 23.2359 20.5695 21.5209 22.0277C19.7599 23.4431 17.4426 24.1541 14.5657 24.1541C11.2181 24.1541 8.66375 23.1469 6.90272 21.1291C5.14169 19.1969 4.26282 16.343 4.26282 12.5642C4.26282 8.7854 5.16473 5.80317 6.96855 3.87097C8.81516 1.85319 11.4748 0.845947 14.9541 0.845947C17.7882 0.845947 20.0397 1.55365 21.7151 2.97235C23.3017 4.34826 24.2036 6.27716 24.4209 8.76894H21.6526C20.6223 8.76894 19.8916 8.31798 19.4636 7.41607C19.1641 6.85978 18.7987 6.36604 18.3675 5.93483C17.5084 5.28967 16.3728 4.97038 14.9541 4.97038C12.9791 4.97038 11.4551 5.61554 10.382 6.90258C9.3517 8.18961 8.83821 10.079 8.83821 12.5675C8.83821 15.056 9.3517 16.817 10.382 18.104C11.3695 19.4339 12.8507 20.0988 14.8257 20.0988C16.1983 20.0988 17.3372 19.7565 18.2391 19.0685C19.0555 18.4233 19.6348 17.3931 19.9771 15.9776H24.4209L24.4176 15.9744Z" fill="white"/>
<path d="M38.8119 18.3575H42.0311C41.5571 20.1613 40.6585 21.5339 39.3254 22.4786C37.9955 23.4661 36.3201 23.9599 34.3023 23.9599C31.8566 23.9599 29.9442 23.1666 28.5716 21.5767C27.1956 20.0329 26.511 17.8209 26.511 14.944C26.511 12.0672 27.1759 10.0494 28.5057 8.50559C29.8783 6.91901 31.7908 6.12244 34.2365 6.12244C36.8105 6.12244 38.8086 6.89597 40.224 8.43975C41.5966 10.0296 42.2846 12.2383 42.2846 15.0724V15.7801C42.2846 15.9941 42.2615 16.1455 42.2187 16.2311H31.0798C31.1226 17.5609 31.4452 18.5484 32.0442 19.1936C32.6005 19.8815 33.4399 20.2238 34.5558 20.2238C35.2865 20.2238 35.9086 20.0724 36.4221 19.7729C36.5505 19.7301 36.669 19.6544 36.7776 19.5458C36.883 19.4404 37.0015 19.3219 37.1331 19.1903C37.1759 19.0619 37.3372 18.8907 37.617 18.6735C37.8968 18.4595 38.2918 18.3509 38.8086 18.3509L38.8119 18.3575ZM31.0831 13.3344H37.6499C37.5643 12.1758 37.2648 11.3167 36.748 10.7604C36.1884 10.158 35.3951 9.85845 34.3649 9.85845C33.4202 9.85845 32.6466 10.158 32.0475 10.7604C31.4452 11.3627 31.1226 12.2186 31.0831 13.3344Z" fill="white"/>
<path d="M44.7073 1.48779H47.0246C47.6237 1.48779 48.1405 1.69188 48.5684 2.10004C48.9963 2.5082 49.2135 3.01182 49.2135 3.6142V23.6406H44.7073V1.49108V1.48779Z" fill="white"/>
<path d="M63.4137 18.3575H66.6329C66.1589 20.1613 65.2603 21.5339 63.9305 22.4786C62.6006 23.4661 60.9252 23.9599 58.9074 23.9599C56.4617 23.9599 54.5493 23.1666 53.1767 21.5767C51.8008 20.0329 51.1161 17.8209 51.1161 14.944C51.1161 12.0672 51.781 10.0494 53.1108 8.50559C54.4834 6.91901 56.3959 6.12244 58.8416 6.12244C61.4157 6.12244 63.4137 6.89597 64.8291 8.43975C66.2017 10.0296 66.8897 12.2383 66.8897 15.0724V15.7801C66.8897 15.9941 66.8666 16.1455 66.8238 16.2311H55.6849C55.7277 17.5609 56.0503 18.5484 56.6493 19.1936C57.2056 19.8815 58.045 20.2238 59.1609 20.2238C59.8916 20.2238 60.5137 20.0724 61.0272 19.7729C61.1556 19.7301 61.2741 19.6544 61.3827 19.5458C61.4881 19.4404 61.6066 19.3219 61.7382 19.1903C61.781 19.0619 61.9423 18.8907 62.2221 18.6735C62.5019 18.4595 62.8969 18.3509 63.4137 18.3509V18.3575ZM55.6882 13.3344H62.255C62.1694 12.1758 61.8699 11.3167 61.3531 10.7604C60.7935 10.158 60.0002 9.85845 58.97 9.85845C58.0253 9.85845 57.2517 10.158 56.6526 10.7604C56.0503 11.3627 55.7277 12.2186 55.6882 13.3344Z" fill="white"/>
<path d="M68.7297 17.9724H73.1076C73.1504 18.8315 73.473 19.4767 74.0721 19.9046C74.7172 20.3358 75.5731 20.5497 76.6461 20.5497C77.4197 20.5497 78.0846 20.3983 78.6409 20.0988C79.1577 19.7992 79.4144 19.3911 79.4144 18.8743C79.4144 18.1007 78.5125 17.5214 76.7087 17.1363C75.9351 17.0079 75.3558 16.8795 74.9707 16.7512C72.6962 16.1949 71.1721 15.5267 70.3986 14.7564C69.5395 13.9829 69.1116 12.9526 69.1116 11.6656C69.1116 10.0329 69.7337 8.68335 70.9779 7.61027C72.2649 6.62278 73.9404 6.12903 76.001 6.12903C78.2327 6.12903 80.0135 6.62278 81.3466 7.61027C82.5908 8.68335 83.2558 10.079 83.3413 11.794H80.5731C79.7567 11.794 79.1346 11.4286 78.7067 10.6978C78.5355 10.5267 78.3611 10.3555 78.1899 10.1843C77.6764 9.79922 76.9654 9.60501 76.0635 9.60501C75.1616 9.60501 74.5592 9.73338 74.1313 9.99013C73.7462 10.2469 73.552 10.6353 73.552 11.1488C73.552 11.8367 74.6679 12.4161 76.8996 12.8868C77.1563 12.9724 77.3835 13.0382 77.5744 13.081C77.7686 13.1238 77.9496 13.1468 78.1208 13.1468C80.3097 13.7064 81.8338 14.3483 82.6929 15.079C83.5092 15.8526 83.9174 16.8828 83.9174 18.1699C83.9174 20.0593 83.2294 21.5175 81.8568 22.5478C80.5698 23.4925 78.6376 23.9632 76.0602 23.9632C73.4829 23.9632 71.7877 23.4694 70.5862 22.4819C69.342 21.4944 68.7198 20.056 68.7198 18.1666V17.9724H68.7297Z" fill="white"/>
<path d="M93.7462 23.6373C92.3308 23.7229 90.7936 23.7031 89.1412 23.5714C87.4888 23.4431 86.6626 22.3897 86.6626 20.418V1.48779H88.9799C89.5362 1.48779 90.0299 1.70175 90.4612 2.13296C90.8891 2.56416 91.1063 3.07766 91.1063 3.68003V6.57668H93.7462V7.47859C93.7462 8.12375 93.5323 8.64713 93.1011 9.05529C92.6731 9.46345 92.1564 9.66753 91.5573 9.66753H91.1063V19.1968C91.1063 19.9276 91.5342 20.293 92.3934 20.293H93.7462V23.6406V23.6373Z" fill="white"/>
<path d="M97.6831 6.51086H100C100.6 6.51086 101.116 6.72482 101.544 7.15603C101.972 7.58723 102.189 8.10073 102.189 8.7031V23.6406H97.6831V6.51416V6.51086Z" fill="white"/>
<path d="M116.491 22.9296C115.59 23.4036 114.635 23.69 113.628 23.7986C112.617 23.9039 111.728 23.9599 110.955 23.9599C109.408 23.9599 108.058 23.5418 106.9 22.7057C105.741 21.8697 105.162 20.4839 105.162 18.5517C105.162 16.7479 105.688 15.4608 106.738 14.6873C107.788 13.9138 109.131 13.4003 110.764 13.1435C110.978 13.1435 111.235 13.1106 111.538 13.0481C111.837 12.9822 112.183 12.9296 112.568 12.8868C114.457 12.63 115.402 12.0704 115.402 11.2113C115.402 10.5662 115.069 10.1481 114.405 9.9572C113.74 9.763 113.127 9.66754 112.568 9.66754C111.965 9.66754 111.429 9.75312 110.958 9.92429C110.484 10.0955 110.142 10.418 109.928 10.8887H105.613C105.784 9.55891 106.386 8.4628 107.416 7.60368C108.575 6.61618 110.227 6.12244 112.374 6.12244C114.777 6.12244 116.58 6.5306 117.782 7.34693C119.026 8.20605 119.648 9.4075 119.648 10.9513V16.8104C119.648 18.5287 119.335 19.8684 118.713 20.8361C118.091 21.8005 117.351 22.4984 116.491 22.9296ZM115.461 15.0099C114.859 15.3094 114.023 15.5892 112.95 15.846L111.468 16.1685C110.695 16.3825 110.139 16.6623 109.793 17.0046C109.493 17.4786 109.342 17.9493 109.342 18.42C109.342 19.0652 109.536 19.5787 109.921 19.9638C110.306 20.3094 110.866 20.4806 111.597 20.4806C112.798 20.4806 113.743 20.1383 114.431 19.4503C115.116 18.7656 115.461 17.8209 115.461 16.6162V15.0066V15.0099Z" fill="white"/>
</g>
<defs>
<filter id="filter0_d_8_14387" x="0.262817" y="0.845947" width="123.385" height="31.3081" filterUnits="userSpaceOnUse" color-interpolation-filters="sRGB">
<feFlood flood-opacity="0" result="BackgroundImageFix"/>
<feColorMatrix in="SourceAlpha" type="matrix" values="0 0 0 0 0 0 0 0 0 0 0 0 0 0 0 0 0 0 127 0" result="hardAlpha"/>
<feOffset dy="4"/>
<feGaussianBlur stdDeviation="2"/>
<feComposite in2="hardAlpha" operator="out"/>
<feColorMatrix type="matrix" values="0 0 0 0 0 0 0 0 0 0 0 0 0 0 0 0 0 0 0.25 0"/>
<feBlend mode="normal" in2="BackgroundImageFix" result="effect1_dropShadow_8_14387"/>
<feBlend mode="normal" in="SourceGraphic" in2="effect1_dropShadow_8_14387" result="shape"/>
</filter>
</defs>
</svg>
