<svg width="1077" height="1014" viewBox="0 0 1077 1014" fill="none" xmlns="http://www.w3.org/2000/svg">
<g filter="url(#filter0_dddddd_50_10383)">
<path d="M626.094 425.811C625.697 426.351 625.301 426.881 624.914 427.411C625.932 427.981 626.929 428.471 627.855 429.061C629.239 429.931 630.368 431.091 631.019 432.581C631.732 434.241 631.762 435.941 630.958 437.611C630.551 437.411 630.144 437.221 629.737 437.021C630.633 434.881 630.104 433.011 628.567 431.361C627.448 430.161 626.013 429.441 624.517 428.801C623.927 428.551 623.52 428.641 623.072 429.041C621.505 430.411 619.714 431.461 617.821 432.331C617.211 432.611 616.59 432.891 615.929 433.191C616.153 435.211 616.366 437.181 616.59 439.191C617.018 439.221 617.343 439.241 617.659 439.261C619.857 439.421 622.065 439.661 624.059 440.581C625.535 441.261 626.623 441.121 627.631 439.941C627.956 440.221 628.292 440.511 628.618 440.791C628.221 441.151 627.824 441.501 627.326 441.951C627.59 442.151 627.814 442.351 628.058 442.521C629.279 443.361 630.368 444.331 631.141 445.591C632.546 447.901 632.576 450.201 631.101 452.491C630.734 452.241 630.368 451.991 630.002 451.741C631.304 449.591 631.019 447.561 629.534 445.621C628.76 444.621 627.763 443.881 626.685 443.211C626.206 442.921 625.83 442.861 625.311 443.161C623.489 444.191 621.525 444.881 619.48 445.331C618.646 445.511 617.801 445.661 616.946 445.821V457.401C619.928 457.561 624.69 456.341 627.488 454.321C627.763 454.661 628.028 455.001 628.302 455.341C625.809 457.151 622.96 458.081 619.928 458.541C618.717 458.721 617.496 458.811 616.275 458.841C615.461 458.861 614.636 458.641 613.822 458.641C574.635 458.641 535.448 458.641 496.262 458.641C495.844 458.641 495.427 458.641 494.949 458.641C494.949 459.211 494.918 459.631 494.949 460.041C496.109 471.921 501.461 481.681 510.477 489.571C515.952 494.361 522.2 497.771 529.353 499.451C538.206 501.521 547.008 501.261 555.668 498.481C561.794 496.521 567.126 493.231 571.857 488.971C573.903 487.121 575.755 485.091 577.485 482.961C578.075 482.241 578.238 482.191 579.143 482.511C583.987 484.221 588.82 485.941 593.664 487.651C593.99 487.771 594.305 487.921 594.702 488.101C594.478 488.461 594.336 488.741 594.142 488.981C591.802 491.851 589.614 494.861 587.08 497.561C579.387 505.761 570.199 511.741 559.25 514.931C555.128 516.131 550.926 516.881 546.632 517.201C542.317 517.531 537.992 517.591 533.688 517.151C524.296 516.201 515.555 513.361 507.567 508.361C499.009 503.011 492.059 496.081 486.686 487.641C483.094 482.011 480.621 475.921 479.187 469.431C478.484 466.241 478.027 463.021 477.833 459.761C477.762 458.641 477.762 458.631 476.653 458.631C472.369 458.631 468.085 458.631 463.791 458.631C463.475 458.631 463.16 458.681 462.722 458.711C462.804 459.941 462.834 461.091 462.946 462.241C463.394 466.971 464.177 471.651 465.541 476.211C466.243 478.581 467.057 480.941 467.973 483.241C472.125 493.651 478.576 502.511 486.727 510.251C491.052 514.351 495.712 517.991 500.83 521.081C503.568 522.731 506.407 524.191 509.327 525.481C516.532 528.671 524.092 530.561 531.928 531.421C537.239 532.001 542.561 532.091 547.893 531.691C548.636 531.631 549.389 531.491 550.132 531.821C550.336 531.911 550.631 531.841 550.875 531.811C557.398 530.991 563.778 529.581 569.934 527.281C580.283 523.421 589.289 517.561 597.042 509.811C600.97 505.881 604.461 501.621 607.574 497.051C608.582 495.561 608.429 495.791 609.874 496.391C614.351 498.231 618.819 500.101 623.286 501.971C623.51 502.061 623.703 502.221 623.988 502.391C623.825 502.711 623.693 502.991 623.53 503.251C618.106 511.901 611.563 519.631 603.799 526.331C597.297 531.951 590.123 536.571 582.247 540.141C574.992 543.431 567.431 545.761 559.575 547.171C553.144 548.321 546.672 549.021 540.139 549.021C531.307 549.021 522.627 547.841 514.14 545.371C503.14 542.171 493.148 537.021 483.979 530.281C478.311 526.111 473.091 521.461 468.39 516.241C462.458 509.651 457.604 502.361 453.89 494.351C449.901 485.751 447.408 476.741 446.105 467.391C445.403 462.371 445.026 457.321 445.108 452.251C445.271 442.261 446.96 432.541 450.42 423.131C454.378 412.351 460.3 402.711 467.729 393.921C473.02 387.651 478.973 382.071 485.709 377.321C491.204 373.451 497.065 370.221 503.303 367.661C509.47 365.141 515.819 363.271 522.383 362.041C527.481 361.091 532.63 360.531 537.819 360.291C538.318 360.271 538.827 360.241 539.325 360.141C541.147 359.801 542.836 360.061 544.383 361.091C544.118 361.451 543.864 361.811 543.599 362.171C542.317 361.441 540.984 361.071 539.519 361.561V376.121C540.994 376.181 542.419 376.241 543.905 376.291C544.006 375.791 544.088 375.351 544.179 374.901C544.607 372.701 545.299 370.591 546.316 368.581C546.652 367.921 547.273 367.261 547.252 366.621C547.242 365.961 546.601 365.321 546.245 364.671C546.601 364.411 546.947 364.151 547.303 363.881C547.619 364.351 547.934 364.811 548.311 365.391C548.687 365.001 549.003 364.681 549.318 364.361C550.346 363.301 551.506 362.421 552.9 361.871C555.23 360.941 557.398 361.211 559.412 362.701C559.138 363.061 558.873 363.421 558.598 363.771C556.675 362.361 554.681 362.391 552.625 363.461C551.363 364.121 550.397 365.111 549.481 366.161C549.074 366.631 549.064 367.041 549.277 367.611C549.644 368.601 549.959 369.621 550.203 370.651C550.682 372.701 550.855 374.801 550.763 376.911C552.829 377.251 554.843 377.591 556.797 377.911C556.909 377.771 556.97 377.731 556.991 377.671C558.059 374.681 559.494 371.891 561.651 369.501C561.905 369.221 561.926 368.951 561.783 368.631C561.468 367.881 561.163 367.131 560.847 366.371C561.244 366.191 561.631 366.001 562.028 365.821C562.363 366.521 562.699 367.211 563.076 367.981C563.493 367.681 563.839 367.381 564.236 367.161C565.223 366.601 566.189 365.951 567.248 365.551C569.914 364.521 572.855 365.021 574.9 367.521C574.564 367.851 574.239 368.181 573.903 368.521C572.631 366.821 570.921 366.161 568.815 366.501C566.973 366.801 565.498 367.791 564.114 368.951C563.656 369.341 563.534 369.731 563.625 370.331C563.839 371.621 564.053 372.921 564.063 374.221C564.063 376.011 563.88 377.801 563.768 379.671C565.691 380.311 567.726 380.981 569.71 381.631C570.016 381.101 570.27 380.601 570.575 380.131C571.898 378.101 573.445 376.241 575.368 374.711C575.867 374.321 576.009 373.921 575.856 373.341C575.684 372.661 575.551 371.961 575.399 371.271C575.846 371.221 576.294 371.181 576.742 371.131C576.915 371.781 577.078 372.421 577.281 373.191C577.607 373.041 577.881 372.921 578.146 372.781C579.642 371.981 581.199 371.371 582.908 371.201C585.391 370.961 587.426 371.761 589.004 373.671C588.658 373.991 588.322 374.311 587.976 374.631C586.5 372.631 584.445 372.231 582.125 372.661C580.731 372.921 579.489 373.561 578.268 374.251C577.647 374.601 577.362 375.011 577.393 375.761C577.474 377.711 577.179 379.641 576.681 381.521C576.447 382.401 576.192 383.281 575.938 384.191C577.892 385.181 579.784 386.151 581.626 387.091C581.758 387.021 581.799 387.021 581.82 386.991C583.875 384.561 586.124 382.341 588.953 380.761C589.166 380.641 589.35 380.251 589.35 379.981C589.35 379.141 589.248 378.291 589.187 377.451C589.634 377.451 590.072 377.451 590.52 377.441C590.622 378.201 590.713 378.961 590.825 379.801C591.486 379.601 592.067 379.421 592.647 379.261C594.01 378.881 595.384 378.711 596.808 378.911C599.22 379.251 600.919 380.481 601.917 382.661C601.978 382.791 602.039 382.921 602.1 383.041C601.672 383.201 601.245 383.351 600.807 383.511C599.861 381.191 598.06 380.171 595.577 380.151C594.102 380.141 592.748 380.561 591.395 381.081C590.866 381.281 590.622 381.581 590.55 382.161C590.204 384.781 589.299 387.231 588.057 389.571C587.864 389.941 587.681 390.311 587.477 390.721C589.36 392.131 591.171 393.501 592.982 394.861C593.135 394.781 593.237 394.751 593.318 394.691C595.465 392.881 597.775 391.341 600.4 390.291C600.665 390.181 600.919 389.801 600.98 389.501C601.164 388.641 601.245 387.751 601.367 386.881C601.805 386.911 602.252 386.941 602.69 386.971C602.619 387.801 602.548 388.631 602.466 389.561C603.178 389.441 603.799 389.341 604.43 389.251C605.712 389.061 607.005 389.061 608.277 389.321C610.882 389.851 612.652 391.321 613.466 393.841C613.008 393.931 612.54 394.011 612.082 394.101C611.441 392.111 609.986 391.051 607.981 390.611C606.129 390.211 604.338 390.521 602.558 390.991C602.181 391.091 601.937 391.281 601.795 391.651C601.56 392.271 601.235 392.861 601.011 393.481C600.38 395.271 599.312 396.811 598.223 398.341C598.04 398.591 597.877 398.861 597.694 399.121C599.078 400.601 600.411 402.021 601.784 403.481C602.212 403.251 602.588 403.061 602.955 402.851C605.041 401.711 607.228 400.841 609.569 400.341C610.291 400.191 611.217 400.181 611.655 399.731C612.113 399.271 612.103 398.361 612.296 397.641C612.734 397.681 613.171 397.721 613.609 397.751C613.487 398.401 613.375 399.061 613.232 399.841C613.649 399.881 614.026 399.921 614.392 399.941C615.99 400.041 617.516 400.381 618.92 401.161C621.027 402.341 622.136 404.111 622.228 406.491C622.228 406.631 622.248 406.771 622.258 406.911C621.81 406.961 621.352 407.011 620.905 407.051C620.976 404.231 619.287 402.351 616.641 401.651C615.644 401.381 614.585 401.361 613.558 401.221C612.876 401.131 612.53 401.441 612.255 402.041C611.248 404.221 609.844 406.141 608.144 407.851C607.574 408.431 607.005 409.011 606.435 409.591C607.442 411.251 608.419 412.851 609.365 414.411C609.528 414.411 609.61 414.431 609.671 414.411C612.357 413.551 615.104 413.001 617.944 413.091C618.432 413.111 618.676 412.841 618.88 412.501C619.327 411.731 619.745 410.951 620.172 410.171C620.559 410.381 620.945 410.581 621.342 410.791C620.956 411.571 620.569 412.361 620.141 413.231C620.64 413.341 621.047 413.431 621.454 413.531C622.93 413.891 624.324 414.441 625.524 415.381C627.56 416.971 628.374 419.031 627.967 421.551C627.936 421.761 627.895 421.971 627.855 422.171C627.407 422.091 626.959 422.011 626.512 421.931C627.092 419.631 626.461 417.741 624.537 416.301C623.092 415.221 621.393 414.791 619.633 414.541C619.165 414.471 618.91 414.711 618.646 415.031C617.068 416.901 615.186 418.411 613.12 419.721C612.825 419.911 612.54 420.121 612.245 420.321C612.947 422.311 613.639 424.231 614.311 426.121C614.433 426.161 614.494 426.201 614.565 426.201C617.374 426.061 620.172 426.101 622.909 426.831C623.143 426.891 623.54 426.721 623.734 426.521C624.212 426.051 624.619 425.501 625.046 424.981C625.392 425.241 625.738 425.511 626.094 425.771V425.811ZM496.485 443.171C498.337 443.381 614.321 443.251 615.104 443.021C614.942 442.041 615.501 441.031 614.972 440.031C614.901 439.891 614.962 439.531 615.074 439.451C615.593 439.111 615.41 438.651 615.389 438.201C615.135 434.081 614.311 430.071 613.13 426.121C612.184 422.951 610.922 419.911 609.477 416.931C609.203 416.361 608.633 416.211 608.307 415.791C607.941 415.321 608.338 414.691 607.992 414.101C605.193 409.231 601.815 404.801 597.887 400.771C594.03 396.821 589.726 393.411 585.086 390.411C578.146 385.911 570.606 382.691 562.638 380.421C556.177 378.581 549.572 377.561 542.856 377.251C538.857 377.071 534.858 377.041 530.88 377.461C523.94 378.201 517.234 379.971 510.803 382.591C506.213 384.461 501.858 386.831 497.757 389.611C490.176 394.761 483.593 400.951 478.006 408.171C470.12 418.361 465.297 429.801 463.455 442.471C463.424 442.701 463.455 442.931 463.455 443.191H478.8C478.942 442.601 479.075 442.061 479.197 441.511C480.662 434.911 483.216 428.751 486.879 423.041C491.275 416.201 496.821 410.401 503.354 405.511C509.175 401.161 515.585 397.921 522.617 395.941C531.877 393.331 541.3 392.841 550.824 394.141C556.858 394.961 562.608 396.711 568.092 399.291C574.177 402.161 579.571 406.021 584.445 410.591C587.966 413.891 590.978 417.641 593.908 421.451C594.203 421.841 594.478 422.241 594.865 422.771C589.217 424.801 583.692 426.791 578.095 428.801C571.847 420.791 564.144 414.831 554.223 412.061C544.423 409.321 534.614 409.381 524.957 412.771C509.836 418.091 498.816 432.181 496.485 443.171ZM605.641 408.431C607.9 406.391 609.742 404.241 611.075 401.411C607.931 401.951 605.244 403.001 602.71 404.571C603.718 405.901 604.634 407.111 605.641 408.421V408.431ZM558.313 378.261C559.697 378.601 561 378.921 562.363 379.251C562.811 376.441 562.974 373.731 562.404 370.961C561.051 372.031 559.138 375.461 558.313 378.271V378.261ZM548.087 368.211C546.571 370.881 545.746 373.501 545.339 376.361C546.784 376.501 548.117 376.621 549.471 376.751C549.45 373.831 549.186 371.101 548.087 368.211ZM586.297 389.931C587.711 387.511 588.749 385.101 589.177 382.191C586.622 383.811 584.648 385.631 582.959 387.871C584.099 388.581 585.137 389.211 586.297 389.931ZM574.605 383.601C575.572 381.151 576.029 378.681 575.968 376.091C573.862 377.741 572.325 379.791 570.952 382.091C572.193 382.601 573.343 383.081 574.605 383.601ZM616.936 444.401C619.582 444.051 622.004 443.381 624.436 442.101C621.81 441.061 619.297 440.591 616.682 440.571C616.448 441.481 616.926 442.391 616.071 443.141C616.916 443.221 616.875 443.771 616.936 444.401ZM615.654 431.781C618.015 430.871 620.111 429.751 622.116 428.081C619.551 427.461 617.191 427.391 614.697 427.631C615.023 429.051 615.328 430.371 615.654 431.791V431.781ZM617.14 414.541C614.708 414.521 612.377 414.881 610.057 415.791C610.617 416.921 611.116 417.951 611.665 419.051C613.792 417.811 615.634 416.401 617.14 414.541ZM596.595 398.061C598.091 396.621 600.085 393.061 600.075 391.891C597.877 392.861 595.943 394.181 594.102 395.831C594.967 396.611 595.76 397.321 596.595 398.071V398.061Z" fill="white"/>
</g>
<g filter="url(#filter1_dddddd_50_10383)">
<path d="M558.619 363.771C558.893 363.411 559.158 363.051 559.433 362.701C559.636 362.641 559.84 362.561 560.054 362.531C560.878 362.411 561.651 362.511 562.16 363.251C562.648 363.951 562.638 364.701 562.251 365.451C562.19 365.581 562.119 365.701 562.048 365.821C561.651 366.001 561.264 366.191 560.868 366.371C560.695 366.351 560.511 366.321 560.338 366.301C559.26 366.161 558.69 365.561 558.619 364.511C558.609 364.271 558.609 364.021 558.598 363.781L558.619 363.771Z" fill="#F15E22"/>
</g>
<g filter="url(#filter2_dddddd_50_10383)">
<path d="M602.71 386.941C602.273 386.911 601.825 386.881 601.388 386.851C599.943 385.611 599.831 384.901 600.828 383.481C601.255 383.321 601.683 383.171 602.12 383.011C603.067 383.131 603.85 383.481 604.074 384.491C604.308 385.551 603.84 386.311 602.883 386.811C602.822 386.841 602.772 386.891 602.71 386.931V386.941Z" fill="#F15E22"/>
</g>
<g filter="url(#filter3_dddddd_50_10383)">
<path d="M626.094 425.811C625.748 425.551 625.402 425.281 625.046 425.021C624.599 423.211 624.904 422.571 626.512 421.961C626.959 422.041 627.407 422.121 627.855 422.201C628.282 422.631 628.72 423.031 628.74 423.711C628.781 424.931 628.079 425.731 626.837 425.791C626.583 425.801 626.339 425.791 626.084 425.801L626.094 425.811Z" fill="#F15E22"/>
</g>
<g filter="url(#filter4_dddddd_50_10383)">
<path d="M576.752 371.111C576.304 371.161 575.857 371.201 575.409 371.251C574.31 370.741 573.74 369.951 573.944 368.711C573.954 368.641 573.923 368.571 573.913 368.501C574.249 368.171 574.574 367.841 574.91 367.501C575.154 367.471 575.399 367.421 575.653 367.411C576.65 367.371 577.342 367.731 577.678 368.461C578.024 369.221 577.81 370.091 577.129 370.741C577.006 370.861 576.874 370.981 576.752 371.111Z" fill="#F15E22"/>
</g>
<g filter="url(#filter5_dddddd_50_10383)">
<path d="M590.54 377.421C590.092 377.421 589.655 377.421 589.207 377.431C588.078 376.791 587.67 375.851 587.996 374.611C588.342 374.291 588.678 373.971 589.024 373.651C589.309 373.631 589.594 373.601 589.868 373.601C590.723 373.601 591.456 374.081 591.7 374.771C591.975 375.551 591.751 376.391 591.11 376.951C590.927 377.111 590.733 377.261 590.54 377.411V377.421Z" fill="#F15E22"/>
</g>
<g filter="url(#filter6_dddddd_50_10383)">
<path d="M621.353 410.811C620.966 410.601 620.579 410.401 620.182 410.191C619.592 408.501 619.694 408.101 620.925 407.061C621.373 407.011 621.831 406.961 622.279 406.921C623.093 407.291 623.744 407.771 623.734 408.781C623.734 409.901 623.113 410.611 621.973 410.751C621.76 410.771 621.546 410.801 621.342 410.821L621.353 410.811Z" fill="#F15E22"/>
</g>
<g filter="url(#filter7_dddddd_50_10383)">
<path d="M629.737 437.021C630.144 437.221 630.551 437.411 630.958 437.611C631.732 438.961 631.518 440.171 630.307 440.651C629.809 440.851 629.188 440.751 628.618 440.781C628.292 440.501 627.957 440.211 627.631 439.931C627.6 439.551 627.529 439.171 627.539 438.791C627.56 438.001 628.13 437.301 628.883 437.121C629.157 437.051 629.442 437.051 629.727 437.021H629.737Z" fill="#F15E22"/>
</g>
<g filter="url(#filter8_dddddd_50_10383)">
<path d="M630.012 451.731C630.378 451.981 630.745 452.231 631.111 452.481C631.203 453.021 631.406 453.571 631.355 454.101C631.284 454.961 630.409 455.581 629.442 455.551C629.066 455.541 628.689 455.411 628.303 455.331C628.028 454.991 627.763 454.651 627.489 454.311C627.499 454.071 627.509 453.821 627.519 453.581C627.59 452.521 628.262 451.861 629.361 451.781C629.575 451.761 629.788 451.751 630.002 451.741L630.012 451.731Z" fill="#F15E22"/>
</g>
<g filter="url(#filter9_dddddd_50_10383)">
<path d="M547.324 363.881C546.967 364.141 546.621 364.401 546.265 364.671C545.95 364.661 545.624 364.671 545.309 364.631C544.424 364.531 543.742 363.861 543.65 363.001C543.62 362.721 543.63 362.441 543.63 362.161C543.894 361.801 544.149 361.441 544.413 361.081C544.586 361.031 544.749 360.961 544.922 360.921C546.611 360.541 547.751 361.571 547.486 363.261C547.456 363.471 547.385 363.671 547.334 363.871L547.324 363.881Z" fill="#F15E22"/>
</g>
<g filter="url(#filter10_dddddd_50_10383)">
<path d="M613.649 397.751C613.212 397.711 612.774 397.671 612.337 397.641C610.82 396.301 610.77 395.451 612.113 394.081C612.571 393.991 613.039 393.911 613.497 393.821C614.85 394.421 615.257 395.041 615.074 396.191C614.942 397.031 614.26 397.361 613.639 397.761L613.649 397.751Z" fill="#F15E22"/>
</g>
<g filter="url(#filter11_dddddd_50_10383)">
<path d="M649.097 585.566H656.261C658.113 585.566 659.71 586.216 661.033 587.526C662.356 588.836 663.028 590.396 663.028 592.226V596.336H649.097V585.576V585.566Z" fill="#F15E22"/>
</g>
<g filter="url(#filter12_dddddd_50_10383)">
<path d="M422.604 629.576C421.943 637.406 418.951 643.536 413.65 647.966C408.206 652.266 401.042 654.426 392.148 654.426C381.8 654.426 373.903 651.366 368.459 645.236C363.015 639.366 360.298 630.696 360.298 619.216C360.298 607.736 363.086 598.676 368.663 592.806C374.371 586.676 382.593 583.616 393.349 583.616C402.11 583.616 409.071 585.766 414.25 590.076C419.155 594.256 421.943 600.116 422.615 607.686H414.057C410.872 607.686 408.613 606.316 407.29 603.576C406.364 601.886 405.234 600.386 403.901 599.076C401.245 597.116 397.735 596.146 393.349 596.146C387.244 596.146 382.532 598.106 379.215 602.016C376.03 605.926 374.442 611.666 374.442 619.226C374.442 626.786 376.03 632.136 379.215 636.046C382.268 640.086 386.847 642.106 392.952 642.106C397.195 642.106 400.716 641.066 403.504 638.976C406.028 637.016 407.819 633.886 408.877 629.586H422.615L422.604 629.576Z" fill="white"/>
<path d="M467.103 636.816H477.055C475.59 642.296 472.812 646.466 468.69 649.336C464.579 652.336 459.4 653.836 453.162 653.836C445.602 653.836 439.69 651.426 435.446 646.596C431.193 641.906 429.076 635.186 429.076 626.446C429.076 617.706 431.132 611.576 435.243 606.886C439.486 602.066 445.398 599.646 452.959 599.646C460.916 599.646 467.093 601.996 471.468 606.686C475.712 611.516 477.839 618.226 477.839 626.836V628.986C477.839 629.636 477.767 630.096 477.635 630.356H443.2C443.332 634.396 444.33 637.396 446.182 639.356C447.901 641.446 450.496 642.486 453.946 642.486C456.205 642.486 458.128 642.026 459.715 641.116C460.112 640.986 460.479 640.756 460.814 640.426C461.14 640.106 461.506 639.746 461.913 639.346C462.046 638.956 462.544 638.436 463.409 637.776C464.274 637.126 465.495 636.796 467.093 636.796L467.103 636.816ZM443.21 621.556H463.511C463.246 618.036 462.32 615.426 460.723 613.736C458.993 611.906 456.541 610.996 453.356 610.996C450.435 610.996 448.044 611.906 446.192 613.736C444.33 615.566 443.332 618.166 443.21 621.556Z" fill="white"/>
<path d="M485.328 585.566H492.492C494.344 585.566 495.941 586.186 497.264 587.426C498.587 588.666 499.259 590.196 499.259 592.026V652.866H485.328V585.576V585.566Z" fill="white"/>
<path d="M543.157 636.816H553.109C551.643 642.296 548.865 646.466 544.754 649.336C540.643 652.336 535.464 653.836 529.226 653.836C521.666 653.836 515.753 651.426 511.51 646.596C507.257 641.906 505.14 635.186 505.14 626.446C505.14 617.706 507.196 611.576 511.307 606.886C515.55 602.066 521.462 599.646 529.023 599.646C536.98 599.646 543.157 601.996 547.532 606.686C551.776 611.516 553.902 618.226 553.902 626.836V628.986C553.902 629.636 553.831 630.096 553.699 630.356H519.264C519.396 634.396 520.394 637.396 522.246 639.356C523.965 641.446 526.56 642.486 530.01 642.486C532.269 642.486 534.192 642.026 535.779 641.116C536.176 640.986 536.543 640.756 536.878 640.426C537.204 640.106 537.57 639.746 537.977 639.346C538.11 638.956 538.608 638.436 539.473 637.776C540.338 637.126 541.559 636.796 543.157 636.796V636.816ZM519.274 621.556H539.575C539.31 618.036 538.384 615.426 536.787 613.736C535.057 611.906 532.605 610.996 529.42 610.996C526.499 610.996 524.108 611.906 522.256 613.736C520.394 615.566 519.396 618.166 519.274 621.556Z" fill="white"/>
<path d="M559.591 635.636H573.125C573.257 638.246 574.254 640.206 576.106 641.506C578.101 642.816 580.746 643.466 584.064 643.466C586.455 643.466 588.51 643.006 590.23 642.096C591.828 641.186 592.621 639.946 592.621 638.376C592.621 636.026 589.833 634.266 584.257 633.096C581.866 632.706 580.075 632.316 578.884 631.926C571.853 630.236 567.141 628.206 564.75 625.866C562.094 623.516 560.771 620.386 560.771 616.476C560.771 611.516 562.694 607.416 566.541 604.156C570.52 601.156 575.699 599.656 582.069 599.656C588.968 599.656 594.473 601.156 598.595 604.156C602.441 607.416 604.497 611.656 604.761 616.866H596.203C593.68 616.866 591.756 615.756 590.434 613.536C589.904 613.016 589.365 612.496 588.836 611.976C587.249 610.806 585.051 610.216 582.262 610.216C579.474 610.216 577.612 610.606 576.289 611.386C575.099 612.166 574.498 613.346 574.498 614.906C574.498 616.996 577.948 618.756 584.847 620.186C585.641 620.446 586.343 620.646 586.933 620.776C587.534 620.906 588.093 620.976 588.622 620.976C595.389 622.676 600.101 624.626 602.756 626.846C605.28 629.196 606.542 632.326 606.542 636.236C606.542 641.976 604.415 646.406 600.172 649.536C596.193 652.406 590.22 653.836 582.252 653.836C574.285 653.836 569.044 652.336 565.33 649.336C561.484 646.336 559.56 641.966 559.56 636.226V635.636H559.591Z" fill="white"/>
<path d="M636.927 652.856C632.551 653.116 627.799 653.056 622.691 652.656C617.582 652.266 615.028 649.066 615.028 643.076V585.566H622.192C623.912 585.566 625.438 586.216 626.771 587.526C628.094 588.836 628.766 590.396 628.766 592.226V601.026H636.927V603.766C636.927 605.726 636.265 607.316 634.932 608.556C633.609 609.796 632.012 610.416 630.16 610.416H628.766V639.366C628.766 641.586 630.088 642.696 632.744 642.696H636.927V652.866V652.856Z" fill="white"/>
<path d="M649.097 600.816H656.261C658.113 600.816 659.71 601.466 661.033 602.776C662.356 604.086 663.028 605.646 663.028 607.476V652.856H649.097V600.826V600.816Z" fill="white"/>
<path d="M707.241 650.706C704.453 652.146 701.502 653.016 698.388 653.346C695.264 653.666 692.517 653.836 690.126 653.836C685.343 653.836 681.171 652.566 677.589 650.026C674.007 647.486 672.216 643.276 672.216 637.406C672.216 631.926 673.844 628.016 677.091 625.666C680.337 623.316 684.488 621.756 689.535 620.976C690.197 620.976 690.991 620.876 691.927 620.686C692.853 620.486 693.921 620.326 695.112 620.196C700.953 619.416 703.873 617.716 703.873 615.106C703.873 613.146 702.845 611.876 700.79 611.296C698.734 610.706 696.842 610.416 695.112 610.416C693.25 610.416 691.591 610.676 690.136 611.196C688.671 611.716 687.612 612.696 686.951 614.126H673.61C674.14 610.086 676.002 606.756 679.187 604.146C682.769 601.146 687.877 599.646 694.511 599.646C701.94 599.646 707.516 600.886 711.23 603.366C715.077 605.976 717 609.626 717 614.316V632.116C717 637.336 716.033 641.406 714.11 644.346C712.187 647.276 709.897 649.396 707.241 650.706ZM704.056 626.646C702.194 627.556 699.61 628.406 696.292 629.186L691.713 630.166C689.322 630.816 687.602 631.666 686.534 632.706C685.608 634.146 685.14 635.576 685.14 637.006C685.14 638.966 685.74 640.526 686.93 641.696C688.121 642.746 689.851 643.266 692.11 643.266C695.824 643.266 698.745 642.226 700.871 640.136C702.988 638.056 704.056 635.186 704.056 631.526V626.636V626.646Z" fill="white"/>
</g>
<defs>
<filter id="filter0_dddddd_50_10383" x="85.5415" y="0.44455" width="906.215" height="908.132" filterUnits="userSpaceOnUse" color-interpolation-filters="sRGB">
<feFlood flood-opacity="0" result="BackgroundImageFix"/>
<feColorMatrix in="SourceAlpha" type="matrix" values="0 0 0 0 0 0 0 0 0 0 0 0 0 0 0 0 0 0 127 0" result="hardAlpha"/>
<feOffset/>
<feGaussianBlur stdDeviation="4.28042"/>
<feColorMatrix type="matrix" values="0 0 0 0 0.588048 0 0 0 0 0.720547 0 0 0 0 0.83068 0 0 0 1 0"/>
<feBlend mode="normal" in2="BackgroundImageFix" result="effect1_dropShadow_50_10383"/>
<feColorMatrix in="SourceAlpha" type="matrix" values="0 0 0 0 0 0 0 0 0 0 0 0 0 0 0 0 0 0 127 0" result="hardAlpha"/>
<feOffset/>
<feGaussianBlur stdDeviation="8.56084"/>
<feColorMatrix type="matrix" values="0 0 0 0 0.588048 0 0 0 0 0.720547 0 0 0 0 0.83068 0 0 0 1 0"/>
<feBlend mode="normal" in2="effect1_dropShadow_50_10383" result="effect2_dropShadow_50_10383"/>
<feColorMatrix in="SourceAlpha" type="matrix" values="0 0 0 0 0 0 0 0 0 0 0 0 0 0 0 0 0 0 127 0" result="hardAlpha"/>
<feOffset/>
<feGaussianBlur stdDeviation="29.963"/>
<feColorMatrix type="matrix" values="0 0 0 0 0.588048 0 0 0 0 0.720547 0 0 0 0 0.83068 0 0 0 1 0"/>
<feBlend mode="normal" in2="effect2_dropShadow_50_10383" result="effect3_dropShadow_50_10383"/>
<feColorMatrix in="SourceAlpha" type="matrix" values="0 0 0 0 0 0 0 0 0 0 0 0 0 0 0 0 0 0 127 0" result="hardAlpha"/>
<feOffset/>
<feGaussianBlur stdDeviation="59.9259"/>
<feColorMatrix type="matrix" values="0 0 0 0 0 0 0 0 0 0.176471 0 0 0 0 0.262745 0 0 0 1 0"/>
<feBlend mode="normal" in2="effect3_dropShadow_50_10383" result="effect4_dropShadow_50_10383"/>
<feColorMatrix in="SourceAlpha" type="matrix" values="0 0 0 0 0 0 0 0 0 0 0 0 0 0 0 0 0 0 127 0" result="hardAlpha"/>
<feOffset/>
<feGaussianBlur stdDeviation="102.73"/>
<feColorMatrix type="matrix" values="0 0 0 0 0 0 0 0 0 0.176471 0 0 0 0 0.262745 0 0 0 1 0"/>
<feBlend mode="normal" in2="effect4_dropShadow_50_10383" result="effect5_dropShadow_50_10383"/>
<feColorMatrix in="SourceAlpha" type="matrix" values="0 0 0 0 0 0 0 0 0 0 0 0 0 0 0 0 0 0 127 0" result="hardAlpha"/>
<feOffset/>
<feGaussianBlur stdDeviation="179.778"/>
<feColorMatrix type="matrix" values="0 0 0 0 0 0 0 0 0 0.176471 0 0 0 0 0.262745 0 0 0 1 0"/>
<feBlend mode="normal" in2="effect5_dropShadow_50_10383" result="effect6_dropShadow_50_10383"/>
<feBlend mode="normal" in="SourceGraphic" in2="effect6_dropShadow_50_10383" result="shape"/>
</filter>
<filter id="filter1_dddddd_50_10383" x="543.72" y="347.609" width="33.6939" height="33.6404" filterUnits="userSpaceOnUse" color-interpolation-filters="sRGB">
<feFlood flood-opacity="0" result="BackgroundImageFix"/>
<feColorMatrix in="SourceAlpha" type="matrix" values="0 0 0 0 0 0 0 0 0 0 0 0 0 0 0 0 0 0 127 0" result="hardAlpha"/>
<feOffset/>
<feGaussianBlur stdDeviation="0.177129"/>
<feColorMatrix type="matrix" values="0 0 0 0 0.945098 0 0 0 0 0.368627 0 0 0 0 0.133333 0 0 0 1 0"/>
<feBlend mode="normal" in2="BackgroundImageFix" result="effect1_dropShadow_50_10383"/>
<feColorMatrix in="SourceAlpha" type="matrix" values="0 0 0 0 0 0 0 0 0 0 0 0 0 0 0 0 0 0 127 0" result="hardAlpha"/>
<feOffset/>
<feGaussianBlur stdDeviation="0.354257"/>
<feColorMatrix type="matrix" values="0 0 0 0 0.945098 0 0 0 0 0.368627 0 0 0 0 0.133333 0 0 0 1 0"/>
<feBlend mode="normal" in2="effect1_dropShadow_50_10383" result="effect2_dropShadow_50_10383"/>
<feColorMatrix in="SourceAlpha" type="matrix" values="0 0 0 0 0 0 0 0 0 0 0 0 0 0 0 0 0 0 127 0" result="hardAlpha"/>
<feOffset/>
<feGaussianBlur stdDeviation="1.2399"/>
<feColorMatrix type="matrix" values="0 0 0 0 0.945098 0 0 0 0 0.368627 0 0 0 0 0.133333 0 0 0 1 0"/>
<feBlend mode="normal" in2="effect2_dropShadow_50_10383" result="effect3_dropShadow_50_10383"/>
<feColorMatrix in="SourceAlpha" type="matrix" values="0 0 0 0 0 0 0 0 0 0 0 0 0 0 0 0 0 0 127 0" result="hardAlpha"/>
<feOffset/>
<feGaussianBlur stdDeviation="2.4798"/>
<feColorMatrix type="matrix" values="0 0 0 0 0.945098 0 0 0 0 0.368627 0 0 0 0 0.133333 0 0 0 1 0"/>
<feBlend mode="normal" in2="effect3_dropShadow_50_10383" result="effect4_dropShadow_50_10383"/>
<feColorMatrix in="SourceAlpha" type="matrix" values="0 0 0 0 0 0 0 0 0 0 0 0 0 0 0 0 0 0 127 0" result="hardAlpha"/>
<feOffset/>
<feGaussianBlur stdDeviation="4.25109"/>
<feColorMatrix type="matrix" values="0 0 0 0 0.945098 0 0 0 0 0.368627 0 0 0 0 0.133333 0 0 0 1 0"/>
<feBlend mode="normal" in2="effect4_dropShadow_50_10383" result="effect5_dropShadow_50_10383"/>
<feColorMatrix in="SourceAlpha" type="matrix" values="0 0 0 0 0 0 0 0 0 0 0 0 0 0 0 0 0 0 127 0" result="hardAlpha"/>
<feOffset/>
<feGaussianBlur stdDeviation="7.4394"/>
<feColorMatrix type="matrix" values="0 0 0 0 0.945098 0 0 0 0 0.368627 0 0 0 0 0.133333 0 0 0 1 0"/>
<feBlend mode="normal" in2="effect5_dropShadow_50_10383" result="effect6_dropShadow_50_10383"/>
<feBlend mode="normal" in="SourceGraphic" in2="effect6_dropShadow_50_10383" result="shape"/>
</filter>
<filter id="filter2_dddddd_50_10383" x="585.21" y="368.046" width="33.8889" height="33.86" filterUnits="userSpaceOnUse" color-interpolation-filters="sRGB">
<feFlood flood-opacity="0" result="BackgroundImageFix"/>
<feColorMatrix in="SourceAlpha" type="matrix" values="0 0 0 0 0 0 0 0 0 0 0 0 0 0 0 0 0 0 127 0" result="hardAlpha"/>
<feOffset/>
<feGaussianBlur stdDeviation="0.178155"/>
<feColorMatrix type="matrix" values="0 0 0 0 0.945098 0 0 0 0 0.368627 0 0 0 0 0.133333 0 0 0 1 0"/>
<feBlend mode="normal" in2="BackgroundImageFix" result="effect1_dropShadow_50_10383"/>
<feColorMatrix in="SourceAlpha" type="matrix" values="0 0 0 0 0 0 0 0 0 0 0 0 0 0 0 0 0 0 127 0" result="hardAlpha"/>
<feOffset/>
<feGaussianBlur stdDeviation="0.356309"/>
<feColorMatrix type="matrix" values="0 0 0 0 0.945098 0 0 0 0 0.368627 0 0 0 0 0.133333 0 0 0 1 0"/>
<feBlend mode="normal" in2="effect1_dropShadow_50_10383" result="effect2_dropShadow_50_10383"/>
<feColorMatrix in="SourceAlpha" type="matrix" values="0 0 0 0 0 0 0 0 0 0 0 0 0 0 0 0 0 0 127 0" result="hardAlpha"/>
<feOffset/>
<feGaussianBlur stdDeviation="1.24708"/>
<feColorMatrix type="matrix" values="0 0 0 0 0.945098 0 0 0 0 0.368627 0 0 0 0 0.133333 0 0 0 1 0"/>
<feBlend mode="normal" in2="effect2_dropShadow_50_10383" result="effect3_dropShadow_50_10383"/>
<feColorMatrix in="SourceAlpha" type="matrix" values="0 0 0 0 0 0 0 0 0 0 0 0 0 0 0 0 0 0 127 0" result="hardAlpha"/>
<feOffset/>
<feGaussianBlur stdDeviation="2.49416"/>
<feColorMatrix type="matrix" values="0 0 0 0 0.945098 0 0 0 0 0.368627 0 0 0 0 0.133333 0 0 0 1 0"/>
<feBlend mode="normal" in2="effect3_dropShadow_50_10383" result="effect4_dropShadow_50_10383"/>
<feColorMatrix in="SourceAlpha" type="matrix" values="0 0 0 0 0 0 0 0 0 0 0 0 0 0 0 0 0 0 127 0" result="hardAlpha"/>
<feOffset/>
<feGaussianBlur stdDeviation="4.27571"/>
<feColorMatrix type="matrix" values="0 0 0 0 0.945098 0 0 0 0 0.368627 0 0 0 0 0.133333 0 0 0 1 0"/>
<feBlend mode="normal" in2="effect4_dropShadow_50_10383" result="effect5_dropShadow_50_10383"/>
<feColorMatrix in="SourceAlpha" type="matrix" values="0 0 0 0 0 0 0 0 0 0 0 0 0 0 0 0 0 0 127 0" result="hardAlpha"/>
<feOffset/>
<feGaussianBlur stdDeviation="7.48249"/>
<feColorMatrix type="matrix" values="0 0 0 0 0.945098 0 0 0 0 0.368627 0 0 0 0 0.133333 0 0 0 1 0"/>
<feBlend mode="normal" in2="effect5_dropShadow_50_10383" result="effect6_dropShadow_50_10383"/>
<feBlend mode="normal" in="SourceGraphic" in2="effect6_dropShadow_50_10383" result="shape"/>
</filter>
<filter id="filter3_dddddd_50_10383" x="610.183" y="407.284" width="33.2355" height="33.2029" filterUnits="userSpaceOnUse" color-interpolation-filters="sRGB">
<feFlood flood-opacity="0" result="BackgroundImageFix"/>
<feColorMatrix in="SourceAlpha" type="matrix" values="0 0 0 0 0 0 0 0 0 0 0 0 0 0 0 0 0 0 127 0" result="hardAlpha"/>
<feOffset/>
<feGaussianBlur stdDeviation="0.17472"/>
<feColorMatrix type="matrix" values="0 0 0 0 0.945098 0 0 0 0 0.368627 0 0 0 0 0.133333 0 0 0 1 0"/>
<feBlend mode="normal" in2="BackgroundImageFix" result="effect1_dropShadow_50_10383"/>
<feColorMatrix in="SourceAlpha" type="matrix" values="0 0 0 0 0 0 0 0 0 0 0 0 0 0 0 0 0 0 127 0" result="hardAlpha"/>
<feOffset/>
<feGaussianBlur stdDeviation="0.349439"/>
<feColorMatrix type="matrix" values="0 0 0 0 0.945098 0 0 0 0 0.368627 0 0 0 0 0.133333 0 0 0 1 0"/>
<feBlend mode="normal" in2="effect1_dropShadow_50_10383" result="effect2_dropShadow_50_10383"/>
<feColorMatrix in="SourceAlpha" type="matrix" values="0 0 0 0 0 0 0 0 0 0 0 0 0 0 0 0 0 0 127 0" result="hardAlpha"/>
<feOffset/>
<feGaussianBlur stdDeviation="1.22304"/>
<feColorMatrix type="matrix" values="0 0 0 0 0.945098 0 0 0 0 0.368627 0 0 0 0 0.133333 0 0 0 1 0"/>
<feBlend mode="normal" in2="effect2_dropShadow_50_10383" result="effect3_dropShadow_50_10383"/>
<feColorMatrix in="SourceAlpha" type="matrix" values="0 0 0 0 0 0 0 0 0 0 0 0 0 0 0 0 0 0 127 0" result="hardAlpha"/>
<feOffset/>
<feGaussianBlur stdDeviation="2.44607"/>
<feColorMatrix type="matrix" values="0 0 0 0 0.945098 0 0 0 0 0.368627 0 0 0 0 0.133333 0 0 0 1 0"/>
<feBlend mode="normal" in2="effect3_dropShadow_50_10383" result="effect4_dropShadow_50_10383"/>
<feColorMatrix in="SourceAlpha" type="matrix" values="0 0 0 0 0 0 0 0 0 0 0 0 0 0 0 0 0 0 127 0" result="hardAlpha"/>
<feOffset/>
<feGaussianBlur stdDeviation="4.19327"/>
<feColorMatrix type="matrix" values="0 0 0 0 0.945098 0 0 0 0 0.368627 0 0 0 0 0.133333 0 0 0 1 0"/>
<feBlend mode="normal" in2="effect4_dropShadow_50_10383" result="effect5_dropShadow_50_10383"/>
<feColorMatrix in="SourceAlpha" type="matrix" values="0 0 0 0 0 0 0 0 0 0 0 0 0 0 0 0 0 0 127 0" result="hardAlpha"/>
<feOffset/>
<feGaussianBlur stdDeviation="7.33822"/>
<feColorMatrix type="matrix" values="0 0 0 0 0.945098 0 0 0 0 0.368627 0 0 0 0 0.133333 0 0 0 1 0"/>
<feBlend mode="normal" in2="effect5_dropShadow_50_10383" result="effect6_dropShadow_50_10383"/>
<feBlend mode="normal" in="SourceGraphic" in2="effect6_dropShadow_50_10383" result="shape"/>
</filter>
<filter id="filter4_dddddd_50_10383" x="559.015" y="352.52" width="33.7133" height="33.6179" filterUnits="userSpaceOnUse" color-interpolation-filters="sRGB">
<feFlood flood-opacity="0" result="BackgroundImageFix"/>
<feColorMatrix in="SourceAlpha" type="matrix" values="0 0 0 0 0 0 0 0 0 0 0 0 0 0 0 0 0 0 127 0" result="hardAlpha"/>
<feOffset/>
<feGaussianBlur stdDeviation="0.177231"/>
<feColorMatrix type="matrix" values="0 0 0 0 0.945098 0 0 0 0 0.368627 0 0 0 0 0.133333 0 0 0 1 0"/>
<feBlend mode="normal" in2="BackgroundImageFix" result="effect1_dropShadow_50_10383"/>
<feColorMatrix in="SourceAlpha" type="matrix" values="0 0 0 0 0 0 0 0 0 0 0 0 0 0 0 0 0 0 127 0" result="hardAlpha"/>
<feOffset/>
<feGaussianBlur stdDeviation="0.354463"/>
<feColorMatrix type="matrix" values="0 0 0 0 0.945098 0 0 0 0 0.368627 0 0 0 0 0.133333 0 0 0 1 0"/>
<feBlend mode="normal" in2="effect1_dropShadow_50_10383" result="effect2_dropShadow_50_10383"/>
<feColorMatrix in="SourceAlpha" type="matrix" values="0 0 0 0 0 0 0 0 0 0 0 0 0 0 0 0 0 0 127 0" result="hardAlpha"/>
<feOffset/>
<feGaussianBlur stdDeviation="1.24062"/>
<feColorMatrix type="matrix" values="0 0 0 0 0.945098 0 0 0 0 0.368627 0 0 0 0 0.133333 0 0 0 1 0"/>
<feBlend mode="normal" in2="effect2_dropShadow_50_10383" result="effect3_dropShadow_50_10383"/>
<feColorMatrix in="SourceAlpha" type="matrix" values="0 0 0 0 0 0 0 0 0 0 0 0 0 0 0 0 0 0 127 0" result="hardAlpha"/>
<feOffset/>
<feGaussianBlur stdDeviation="2.48124"/>
<feColorMatrix type="matrix" values="0 0 0 0 0.945098 0 0 0 0 0.368627 0 0 0 0 0.133333 0 0 0 1 0"/>
<feBlend mode="normal" in2="effect3_dropShadow_50_10383" result="effect4_dropShadow_50_10383"/>
<feColorMatrix in="SourceAlpha" type="matrix" values="0 0 0 0 0 0 0 0 0 0 0 0 0 0 0 0 0 0 127 0" result="hardAlpha"/>
<feOffset/>
<feGaussianBlur stdDeviation="4.25355"/>
<feColorMatrix type="matrix" values="0 0 0 0 0.945098 0 0 0 0 0.368627 0 0 0 0 0.133333 0 0 0 1 0"/>
<feBlend mode="normal" in2="effect4_dropShadow_50_10383" result="effect5_dropShadow_50_10383"/>
<feColorMatrix in="SourceAlpha" type="matrix" values="0 0 0 0 0 0 0 0 0 0 0 0 0 0 0 0 0 0 127 0" result="hardAlpha"/>
<feOffset/>
<feGaussianBlur stdDeviation="7.44371"/>
<feColorMatrix type="matrix" values="0 0 0 0 0.945098 0 0 0 0 0.368627 0 0 0 0 0.133333 0 0 0 1 0"/>
<feBlend mode="normal" in2="effect5_dropShadow_50_10383" result="effect6_dropShadow_50_10383"/>
<feBlend mode="normal" in="SourceGraphic" in2="effect6_dropShadow_50_10383" result="shape"/>
</filter>
<filter id="filter5_dddddd_50_10383" x="573.04" y="358.753" width="33.6232" height="33.5252" filterUnits="userSpaceOnUse" color-interpolation-filters="sRGB">
<feFlood flood-opacity="0" result="BackgroundImageFix"/>
<feColorMatrix in="SourceAlpha" type="matrix" values="0 0 0 0 0 0 0 0 0 0 0 0 0 0 0 0 0 0 127 0" result="hardAlpha"/>
<feOffset/>
<feGaussianBlur stdDeviation="0.176757"/>
<feColorMatrix type="matrix" values="0 0 0 0 0.945098 0 0 0 0 0.368627 0 0 0 0 0.133333 0 0 0 1 0"/>
<feBlend mode="normal" in2="BackgroundImageFix" result="effect1_dropShadow_50_10383"/>
<feColorMatrix in="SourceAlpha" type="matrix" values="0 0 0 0 0 0 0 0 0 0 0 0 0 0 0 0 0 0 127 0" result="hardAlpha"/>
<feOffset/>
<feGaussianBlur stdDeviation="0.353515"/>
<feColorMatrix type="matrix" values="0 0 0 0 0.945098 0 0 0 0 0.368627 0 0 0 0 0.133333 0 0 0 1 0"/>
<feBlend mode="normal" in2="effect1_dropShadow_50_10383" result="effect2_dropShadow_50_10383"/>
<feColorMatrix in="SourceAlpha" type="matrix" values="0 0 0 0 0 0 0 0 0 0 0 0 0 0 0 0 0 0 127 0" result="hardAlpha"/>
<feOffset/>
<feGaussianBlur stdDeviation="1.2373"/>
<feColorMatrix type="matrix" values="0 0 0 0 0.945098 0 0 0 0 0.368627 0 0 0 0 0.133333 0 0 0 1 0"/>
<feBlend mode="normal" in2="effect2_dropShadow_50_10383" result="effect3_dropShadow_50_10383"/>
<feColorMatrix in="SourceAlpha" type="matrix" values="0 0 0 0 0 0 0 0 0 0 0 0 0 0 0 0 0 0 127 0" result="hardAlpha"/>
<feOffset/>
<feGaussianBlur stdDeviation="2.4746"/>
<feColorMatrix type="matrix" values="0 0 0 0 0.945098 0 0 0 0 0.368627 0 0 0 0 0.133333 0 0 0 1 0"/>
<feBlend mode="normal" in2="effect3_dropShadow_50_10383" result="effect4_dropShadow_50_10383"/>
<feColorMatrix in="SourceAlpha" type="matrix" values="0 0 0 0 0 0 0 0 0 0 0 0 0 0 0 0 0 0 127 0" result="hardAlpha"/>
<feOffset/>
<feGaussianBlur stdDeviation="4.24218"/>
<feColorMatrix type="matrix" values="0 0 0 0 0.945098 0 0 0 0 0.368627 0 0 0 0 0.133333 0 0 0 1 0"/>
<feBlend mode="normal" in2="effect4_dropShadow_50_10383" result="effect5_dropShadow_50_10383"/>
<feColorMatrix in="SourceAlpha" type="matrix" values="0 0 0 0 0 0 0 0 0 0 0 0 0 0 0 0 0 0 127 0" result="hardAlpha"/>
<feOffset/>
<feGaussianBlur stdDeviation="7.42381"/>
<feColorMatrix type="matrix" values="0 0 0 0 0.945098 0 0 0 0 0.368627 0 0 0 0 0.133333 0 0 0 1 0"/>
<feBlend mode="normal" in2="effect5_dropShadow_50_10383" result="effect6_dropShadow_50_10383"/>
<feBlend mode="normal" in="SourceGraphic" in2="effect6_dropShadow_50_10383" result="shape"/>
</filter>
<filter id="filter6_dddddd_50_10383" x="605.089" y="392.177" width="33.3885" height="33.3879" filterUnits="userSpaceOnUse" color-interpolation-filters="sRGB">
<feFlood flood-opacity="0" result="BackgroundImageFix"/>
<feColorMatrix in="SourceAlpha" type="matrix" values="0 0 0 0 0 0 0 0 0 0 0 0 0 0 0 0 0 0 127 0" result="hardAlpha"/>
<feOffset/>
<feGaussianBlur stdDeviation="0.175523"/>
<feColorMatrix type="matrix" values="0 0 0 0 0.945098 0 0 0 0 0.368627 0 0 0 0 0.133333 0 0 0 1 0"/>
<feBlend mode="normal" in2="BackgroundImageFix" result="effect1_dropShadow_50_10383"/>
<feColorMatrix in="SourceAlpha" type="matrix" values="0 0 0 0 0 0 0 0 0 0 0 0 0 0 0 0 0 0 127 0" result="hardAlpha"/>
<feOffset/>
<feGaussianBlur stdDeviation="0.351047"/>
<feColorMatrix type="matrix" values="0 0 0 0 0.945098 0 0 0 0 0.368627 0 0 0 0 0.133333 0 0 0 1 0"/>
<feBlend mode="normal" in2="effect1_dropShadow_50_10383" result="effect2_dropShadow_50_10383"/>
<feColorMatrix in="SourceAlpha" type="matrix" values="0 0 0 0 0 0 0 0 0 0 0 0 0 0 0 0 0 0 127 0" result="hardAlpha"/>
<feOffset/>
<feGaussianBlur stdDeviation="1.22866"/>
<feColorMatrix type="matrix" values="0 0 0 0 0.945098 0 0 0 0 0.368627 0 0 0 0 0.133333 0 0 0 1 0"/>
<feBlend mode="normal" in2="effect2_dropShadow_50_10383" result="effect3_dropShadow_50_10383"/>
<feColorMatrix in="SourceAlpha" type="matrix" values="0 0 0 0 0 0 0 0 0 0 0 0 0 0 0 0 0 0 127 0" result="hardAlpha"/>
<feOffset/>
<feGaussianBlur stdDeviation="2.45733"/>
<feColorMatrix type="matrix" values="0 0 0 0 0.945098 0 0 0 0 0.368627 0 0 0 0 0.133333 0 0 0 1 0"/>
<feBlend mode="normal" in2="effect3_dropShadow_50_10383" result="effect4_dropShadow_50_10383"/>
<feColorMatrix in="SourceAlpha" type="matrix" values="0 0 0 0 0 0 0 0 0 0 0 0 0 0 0 0 0 0 127 0" result="hardAlpha"/>
<feOffset/>
<feGaussianBlur stdDeviation="4.21256"/>
<feColorMatrix type="matrix" values="0 0 0 0 0.945098 0 0 0 0 0.368627 0 0 0 0 0.133333 0 0 0 1 0"/>
<feBlend mode="normal" in2="effect4_dropShadow_50_10383" result="effect5_dropShadow_50_10383"/>
<feColorMatrix in="SourceAlpha" type="matrix" values="0 0 0 0 0 0 0 0 0 0 0 0 0 0 0 0 0 0 127 0" result="hardAlpha"/>
<feOffset/>
<feGaussianBlur stdDeviation="7.37198"/>
<feColorMatrix type="matrix" values="0 0 0 0 0.945098 0 0 0 0 0.368627 0 0 0 0 0.133333 0 0 0 1 0"/>
<feBlend mode="normal" in2="effect5_dropShadow_50_10383" result="effect6_dropShadow_50_10383"/>
<feBlend mode="normal" in="SourceGraphic" in2="effect6_dropShadow_50_10383" result="shape"/>
</filter>
<filter id="filter7_dddddd_50_10383" x="612.895" y="422.378" width="33.1603" height="33.0466" filterUnits="userSpaceOnUse" color-interpolation-filters="sRGB">
<feFlood flood-opacity="0" result="BackgroundImageFix"/>
<feColorMatrix in="SourceAlpha" type="matrix" values="0 0 0 0 0 0 0 0 0 0 0 0 0 0 0 0 0 0 127 0" result="hardAlpha"/>
<feOffset/>
<feGaussianBlur stdDeviation="0.174325"/>
<feColorMatrix type="matrix" values="0 0 0 0 0.945098 0 0 0 0 0.368627 0 0 0 0 0.133333 0 0 0 1 0"/>
<feBlend mode="normal" in2="BackgroundImageFix" result="effect1_dropShadow_50_10383"/>
<feColorMatrix in="SourceAlpha" type="matrix" values="0 0 0 0 0 0 0 0 0 0 0 0 0 0 0 0 0 0 127 0" result="hardAlpha"/>
<feOffset/>
<feGaussianBlur stdDeviation="0.348649"/>
<feColorMatrix type="matrix" values="0 0 0 0 0.945098 0 0 0 0 0.368627 0 0 0 0 0.133333 0 0 0 1 0"/>
<feBlend mode="normal" in2="effect1_dropShadow_50_10383" result="effect2_dropShadow_50_10383"/>
<feColorMatrix in="SourceAlpha" type="matrix" values="0 0 0 0 0 0 0 0 0 0 0 0 0 0 0 0 0 0 127 0" result="hardAlpha"/>
<feOffset/>
<feGaussianBlur stdDeviation="1.22027"/>
<feColorMatrix type="matrix" values="0 0 0 0 0.945098 0 0 0 0 0.368627 0 0 0 0 0.133333 0 0 0 1 0"/>
<feBlend mode="normal" in2="effect2_dropShadow_50_10383" result="effect3_dropShadow_50_10383"/>
<feColorMatrix in="SourceAlpha" type="matrix" values="0 0 0 0 0 0 0 0 0 0 0 0 0 0 0 0 0 0 127 0" result="hardAlpha"/>
<feOffset/>
<feGaussianBlur stdDeviation="2.44055"/>
<feColorMatrix type="matrix" values="0 0 0 0 0.945098 0 0 0 0 0.368627 0 0 0 0 0.133333 0 0 0 1 0"/>
<feBlend mode="normal" in2="effect3_dropShadow_50_10383" result="effect4_dropShadow_50_10383"/>
<feColorMatrix in="SourceAlpha" type="matrix" values="0 0 0 0 0 0 0 0 0 0 0 0 0 0 0 0 0 0 127 0" result="hardAlpha"/>
<feOffset/>
<feGaussianBlur stdDeviation="4.18379"/>
<feColorMatrix type="matrix" values="0 0 0 0 0.945098 0 0 0 0 0.368627 0 0 0 0 0.133333 0 0 0 1 0"/>
<feBlend mode="normal" in2="effect4_dropShadow_50_10383" result="effect5_dropShadow_50_10383"/>
<feColorMatrix in="SourceAlpha" type="matrix" values="0 0 0 0 0 0 0 0 0 0 0 0 0 0 0 0 0 0 127 0" result="hardAlpha"/>
<feOffset/>
<feGaussianBlur stdDeviation="7.32164"/>
<feColorMatrix type="matrix" values="0 0 0 0 0.945098 0 0 0 0 0.368627 0 0 0 0 0.133333 0 0 0 1 0"/>
<feBlend mode="normal" in2="effect5_dropShadow_50_10383" result="effect6_dropShadow_50_10383"/>
<feBlend mode="normal" in="SourceGraphic" in2="effect6_dropShadow_50_10383" result="shape"/>
</filter>
<filter id="filter8_dddddd_50_10383" x="612.842" y="437.084" width="33.1687" height="33.115" filterUnits="userSpaceOnUse" color-interpolation-filters="sRGB">
<feFlood flood-opacity="0" result="BackgroundImageFix"/>
<feColorMatrix in="SourceAlpha" type="matrix" values="0 0 0 0 0 0 0 0 0 0 0 0 0 0 0 0 0 0 127 0" result="hardAlpha"/>
<feOffset/>
<feGaussianBlur stdDeviation="0.174369"/>
<feColorMatrix type="matrix" values="0 0 0 0 0.945098 0 0 0 0 0.368627 0 0 0 0 0.133333 0 0 0 1 0"/>
<feBlend mode="normal" in2="BackgroundImageFix" result="effect1_dropShadow_50_10383"/>
<feColorMatrix in="SourceAlpha" type="matrix" values="0 0 0 0 0 0 0 0 0 0 0 0 0 0 0 0 0 0 127 0" result="hardAlpha"/>
<feOffset/>
<feGaussianBlur stdDeviation="0.348737"/>
<feColorMatrix type="matrix" values="0 0 0 0 0.945098 0 0 0 0 0.368627 0 0 0 0 0.133333 0 0 0 1 0"/>
<feBlend mode="normal" in2="effect1_dropShadow_50_10383" result="effect2_dropShadow_50_10383"/>
<feColorMatrix in="SourceAlpha" type="matrix" values="0 0 0 0 0 0 0 0 0 0 0 0 0 0 0 0 0 0 127 0" result="hardAlpha"/>
<feOffset/>
<feGaussianBlur stdDeviation="1.22058"/>
<feColorMatrix type="matrix" values="0 0 0 0 0.945098 0 0 0 0 0.368627 0 0 0 0 0.133333 0 0 0 1 0"/>
<feBlend mode="normal" in2="effect2_dropShadow_50_10383" result="effect3_dropShadow_50_10383"/>
<feColorMatrix in="SourceAlpha" type="matrix" values="0 0 0 0 0 0 0 0 0 0 0 0 0 0 0 0 0 0 127 0" result="hardAlpha"/>
<feOffset/>
<feGaussianBlur stdDeviation="2.44116"/>
<feColorMatrix type="matrix" values="0 0 0 0 0.945098 0 0 0 0 0.368627 0 0 0 0 0.133333 0 0 0 1 0"/>
<feBlend mode="normal" in2="effect3_dropShadow_50_10383" result="effect4_dropShadow_50_10383"/>
<feColorMatrix in="SourceAlpha" type="matrix" values="0 0 0 0 0 0 0 0 0 0 0 0 0 0 0 0 0 0 127 0" result="hardAlpha"/>
<feOffset/>
<feGaussianBlur stdDeviation="4.18485"/>
<feColorMatrix type="matrix" values="0 0 0 0 0.945098 0 0 0 0 0.368627 0 0 0 0 0.133333 0 0 0 1 0"/>
<feBlend mode="normal" in2="effect4_dropShadow_50_10383" result="effect5_dropShadow_50_10383"/>
<feColorMatrix in="SourceAlpha" type="matrix" values="0 0 0 0 0 0 0 0 0 0 0 0 0 0 0 0 0 0 127 0" result="hardAlpha"/>
<feOffset/>
<feGaussianBlur stdDeviation="7.32348"/>
<feColorMatrix type="matrix" values="0 0 0 0 0.945098 0 0 0 0 0.368627 0 0 0 0 0.133333 0 0 0 1 0"/>
<feBlend mode="normal" in2="effect5_dropShadow_50_10383" result="effect6_dropShadow_50_10383"/>
<feBlend mode="normal" in="SourceGraphic" in2="effect6_dropShadow_50_10383" result="shape"/>
</filter>
<filter id="filter9_dddddd_50_10383" x="528.9" y="346.114" width="33.3532" height="33.2854" filterUnits="userSpaceOnUse" color-interpolation-filters="sRGB">
<feFlood flood-opacity="0" result="BackgroundImageFix"/>
<feColorMatrix in="SourceAlpha" type="matrix" values="0 0 0 0 0 0 0 0 0 0 0 0 0 0 0 0 0 0 127 0" result="hardAlpha"/>
<feOffset/>
<feGaussianBlur stdDeviation="0.175337"/>
<feColorMatrix type="matrix" values="0 0 0 0 0.945098 0 0 0 0 0.368627 0 0 0 0 0.133333 0 0 0 1 0"/>
<feBlend mode="normal" in2="BackgroundImageFix" result="effect1_dropShadow_50_10383"/>
<feColorMatrix in="SourceAlpha" type="matrix" values="0 0 0 0 0 0 0 0 0 0 0 0 0 0 0 0 0 0 127 0" result="hardAlpha"/>
<feOffset/>
<feGaussianBlur stdDeviation="0.350675"/>
<feColorMatrix type="matrix" values="0 0 0 0 0.945098 0 0 0 0 0.368627 0 0 0 0 0.133333 0 0 0 1 0"/>
<feBlend mode="normal" in2="effect1_dropShadow_50_10383" result="effect2_dropShadow_50_10383"/>
<feColorMatrix in="SourceAlpha" type="matrix" values="0 0 0 0 0 0 0 0 0 0 0 0 0 0 0 0 0 0 127 0" result="hardAlpha"/>
<feOffset/>
<feGaussianBlur stdDeviation="1.22736"/>
<feColorMatrix type="matrix" values="0 0 0 0 0.945098 0 0 0 0 0.368627 0 0 0 0 0.133333 0 0 0 1 0"/>
<feBlend mode="normal" in2="effect2_dropShadow_50_10383" result="effect3_dropShadow_50_10383"/>
<feColorMatrix in="SourceAlpha" type="matrix" values="0 0 0 0 0 0 0 0 0 0 0 0 0 0 0 0 0 0 127 0" result="hardAlpha"/>
<feOffset/>
<feGaussianBlur stdDeviation="2.45472"/>
<feColorMatrix type="matrix" values="0 0 0 0 0.945098 0 0 0 0 0.368627 0 0 0 0 0.133333 0 0 0 1 0"/>
<feBlend mode="normal" in2="effect3_dropShadow_50_10383" result="effect4_dropShadow_50_10383"/>
<feColorMatrix in="SourceAlpha" type="matrix" values="0 0 0 0 0 0 0 0 0 0 0 0 0 0 0 0 0 0 127 0" result="hardAlpha"/>
<feOffset/>
<feGaussianBlur stdDeviation="4.2081"/>
<feColorMatrix type="matrix" values="0 0 0 0 0.945098 0 0 0 0 0.368627 0 0 0 0 0.133333 0 0 0 1 0"/>
<feBlend mode="normal" in2="effect4_dropShadow_50_10383" result="effect5_dropShadow_50_10383"/>
<feColorMatrix in="SourceAlpha" type="matrix" values="0 0 0 0 0 0 0 0 0 0 0 0 0 0 0 0 0 0 127 0" result="hardAlpha"/>
<feOffset/>
<feGaussianBlur stdDeviation="7.36417"/>
<feColorMatrix type="matrix" values="0 0 0 0 0.945098 0 0 0 0 0.368627 0 0 0 0 0.133333 0 0 0 1 0"/>
<feBlend mode="normal" in2="effect5_dropShadow_50_10383" result="effect6_dropShadow_50_10383"/>
<feBlend mode="normal" in="SourceGraphic" in2="effect6_dropShadow_50_10383" result="shape"/>
</filter>
<filter id="filter10_dddddd_50_10383" x="596.161" y="378.832" width="33.9434" height="33.9181" filterUnits="userSpaceOnUse" color-interpolation-filters="sRGB">
<feFlood flood-opacity="0" result="BackgroundImageFix"/>
<feColorMatrix in="SourceAlpha" type="matrix" values="0 0 0 0 0 0 0 0 0 0 0 0 0 0 0 0 0 0 127 0" result="hardAlpha"/>
<feOffset/>
<feGaussianBlur stdDeviation="0.178441"/>
<feColorMatrix type="matrix" values="0 0 0 0 0.945098 0 0 0 0 0.368627 0 0 0 0 0.133333 0 0 0 1 0"/>
<feBlend mode="normal" in2="BackgroundImageFix" result="effect1_dropShadow_50_10383"/>
<feColorMatrix in="SourceAlpha" type="matrix" values="0 0 0 0 0 0 0 0 0 0 0 0 0 0 0 0 0 0 127 0" result="hardAlpha"/>
<feOffset/>
<feGaussianBlur stdDeviation="0.356882"/>
<feColorMatrix type="matrix" values="0 0 0 0 0.945098 0 0 0 0 0.368627 0 0 0 0 0.133333 0 0 0 1 0"/>
<feBlend mode="normal" in2="effect1_dropShadow_50_10383" result="effect2_dropShadow_50_10383"/>
<feColorMatrix in="SourceAlpha" type="matrix" values="0 0 0 0 0 0 0 0 0 0 0 0 0 0 0 0 0 0 127 0" result="hardAlpha"/>
<feOffset/>
<feGaussianBlur stdDeviation="1.24909"/>
<feColorMatrix type="matrix" values="0 0 0 0 0.945098 0 0 0 0 0.368627 0 0 0 0 0.133333 0 0 0 1 0"/>
<feBlend mode="normal" in2="effect2_dropShadow_50_10383" result="effect3_dropShadow_50_10383"/>
<feColorMatrix in="SourceAlpha" type="matrix" values="0 0 0 0 0 0 0 0 0 0 0 0 0 0 0 0 0 0 127 0" result="hardAlpha"/>
<feOffset/>
<feGaussianBlur stdDeviation="2.49818"/>
<feColorMatrix type="matrix" values="0 0 0 0 0.945098 0 0 0 0 0.368627 0 0 0 0 0.133333 0 0 0 1 0"/>
<feBlend mode="normal" in2="effect3_dropShadow_50_10383" result="effect4_dropShadow_50_10383"/>
<feColorMatrix in="SourceAlpha" type="matrix" values="0 0 0 0 0 0 0 0 0 0 0 0 0 0 0 0 0 0 127 0" result="hardAlpha"/>
<feOffset/>
<feGaussianBlur stdDeviation="4.28259"/>
<feColorMatrix type="matrix" values="0 0 0 0 0.945098 0 0 0 0 0.368627 0 0 0 0 0.133333 0 0 0 1 0"/>
<feBlend mode="normal" in2="effect4_dropShadow_50_10383" result="effect5_dropShadow_50_10383"/>
<feColorMatrix in="SourceAlpha" type="matrix" values="0 0 0 0 0 0 0 0 0 0 0 0 0 0 0 0 0 0 127 0" result="hardAlpha"/>
<feOffset/>
<feGaussianBlur stdDeviation="7.49453"/>
<feColorMatrix type="matrix" values="0 0 0 0 0.945098 0 0 0 0 0.368627 0 0 0 0 0.133333 0 0 0 1 0"/>
<feBlend mode="normal" in2="effect5_dropShadow_50_10383" result="effect6_dropShadow_50_10383"/>
<feBlend mode="normal" in="SourceGraphic" in2="effect6_dropShadow_50_10383" result="shape"/>
</filter>
<filter id="filter11_dddddd_50_10383" x="596.439" y="532.908" width="119.246" height="116.086" filterUnits="userSpaceOnUse" color-interpolation-filters="sRGB">
<feFlood flood-opacity="0" result="BackgroundImageFix"/>
<feColorMatrix in="SourceAlpha" type="matrix" values="0 0 0 0 0 0 0 0 0 0 0 0 0 0 0 0 0 0 127 0" result="hardAlpha"/>
<feOffset/>
<feGaussianBlur stdDeviation="0.626879"/>
<feColorMatrix type="matrix" values="0 0 0 0 0.945098 0 0 0 0 0.368627 0 0 0 0 0.133333 0 0 0 1 0"/>
<feBlend mode="normal" in2="BackgroundImageFix" result="effect1_dropShadow_50_10383"/>
<feColorMatrix in="SourceAlpha" type="matrix" values="0 0 0 0 0 0 0 0 0 0 0 0 0 0 0 0 0 0 127 0" result="hardAlpha"/>
<feOffset/>
<feGaussianBlur stdDeviation="1.25376"/>
<feColorMatrix type="matrix" values="0 0 0 0 0.945098 0 0 0 0 0.368627 0 0 0 0 0.133333 0 0 0 1 0"/>
<feBlend mode="normal" in2="effect1_dropShadow_50_10383" result="effect2_dropShadow_50_10383"/>
<feColorMatrix in="SourceAlpha" type="matrix" values="0 0 0 0 0 0 0 0 0 0 0 0 0 0 0 0 0 0 127 0" result="hardAlpha"/>
<feOffset/>
<feGaussianBlur stdDeviation="4.38815"/>
<feColorMatrix type="matrix" values="0 0 0 0 0.945098 0 0 0 0 0.368627 0 0 0 0 0.133333 0 0 0 1 0"/>
<feBlend mode="normal" in2="effect2_dropShadow_50_10383" result="effect3_dropShadow_50_10383"/>
<feColorMatrix in="SourceAlpha" type="matrix" values="0 0 0 0 0 0 0 0 0 0 0 0 0 0 0 0 0 0 127 0" result="hardAlpha"/>
<feOffset/>
<feGaussianBlur stdDeviation="8.77631"/>
<feColorMatrix type="matrix" values="0 0 0 0 0.945098 0 0 0 0 0.368627 0 0 0 0 0.133333 0 0 0 1 0"/>
<feBlend mode="normal" in2="effect3_dropShadow_50_10383" result="effect4_dropShadow_50_10383"/>
<feColorMatrix in="SourceAlpha" type="matrix" values="0 0 0 0 0 0 0 0 0 0 0 0 0 0 0 0 0 0 127 0" result="hardAlpha"/>
<feOffset/>
<feGaussianBlur stdDeviation="15.0451"/>
<feColorMatrix type="matrix" values="0 0 0 0 0.945098 0 0 0 0 0.368627 0 0 0 0 0.133333 0 0 0 1 0"/>
<feBlend mode="normal" in2="effect4_dropShadow_50_10383" result="effect5_dropShadow_50_10383"/>
<feColorMatrix in="SourceAlpha" type="matrix" values="0 0 0 0 0 0 0 0 0 0 0 0 0 0 0 0 0 0 127 0" result="hardAlpha"/>
<feOffset/>
<feGaussianBlur stdDeviation="26.3289"/>
<feColorMatrix type="matrix" values="0 0 0 0 0.945098 0 0 0 0 0.368627 0 0 0 0 0.133333 0 0 0 1 0"/>
<feBlend mode="normal" in2="effect5_dropShadow_50_10383" result="effect6_dropShadow_50_10383"/>
<feBlend mode="normal" in="SourceGraphic" in2="effect6_dropShadow_50_10383" result="shape"/>
</filter>
<filter id="filter12_dddddd_50_10383" x="0.742645" y="224.06" width="1075.81" height="789.921" filterUnits="userSpaceOnUse" color-interpolation-filters="sRGB">
<feFlood flood-opacity="0" result="BackgroundImageFix"/>
<feColorMatrix in="SourceAlpha" type="matrix" values="0 0 0 0 0 0 0 0 0 0 0 0 0 0 0 0 0 0 127 0" result="hardAlpha"/>
<feOffset/>
<feGaussianBlur stdDeviation="4.28042"/>
<feColorMatrix type="matrix" values="0 0 0 0 0.588048 0 0 0 0 0.720547 0 0 0 0 0.83068 0 0 0 1 0"/>
<feBlend mode="normal" in2="BackgroundImageFix" result="effect1_dropShadow_50_10383"/>
<feColorMatrix in="SourceAlpha" type="matrix" values="0 0 0 0 0 0 0 0 0 0 0 0 0 0 0 0 0 0 127 0" result="hardAlpha"/>
<feOffset/>
<feGaussianBlur stdDeviation="8.56084"/>
<feColorMatrix type="matrix" values="0 0 0 0 0.588048 0 0 0 0 0.720547 0 0 0 0 0.83068 0 0 0 1 0"/>
<feBlend mode="normal" in2="effect1_dropShadow_50_10383" result="effect2_dropShadow_50_10383"/>
<feColorMatrix in="SourceAlpha" type="matrix" values="0 0 0 0 0 0 0 0 0 0 0 0 0 0 0 0 0 0 127 0" result="hardAlpha"/>
<feOffset/>
<feGaussianBlur stdDeviation="29.963"/>
<feColorMatrix type="matrix" values="0 0 0 0 0.588048 0 0 0 0 0.720547 0 0 0 0 0.83068 0 0 0 1 0"/>
<feBlend mode="normal" in2="effect2_dropShadow_50_10383" result="effect3_dropShadow_50_10383"/>
<feColorMatrix in="SourceAlpha" type="matrix" values="0 0 0 0 0 0 0 0 0 0 0 0 0 0 0 0 0 0 127 0" result="hardAlpha"/>
<feOffset/>
<feGaussianBlur stdDeviation="59.9259"/>
<feColorMatrix type="matrix" values="0 0 0 0 0 0 0 0 0 0.176471 0 0 0 0 0.262745 0 0 0 1 0"/>
<feBlend mode="normal" in2="effect3_dropShadow_50_10383" result="effect4_dropShadow_50_10383"/>
<feColorMatrix in="SourceAlpha" type="matrix" values="0 0 0 0 0 0 0 0 0 0 0 0 0 0 0 0 0 0 127 0" result="hardAlpha"/>
<feOffset/>
<feGaussianBlur stdDeviation="102.73"/>
<feColorMatrix type="matrix" values="0 0 0 0 0 0 0 0 0 0.176471 0 0 0 0 0.262745 0 0 0 1 0"/>
<feBlend mode="normal" in2="effect4_dropShadow_50_10383" result="effect5_dropShadow_50_10383"/>
<feColorMatrix in="SourceAlpha" type="matrix" values="0 0 0 0 0 0 0 0 0 0 0 0 0 0 0 0 0 0 127 0" result="hardAlpha"/>
<feOffset/>
<feGaussianBlur stdDeviation="179.778"/>
<feColorMatrix type="matrix" values="0 0 0 0 0 0 0 0 0 0.176471 0 0 0 0 0.262745 0 0 0 1 0"/>
<feBlend mode="normal" in2="effect5_dropShadow_50_10383" result="effect6_dropShadow_50_10383"/>
<feBlend mode="normal" in="SourceGraphic" in2="effect6_dropShadow_50_10383" result="shape"/>
</filter>
</defs>
</svg>
