<svg width="417" height="357" viewBox="0 0 417 357" fill="none" xmlns="http://www.w3.org/2000/svg">
<g filter="url(#filter0_ddd_50_10481)">
<path d="M295.796 97.8109C295.399 98.3509 295.003 98.8809 294.616 99.4109C295.633 99.9809 296.631 100.471 297.557 101.061C298.941 101.931 300.07 103.091 300.721 104.581C301.434 106.241 301.464 107.941 300.66 109.611C300.253 109.411 299.846 109.221 299.439 109.021C300.335 106.881 299.805 105.011 298.269 103.361C297.15 102.161 295.715 101.441 294.219 100.801C293.629 100.551 293.222 100.641 292.774 101.041C291.207 102.411 289.416 103.461 287.523 104.331C286.913 104.611 286.292 104.891 285.631 105.191C285.854 107.211 286.068 109.181 286.292 111.191C286.719 111.221 287.045 111.241 287.36 111.261C289.558 111.421 291.767 111.661 293.761 112.581C295.237 113.261 296.325 113.121 297.333 111.941C297.658 112.221 297.994 112.511 298.32 112.791C297.923 113.151 297.526 113.501 297.027 113.951C297.292 114.151 297.516 114.351 297.76 114.521C298.981 115.361 300.07 116.331 300.843 117.591C302.248 119.901 302.278 122.201 300.803 124.491C300.436 124.241 300.07 123.991 299.704 123.741C301.006 121.591 300.721 119.561 299.236 117.621C298.462 116.621 297.465 115.881 296.386 115.211C295.908 114.921 295.532 114.861 295.013 115.161C293.191 116.191 291.227 116.881 289.182 117.331C288.348 117.511 287.503 117.661 286.648 117.821V129.401C289.63 129.561 294.392 128.341 297.19 126.321C297.465 126.661 297.73 127.001 298.004 127.341C295.511 129.151 292.662 130.081 289.63 130.541C288.419 130.721 287.198 130.811 285.977 130.841C285.163 130.861 284.338 130.641 283.524 130.641C244.337 130.641 205.15 130.641 165.963 130.641C165.546 130.641 165.129 130.641 164.651 130.641C164.651 131.211 164.62 131.631 164.651 132.041C165.811 143.921 171.163 153.681 180.179 161.571C185.654 166.361 191.901 169.771 199.055 171.451C207.908 173.521 216.71 173.261 225.37 170.481C231.495 168.521 236.828 165.231 241.559 160.971C243.605 159.121 245.457 157.091 247.187 154.961C247.777 154.241 247.94 154.191 248.845 154.511C253.689 156.221 258.522 157.941 263.366 159.651C263.692 159.771 264.007 159.921 264.404 160.101C264.18 160.461 264.038 160.741 263.844 160.981C261.504 163.851 259.316 166.861 256.782 169.561C249.089 177.761 239.901 183.741 228.952 186.931C224.83 188.131 220.628 188.881 216.334 189.201C212.019 189.531 207.694 189.591 203.39 189.151C193.998 188.201 185.257 185.361 177.269 180.361C168.711 175.011 161.761 168.081 156.388 159.641C152.796 154.011 150.323 147.921 148.888 141.431C148.186 138.241 147.728 135.021 147.535 131.761C147.464 130.641 147.464 130.631 146.355 130.631C142.071 130.631 137.787 130.631 133.493 130.631C133.177 130.631 132.862 130.681 132.424 130.711C132.505 131.941 132.536 133.091 132.648 134.241C133.096 138.971 133.879 143.651 135.243 148.211C135.945 150.581 136.759 152.941 137.675 155.241C141.826 165.651 148.278 174.511 156.429 182.251C160.753 186.351 165.414 189.991 170.532 193.081C173.27 194.731 176.109 196.191 179.029 197.481C186.234 200.671 193.794 202.561 201.63 203.421C206.941 204.001 212.263 204.091 217.595 203.691C218.338 203.631 219.091 203.491 219.834 203.821C220.038 203.911 220.333 203.841 220.577 203.811C227.1 202.991 233.48 201.581 239.636 199.281C249.985 195.421 258.99 189.561 266.744 181.811C270.672 177.881 274.163 173.621 277.276 169.051C278.284 167.561 278.131 167.791 279.576 168.391C284.053 170.231 288.521 172.101 292.988 173.971C293.212 174.061 293.405 174.221 293.69 174.391C293.527 174.711 293.395 174.991 293.232 175.251C287.808 183.901 281.265 191.631 273.501 198.331C266.999 203.951 259.825 208.571 251.949 212.141C244.693 215.431 237.133 217.761 229.277 219.171C222.846 220.321 216.374 221.021 209.841 221.021C201.009 221.021 192.329 219.841 183.842 217.371C172.842 214.171 162.85 209.021 153.681 202.281C148.013 198.111 142.793 193.461 138.092 188.241C132.159 181.651 127.306 174.361 123.591 166.351C119.603 157.751 117.109 148.741 115.807 139.391C115.105 134.371 114.728 129.321 114.81 124.251C114.973 114.261 116.662 104.541 120.122 95.1308C124.08 84.3508 130.002 74.7108 137.431 65.9208C142.722 59.6508 148.675 54.0708 155.411 49.3208C160.906 45.4508 166.767 42.2208 173.005 39.6608C179.172 37.1408 185.521 35.2708 192.085 34.0408C197.183 33.0908 202.332 32.5308 207.521 32.2908C208.02 32.2708 208.529 32.2408 209.027 32.1408C210.849 31.8008 212.538 32.0608 214.085 33.0908C213.82 33.4508 213.566 33.8108 213.301 34.1708C212.019 33.4408 210.686 33.0708 209.221 33.5608V48.1208C210.696 48.1808 212.121 48.2408 213.606 48.2908C213.708 47.7908 213.79 47.3508 213.881 46.9008C214.309 44.7008 215.001 42.5908 216.018 40.5808C216.354 39.9208 216.975 39.2608 216.954 38.6208C216.944 37.9608 216.303 37.3208 215.947 36.6708C216.303 36.4108 216.649 36.1508 217.005 35.8808C217.321 36.3508 217.636 36.8108 218.013 37.3908C218.389 37.0008 218.704 36.6808 219.02 36.3608C220.048 35.3008 221.208 34.4208 222.602 33.8708C224.932 32.9408 227.1 33.2108 229.114 34.7008C228.84 35.0608 228.575 35.4208 228.3 35.7708C226.377 34.3608 224.383 34.3908 222.327 35.4608C221.065 36.1208 220.099 37.1108 219.183 38.1608C218.776 38.6308 218.766 39.0408 218.979 39.6108C219.346 40.6008 219.661 41.6208 219.905 42.6508C220.384 44.7008 220.556 46.8008 220.465 48.9108C222.531 49.2508 224.545 49.5908 226.499 49.9108C226.611 49.7708 226.672 49.7308 226.692 49.6708C227.761 46.6808 229.196 43.8908 231.353 41.5008C231.607 41.2208 231.628 40.9508 231.485 40.6308C231.17 39.8808 230.865 39.1308 230.549 38.3708C230.946 38.1908 231.333 38.0008 231.729 37.8208C232.065 38.5208 232.401 39.2108 232.778 39.9808C233.195 39.6808 233.541 39.3808 233.938 39.1608C234.925 38.6008 235.891 37.9508 236.95 37.5508C239.616 36.5208 242.557 37.0208 244.602 39.5208C244.266 39.8508 243.94 40.1808 243.605 40.5208C242.333 38.8208 240.623 38.1608 238.517 38.5008C236.675 38.8008 235.199 39.7908 233.816 40.9508C233.358 41.3408 233.236 41.7308 233.327 42.3308C233.541 43.6208 233.754 44.9208 233.765 46.2208C233.765 48.0108 233.581 49.8008 233.47 51.6708C235.393 52.3108 237.428 52.9808 239.412 53.6308C239.717 53.1008 239.972 52.6008 240.277 52.1308C241.6 50.1008 243.147 48.2408 245.07 46.7108C245.569 46.3208 245.711 45.9208 245.558 45.3408C245.385 44.6608 245.253 43.9608 245.1 43.2708C245.548 43.2208 245.996 43.1808 246.444 43.1308C246.617 43.7808 246.779 44.4208 246.983 45.1908C247.309 45.0408 247.583 44.9208 247.848 44.7808C249.344 43.9808 250.901 43.3708 252.61 43.2008C255.093 42.9608 257.128 43.7608 258.706 45.6708C258.36 45.9908 258.024 46.3108 257.678 46.6308C256.202 44.6308 254.147 44.2308 251.827 44.6608C250.433 44.9208 249.191 45.5608 247.97 46.2508C247.349 46.6008 247.064 47.0108 247.095 47.7608C247.176 49.7108 246.881 51.6409 246.383 53.5208C246.149 54.4008 245.894 55.2808 245.64 56.1908C247.594 57.1808 249.486 58.1508 251.328 59.0908C251.46 59.0208 251.501 59.0208 251.521 58.9908C253.577 56.5608 255.826 54.3408 258.655 52.7608C258.868 52.6408 259.051 52.2508 259.051 51.9808C259.051 51.1408 258.95 50.2908 258.889 49.4508C259.336 49.4508 259.774 49.4508 260.222 49.4408C260.323 50.2008 260.415 50.9608 260.527 51.8008C261.188 51.6008 261.768 51.4208 262.348 51.2608C263.712 50.8808 265.086 50.7108 266.51 50.9108C268.922 51.2508 270.621 52.4808 271.619 54.6608C271.68 54.7908 271.741 54.9208 271.802 55.0408C271.374 55.2008 270.947 55.3508 270.509 55.5108C269.563 53.1908 267.762 52.1708 265.279 52.1508C263.804 52.1408 262.45 52.5608 261.097 53.0808C260.568 53.2808 260.323 53.5808 260.252 54.1608C259.906 56.7808 259.001 59.2308 257.759 61.5708C257.566 61.9408 257.383 62.3108 257.179 62.7208C259.062 64.1308 260.873 65.5008 262.684 66.8608C262.837 66.7808 262.939 66.7509 263.02 66.6908C265.167 64.8808 267.477 63.3408 270.102 62.2908C270.367 62.1808 270.621 61.8008 270.682 61.5008C270.866 60.6408 270.947 59.7508 271.069 58.8808C271.507 58.9108 271.954 58.9408 272.392 58.9708C272.321 59.8008 272.249 60.6308 272.168 61.5608C272.88 61.4408 273.501 61.3408 274.132 61.2508C275.414 61.0608 276.706 61.0608 277.978 61.3208C280.583 61.8508 282.354 63.3208 283.168 65.8408C282.71 65.9308 282.242 66.0108 281.784 66.1008C281.143 64.1108 279.688 63.0508 277.683 62.6108C275.831 62.2108 274.04 62.5208 272.26 62.9908C271.883 63.0908 271.639 63.2808 271.496 63.6508C271.262 64.2708 270.937 64.8609 270.713 65.4809C270.082 67.2709 269.014 68.8108 267.925 70.3408C267.742 70.5908 267.579 70.8609 267.396 71.1208C268.78 72.6008 270.113 74.0209 271.486 75.4809C271.914 75.2509 272.29 75.0608 272.656 74.8508C274.743 73.7108 276.93 72.8408 279.271 72.3408C279.993 72.1908 280.919 72.1809 281.357 71.7309C281.815 71.2709 281.805 70.3609 281.998 69.6409C282.435 69.6809 282.873 69.7208 283.311 69.7508C283.188 70.4008 283.076 71.0608 282.934 71.8408C283.351 71.8808 283.728 71.9208 284.094 71.9408C285.692 72.0408 287.218 72.3808 288.622 73.1608C290.729 74.3408 291.838 76.1108 291.929 78.4908C291.929 78.6308 291.95 78.7708 291.96 78.9108C291.512 78.9608 291.054 79.0108 290.607 79.0508C290.678 76.2309 288.989 74.3508 286.343 73.6508C285.346 73.3808 284.287 73.3608 283.26 73.2208C282.578 73.1308 282.232 73.4408 281.957 74.0408C280.95 76.2208 279.546 78.1409 277.846 79.8508C277.276 80.4309 276.706 81.0108 276.137 81.5908C277.144 83.2508 278.121 84.8508 279.067 86.4108C279.23 86.4108 279.311 86.4308 279.373 86.4108C282.059 85.5508 284.806 85.0008 287.645 85.0908C288.134 85.1108 288.378 84.8408 288.582 84.5008C289.029 83.7308 289.447 82.9508 289.874 82.1708C290.261 82.3808 290.647 82.5808 291.044 82.7908C290.657 83.5708 290.271 84.3609 289.843 85.2309C290.342 85.3409 290.749 85.4309 291.156 85.5308C292.632 85.8909 294.026 86.4408 295.226 87.3808C297.262 88.9708 298.076 91.0308 297.669 93.5508C297.638 93.7608 297.597 93.9708 297.557 94.1708C297.109 94.0908 296.661 94.0108 296.213 93.9308C296.793 91.6308 296.163 89.7408 294.239 88.3008C292.794 87.2208 291.095 86.7908 289.335 86.5408C288.867 86.4708 288.612 86.7108 288.348 87.0308C286.77 88.9008 284.888 90.4108 282.822 91.7208C282.527 91.9108 282.242 92.1208 281.947 92.3209C282.649 94.3109 283.341 96.2309 284.013 98.1208C284.135 98.1609 284.196 98.2009 284.267 98.2009C287.076 98.0609 289.874 98.1008 292.611 98.8308C292.845 98.8908 293.242 98.7208 293.435 98.5209C293.914 98.0508 294.321 97.5008 294.748 96.9809C295.094 97.2409 295.44 97.5108 295.796 97.7709V97.8109ZM166.187 115.171C168.039 115.381 284.023 115.251 284.806 115.021C284.644 114.041 285.203 113.031 284.674 112.031C284.603 111.891 284.664 111.531 284.776 111.451C285.295 111.111 285.112 110.651 285.091 110.201C284.837 106.081 284.013 102.071 282.832 98.1208C281.886 94.9509 280.624 91.9108 279.179 88.9308C278.904 88.3608 278.335 88.2108 278.009 87.7908C277.643 87.3208 278.039 86.6908 277.693 86.1008C274.895 81.2309 271.517 76.8008 267.589 72.7708C263.732 68.8208 259.428 65.4109 254.788 62.4108C247.848 57.9108 240.308 54.6908 232.34 52.4208C225.878 50.5808 219.274 49.5608 212.558 49.2508C208.559 49.0708 204.56 49.0408 200.581 49.4608C193.642 50.2008 186.936 51.9708 180.505 54.5908C175.915 56.4608 171.56 58.8308 167.459 61.6108C159.878 66.7608 153.295 72.9508 147.708 80.1708C139.822 90.3608 134.999 101.801 133.157 114.471C133.126 114.701 133.157 114.931 133.157 115.191H148.502C148.644 114.601 148.777 114.061 148.899 113.511C150.364 106.911 152.918 100.751 156.581 95.0408C160.977 88.2008 166.523 82.4008 173.056 77.5108C178.877 73.1609 185.287 69.9208 192.319 67.9408C201.579 65.3308 211.001 64.8409 220.526 66.1409C226.56 66.9608 232.31 68.7108 237.794 71.2908C243.879 74.1608 249.273 78.0208 254.147 82.5908C257.668 85.8908 260.68 89.6408 263.61 93.4508C263.905 93.8408 264.18 94.2408 264.567 94.7708C258.919 96.8008 253.394 98.7908 247.797 100.801C241.549 92.7908 233.846 86.8308 223.925 84.0608C214.125 81.3208 204.316 81.3808 194.659 84.7708C179.538 90.0908 168.518 104.181 166.187 115.171ZM275.343 80.4308C277.602 78.3908 279.444 76.2408 280.777 73.4108C277.632 73.9508 274.946 75.0009 272.412 76.5709C273.42 77.9009 274.335 79.1108 275.343 80.4208V80.4308ZM228.015 50.2608C229.399 50.6008 230.702 50.9208 232.065 51.2508C232.513 48.4408 232.676 45.7308 232.106 42.9608C230.753 44.0308 228.84 47.4608 228.015 50.2708V50.2608ZM217.789 40.2108C216.272 42.8808 215.448 45.5008 215.041 48.3608C216.486 48.5008 217.819 48.6208 219.173 48.7508C219.152 45.8308 218.888 43.1008 217.789 40.2108ZM255.999 61.9308C257.413 59.5108 258.451 57.1008 258.878 54.1908C256.324 55.8109 254.35 57.6308 252.661 59.8708C253.801 60.5808 254.839 61.2108 255.999 61.9308ZM244.307 55.6008C245.273 53.1508 245.731 50.6808 245.67 48.0908C243.564 49.7408 242.027 51.7908 240.654 54.0908C241.895 54.6008 243.045 55.0808 244.307 55.6008ZM286.638 116.401C289.284 116.051 291.706 115.381 294.138 114.101C291.512 113.061 288.999 112.591 286.384 112.571C286.15 113.481 286.628 114.391 285.773 115.141C286.618 115.221 286.577 115.771 286.638 116.401ZM285.356 103.781C287.717 102.871 289.813 101.751 291.817 100.081C289.253 99.4608 286.892 99.3909 284.399 99.6309C284.725 101.051 285.03 102.371 285.356 103.791V103.781ZM286.842 86.5408C284.41 86.5208 282.079 86.8808 279.759 87.7908C280.319 88.9208 280.817 89.9509 281.367 91.0508C283.494 89.8108 285.336 88.4008 286.842 86.5408ZM266.297 70.0608C267.792 68.6208 269.787 65.0608 269.777 63.8908C267.579 64.8608 265.645 66.1808 263.804 67.8308C264.669 68.6108 265.462 69.3209 266.297 70.0709V70.0608Z" fill="white"/>
</g>
<g filter="url(#filter1_ddd_50_10481)">
<path d="M228.321 35.7708C228.595 35.4108 228.86 35.0508 229.135 34.7008C229.338 34.6408 229.542 34.5608 229.755 34.5308C230.58 34.4108 231.353 34.5108 231.862 35.2508C232.35 35.9508 232.34 36.7008 231.953 37.4508C231.892 37.5808 231.821 37.7008 231.75 37.8208C231.353 38.0008 230.966 38.1908 230.569 38.3708C230.396 38.3508 230.213 38.3208 230.04 38.3008C228.962 38.1608 228.392 37.5608 228.321 36.5108C228.31 36.2708 228.31 36.0208 228.3 35.7808L228.321 35.7708Z" fill="#F15E22"/>
</g>
<g filter="url(#filter2_ddd_50_10481)">
<path d="M272.412 58.9408C271.975 58.9108 271.527 58.8808 271.09 58.8508C269.645 57.6108 269.533 56.9008 270.53 55.4808C270.957 55.3208 271.385 55.1708 271.822 55.0108C272.769 55.1308 273.552 55.4808 273.776 56.4908C274.01 57.5508 273.542 58.3108 272.585 58.8108C272.524 58.8408 272.473 58.8908 272.412 58.9308V58.9408Z" fill="#F15E22"/>
</g>
<g filter="url(#filter3_ddd_50_10481)">
<path d="M295.796 97.8108C295.45 97.5508 295.104 97.2808 294.748 97.0208C294.3 95.2108 294.606 94.5708 296.214 93.9608C296.661 94.0408 297.109 94.1208 297.557 94.2008C297.984 94.6308 298.422 95.0308 298.442 95.7108C298.483 96.9308 297.781 97.7308 296.539 97.7908C296.285 97.8008 296.041 97.7908 295.786 97.8008L295.796 97.8108Z" fill="#F15E22"/>
</g>
<g filter="url(#filter4_ddd_50_10481)">
<path d="M246.454 43.1108C246.006 43.1608 245.558 43.2008 245.111 43.2508C244.012 42.7408 243.442 41.9508 243.645 40.7108C243.655 40.6408 243.625 40.5708 243.615 40.5008C243.951 40.1708 244.276 39.8408 244.612 39.5008C244.856 39.4708 245.1 39.4208 245.355 39.4108C246.352 39.3708 247.044 39.7308 247.38 40.4608C247.726 41.2208 247.512 42.0908 246.83 42.7408C246.708 42.8608 246.576 42.9808 246.454 43.1108Z" fill="#F15E22"/>
</g>
<g filter="url(#filter5_ddd_50_10481)">
<path d="M260.242 49.4208C259.794 49.4208 259.357 49.4208 258.909 49.4308C257.779 48.7908 257.372 47.8508 257.698 46.6108C258.044 46.2908 258.38 45.9708 258.726 45.6508C259.011 45.6308 259.296 45.6008 259.57 45.6008C260.425 45.6008 261.158 46.0808 261.402 46.7708C261.677 47.5508 261.453 48.3908 260.812 48.9508C260.629 49.1108 260.435 49.2608 260.242 49.4108V49.4208Z" fill="#F15E22"/>
</g>
<g filter="url(#filter6_ddd_50_10481)">
<path d="M291.054 82.8108C290.668 82.6008 290.281 82.4008 289.884 82.1908C289.294 80.5008 289.396 80.1008 290.627 79.0608C291.075 79.0108 291.533 78.9608 291.98 78.9208C292.794 79.2908 293.446 79.7708 293.436 80.7808C293.436 81.9008 292.815 82.6108 291.675 82.7508C291.461 82.7708 291.248 82.8008 291.044 82.8208L291.054 82.8108Z" fill="#F15E22"/>
</g>
<g filter="url(#filter7_ddd_50_10481)">
<path d="M299.439 109.021C299.846 109.221 300.253 109.411 300.66 109.611C301.434 110.961 301.22 112.171 300.009 112.651C299.51 112.851 298.89 112.751 298.32 112.781C297.994 112.501 297.658 112.211 297.333 111.931C297.302 111.551 297.231 111.171 297.241 110.791C297.262 110.001 297.831 109.301 298.584 109.121C298.859 109.051 299.144 109.051 299.429 109.021H299.439Z" fill="#F15E22"/>
</g>
<g filter="url(#filter8_ddd_50_10481)">
<path d="M299.714 123.731C300.08 123.981 300.447 124.231 300.813 124.481C300.905 125.021 301.108 125.571 301.057 126.101C300.986 126.961 300.111 127.581 299.144 127.551C298.768 127.541 298.391 127.411 298.004 127.331C297.73 126.991 297.465 126.651 297.19 126.311C297.201 126.071 297.211 125.821 297.221 125.581C297.292 124.521 297.964 123.861 299.063 123.781C299.276 123.761 299.49 123.751 299.704 123.741L299.714 123.731Z" fill="#F15E22"/>
</g>
<g filter="url(#filter9_ddd_50_10481)">
<path d="M217.026 35.8808C216.669 36.1408 216.323 36.4008 215.967 36.6708C215.652 36.6608 215.326 36.6708 215.011 36.6308C214.125 36.5308 213.444 35.8608 213.352 35.0008C213.322 34.7208 213.332 34.4408 213.332 34.1608C213.596 33.8008 213.851 33.4408 214.115 33.0808C214.288 33.0308 214.451 32.9608 214.624 32.9208C216.313 32.5408 217.453 33.5708 217.188 35.2608C217.158 35.4708 217.087 35.6708 217.036 35.8708L217.026 35.8808Z" fill="#F15E22"/>
</g>
<g filter="url(#filter10_ddd_50_10481)">
<path d="M283.351 69.7508C282.914 69.7108 282.476 69.6708 282.039 69.6408C280.523 68.3008 280.472 67.4508 281.815 66.0808C282.273 65.9908 282.741 65.9108 283.199 65.8208C284.552 66.4208 284.959 67.0408 284.776 68.1908C284.644 69.0308 283.962 69.3608 283.341 69.7608L283.351 69.7508Z" fill="#F15E22"/>
</g>
<g filter="url(#filter11_ddd_50_10481)">
<path d="M318.799 257.566H325.963C327.815 257.566 329.412 258.216 330.735 259.526C332.058 260.836 332.729 262.396 332.729 264.226V268.336H318.799V257.576V257.566Z" fill="#F15E22"/>
</g>
<g filter="url(#filter12_ddd_50_10481)">
<path d="M92.3063 301.576C91.6449 309.406 88.6532 315.536 83.3516 319.966C77.9076 324.266 70.7438 326.426 61.8502 326.426C51.5014 326.426 43.605 323.366 38.161 317.236C32.7169 311.366 30 302.696 30 291.216C30 279.736 32.7882 270.676 38.3645 264.806C44.0731 258.676 52.2951 255.616 63.0509 255.616C71.8123 255.616 78.7725 257.766 83.952 262.076C88.8567 266.256 91.6449 272.116 92.3165 279.686H83.7587C80.5736 279.686 78.3146 278.316 76.9918 275.576C76.0658 273.886 74.9362 272.386 73.6032 271.076C70.9473 269.116 67.4367 268.146 63.0509 268.146C56.9455 268.146 52.2341 270.106 48.9168 274.016C45.7318 277.926 44.1443 283.666 44.1443 291.226C44.1443 298.786 45.7318 304.136 48.9168 308.046C51.9695 312.086 56.5486 314.106 62.6541 314.106C66.8974 314.106 70.4182 313.066 73.2064 310.976C75.73 309.016 77.5209 305.886 78.5792 301.586H92.3165L92.3063 301.576Z" fill="white"/>
<path d="M136.805 308.816H146.757C145.292 314.296 142.514 318.466 138.393 321.336C134.282 324.336 129.102 325.836 122.864 325.836C115.304 325.836 109.392 323.426 105.148 318.596C100.895 313.906 98.7783 307.186 98.7783 298.446C98.7783 289.706 100.834 283.576 104.945 278.886C109.188 274.066 115.1 271.646 122.661 271.646C130.618 271.646 136.795 273.996 141.171 278.686C145.414 283.516 147.541 290.226 147.541 298.836V300.986C147.541 301.636 147.469 302.096 147.337 302.356H112.902C113.035 306.396 114.032 309.396 115.884 311.356C117.604 313.446 120.198 314.486 123.648 314.486C125.907 314.486 127.83 314.026 129.418 313.116C129.814 312.986 130.181 312.756 130.517 312.426C130.842 312.106 131.209 311.746 131.616 311.346C131.748 310.956 132.246 310.436 133.111 309.776C133.976 309.126 135.197 308.796 136.795 308.796L136.805 308.816ZM112.912 293.556H133.213C132.949 290.036 132.023 287.426 130.425 285.736C128.695 283.906 126.243 282.996 123.058 282.996C120.137 282.996 117.746 283.906 115.894 285.736C114.032 287.566 113.035 290.166 112.912 293.556Z" fill="white"/>
<path d="M155.03 257.566H162.194C164.046 257.566 165.643 258.186 166.966 259.426C168.289 260.666 168.96 262.196 168.96 264.026V324.866H155.03V257.576V257.566Z" fill="white"/>
<path d="M212.859 308.816H222.811C221.346 314.296 218.568 318.466 214.457 321.336C210.346 324.336 205.166 325.836 198.928 325.836C191.368 325.836 185.456 323.426 181.212 318.596C176.959 313.906 174.842 307.186 174.842 298.446C174.842 289.706 176.898 283.576 181.009 278.886C185.252 274.066 191.164 271.646 198.725 271.646C206.682 271.646 212.859 273.996 217.235 278.686C221.478 283.516 223.605 290.226 223.605 298.836V300.986C223.605 301.636 223.533 302.096 223.401 302.356H188.966C189.099 306.396 190.096 309.396 191.948 311.356C193.667 313.446 196.262 314.486 199.712 314.486C201.971 314.486 203.894 314.026 205.482 313.116C205.878 312.986 206.245 312.756 206.581 312.426C206.906 312.106 207.273 311.746 207.68 311.346C207.812 310.956 208.31 310.436 209.175 309.776C210.04 309.126 211.261 308.796 212.859 308.796V308.816ZM188.976 293.556H209.277C209.013 290.036 208.087 287.426 206.489 285.736C204.759 283.906 202.307 282.996 199.122 282.996C196.201 282.996 193.81 283.906 191.958 285.736C190.096 287.566 189.099 290.166 188.976 293.556Z" fill="white"/>
<path d="M229.293 307.636H242.827C242.959 310.246 243.956 312.206 245.808 313.506C247.802 314.816 250.448 315.466 253.765 315.466C256.157 315.466 258.212 315.006 259.932 314.096C261.53 313.186 262.323 311.946 262.323 310.376C262.323 308.026 259.535 306.266 253.959 305.096C251.568 304.706 249.777 304.316 248.586 303.926C241.555 302.236 236.843 300.206 234.452 297.866C231.796 295.516 230.473 292.386 230.473 288.476C230.473 283.516 232.396 279.416 236.243 276.156C240.222 273.156 245.401 271.656 251.771 271.656C258.67 271.656 264.175 273.156 268.296 276.156C272.143 279.416 274.198 283.656 274.463 288.866H265.905C263.382 288.866 261.458 287.756 260.136 285.536C259.606 285.016 259.067 284.496 258.538 283.976C256.95 282.806 254.753 282.216 251.964 282.216C249.176 282.216 247.314 282.606 245.991 283.386C244.801 284.166 244.2 285.346 244.2 286.906C244.2 288.996 247.65 290.756 254.549 292.186C255.343 292.446 256.045 292.646 256.635 292.776C257.235 292.906 257.795 292.976 258.324 292.976C265.091 294.676 269.803 296.626 272.458 298.846C274.982 301.196 276.244 304.326 276.244 308.236C276.244 313.976 274.117 318.406 269.874 321.536C265.895 324.406 259.922 325.836 251.954 325.836C243.987 325.836 238.746 324.336 235.032 321.336C231.185 318.336 229.262 313.966 229.262 308.226V307.636H229.293Z" fill="white"/>
<path d="M306.629 324.856C302.253 325.116 297.501 325.056 292.393 324.656C287.285 324.266 284.73 321.066 284.73 315.076V257.566H291.894C293.614 257.566 295.14 258.216 296.473 259.526C297.796 260.836 298.468 262.396 298.468 264.226V273.026H306.629V275.766C306.629 277.726 305.967 279.316 304.634 280.556C303.311 281.796 301.714 282.416 299.862 282.416H298.468V311.366C298.468 313.586 299.791 314.696 302.446 314.696H306.629V324.866V324.856Z" fill="white"/>
<path d="M318.799 272.816H325.963C327.815 272.816 329.412 273.466 330.735 274.776C332.058 276.086 332.729 277.646 332.729 279.476V324.856H318.799V272.826V272.816Z" fill="white"/>
<path d="M376.943 322.706C374.155 324.146 371.204 325.016 368.09 325.346C364.966 325.666 362.219 325.836 359.827 325.836C355.045 325.836 350.873 324.566 347.291 322.026C343.709 319.486 341.918 315.276 341.918 309.406C341.918 303.926 343.546 300.016 346.792 297.666C350.038 295.316 354.19 293.756 359.237 292.976C359.899 292.976 360.692 292.876 361.628 292.686C362.554 292.486 363.623 292.326 364.813 292.196C370.654 291.416 373.575 289.716 373.575 287.106C373.575 285.146 372.547 283.876 370.492 283.296C368.436 282.706 366.543 282.416 364.813 282.416C362.951 282.416 361.293 282.676 359.838 283.196C358.372 283.716 357.314 284.696 356.653 286.126H343.312C343.841 282.086 345.703 278.756 348.888 276.146C352.47 273.146 357.578 271.646 364.213 271.646C371.641 271.646 377.218 272.886 380.932 275.366C384.778 277.976 386.702 281.626 386.702 286.316V304.116C386.702 309.336 385.735 313.406 383.812 316.346C381.888 319.276 379.599 321.396 376.943 322.706ZM373.758 298.646C371.896 299.556 369.311 300.406 365.994 301.186L361.415 302.166C359.023 302.816 357.304 303.666 356.235 304.706C355.309 306.146 354.841 307.576 354.841 309.006C354.841 310.966 355.442 312.526 356.632 313.696C357.823 314.746 359.553 315.266 361.812 315.266C365.526 315.266 368.446 314.226 370.573 312.136C372.69 310.056 373.758 307.186 373.758 303.526V298.636V298.646Z" fill="white"/>
</g>
<defs>
<filter id="filter0_ddd_50_10481" x="84.7988" y="2" width="247.104" height="249.021" filterUnits="userSpaceOnUse" color-interpolation-filters="sRGB">
<feFlood flood-opacity="0" result="BackgroundImageFix"/>
<feColorMatrix in="SourceAlpha" type="matrix" values="0 0 0 0 0 0 0 0 0 0 0 0 0 0 0 0 0 0 127 0" result="hardAlpha"/>
<feOffset/>
<feGaussianBlur stdDeviation="5"/>
<feComposite in2="hardAlpha" operator="out"/>
<feColorMatrix type="matrix" values="0 0 0 0 0.0817014 0 0 0 0 0.533357 0 0 0 0 0.754167 0 0 0 0.9 0"/>
<feBlend mode="normal" in2="BackgroundImageFix" result="effect1_dropShadow_50_10481"/>
<feColorMatrix in="SourceAlpha" type="matrix" values="0 0 0 0 0 0 0 0 0 0 0 0 0 0 0 0 0 0 127 0" result="hardAlpha"/>
<feOffset/>
<feGaussianBlur stdDeviation="5"/>
<feComposite in2="hardAlpha" operator="out"/>
<feColorMatrix type="matrix" values="0 0 0 0 0.0823529 0 0 0 0 0.533333 0 0 0 0 0.752941 0 0 0 0.25 0"/>
<feBlend mode="normal" in2="effect1_dropShadow_50_10481" result="effect2_dropShadow_50_10481"/>
<feColorMatrix in="SourceAlpha" type="matrix" values="0 0 0 0 0 0 0 0 0 0 0 0 0 0 0 0 0 0 127 0" result="hardAlpha"/>
<feOffset/>
<feGaussianBlur stdDeviation="15"/>
<feComposite in2="hardAlpha" operator="out"/>
<feColorMatrix type="matrix" values="0 0 0 0 0.0823529 0 0 0 0 0.533333 0 0 0 0 0.752941 0 0 0 0.99 0"/>
<feBlend mode="normal" in2="effect2_dropShadow_50_10481" result="effect3_dropShadow_50_10481"/>
<feBlend mode="normal" in="SourceGraphic" in2="effect3_dropShadow_50_10481" result="shape"/>
</filter>
<filter id="filter1_ddd_50_10481" x="208.3" y="14.488" width="43.936" height="43.8828" filterUnits="userSpaceOnUse" color-interpolation-filters="sRGB">
<feFlood flood-opacity="0" result="BackgroundImageFix"/>
<feColorMatrix in="SourceAlpha" type="matrix" values="0 0 0 0 0 0 0 0 0 0 0 0 0 0 0 0 0 0 127 0" result="hardAlpha"/>
<feOffset/>
<feGaussianBlur stdDeviation="5"/>
<feComposite in2="hardAlpha" operator="out"/>
<feColorMatrix type="matrix" values="0 0 0 0 0.945098 0 0 0 0 0.368627 0 0 0 0 0.133333 0 0 0 1 0"/>
<feBlend mode="normal" in2="BackgroundImageFix" result="effect1_dropShadow_50_10481"/>
<feColorMatrix in="SourceAlpha" type="matrix" values="0 0 0 0 0 0 0 0 0 0 0 0 0 0 0 0 0 0 127 0" result="hardAlpha"/>
<feOffset/>
<feGaussianBlur stdDeviation="5"/>
<feComposite in2="hardAlpha" operator="out"/>
<feColorMatrix type="matrix" values="0 0 0 0 0.945098 0 0 0 0 0.368627 0 0 0 0 0.133333 0 0 0 1 0"/>
<feBlend mode="normal" in2="effect1_dropShadow_50_10481" result="effect2_dropShadow_50_10481"/>
<feColorMatrix in="SourceAlpha" type="matrix" values="0 0 0 0 0 0 0 0 0 0 0 0 0 0 0 0 0 0 127 0" result="hardAlpha"/>
<feOffset/>
<feGaussianBlur stdDeviation="10"/>
<feComposite in2="hardAlpha" operator="out"/>
<feColorMatrix type="matrix" values="0 0 0 0 0.945098 0 0 0 0 0.368627 0 0 0 0 0.133333 0 0 0 1 0"/>
<feBlend mode="normal" in2="effect2_dropShadow_50_10481" result="effect3_dropShadow_50_10481"/>
<feBlend mode="normal" in="SourceGraphic" in2="effect3_dropShadow_50_10481" result="shape"/>
</filter>
<filter id="filter2_ddd_50_10481" x="249.876" y="35.0108" width="43.959" height="43.93" filterUnits="userSpaceOnUse" color-interpolation-filters="sRGB">
<feFlood flood-opacity="0" result="BackgroundImageFix"/>
<feColorMatrix in="SourceAlpha" type="matrix" values="0 0 0 0 0 0 0 0 0 0 0 0 0 0 0 0 0 0 127 0" result="hardAlpha"/>
<feOffset/>
<feGaussianBlur stdDeviation="5"/>
<feComposite in2="hardAlpha" operator="out"/>
<feColorMatrix type="matrix" values="0 0 0 0 0.945098 0 0 0 0 0.368627 0 0 0 0 0.133333 0 0 0 1 0"/>
<feBlend mode="normal" in2="BackgroundImageFix" result="effect1_dropShadow_50_10481"/>
<feColorMatrix in="SourceAlpha" type="matrix" values="0 0 0 0 0 0 0 0 0 0 0 0 0 0 0 0 0 0 127 0" result="hardAlpha"/>
<feOffset/>
<feGaussianBlur stdDeviation="5"/>
<feComposite in2="hardAlpha" operator="out"/>
<feColorMatrix type="matrix" values="0 0 0 0 0.945098 0 0 0 0 0.368627 0 0 0 0 0.133333 0 0 0 1 0"/>
<feBlend mode="normal" in2="effect1_dropShadow_50_10481" result="effect2_dropShadow_50_10481"/>
<feColorMatrix in="SourceAlpha" type="matrix" values="0 0 0 0 0 0 0 0 0 0 0 0 0 0 0 0 0 0 127 0" result="hardAlpha"/>
<feOffset/>
<feGaussianBlur stdDeviation="10"/>
<feComposite in2="hardAlpha" operator="out"/>
<feColorMatrix type="matrix" values="0 0 0 0 0.945098 0 0 0 0 0.368627 0 0 0 0 0.133333 0 0 0 1 0"/>
<feBlend mode="normal" in2="effect2_dropShadow_50_10481" result="effect3_dropShadow_50_10481"/>
<feBlend mode="normal" in="SourceGraphic" in2="effect3_dropShadow_50_10481" result="shape"/>
</filter>
<filter id="filter3_ddd_50_10481" x="274.561" y="73.9608" width="43.8828" height="43.85" filterUnits="userSpaceOnUse" color-interpolation-filters="sRGB">
<feFlood flood-opacity="0" result="BackgroundImageFix"/>
<feColorMatrix in="SourceAlpha" type="matrix" values="0 0 0 0 0 0 0 0 0 0 0 0 0 0 0 0 0 0 127 0" result="hardAlpha"/>
<feOffset/>
<feGaussianBlur stdDeviation="5"/>
<feComposite in2="hardAlpha" operator="out"/>
<feColorMatrix type="matrix" values="0 0 0 0 0.945098 0 0 0 0 0.368627 0 0 0 0 0.133333 0 0 0 1 0"/>
<feBlend mode="normal" in2="BackgroundImageFix" result="effect1_dropShadow_50_10481"/>
<feColorMatrix in="SourceAlpha" type="matrix" values="0 0 0 0 0 0 0 0 0 0 0 0 0 0 0 0 0 0 127 0" result="hardAlpha"/>
<feOffset/>
<feGaussianBlur stdDeviation="5"/>
<feComposite in2="hardAlpha" operator="out"/>
<feColorMatrix type="matrix" values="0 0 0 0 0.945098 0 0 0 0 0.368627 0 0 0 0 0.133333 0 0 0 1 0"/>
<feBlend mode="normal" in2="effect1_dropShadow_50_10481" result="effect2_dropShadow_50_10481"/>
<feColorMatrix in="SourceAlpha" type="matrix" values="0 0 0 0 0 0 0 0 0 0 0 0 0 0 0 0 0 0 127 0" result="hardAlpha"/>
<feOffset/>
<feGaussianBlur stdDeviation="10"/>
<feComposite in2="hardAlpha" operator="out"/>
<feColorMatrix type="matrix" values="0 0 0 0 0.945098 0 0 0 0 0.368627 0 0 0 0 0.133333 0 0 0 1 0"/>
<feBlend mode="normal" in2="effect2_dropShadow_50_10481" result="effect3_dropShadow_50_10481"/>
<feBlend mode="normal" in="SourceGraphic" in2="effect3_dropShadow_50_10481" result="shape"/>
</filter>
<filter id="filter4_ddd_50_10481" x="223.604" y="19.4078" width="43.9385" height="43.843" filterUnits="userSpaceOnUse" color-interpolation-filters="sRGB">
<feFlood flood-opacity="0" result="BackgroundImageFix"/>
<feColorMatrix in="SourceAlpha" type="matrix" values="0 0 0 0 0 0 0 0 0 0 0 0 0 0 0 0 0 0 127 0" result="hardAlpha"/>
<feOffset/>
<feGaussianBlur stdDeviation="5"/>
<feComposite in2="hardAlpha" operator="out"/>
<feColorMatrix type="matrix" values="0 0 0 0 0.945098 0 0 0 0 0.368627 0 0 0 0 0.133333 0 0 0 1 0"/>
<feBlend mode="normal" in2="BackgroundImageFix" result="effect1_dropShadow_50_10481"/>
<feColorMatrix in="SourceAlpha" type="matrix" values="0 0 0 0 0 0 0 0 0 0 0 0 0 0 0 0 0 0 127 0" result="hardAlpha"/>
<feOffset/>
<feGaussianBlur stdDeviation="5"/>
<feComposite in2="hardAlpha" operator="out"/>
<feColorMatrix type="matrix" values="0 0 0 0 0.945098 0 0 0 0 0.368627 0 0 0 0 0.133333 0 0 0 1 0"/>
<feBlend mode="normal" in2="effect1_dropShadow_50_10481" result="effect2_dropShadow_50_10481"/>
<feColorMatrix in="SourceAlpha" type="matrix" values="0 0 0 0 0 0 0 0 0 0 0 0 0 0 0 0 0 0 127 0" result="hardAlpha"/>
<feOffset/>
<feGaussianBlur stdDeviation="10"/>
<feComposite in2="hardAlpha" operator="out"/>
<feColorMatrix type="matrix" values="0 0 0 0 0.945098 0 0 0 0 0.368627 0 0 0 0 0.133333 0 0 0 1 0"/>
<feBlend mode="normal" in2="effect2_dropShadow_50_10481" result="effect3_dropShadow_50_10481"/>
<feBlend mode="normal" in="SourceGraphic" in2="effect3_dropShadow_50_10481" result="shape"/>
</filter>
<filter id="filter5_ddd_50_10481" x="237.589" y="25.6008" width="43.9277" height="43.83" filterUnits="userSpaceOnUse" color-interpolation-filters="sRGB">
<feFlood flood-opacity="0" result="BackgroundImageFix"/>
<feColorMatrix in="SourceAlpha" type="matrix" values="0 0 0 0 0 0 0 0 0 0 0 0 0 0 0 0 0 0 127 0" result="hardAlpha"/>
<feOffset/>
<feGaussianBlur stdDeviation="5"/>
<feComposite in2="hardAlpha" operator="out"/>
<feColorMatrix type="matrix" values="0 0 0 0 0.945098 0 0 0 0 0.368627 0 0 0 0 0.133333 0 0 0 1 0"/>
<feBlend mode="normal" in2="BackgroundImageFix" result="effect1_dropShadow_50_10481"/>
<feColorMatrix in="SourceAlpha" type="matrix" values="0 0 0 0 0 0 0 0 0 0 0 0 0 0 0 0 0 0 127 0" result="hardAlpha"/>
<feOffset/>
<feGaussianBlur stdDeviation="5"/>
<feComposite in2="hardAlpha" operator="out"/>
<feColorMatrix type="matrix" values="0 0 0 0 0.945098 0 0 0 0 0.368627 0 0 0 0 0.133333 0 0 0 1 0"/>
<feBlend mode="normal" in2="effect1_dropShadow_50_10481" result="effect2_dropShadow_50_10481"/>
<feColorMatrix in="SourceAlpha" type="matrix" values="0 0 0 0 0 0 0 0 0 0 0 0 0 0 0 0 0 0 127 0" result="hardAlpha"/>
<feOffset/>
<feGaussianBlur stdDeviation="10"/>
<feComposite in2="hardAlpha" operator="out"/>
<feColorMatrix type="matrix" values="0 0 0 0 0.945098 0 0 0 0 0.368627 0 0 0 0 0.133333 0 0 0 1 0"/>
<feBlend mode="normal" in2="effect2_dropShadow_50_10481" result="effect3_dropShadow_50_10481"/>
<feBlend mode="normal" in="SourceGraphic" in2="effect3_dropShadow_50_10481" result="shape"/>
</filter>
<filter id="filter6_ddd_50_10481" x="269.535" y="58.9208" width="43.9004" height="43.9" filterUnits="userSpaceOnUse" color-interpolation-filters="sRGB">
<feFlood flood-opacity="0" result="BackgroundImageFix"/>
<feColorMatrix in="SourceAlpha" type="matrix" values="0 0 0 0 0 0 0 0 0 0 0 0 0 0 0 0 0 0 127 0" result="hardAlpha"/>
<feOffset/>
<feGaussianBlur stdDeviation="5"/>
<feComposite in2="hardAlpha" operator="out"/>
<feColorMatrix type="matrix" values="0 0 0 0 0.945098 0 0 0 0 0.368627 0 0 0 0 0.133333 0 0 0 1 0"/>
<feBlend mode="normal" in2="BackgroundImageFix" result="effect1_dropShadow_50_10481"/>
<feColorMatrix in="SourceAlpha" type="matrix" values="0 0 0 0 0 0 0 0 0 0 0 0 0 0 0 0 0 0 127 0" result="hardAlpha"/>
<feOffset/>
<feGaussianBlur stdDeviation="5"/>
<feComposite in2="hardAlpha" operator="out"/>
<feColorMatrix type="matrix" values="0 0 0 0 0.945098 0 0 0 0 0.368627 0 0 0 0 0.133333 0 0 0 1 0"/>
<feBlend mode="normal" in2="effect1_dropShadow_50_10481" result="effect2_dropShadow_50_10481"/>
<feColorMatrix in="SourceAlpha" type="matrix" values="0 0 0 0 0 0 0 0 0 0 0 0 0 0 0 0 0 0 127 0" result="hardAlpha"/>
<feOffset/>
<feGaussianBlur stdDeviation="10"/>
<feComposite in2="hardAlpha" operator="out"/>
<feColorMatrix type="matrix" values="0 0 0 0 0.945098 0 0 0 0 0.368627 0 0 0 0 0.133333 0 0 0 1 0"/>
<feBlend mode="normal" in2="effect2_dropShadow_50_10481" result="effect3_dropShadow_50_10481"/>
<feBlend mode="normal" in="SourceGraphic" in2="effect3_dropShadow_50_10481" result="shape"/>
</filter>
<filter id="filter7_ddd_50_10481" x="277.24" y="89.0208" width="43.874" height="43.76" filterUnits="userSpaceOnUse" color-interpolation-filters="sRGB">
<feFlood flood-opacity="0" result="BackgroundImageFix"/>
<feColorMatrix in="SourceAlpha" type="matrix" values="0 0 0 0 0 0 0 0 0 0 0 0 0 0 0 0 0 0 127 0" result="hardAlpha"/>
<feOffset/>
<feGaussianBlur stdDeviation="5"/>
<feComposite in2="hardAlpha" operator="out"/>
<feColorMatrix type="matrix" values="0 0 0 0 0.945098 0 0 0 0 0.368627 0 0 0 0 0.133333 0 0 0 1 0"/>
<feBlend mode="normal" in2="BackgroundImageFix" result="effect1_dropShadow_50_10481"/>
<feColorMatrix in="SourceAlpha" type="matrix" values="0 0 0 0 0 0 0 0 0 0 0 0 0 0 0 0 0 0 127 0" result="hardAlpha"/>
<feOffset/>
<feGaussianBlur stdDeviation="5"/>
<feComposite in2="hardAlpha" operator="out"/>
<feColorMatrix type="matrix" values="0 0 0 0 0.945098 0 0 0 0 0.368627 0 0 0 0 0.133333 0 0 0 1 0"/>
<feBlend mode="normal" in2="effect1_dropShadow_50_10481" result="effect2_dropShadow_50_10481"/>
<feColorMatrix in="SourceAlpha" type="matrix" values="0 0 0 0 0 0 0 0 0 0 0 0 0 0 0 0 0 0 127 0" result="hardAlpha"/>
<feOffset/>
<feGaussianBlur stdDeviation="10"/>
<feComposite in2="hardAlpha" operator="out"/>
<feColorMatrix type="matrix" values="0 0 0 0 0.945098 0 0 0 0 0.368627 0 0 0 0 0.133333 0 0 0 1 0"/>
<feBlend mode="normal" in2="effect2_dropShadow_50_10481" result="effect3_dropShadow_50_10481"/>
<feBlend mode="normal" in="SourceGraphic" in2="effect3_dropShadow_50_10481" result="shape"/>
</filter>
<filter id="filter8_ddd_50_10481" x="277.19" y="103.731" width="43.875" height="43.821" filterUnits="userSpaceOnUse" color-interpolation-filters="sRGB">
<feFlood flood-opacity="0" result="BackgroundImageFix"/>
<feColorMatrix in="SourceAlpha" type="matrix" values="0 0 0 0 0 0 0 0 0 0 0 0 0 0 0 0 0 0 127 0" result="hardAlpha"/>
<feOffset/>
<feGaussianBlur stdDeviation="5"/>
<feComposite in2="hardAlpha" operator="out"/>
<feColorMatrix type="matrix" values="0 0 0 0 0.945098 0 0 0 0 0.368627 0 0 0 0 0.133333 0 0 0 1 0"/>
<feBlend mode="normal" in2="BackgroundImageFix" result="effect1_dropShadow_50_10481"/>
<feColorMatrix in="SourceAlpha" type="matrix" values="0 0 0 0 0 0 0 0 0 0 0 0 0 0 0 0 0 0 127 0" result="hardAlpha"/>
<feOffset/>
<feGaussianBlur stdDeviation="5"/>
<feComposite in2="hardAlpha" operator="out"/>
<feColorMatrix type="matrix" values="0 0 0 0 0.945098 0 0 0 0 0.368627 0 0 0 0 0.133333 0 0 0 1 0"/>
<feBlend mode="normal" in2="effect1_dropShadow_50_10481" result="effect2_dropShadow_50_10481"/>
<feColorMatrix in="SourceAlpha" type="matrix" values="0 0 0 0 0 0 0 0 0 0 0 0 0 0 0 0 0 0 127 0" result="hardAlpha"/>
<feOffset/>
<feGaussianBlur stdDeviation="10"/>
<feComposite in2="hardAlpha" operator="out"/>
<feColorMatrix type="matrix" values="0 0 0 0 0.945098 0 0 0 0 0.368627 0 0 0 0 0.133333 0 0 0 1 0"/>
<feBlend mode="normal" in2="effect2_dropShadow_50_10481" result="effect3_dropShadow_50_10481"/>
<feBlend mode="normal" in="SourceGraphic" in2="effect3_dropShadow_50_10481" result="shape"/>
</filter>
<filter id="filter9_ddd_50_10481" x="193.33" y="12.842" width="43.8965" height="43.8287" filterUnits="userSpaceOnUse" color-interpolation-filters="sRGB">
<feFlood flood-opacity="0" result="BackgroundImageFix"/>
<feColorMatrix in="SourceAlpha" type="matrix" values="0 0 0 0 0 0 0 0 0 0 0 0 0 0 0 0 0 0 127 0" result="hardAlpha"/>
<feOffset/>
<feGaussianBlur stdDeviation="5"/>
<feComposite in2="hardAlpha" operator="out"/>
<feColorMatrix type="matrix" values="0 0 0 0 0.945098 0 0 0 0 0.368627 0 0 0 0 0.133333 0 0 0 1 0"/>
<feBlend mode="normal" in2="BackgroundImageFix" result="effect1_dropShadow_50_10481"/>
<feColorMatrix in="SourceAlpha" type="matrix" values="0 0 0 0 0 0 0 0 0 0 0 0 0 0 0 0 0 0 127 0" result="hardAlpha"/>
<feOffset/>
<feGaussianBlur stdDeviation="5"/>
<feComposite in2="hardAlpha" operator="out"/>
<feColorMatrix type="matrix" values="0 0 0 0 0.945098 0 0 0 0 0.368627 0 0 0 0 0.133333 0 0 0 1 0"/>
<feBlend mode="normal" in2="effect1_dropShadow_50_10481" result="effect2_dropShadow_50_10481"/>
<feColorMatrix in="SourceAlpha" type="matrix" values="0 0 0 0 0 0 0 0 0 0 0 0 0 0 0 0 0 0 127 0" result="hardAlpha"/>
<feOffset/>
<feGaussianBlur stdDeviation="10"/>
<feComposite in2="hardAlpha" operator="out"/>
<feColorMatrix type="matrix" values="0 0 0 0 0.945098 0 0 0 0 0.368627 0 0 0 0 0.133333 0 0 0 1 0"/>
<feBlend mode="normal" in2="effect2_dropShadow_50_10481" result="effect3_dropShadow_50_10481"/>
<feBlend mode="normal" in="SourceGraphic" in2="effect3_dropShadow_50_10481" result="shape"/>
</filter>
<filter id="filter10_ddd_50_10481" x="260.852" y="45.8208" width="43.9653" height="43.94" filterUnits="userSpaceOnUse" color-interpolation-filters="sRGB">
<feFlood flood-opacity="0" result="BackgroundImageFix"/>
<feColorMatrix in="SourceAlpha" type="matrix" values="0 0 0 0 0 0 0 0 0 0 0 0 0 0 0 0 0 0 127 0" result="hardAlpha"/>
<feOffset/>
<feGaussianBlur stdDeviation="5"/>
<feComposite in2="hardAlpha" operator="out"/>
<feColorMatrix type="matrix" values="0 0 0 0 0.945098 0 0 0 0 0.368627 0 0 0 0 0.133333 0 0 0 1 0"/>
<feBlend mode="normal" in2="BackgroundImageFix" result="effect1_dropShadow_50_10481"/>
<feColorMatrix in="SourceAlpha" type="matrix" values="0 0 0 0 0 0 0 0 0 0 0 0 0 0 0 0 0 0 127 0" result="hardAlpha"/>
<feOffset/>
<feGaussianBlur stdDeviation="5"/>
<feComposite in2="hardAlpha" operator="out"/>
<feColorMatrix type="matrix" values="0 0 0 0 0.945098 0 0 0 0 0.368627 0 0 0 0 0.133333 0 0 0 1 0"/>
<feBlend mode="normal" in2="effect1_dropShadow_50_10481" result="effect2_dropShadow_50_10481"/>
<feColorMatrix in="SourceAlpha" type="matrix" values="0 0 0 0 0 0 0 0 0 0 0 0 0 0 0 0 0 0 127 0" result="hardAlpha"/>
<feOffset/>
<feGaussianBlur stdDeviation="10"/>
<feComposite in2="hardAlpha" operator="out"/>
<feColorMatrix type="matrix" values="0 0 0 0 0.945098 0 0 0 0 0.368627 0 0 0 0 0.133333 0 0 0 1 0"/>
<feBlend mode="normal" in2="effect2_dropShadow_50_10481" result="effect3_dropShadow_50_10481"/>
<feBlend mode="normal" in="SourceGraphic" in2="effect3_dropShadow_50_10481" result="shape"/>
</filter>
<filter id="filter11_ddd_50_10481" x="298.799" y="237.566" width="53.9307" height="50.77" filterUnits="userSpaceOnUse" color-interpolation-filters="sRGB">
<feFlood flood-opacity="0" result="BackgroundImageFix"/>
<feColorMatrix in="SourceAlpha" type="matrix" values="0 0 0 0 0 0 0 0 0 0 0 0 0 0 0 0 0 0 127 0" result="hardAlpha"/>
<feOffset/>
<feGaussianBlur stdDeviation="5"/>
<feComposite in2="hardAlpha" operator="out"/>
<feColorMatrix type="matrix" values="0 0 0 0 0.945098 0 0 0 0 0.368627 0 0 0 0 0.133333 0 0 0 1 0"/>
<feBlend mode="normal" in2="BackgroundImageFix" result="effect1_dropShadow_50_10481"/>
<feColorMatrix in="SourceAlpha" type="matrix" values="0 0 0 0 0 0 0 0 0 0 0 0 0 0 0 0 0 0 127 0" result="hardAlpha"/>
<feOffset/>
<feGaussianBlur stdDeviation="5"/>
<feComposite in2="hardAlpha" operator="out"/>
<feColorMatrix type="matrix" values="0 0 0 0 0.945098 0 0 0 0 0.368627 0 0 0 0 0.133333 0 0 0 1 0"/>
<feBlend mode="normal" in2="effect1_dropShadow_50_10481" result="effect2_dropShadow_50_10481"/>
<feColorMatrix in="SourceAlpha" type="matrix" values="0 0 0 0 0 0 0 0 0 0 0 0 0 0 0 0 0 0 127 0" result="hardAlpha"/>
<feOffset/>
<feGaussianBlur stdDeviation="10"/>
<feComposite in2="hardAlpha" operator="out"/>
<feColorMatrix type="matrix" values="0 0 0 0 0.945098 0 0 0 0 0.368627 0 0 0 0 0.133333 0 0 0 1 0"/>
<feBlend mode="normal" in2="effect2_dropShadow_50_10481" result="effect3_dropShadow_50_10481"/>
<feBlend mode="normal" in="SourceGraphic" in2="effect3_dropShadow_50_10481" result="shape"/>
</filter>
<filter id="filter12_ddd_50_10481" x="0" y="225.616" width="416.702" height="130.81" filterUnits="userSpaceOnUse" color-interpolation-filters="sRGB">
<feFlood flood-opacity="0" result="BackgroundImageFix"/>
<feColorMatrix in="SourceAlpha" type="matrix" values="0 0 0 0 0 0 0 0 0 0 0 0 0 0 0 0 0 0 127 0" result="hardAlpha"/>
<feOffset/>
<feGaussianBlur stdDeviation="5"/>
<feComposite in2="hardAlpha" operator="out"/>
<feColorMatrix type="matrix" values="0 0 0 0 0.0817014 0 0 0 0 0.533357 0 0 0 0 0.754167 0 0 0 0.9 0"/>
<feBlend mode="normal" in2="BackgroundImageFix" result="effect1_dropShadow_50_10481"/>
<feColorMatrix in="SourceAlpha" type="matrix" values="0 0 0 0 0 0 0 0 0 0 0 0 0 0 0 0 0 0 127 0" result="hardAlpha"/>
<feOffset/>
<feGaussianBlur stdDeviation="5"/>
<feComposite in2="hardAlpha" operator="out"/>
<feColorMatrix type="matrix" values="0 0 0 0 0.0823529 0 0 0 0 0.533333 0 0 0 0 0.752941 0 0 0 0.25 0"/>
<feBlend mode="normal" in2="effect1_dropShadow_50_10481" result="effect2_dropShadow_50_10481"/>
<feColorMatrix in="SourceAlpha" type="matrix" values="0 0 0 0 0 0 0 0 0 0 0 0 0 0 0 0 0 0 127 0" result="hardAlpha"/>
<feOffset/>
<feGaussianBlur stdDeviation="15"/>
<feComposite in2="hardAlpha" operator="out"/>
<feColorMatrix type="matrix" values="0 0 0 0 0.0823529 0 0 0 0 0.533333 0 0 0 0 0.752941 0 0 0 0.99 0"/>
<feBlend mode="normal" in2="effect2_dropShadow_50_10481" result="effect3_dropShadow_50_10481"/>
<feBlend mode="normal" in="SourceGraphic" in2="effect3_dropShadow_50_10481" result="shape"/>
</filter>
</defs>
</svg>
