<svg width="1236" height="257" viewBox="0 0 1236 257" fill="none" xmlns="http://www.w3.org/2000/svg">
<path d="M82.6053 123.022C82.6053 121.729 83.653 120.681 84.9455 120.681H615.908H1146.87C1148.16 120.681 1149.21 121.729 1149.21 123.022C1149.21 124.314 1148.16 125.362 1146.87 125.362H84.9455C83.653 125.362 82.6053 124.314 82.6053 123.022Z" fill="white"/>
<g filter="url(#filter0_ddd_110_9796)">
<path d="M85.986 123.022C85.986 121.702 87.0558 120.632 88.3754 120.632H156.986H225.597C226.916 120.632 227.986 121.702 227.986 123.022C227.986 124.341 226.916 125.411 225.597 125.411H88.3754C87.0558 125.411 85.986 124.341 85.986 123.022Z" fill="white"/>
</g>
<g filter="url(#filter1_ddd_110_9796)">
<path d="M413.73 123.022C413.73 121.702 414.8 120.632 416.12 120.632H475.73H535.341C536.661 120.632 537.73 121.702 537.73 123.022C537.73 124.341 536.661 125.411 535.341 125.411H416.12C414.8 125.411 413.73 124.341 413.73 123.022Z" fill="white"/>
</g>
<g filter="url(#filter2_ddd_110_9796)">
<path d="M725.424 123.022C725.424 121.702 726.494 120.632 727.813 120.632H785.424H843.035C844.354 120.632 845.424 121.702 845.424 123.022C845.424 124.341 844.354 125.411 843.035 125.411H727.813C726.494 125.411 725.424 124.341 725.424 123.022Z" fill="white"/>
</g>
<g filter="url(#filter3_ddd_110_9796)">
<path d="M1017.13 123.022C1017.13 121.702 1018.2 120.632 1019.52 120.632H1081.63H1143.74C1145.06 120.632 1146.13 121.702 1146.13 123.022C1146.13 124.341 1145.06 125.411 1143.74 125.411H1019.52C1018.2 125.411 1017.13 124.341 1017.13 123.022Z" fill="white"/>
</g>
<g filter="url(#filter4_ddd_110_9796)">
<path d="M244.627 123.022C244.627 121.702 245.697 120.632 247.016 120.632H315.127H383.238C384.557 120.632 385.627 121.702 385.627 123.022C385.627 124.341 384.557 125.411 383.238 125.411H247.016C245.697 125.411 244.627 124.341 244.627 123.022Z" fill="#F15E22"/>
</g>
<g filter="url(#filter5_ddd_110_9796)">
<path d="M244.627 123.022C244.627 121.702 245.697 120.632 247.016 120.632H315.127H383.238C384.557 120.632 385.627 121.702 385.627 123.022C385.627 124.341 384.557 125.411 383.238 125.411H247.016C245.697 125.411 244.627 124.341 244.627 123.022Z" fill="#F15E22"/>
</g>
<g filter="url(#filter6_ddd_110_9796)">
<path d="M566.486 123.022C566.486 121.702 567.556 120.632 568.875 120.632H629.486H690.097C691.416 120.632 692.486 121.702 692.486 123.022C692.486 124.341 691.416 125.411 690.097 125.411H568.875C567.556 125.411 566.486 124.341 566.486 123.022Z" fill="#F15E22"/>
</g>
<g filter="url(#filter7_ddd_110_9796)">
<path d="M566.486 123.022C566.486 121.702 567.556 120.632 568.875 120.632H629.486H690.097C691.416 120.632 692.486 121.702 692.486 123.022C692.486 124.341 691.416 125.411 690.097 125.411H568.875C567.556 125.411 566.486 124.341 566.486 123.022Z" fill="#F15E22"/>
</g>
<g filter="url(#filter8_ddd_110_9796)">
<path d="M868.945 123.022C868.945 121.702 870.015 120.632 871.334 120.632H930.945H990.556C991.875 120.632 992.945 121.702 992.945 123.022C992.945 124.341 991.875 125.411 990.556 125.411H871.334C870.015 125.411 868.945 124.341 868.945 123.022Z" fill="#F15E22"/>
</g>
<g filter="url(#filter9_ddd_110_9796)">
<path d="M868.945 123.022C868.945 121.702 870.015 120.632 871.334 120.632H930.945H990.556C991.875 120.632 992.945 121.702 992.945 123.022C992.945 124.341 991.875 125.411 990.556 125.411H871.334C870.015 125.411 868.945 124.341 868.945 123.022Z" fill="#F15E22"/>
</g>
<path d="M260.311 93.8323V74.5823C260.311 73.9573 260.52 73.4364 260.936 73.0198C261.395 72.5614 261.936 72.3323 262.561 72.3323H268.749C272.041 72.3323 274.499 73.2073 276.124 74.9573C277.749 76.7906 278.561 79.4989 278.561 83.0823C278.561 84.9989 278.27 86.7281 277.686 88.2698C277.02 89.8531 276.145 91.0614 275.061 91.8948C274.145 92.6031 273.166 93.1031 272.124 93.3948C271.124 93.6864 269.603 93.8323 267.561 93.8323H260.311ZM264.624 89.9573H268.186C270.228 89.9573 271.728 89.4156 272.686 88.3323C273.603 87.3323 274.061 85.5823 274.061 83.0823C274.061 80.6656 273.624 78.8948 272.749 77.7698C271.916 76.6448 270.582 76.0823 268.749 76.0823H264.624V89.9573ZM279.811 77.2073H282.061C282.645 77.2073 283.145 77.4156 283.561 77.8323C283.978 78.2489 284.186 78.7489 284.186 79.3323V93.8323H279.811V77.2073ZM279.811 72.3323H282.061C282.645 72.3323 283.145 72.5406 283.561 72.9573C283.978 73.3739 284.186 73.8739 284.186 74.4573V75.7698H279.811V72.3323ZM283.999 88.3323H288.249C288.291 89.1656 288.603 89.7906 289.186 90.2073C289.811 90.6239 290.645 90.8323 291.686 90.8323C292.436 90.8323 293.082 90.6864 293.624 90.3948C294.124 90.1031 294.374 89.7073 294.374 89.2073C294.374 88.4573 293.499 87.8948 291.749 87.5198C290.999 87.3948 290.436 87.2698 290.061 87.1448C287.853 86.6031 286.374 85.9573 285.624 85.2073C284.791 84.4573 284.374 83.4573 284.374 82.2073C284.374 80.6239 284.978 79.3114 286.186 78.2698C287.436 77.3114 289.061 76.8323 291.061 76.8323C293.228 76.8323 294.957 77.3114 296.249 78.2698C297.457 79.3114 298.103 80.6656 298.186 82.3323H295.499C294.707 82.3323 294.103 81.9781 293.686 81.2698C293.52 81.1031 293.353 80.9364 293.186 80.7698C292.686 80.3948 291.999 80.2073 291.124 80.2073C290.291 80.2073 289.666 80.3323 289.249 80.5823C288.874 80.8323 288.686 81.2073 288.686 81.7073C288.686 82.3739 289.77 82.9364 291.936 83.3948C292.186 83.4781 292.395 83.5406 292.561 83.5823C292.77 83.6239 292.957 83.6448 293.124 83.6448C295.249 84.1864 296.728 84.8114 297.561 85.5198C298.353 86.2698 298.749 87.2698 298.749 88.5198C298.749 90.3531 298.082 91.7698 296.749 92.7698C295.499 93.6864 293.624 94.1448 291.124 94.1448C288.749 94.1448 286.978 93.6656 285.811 92.7073C284.603 91.7489 283.999 90.3531 283.999 88.5198V88.3323ZM310.999 88.7073H314.124C313.666 90.4573 312.791 91.7906 311.499 92.7073C310.207 93.6656 308.582 94.1448 306.624 94.1448C304.249 94.1448 302.395 93.3739 301.061 91.8323C299.728 90.3323 299.061 88.1864 299.061 85.3948C299.061 82.7281 299.707 80.6448 300.999 79.1448C302.332 77.6031 304.186 76.8323 306.561 76.8323C309.061 76.8323 310.999 77.5823 312.374 79.0823C313.124 79.9989 313.666 81.0614 313.999 82.2698H309.624C309.416 81.8531 309.207 81.5406 308.999 81.3323C308.457 80.7489 307.686 80.4573 306.686 80.4573C305.77 80.4573 305.02 80.7489 304.436 81.3323C303.686 82.1656 303.311 83.5406 303.311 85.4573C303.311 87.3739 303.686 88.7281 304.436 89.5198C304.978 90.1864 305.791 90.5198 306.874 90.5198C307.582 90.5198 308.186 90.3739 308.686 90.0823C308.811 90.0406 308.916 89.9781 308.999 89.8948C309.124 89.7698 309.249 89.6448 309.374 89.5198C309.457 89.3948 309.624 89.2281 309.874 89.0198C310.124 88.8114 310.499 88.7073 310.999 88.7073ZM316.874 92.3323C315.999 91.5823 315.374 90.5823 314.999 89.3323C314.624 88.0406 314.436 86.7073 314.436 85.3323C314.436 84.2073 314.582 83.0823 314.874 81.9573C315.207 80.8323 315.707 79.8948 316.374 79.1448C317.457 77.8948 318.853 77.1656 320.561 76.9573C322.27 76.7073 323.811 76.8323 325.186 77.3323C326.77 77.9573 327.936 79.0406 328.686 80.5823C329.395 81.9573 329.749 83.5614 329.749 85.3948C329.749 86.7281 329.603 87.8739 329.311 88.8323C329.02 89.7906 328.645 90.6031 328.186 91.2698C327.186 92.6448 325.916 93.4989 324.374 93.8323C322.999 94.2073 321.603 94.2281 320.186 93.8948C318.811 93.6031 317.707 93.0823 316.874 92.3323ZM319.874 81.3323C318.999 82.2906 318.603 83.7281 318.686 85.6448C318.77 87.5198 319.124 88.8323 319.749 89.5823C319.999 89.9156 320.436 90.2073 321.061 90.4573C321.686 90.6656 322.311 90.6864 322.936 90.5198C323.603 90.3114 324.186 89.8323 324.686 89.0823C325.186 88.3323 325.457 87.1239 325.499 85.4573C325.499 83.9573 325.249 82.8323 324.749 82.0823C324.291 81.3323 323.749 80.8531 323.124 80.6448C322.499 80.4364 321.874 80.4364 321.249 80.6448C320.624 80.8114 320.166 81.0406 319.874 81.3323ZM340.686 93.8323H336.249L330.436 77.2073H335.061L338.374 88.8948L341.311 78.7073C341.645 77.7073 342.311 77.2073 343.311 77.2073H346.561L340.686 93.8323ZM358.874 88.7073H361.999C361.541 90.4573 360.666 91.7906 359.374 92.7073C358.082 93.6656 356.457 94.1448 354.499 94.1448C352.124 94.1448 350.27 93.3739 348.936 91.8323C347.603 90.3323 346.936 88.1864 346.936 85.3948C346.936 82.7281 347.582 80.6448 348.874 79.1448C350.207 77.6031 352.061 76.8323 354.436 76.8323C356.936 76.8323 358.874 77.5823 360.249 79.0823C361.582 80.6239 362.249 82.7698 362.249 85.5198C362.249 85.6864 362.249 85.8323 362.249 85.9573C362.249 86.0823 362.249 86.1656 362.249 86.2073C362.249 86.4156 362.228 86.5614 362.186 86.6448H351.374C351.416 87.9364 351.728 88.8948 352.311 89.5198C352.853 90.1864 353.666 90.5198 354.749 90.5198C355.457 90.5198 356.061 90.3739 356.561 90.0823C356.686 90.0406 356.791 89.9781 356.874 89.8948C356.999 89.7698 357.124 89.6448 357.249 89.5198C357.291 89.3948 357.436 89.2281 357.686 89.0198C357.978 88.8114 358.374 88.7073 358.874 88.7073ZM351.374 83.8323H357.749C357.666 82.7073 357.374 81.8739 356.874 81.3323C356.332 80.7489 355.561 80.4573 354.561 80.4573C353.645 80.4573 352.895 80.7489 352.311 81.3323C351.728 81.9156 351.416 82.7489 351.374 83.8323ZM362.936 93.8323V85.7698C362.936 84.1448 363.166 82.7906 363.624 81.7073C364.124 80.5823 364.791 79.6864 365.624 79.0198C366.416 78.3948 367.332 77.9364 368.374 77.6448C369.457 77.3531 370.561 77.2073 371.686 77.2073C371.77 77.2073 371.874 77.2073 371.999 77.2073C372.124 77.2073 372.228 77.2073 372.311 77.2073V81.6448H370.874C369.666 81.6448 368.77 81.9364 368.186 82.5198C367.603 83.1031 367.311 84.0198 367.311 85.2698V93.8323H362.936Z" fill="#F15E22"/>
<path d="M589.904 93.8323V74.5823C589.904 73.9573 590.112 73.4364 590.529 73.0198C590.987 72.5614 591.529 72.3114 592.154 72.2698H596.467L600.717 88.7073L604.967 72.2698H611.529V93.8323H607.404V76.4573L603.029 93.8323H598.467L594.029 76.4573V93.8323H589.904ZM622.217 85.4573C621.633 85.7489 620.821 86.0198 619.779 86.2698C618.821 86.4781 618.342 86.5823 618.342 86.5823C617.592 86.7906 617.05 87.0614 616.717 87.3948C616.425 87.8531 616.279 88.3114 616.279 88.7698C616.279 89.3948 616.467 89.8948 616.842 90.2698C617.217 90.6031 617.758 90.7698 618.467 90.7698C619.633 90.7698 620.55 90.4364 621.217 89.7698C621.883 89.1031 622.217 88.1864 622.217 87.0198V85.4573ZM623.217 93.1448C622.342 93.6031 621.404 93.8739 620.404 93.9573C619.446 94.0823 618.592 94.1448 617.842 94.1448C616.342 94.1448 615.029 93.7489 613.904 92.9573C612.779 92.1239 612.217 90.7698 612.217 88.8948C612.217 87.1448 612.717 85.8948 613.717 85.1448C614.758 84.3948 616.071 83.8948 617.654 83.6448C617.862 83.6448 618.112 83.6239 618.404 83.5823C618.696 83.4989 619.029 83.4364 619.404 83.3948C621.237 83.1448 622.154 82.6031 622.154 81.7698C622.154 81.1448 621.821 80.7489 621.154 80.5823C620.529 80.3739 619.946 80.2698 619.404 80.2698C618.821 80.2698 618.3 80.3531 617.842 80.5198C617.383 80.6864 617.05 80.9989 616.842 81.4573H612.654C612.821 80.1656 613.404 79.1031 614.404 78.2698C615.529 77.3114 617.133 76.8323 619.217 76.8323C621.55 76.8323 623.3 77.2281 624.467 78.0198C625.675 78.8531 626.279 80.0198 626.279 81.5198V87.2073C626.279 88.8739 625.967 90.1864 625.342 91.1448C624.758 92.0614 624.05 92.7281 623.217 93.1448ZM626.529 88.3323H630.779C630.821 89.1656 631.133 89.7906 631.717 90.2073C632.342 90.6239 633.175 90.8323 634.217 90.8323C634.967 90.8323 635.612 90.6864 636.154 90.3948C636.654 90.1031 636.904 89.7073 636.904 89.2073C636.904 88.4573 636.029 87.8948 634.279 87.5198C633.529 87.3948 632.967 87.2698 632.592 87.1448C630.383 86.6031 628.904 85.9573 628.154 85.2073C627.321 84.4573 626.904 83.4573 626.904 82.2073C626.904 80.6239 627.508 79.3114 628.717 78.2698C629.967 77.3114 631.592 76.8323 633.592 76.8323C635.758 76.8323 637.487 77.3114 638.779 78.2698C639.987 79.3114 640.633 80.6656 640.717 82.3323H638.029C637.237 82.3323 636.633 81.9781 636.217 81.2698C636.05 81.1031 635.883 80.9364 635.717 80.7698C635.217 80.3948 634.529 80.2073 633.654 80.2073C632.821 80.2073 632.196 80.3323 631.779 80.5823C631.404 80.8323 631.217 81.2073 631.217 81.7073C631.217 82.3739 632.3 82.9364 634.467 83.3948C634.717 83.4781 634.925 83.5406 635.092 83.5823C635.3 83.6239 635.487 83.6448 635.654 83.6448C637.779 84.1864 639.258 84.8114 640.092 85.5198C640.883 86.2698 641.279 87.2698 641.279 88.5198C641.279 90.3531 640.612 91.7698 639.279 92.7698C638.029 93.6864 636.154 94.1448 633.654 94.1448C631.279 94.1448 629.508 93.6656 628.342 92.7073C627.133 91.7489 626.529 90.3531 626.529 88.5198V88.3323ZM649.342 93.8323C647.967 93.9156 646.467 93.8948 644.842 93.7698C643.258 93.6448 642.467 92.6239 642.467 90.7073V72.3323H644.717C645.258 72.3323 645.737 72.5406 646.154 72.9573C646.571 73.3739 646.779 73.8739 646.779 74.4573V77.2698H649.342V78.1448C649.342 78.7698 649.133 79.2906 648.717 79.7073C648.3 80.0823 647.8 80.2698 647.217 80.2698H646.779V89.5198C646.779 90.2281 647.196 90.5823 648.029 90.5823H649.342V93.8323ZM661.279 88.7073H664.404C663.946 90.4573 663.071 91.7906 661.779 92.7073C660.487 93.6656 658.862 94.1448 656.904 94.1448C654.529 94.1448 652.675 93.3739 651.342 91.8323C650.008 90.3323 649.342 88.1864 649.342 85.3948C649.342 82.7281 649.987 80.6448 651.279 79.1448C652.612 77.6031 654.467 76.8323 656.842 76.8323C659.342 76.8323 661.279 77.5823 662.654 79.0823C663.987 80.6239 664.654 82.7698 664.654 85.5198C664.654 85.6864 664.654 85.8323 664.654 85.9573C664.654 86.0823 664.654 86.1656 664.654 86.2073C664.654 86.4156 664.633 86.5614 664.592 86.6448H653.779C653.821 87.9364 654.133 88.8948 654.717 89.5198C655.258 90.1864 656.071 90.5198 657.154 90.5198C657.862 90.5198 658.467 90.3739 658.967 90.0823C659.092 90.0406 659.196 89.9781 659.279 89.8948C659.404 89.7698 659.529 89.6448 659.654 89.5198C659.696 89.3948 659.842 89.2281 660.092 89.0198C660.383 88.8114 660.779 88.7073 661.279 88.7073ZM653.779 83.8323H660.154C660.071 82.7073 659.779 81.8739 659.279 81.3323C658.737 80.7489 657.967 80.4573 656.967 80.4573C656.05 80.4573 655.3 80.7489 654.717 81.3323C654.133 81.9156 653.821 82.7489 653.779 83.8323ZM665.342 93.8323V85.7698C665.342 84.1448 665.571 82.7906 666.029 81.7073C666.529 80.5823 667.196 79.6864 668.029 79.0198C668.821 78.3948 669.737 77.9364 670.779 77.6448C671.862 77.3531 672.967 77.2073 674.092 77.2073C674.175 77.2073 674.279 77.2073 674.404 77.2073C674.529 77.2073 674.633 77.2073 674.717 77.2073V81.6448H673.279C672.071 81.6448 671.175 81.9364 670.592 82.5198C670.008 83.1031 669.717 84.0198 669.717 85.2698V93.8323H665.342Z" fill="#F15E22"/>
<path d="M913.789 90.2698C913.039 91.3531 912.143 92.1448 911.101 92.6448C910.018 93.1031 908.831 93.3323 907.539 93.3323C904.456 93.3323 902.018 92.3114 900.226 90.2698C898.393 88.2698 897.476 85.5198 897.476 82.0198C897.476 78.5614 898.372 75.8323 900.164 73.8323C902.039 71.7489 904.518 70.7073 907.601 70.7073C910.268 70.7073 912.476 71.3531 914.226 72.6448C915.935 74.0198 916.956 75.8114 917.289 78.0198H914.289C913.414 78.0198 912.768 77.6239 912.351 76.8323C912.06 76.3323 911.643 75.8739 911.101 75.4573C910.268 74.8739 909.164 74.5823 907.789 74.5823C905.997 74.5823 904.581 75.2281 903.539 76.5198C902.497 77.8948 901.976 79.7281 901.976 82.0198C901.976 84.3531 902.518 86.1864 903.601 87.5198C904.643 88.8114 906.122 89.4573 908.039 89.4573C909.456 89.4573 910.622 89.0614 911.539 88.2698C912.456 87.4364 913.039 86.2906 913.289 84.8323H910.664C910.039 84.8323 909.497 84.6239 909.039 84.2073C908.622 83.7489 908.414 83.2073 908.414 82.5823V81.1448H917.351V92.8323H916.164C914.997 92.8323 914.268 92.2489 913.976 91.0823L913.789 90.2698ZM932.789 76.2073V85.9573C932.789 88.9156 932.018 90.8531 930.476 91.7698C928.935 92.6864 927.247 93.1448 925.414 93.1448C923.622 93.0614 921.976 92.5614 920.476 91.6448C919.018 90.7281 918.289 88.8323 918.289 85.9573V76.2073H922.664V86.8323C922.664 87.8323 922.956 88.5614 923.539 89.0198C924.122 89.4781 924.789 89.7073 925.539 89.7073C926.289 89.7073 926.956 89.4781 927.539 89.0198C928.164 88.5614 928.476 87.8323 928.476 86.8323V78.3323C928.476 77.7489 928.664 77.2489 929.039 76.8323C929.456 76.4156 929.976 76.2073 930.601 76.2073H932.789ZM933.851 76.2073H936.101C936.685 76.2073 937.185 76.4156 937.601 76.8323C938.018 77.2489 938.226 77.7489 938.226 78.3323V92.8323H933.851V76.2073ZM933.851 71.3323H936.101C936.685 71.3323 937.185 71.5406 937.601 71.9573C938.018 72.3739 938.226 72.8739 938.226 73.4573V74.7698H933.851V71.3323ZM949.414 71.2698H951.539C952.122 71.2698 952.622 71.4989 953.039 71.9573C953.456 72.3739 953.664 72.8531 953.664 73.3948V85.5823C953.664 88.5406 952.81 90.5406 951.101 91.5823C949.393 92.6239 947.539 93.1448 945.539 93.1448C944.456 93.1448 943.393 92.9781 942.351 92.6448C941.31 92.2698 940.476 91.6864 939.851 90.8948C938.643 89.3531 938.039 87.2489 938.039 84.5823C938.039 81.9573 938.643 79.8531 939.851 78.2698C941.101 76.6448 942.706 75.8323 944.664 75.8323C945.706 75.8323 946.622 76.0406 947.414 76.4573C948.247 76.9573 948.914 77.6031 949.414 78.3948V71.2698ZM942.289 84.3948C942.289 86.0614 942.601 87.3323 943.226 88.2073C943.851 89.0823 944.747 89.5198 945.914 89.5198C947.039 89.5198 947.914 89.0823 948.539 88.2073C949.122 87.3323 949.414 86.0614 949.414 84.3948C949.414 82.8948 949.101 81.7073 948.476 80.8323C947.81 79.9989 946.914 79.5823 945.789 79.5823C944.706 79.5823 943.851 80.0198 943.226 80.8948C942.601 81.7281 942.289 82.8948 942.289 84.3948ZM965.976 87.7073H969.101C968.643 89.4573 967.768 90.7906 966.476 91.7073C965.185 92.6656 963.56 93.1448 961.601 93.1448C959.226 93.1448 957.372 92.3739 956.039 90.8323C954.706 89.3323 954.039 87.1864 954.039 84.3948C954.039 81.7281 954.685 79.6448 955.976 78.1448C957.31 76.6031 959.164 75.8323 961.539 75.8323C964.039 75.8323 965.976 76.5823 967.351 78.0823C968.685 79.6239 969.351 81.7698 969.351 84.5198C969.351 84.6864 969.351 84.8323 969.351 84.9573C969.351 85.0823 969.351 85.1656 969.351 85.2073C969.351 85.4156 969.331 85.5614 969.289 85.6448H958.476C958.518 86.9364 958.831 87.8948 959.414 88.5198C959.956 89.1864 960.768 89.5198 961.851 89.5198C962.56 89.5198 963.164 89.3739 963.664 89.0823C963.789 89.0406 963.893 88.9781 963.976 88.8948C964.101 88.7698 964.226 88.6448 964.351 88.5198C964.393 88.3948 964.539 88.2281 964.789 88.0198C965.081 87.8114 965.476 87.7073 965.976 87.7073ZM958.476 82.8323H964.851C964.768 81.7073 964.476 80.8739 963.976 80.3323C963.435 79.7489 962.664 79.4573 961.664 79.4573C960.747 79.4573 959.997 79.7489 959.414 80.3323C958.831 80.9156 958.518 81.7489 958.476 82.8323Z" fill="#F15E22"/>
<path d="M104.785 175.832L98.5974 154.332H103.16L106.847 169.52L109.972 154.332H114.722L117.785 169.52L121.097 155.957C121.347 154.874 122.077 154.332 123.285 154.332H126.035L119.91 175.832H115.66L112.347 159.332L108.972 175.832H104.785ZM138.91 170.707H142.035C141.577 172.457 140.702 173.791 139.41 174.707C138.118 175.666 136.493 176.145 134.535 176.145C132.16 176.145 130.306 175.374 128.972 173.832C127.639 172.332 126.972 170.186 126.972 167.395C126.972 164.728 127.618 162.645 128.91 161.145C130.243 159.603 132.097 158.832 134.472 158.832C136.972 158.832 138.91 159.582 140.285 161.082C141.618 162.624 142.285 164.77 142.285 167.52C142.285 167.686 142.285 167.832 142.285 167.957C142.285 168.082 142.285 168.166 142.285 168.207C142.285 168.416 142.264 168.561 142.222 168.645H131.41C131.452 169.936 131.764 170.895 132.347 171.52C132.889 172.186 133.702 172.52 134.785 172.52C135.493 172.52 136.097 172.374 136.597 172.082C136.722 172.041 136.827 171.978 136.91 171.895C137.035 171.77 137.16 171.645 137.285 171.52C137.327 171.395 137.472 171.228 137.722 171.02C138.014 170.811 138.41 170.707 138.91 170.707ZM131.41 165.832H137.785C137.702 164.707 137.41 163.874 136.91 163.332C136.368 162.749 135.597 162.457 134.597 162.457C133.681 162.457 132.931 162.749 132.347 163.332C131.764 163.916 131.452 164.749 131.41 165.832ZM143.16 154.332H145.41C145.993 154.332 146.493 154.541 146.91 154.957C147.327 155.332 147.535 155.811 147.535 156.395V175.832H143.16V154.332ZM159.847 170.707H162.972C162.514 172.457 161.639 173.791 160.347 174.707C159.056 175.666 157.431 176.145 155.472 176.145C153.097 176.145 151.243 175.374 149.91 173.832C148.577 172.332 147.91 170.186 147.91 167.395C147.91 164.728 148.556 162.645 149.847 161.145C151.181 159.603 153.035 158.832 155.41 158.832C157.91 158.832 159.847 159.582 161.222 161.082C161.972 161.999 162.514 163.061 162.847 164.27H158.472C158.264 163.853 158.056 163.541 157.847 163.332C157.306 162.749 156.535 162.457 155.535 162.457C154.618 162.457 153.868 162.749 153.285 163.332C152.535 164.166 152.16 165.541 152.16 167.457C152.16 169.374 152.535 170.728 153.285 171.52C153.827 172.186 154.639 172.52 155.722 172.52C156.431 172.52 157.035 172.374 157.535 172.082C157.66 172.041 157.764 171.978 157.847 171.895C157.972 171.77 158.097 171.645 158.222 171.52C158.306 171.395 158.472 171.228 158.722 171.02C158.972 170.811 159.347 170.707 159.847 170.707ZM165.722 174.332C164.847 173.582 164.222 172.582 163.847 171.332C163.472 170.041 163.285 168.707 163.285 167.332C163.285 166.207 163.431 165.082 163.722 163.957C164.056 162.832 164.556 161.895 165.222 161.145C166.306 159.895 167.702 159.166 169.41 158.957C171.118 158.707 172.66 158.832 174.035 159.332C175.618 159.957 176.785 161.041 177.535 162.582C178.243 163.957 178.597 165.561 178.597 167.395C178.597 168.728 178.452 169.874 178.16 170.832C177.868 171.791 177.493 172.603 177.035 173.27C176.035 174.645 174.764 175.499 173.222 175.832C171.847 176.207 170.452 176.228 169.035 175.895C167.66 175.603 166.556 175.082 165.722 174.332ZM168.722 163.332C167.847 164.291 167.452 165.728 167.535 167.645C167.618 169.52 167.972 170.832 168.597 171.582C168.847 171.916 169.285 172.207 169.91 172.457C170.535 172.666 171.16 172.686 171.785 172.52C172.452 172.311 173.035 171.832 173.535 171.082C174.035 170.332 174.306 169.124 174.347 167.457C174.347 165.957 174.097 164.832 173.597 164.082C173.139 163.332 172.597 162.853 171.972 162.645C171.347 162.436 170.722 162.436 170.097 162.645C169.472 162.811 169.014 163.041 168.722 163.332ZM193.785 175.832H189.472V166.082V165.207C189.472 164.207 189.16 163.478 188.535 163.02C187.952 162.561 187.285 162.332 186.535 162.332C185.785 162.332 185.118 162.561 184.535 163.02C183.952 163.478 183.66 164.207 183.66 165.207V175.832H179.285V166.082C179.285 163.249 180.014 161.353 181.472 160.395C182.972 159.436 184.618 158.916 186.41 158.832C187.368 158.832 188.306 158.936 189.222 159.145C190.139 159.353 190.972 159.77 191.722 160.395C192.347 159.853 193.077 159.478 193.91 159.27C194.785 159.02 195.681 158.874 196.597 158.832C198.431 158.832 200.118 159.311 201.66 160.27C203.202 161.228 203.972 163.166 203.972 166.082V175.832H201.785C201.16 175.832 200.639 175.645 200.222 175.27C199.847 174.853 199.66 174.332 199.66 173.707V165.207C199.66 164.207 199.347 163.478 198.722 163.02C198.139 162.561 197.472 162.332 196.722 162.332C195.972 162.332 195.285 162.561 194.66 163.02C194.077 163.478 193.785 164.207 193.785 165.207V166.082V175.832ZM216.722 170.707H219.847C219.389 172.457 218.514 173.791 217.222 174.707C215.931 175.666 214.306 176.145 212.347 176.145C209.972 176.145 208.118 175.374 206.785 173.832C205.452 172.332 204.785 170.186 204.785 167.395C204.785 164.728 205.431 162.645 206.722 161.145C208.056 159.603 209.91 158.832 212.285 158.832C214.785 158.832 216.722 159.582 218.097 161.082C219.431 162.624 220.097 164.77 220.097 167.52C220.097 167.686 220.097 167.832 220.097 167.957C220.097 168.082 220.097 168.166 220.097 168.207C220.097 168.416 220.077 168.561 220.035 168.645H209.222C209.264 169.936 209.577 170.895 210.16 171.52C210.702 172.186 211.514 172.52 212.597 172.52C213.306 172.52 213.91 172.374 214.41 172.082C214.535 172.041 214.639 171.978 214.722 171.895C214.847 171.77 214.972 171.645 215.097 171.52C215.139 171.395 215.285 171.228 215.535 171.02C215.827 170.811 216.222 170.707 216.722 170.707ZM209.222 165.832H215.597C215.514 164.707 215.222 163.874 214.722 163.332C214.181 162.749 213.41 162.457 212.41 162.457C211.493 162.457 210.743 162.749 210.16 163.332C209.577 163.916 209.264 164.749 209.222 165.832Z" fill="white"/>
<path d="M757.643 168.145V175.832H753.205V156.582C753.205 155.957 753.414 155.436 753.83 155.02C754.289 154.561 754.83 154.332 755.455 154.332H762.768C765.059 154.332 766.768 154.916 767.893 156.082C769.059 157.249 769.643 158.978 769.643 161.27C769.643 163.436 769.08 165.145 767.955 166.395C766.83 167.561 765.205 168.145 763.08 168.145H757.643ZM757.643 164.27H761.955C763.122 164.27 763.955 164.02 764.455 163.52C764.997 163.061 765.268 162.27 765.268 161.145C765.268 160.186 765.018 159.416 764.518 158.832C763.934 158.332 763.164 158.082 762.205 158.082H757.643V164.27ZM772.518 174.332C771.643 173.582 771.018 172.582 770.643 171.332C770.268 170.041 770.08 168.707 770.08 167.332C770.08 166.207 770.226 165.082 770.518 163.957C770.851 162.832 771.351 161.895 772.018 161.145C773.101 159.895 774.497 159.166 776.205 158.957C777.914 158.707 779.455 158.832 780.83 159.332C782.414 159.957 783.58 161.041 784.33 162.582C785.039 163.957 785.393 165.561 785.393 167.395C785.393 168.728 785.247 169.874 784.955 170.832C784.664 171.791 784.289 172.603 783.83 173.27C782.83 174.645 781.559 175.499 780.018 175.832C778.643 176.207 777.247 176.228 775.83 175.895C774.455 175.603 773.351 175.082 772.518 174.332ZM775.518 163.332C774.643 164.291 774.247 165.728 774.33 167.645C774.414 169.52 774.768 170.832 775.393 171.582C775.643 171.916 776.08 172.207 776.705 172.457C777.33 172.666 777.955 172.686 778.58 172.52C779.247 172.311 779.83 171.832 780.33 171.082C780.83 170.332 781.101 169.124 781.143 167.457C781.143 165.957 780.893 164.832 780.393 164.082C779.934 163.332 779.393 162.853 778.768 162.645C778.143 162.436 777.518 162.436 776.893 162.645C776.268 162.811 775.809 163.041 775.518 163.332ZM786.268 154.332H788.518C789.101 154.332 789.601 154.541 790.018 154.957C790.434 155.332 790.643 155.811 790.643 156.395V175.832H786.268V154.332ZM791.768 159.207H794.018C794.601 159.207 795.101 159.416 795.518 159.832C795.934 160.249 796.143 160.749 796.143 161.332V175.832H791.768V159.207ZM791.768 154.332H794.018C794.601 154.332 795.101 154.541 795.518 154.957C795.934 155.374 796.143 155.874 796.143 156.457V157.77H791.768V154.332ZM795.955 170.332H800.205C800.247 171.166 800.559 171.791 801.143 172.207C801.768 172.624 802.601 172.832 803.643 172.832C804.393 172.832 805.039 172.686 805.58 172.395C806.08 172.103 806.33 171.707 806.33 171.207C806.33 170.457 805.455 169.895 803.705 169.52C802.955 169.395 802.393 169.27 802.018 169.145C799.809 168.603 798.33 167.957 797.58 167.207C796.747 166.457 796.33 165.457 796.33 164.207C796.33 162.624 796.934 161.311 798.143 160.27C799.393 159.311 801.018 158.832 803.018 158.832C805.184 158.832 806.914 159.311 808.205 160.27C809.414 161.311 810.059 162.666 810.143 164.332H807.455C806.664 164.332 806.059 163.978 805.643 163.27C805.476 163.103 805.309 162.936 805.143 162.77C804.643 162.395 803.955 162.207 803.08 162.207C802.247 162.207 801.622 162.332 801.205 162.582C800.83 162.832 800.643 163.207 800.643 163.707C800.643 164.374 801.726 164.936 803.893 165.395C804.143 165.478 804.351 165.541 804.518 165.582C804.726 165.624 804.914 165.645 805.08 165.645C807.205 166.186 808.684 166.811 809.518 167.52C810.309 168.27 810.705 169.27 810.705 170.52C810.705 172.353 810.039 173.77 808.705 174.77C807.455 175.686 805.58 176.145 803.08 176.145C800.705 176.145 798.934 175.666 797.768 174.707C796.559 173.749 795.955 172.353 795.955 170.52V170.332ZM821.83 163.895C821.205 163.02 820.351 162.582 819.268 162.582C818.101 162.582 817.205 162.999 816.58 163.832C815.955 164.666 815.643 165.811 815.643 167.27V175.832H811.393V154.332H813.518C814.101 154.332 814.601 154.541 815.018 154.957C815.434 155.374 815.643 155.874 815.643 156.457V161.395C816.393 160.145 817.455 159.353 818.83 159.02C820.205 158.686 821.518 158.77 822.768 159.27C823.934 159.77 824.914 160.561 825.705 161.645C826.497 162.728 826.893 164.228 826.893 166.145V175.832H822.705V167.207C822.705 166.582 822.643 166.02 822.518 165.52C822.434 164.978 822.205 164.436 821.83 163.895Z" fill="white"/>
<path d="M1043.35 168.486C1042.6 169.57 1041.71 170.361 1040.66 170.861C1039.58 171.32 1038.39 171.549 1037.1 171.549C1034.02 171.549 1031.58 170.528 1029.79 168.486C1027.96 166.486 1027.04 163.736 1027.04 160.236C1027.04 156.778 1027.94 154.049 1029.73 152.049C1031.6 149.966 1034.08 148.924 1037.16 148.924C1039.83 148.924 1042.04 149.57 1043.79 150.861C1045.5 152.236 1046.52 154.028 1046.85 156.236H1043.85C1042.98 156.236 1042.33 155.841 1041.91 155.049C1041.62 154.549 1041.21 154.091 1040.66 153.674C1039.83 153.091 1038.73 152.799 1037.35 152.799C1035.56 152.799 1034.14 153.445 1033.1 154.736C1032.06 156.111 1031.54 157.945 1031.54 160.236C1031.54 162.57 1032.08 164.403 1033.16 165.736C1034.21 167.028 1035.69 167.674 1037.6 167.674C1039.02 167.674 1040.19 167.278 1041.1 166.486C1042.02 165.653 1042.6 164.507 1042.85 163.049H1040.23C1039.6 163.049 1039.06 162.841 1038.6 162.424C1038.19 161.966 1037.98 161.424 1037.98 160.799V159.361H1046.91V171.049H1045.73C1044.56 171.049 1043.83 170.466 1043.54 169.299L1043.35 168.486ZM1047.85 171.049V162.986C1047.85 161.361 1048.08 160.007 1048.54 158.924C1049.04 157.799 1049.71 156.903 1050.54 156.236C1051.33 155.611 1052.25 155.153 1053.29 154.861C1054.37 154.57 1055.48 154.424 1056.6 154.424C1056.69 154.424 1056.79 154.424 1056.91 154.424C1057.04 154.424 1057.14 154.424 1057.23 154.424V158.861H1055.79C1054.58 158.861 1053.69 159.153 1053.1 159.736C1052.52 160.32 1052.23 161.236 1052.23 162.486V171.049H1047.85ZM1067.29 162.674C1066.71 162.966 1065.89 163.236 1064.85 163.486C1063.89 163.695 1063.41 163.799 1063.41 163.799C1062.66 164.007 1062.12 164.278 1061.79 164.611C1061.5 165.07 1061.35 165.528 1061.35 165.986C1061.35 166.611 1061.54 167.111 1061.91 167.486C1062.29 167.82 1062.83 167.986 1063.54 167.986C1064.71 167.986 1065.62 167.653 1066.29 166.986C1066.96 166.32 1067.29 165.403 1067.29 164.236V162.674ZM1068.29 170.361C1067.41 170.82 1066.48 171.091 1065.48 171.174C1064.52 171.299 1063.66 171.361 1062.91 171.361C1061.41 171.361 1060.1 170.966 1058.98 170.174C1057.85 169.341 1057.29 167.986 1057.29 166.111C1057.29 164.361 1057.79 163.111 1058.79 162.361C1059.83 161.611 1061.14 161.111 1062.73 160.861C1062.94 160.861 1063.19 160.841 1063.48 160.799C1063.77 160.716 1064.1 160.653 1064.48 160.611C1066.31 160.361 1067.23 159.82 1067.23 158.986C1067.23 158.361 1066.89 157.966 1066.23 157.799C1065.6 157.591 1065.02 157.486 1064.48 157.486C1063.89 157.486 1063.37 157.57 1062.91 157.736C1062.46 157.903 1062.12 158.216 1061.91 158.674H1057.73C1057.89 157.382 1058.48 156.32 1059.48 155.486C1060.6 154.528 1062.21 154.049 1064.29 154.049C1066.62 154.049 1068.37 154.445 1069.54 155.236C1070.75 156.07 1071.35 157.236 1071.35 158.736V164.424C1071.35 166.091 1071.04 167.403 1070.41 168.361C1069.83 169.278 1069.12 169.945 1068.29 170.361ZM1082.98 149.486H1085.1C1085.69 149.486 1086.19 149.716 1086.6 150.174C1087.02 150.591 1087.23 151.07 1087.23 151.611V163.799C1087.23 166.757 1086.37 168.757 1084.66 169.799C1082.96 170.841 1081.1 171.361 1079.1 171.361C1078.02 171.361 1076.96 171.195 1075.91 170.861C1074.87 170.486 1074.04 169.903 1073.41 169.111C1072.21 167.57 1071.6 165.466 1071.6 162.799C1071.6 160.174 1072.21 158.07 1073.41 156.486C1074.66 154.861 1076.27 154.049 1078.23 154.049C1079.27 154.049 1080.19 154.257 1080.98 154.674C1081.81 155.174 1082.48 155.82 1082.98 156.611V149.486ZM1075.85 162.611C1075.85 164.278 1076.16 165.549 1076.79 166.424C1077.41 167.299 1078.31 167.736 1079.48 167.736C1080.6 167.736 1081.48 167.299 1082.1 166.424C1082.69 165.549 1082.98 164.278 1082.98 162.611C1082.98 161.111 1082.66 159.924 1082.04 159.049C1081.37 158.216 1080.48 157.799 1079.35 157.799C1078.27 157.799 1077.41 158.236 1076.79 159.111C1076.16 159.945 1075.85 161.111 1075.85 162.611ZM1102.48 154.424V164.174C1102.48 167.132 1101.71 169.07 1100.16 169.986C1098.62 170.903 1096.94 171.361 1095.1 171.361C1093.31 171.278 1091.66 170.778 1090.16 169.861C1088.71 168.945 1087.98 167.049 1087.98 164.174V154.424H1092.35V165.049C1092.35 166.049 1092.64 166.778 1093.23 167.236C1093.81 167.695 1094.48 167.924 1095.23 167.924C1095.98 167.924 1096.64 167.695 1097.23 167.236C1097.85 166.778 1098.16 166.049 1098.16 165.049V156.549C1098.16 155.966 1098.35 155.466 1098.73 155.049C1099.14 154.632 1099.66 154.424 1100.29 154.424H1102.48ZM1112.79 162.674C1112.21 162.966 1111.39 163.236 1110.35 163.486C1109.39 163.695 1108.91 163.799 1108.91 163.799C1108.16 164.007 1107.62 164.278 1107.29 164.611C1107 165.07 1106.85 165.528 1106.85 165.986C1106.85 166.611 1107.04 167.111 1107.41 167.486C1107.79 167.82 1108.33 167.986 1109.04 167.986C1110.21 167.986 1111.12 167.653 1111.79 166.986C1112.46 166.32 1112.79 165.403 1112.79 164.236V162.674ZM1113.79 170.361C1112.91 170.82 1111.98 171.091 1110.98 171.174C1110.02 171.299 1109.16 171.361 1108.41 171.361C1106.91 171.361 1105.6 170.966 1104.48 170.174C1103.35 169.341 1102.79 167.986 1102.79 166.111C1102.79 164.361 1103.29 163.111 1104.29 162.361C1105.33 161.611 1106.64 161.111 1108.23 160.861C1108.44 160.861 1108.69 160.841 1108.98 160.799C1109.27 160.716 1109.6 160.653 1109.98 160.611C1111.81 160.361 1112.73 159.82 1112.73 158.986C1112.73 158.361 1112.39 157.966 1111.73 157.799C1111.1 157.591 1110.52 157.486 1109.98 157.486C1109.39 157.486 1108.87 157.57 1108.41 157.736C1107.96 157.903 1107.62 158.216 1107.41 158.674H1103.23C1103.39 157.382 1103.98 156.32 1104.98 155.486C1106.1 154.528 1107.71 154.049 1109.79 154.049C1112.12 154.049 1113.87 154.445 1115.04 155.236C1116.25 156.07 1116.85 157.236 1116.85 158.736V164.424C1116.85 166.091 1116.54 167.403 1115.91 168.361C1115.33 169.278 1114.62 169.945 1113.79 170.361ZM1124.85 171.049C1123.48 171.132 1121.98 171.111 1120.35 170.986C1118.77 170.861 1117.98 169.841 1117.98 167.924V149.549H1120.23C1120.77 149.549 1121.25 149.757 1121.66 150.174C1122.08 150.591 1122.29 151.091 1122.29 151.674V154.486H1124.85V155.361C1124.85 155.986 1124.64 156.507 1124.23 156.924C1123.81 157.299 1123.31 157.486 1122.73 157.486H1122.29V166.736C1122.29 167.445 1122.71 167.799 1123.54 167.799H1124.85V171.049ZM1136.79 165.924H1139.91C1139.46 167.674 1138.58 169.007 1137.29 169.924C1136 170.882 1134.37 171.361 1132.41 171.361C1130.04 171.361 1128.19 170.591 1126.85 169.049C1125.52 167.549 1124.85 165.403 1124.85 162.611C1124.85 159.945 1125.5 157.861 1126.79 156.361C1128.12 154.82 1129.98 154.049 1132.35 154.049C1134.85 154.049 1136.79 154.799 1138.16 156.299C1139.5 157.841 1140.16 159.986 1140.16 162.736C1140.16 162.903 1140.16 163.049 1140.16 163.174C1140.16 163.299 1140.16 163.382 1140.16 163.424C1140.16 163.632 1140.14 163.778 1140.1 163.861H1129.29C1129.33 165.153 1129.64 166.111 1130.23 166.736C1130.77 167.403 1131.58 167.736 1132.66 167.736C1133.37 167.736 1133.98 167.591 1134.48 167.299C1134.6 167.257 1134.71 167.195 1134.79 167.111C1134.91 166.986 1135.04 166.861 1135.16 166.736C1135.21 166.611 1135.35 166.445 1135.6 166.236C1135.89 166.028 1136.29 165.924 1136.79 165.924ZM1129.29 161.049H1135.66C1135.58 159.924 1135.29 159.091 1134.79 158.549C1134.25 157.966 1133.48 157.674 1132.48 157.674C1131.56 157.674 1130.81 157.966 1130.23 158.549C1129.64 159.132 1129.33 159.966 1129.29 161.049Z" fill="white"/>
<path d="M452.293 168.395C452.085 170.895 451.147 172.853 449.48 174.27C447.772 175.645 445.522 176.332 442.73 176.332C439.48 176.332 437.001 175.353 435.293 173.395C433.585 171.52 432.73 168.749 432.73 165.082C432.73 161.332 433.605 158.52 435.355 156.645C437.147 154.686 439.73 153.707 443.105 153.707C445.855 153.707 448.043 154.395 449.668 155.77C451.21 157.103 452.085 158.978 452.293 161.395H449.605C448.605 161.395 447.897 160.957 447.48 160.082C447.189 159.541 446.835 159.061 446.418 158.645C445.585 158.02 444.48 157.707 443.105 157.707C441.189 157.707 439.71 158.332 438.668 159.582C437.668 160.832 437.168 162.666 437.168 165.082C437.168 167.416 437.668 169.207 438.668 170.457C439.626 171.749 441.064 172.395 442.98 172.395C444.314 172.395 445.418 172.061 446.293 171.395C447.085 170.77 447.647 169.77 447.98 168.395H452.293ZM453.23 175.832V167.77C453.23 166.145 453.46 164.791 453.918 163.707C454.418 162.582 455.085 161.686 455.918 161.02C456.71 160.395 457.626 159.936 458.668 159.645C459.751 159.353 460.855 159.207 461.98 159.207C462.064 159.207 462.168 159.207 462.293 159.207C462.418 159.207 462.522 159.207 462.605 159.207V163.645H461.168C459.96 163.645 459.064 163.936 458.48 164.52C457.897 165.103 457.605 166.02 457.605 167.27V175.832H453.23ZM474.605 170.707H477.73C477.272 172.457 476.397 173.791 475.105 174.707C473.814 175.666 472.189 176.145 470.23 176.145C467.855 176.145 466.001 175.374 464.668 173.832C463.335 172.332 462.668 170.186 462.668 167.395C462.668 164.728 463.314 162.645 464.605 161.145C465.939 159.603 467.793 158.832 470.168 158.832C472.668 158.832 474.605 159.582 475.98 161.082C477.314 162.624 477.98 164.77 477.98 167.52C477.98 167.686 477.98 167.832 477.98 167.957C477.98 168.082 477.98 168.166 477.98 168.207C477.98 168.416 477.96 168.561 477.918 168.645H467.105C467.147 169.936 467.46 170.895 468.043 171.52C468.585 172.186 469.397 172.52 470.48 172.52C471.189 172.52 471.793 172.374 472.293 172.082C472.418 172.041 472.522 171.978 472.605 171.895C472.73 171.77 472.855 171.645 472.98 171.52C473.022 171.395 473.168 171.228 473.418 171.02C473.71 170.811 474.105 170.707 474.605 170.707ZM467.105 165.832H473.48C473.397 164.707 473.105 163.874 472.605 163.332C472.064 162.749 471.293 162.457 470.293 162.457C469.376 162.457 468.626 162.749 468.043 163.332C467.46 163.916 467.147 164.749 467.105 165.832ZM488.293 167.457C487.71 167.749 486.897 168.02 485.855 168.27C484.897 168.478 484.418 168.582 484.418 168.582C483.668 168.791 483.126 169.061 482.793 169.395C482.501 169.853 482.355 170.311 482.355 170.77C482.355 171.395 482.543 171.895 482.918 172.27C483.293 172.603 483.835 172.77 484.543 172.77C485.71 172.77 486.626 172.436 487.293 171.77C487.96 171.103 488.293 170.186 488.293 169.02V167.457ZM489.293 175.145C488.418 175.603 487.48 175.874 486.48 175.957C485.522 176.082 484.668 176.145 483.918 176.145C482.418 176.145 481.105 175.749 479.98 174.957C478.855 174.124 478.293 172.77 478.293 170.895C478.293 169.145 478.793 167.895 479.793 167.145C480.835 166.395 482.147 165.895 483.73 165.645C483.939 165.645 484.189 165.624 484.48 165.582C484.772 165.499 485.105 165.436 485.48 165.395C487.314 165.145 488.23 164.603 488.23 163.77C488.23 163.145 487.897 162.749 487.23 162.582C486.605 162.374 486.022 162.27 485.48 162.27C484.897 162.27 484.376 162.353 483.918 162.52C483.46 162.686 483.126 162.999 482.918 163.457H478.73C478.897 162.166 479.48 161.103 480.48 160.27C481.605 159.311 483.21 158.832 485.293 158.832C487.626 158.832 489.376 159.228 490.543 160.02C491.751 160.853 492.355 162.02 492.355 163.52V169.207C492.355 170.874 492.043 172.186 491.418 173.145C490.835 174.061 490.126 174.728 489.293 175.145ZM500.355 175.832C498.98 175.916 497.48 175.895 495.855 175.77C494.272 175.645 493.48 174.624 493.48 172.707V154.332H495.73C496.272 154.332 496.751 154.541 497.168 154.957C497.585 155.374 497.793 155.874 497.793 156.457V159.27H500.355V160.145C500.355 160.77 500.147 161.291 499.73 161.707C499.314 162.082 498.814 162.27 498.23 162.27H497.793V171.52C497.793 172.228 498.21 172.582 499.043 172.582H500.355V175.832ZM512.293 170.707H515.418C514.96 172.457 514.085 173.791 512.793 174.707C511.501 175.666 509.876 176.145 507.918 176.145C505.543 176.145 503.689 175.374 502.355 173.832C501.022 172.332 500.355 170.186 500.355 167.395C500.355 164.728 501.001 162.645 502.293 161.145C503.626 159.603 505.48 158.832 507.855 158.832C510.355 158.832 512.293 159.582 513.668 161.082C515.001 162.624 515.668 164.77 515.668 167.52C515.668 167.686 515.668 167.832 515.668 167.957C515.668 168.082 515.668 168.166 515.668 168.207C515.668 168.416 515.647 168.561 515.605 168.645H504.793C504.835 169.936 505.147 170.895 505.73 171.52C506.272 172.186 507.085 172.52 508.168 172.52C508.876 172.52 509.48 172.374 509.98 172.082C510.105 172.041 510.21 171.978 510.293 171.895C510.418 171.77 510.543 171.645 510.668 171.52C510.71 171.395 510.855 171.228 511.105 171.02C511.397 170.811 511.793 170.707 512.293 170.707ZM504.793 165.832H511.168C511.085 164.707 510.793 163.874 510.293 163.332C509.751 162.749 508.98 162.457 507.98 162.457C507.064 162.457 506.314 162.749 505.73 163.332C505.147 163.916 504.835 164.749 504.793 165.832Z" fill="white"/>
<defs>
<filter id="filter0_ddd_110_9796" x="71.886" y="106.532" width="170.2" height="32.9787" filterUnits="userSpaceOnUse" color-interpolation-filters="sRGB">
<feFlood flood-opacity="0" result="BackgroundImageFix"/>
<feColorMatrix in="SourceAlpha" type="matrix" values="0 0 0 0 0 0 0 0 0 0 0 0 0 0 0 0 0 0 127 0" result="hardAlpha"/>
<feOffset/>
<feGaussianBlur stdDeviation="0.3267"/>
<feColorMatrix type="matrix" values="0 0 0 0 1 0 0 0 0 1 0 0 0 0 1 0 0 0 1 0"/>
<feBlend mode="normal" in2="BackgroundImageFix" result="effect1_dropShadow_110_9796"/>
<feColorMatrix in="SourceAlpha" type="matrix" values="0 0 0 0 0 0 0 0 0 0 0 0 0 0 0 0 0 0 127 0" result="hardAlpha"/>
<feOffset/>
<feGaussianBlur stdDeviation="0.6534"/>
<feColorMatrix type="matrix" values="0 0 0 0 1 0 0 0 0 1 0 0 0 0 1 0 0 0 1 0"/>
<feBlend mode="normal" in2="effect1_dropShadow_110_9796" result="effect2_dropShadow_110_9796"/>
<feColorMatrix in="SourceAlpha" type="matrix" values="0 0 0 0 0 0 0 0 0 0 0 0 0 0 0 0 0 0 127 0" result="hardAlpha"/>
<feOffset/>
<feGaussianBlur stdDeviation="7.05"/>
<feColorMatrix type="matrix" values="0 0 0 0 1 0 0 0 0 1 0 0 0 0 1 0 0 0 1 0"/>
<feBlend mode="normal" in2="effect2_dropShadow_110_9796" result="effect3_dropShadow_110_9796"/>
<feBlend mode="normal" in="SourceGraphic" in2="effect3_dropShadow_110_9796" result="shape"/>
</filter>
<filter id="filter1_ddd_110_9796" x="399.63" y="106.532" width="152.2" height="32.9787" filterUnits="userSpaceOnUse" color-interpolation-filters="sRGB">
<feFlood flood-opacity="0" result="BackgroundImageFix"/>
<feColorMatrix in="SourceAlpha" type="matrix" values="0 0 0 0 0 0 0 0 0 0 0 0 0 0 0 0 0 0 127 0" result="hardAlpha"/>
<feOffset/>
<feGaussianBlur stdDeviation="0.3267"/>
<feColorMatrix type="matrix" values="0 0 0 0 1 0 0 0 0 1 0 0 0 0 1 0 0 0 1 0"/>
<feBlend mode="normal" in2="BackgroundImageFix" result="effect1_dropShadow_110_9796"/>
<feColorMatrix in="SourceAlpha" type="matrix" values="0 0 0 0 0 0 0 0 0 0 0 0 0 0 0 0 0 0 127 0" result="hardAlpha"/>
<feOffset/>
<feGaussianBlur stdDeviation="0.6534"/>
<feColorMatrix type="matrix" values="0 0 0 0 1 0 0 0 0 1 0 0 0 0 1 0 0 0 1 0"/>
<feBlend mode="normal" in2="effect1_dropShadow_110_9796" result="effect2_dropShadow_110_9796"/>
<feColorMatrix in="SourceAlpha" type="matrix" values="0 0 0 0 0 0 0 0 0 0 0 0 0 0 0 0 0 0 127 0" result="hardAlpha"/>
<feOffset/>
<feGaussianBlur stdDeviation="7.05"/>
<feColorMatrix type="matrix" values="0 0 0 0 1 0 0 0 0 1 0 0 0 0 1 0 0 0 1 0"/>
<feBlend mode="normal" in2="effect2_dropShadow_110_9796" result="effect3_dropShadow_110_9796"/>
<feBlend mode="normal" in="SourceGraphic" in2="effect3_dropShadow_110_9796" result="shape"/>
</filter>
<filter id="filter2_ddd_110_9796" x="711.324" y="106.532" width="148.2" height="32.9787" filterUnits="userSpaceOnUse" color-interpolation-filters="sRGB">
<feFlood flood-opacity="0" result="BackgroundImageFix"/>
<feColorMatrix in="SourceAlpha" type="matrix" values="0 0 0 0 0 0 0 0 0 0 0 0 0 0 0 0 0 0 127 0" result="hardAlpha"/>
<feOffset/>
<feGaussianBlur stdDeviation="0.3267"/>
<feColorMatrix type="matrix" values="0 0 0 0 1 0 0 0 0 1 0 0 0 0 1 0 0 0 1 0"/>
<feBlend mode="normal" in2="BackgroundImageFix" result="effect1_dropShadow_110_9796"/>
<feColorMatrix in="SourceAlpha" type="matrix" values="0 0 0 0 0 0 0 0 0 0 0 0 0 0 0 0 0 0 127 0" result="hardAlpha"/>
<feOffset/>
<feGaussianBlur stdDeviation="0.6534"/>
<feColorMatrix type="matrix" values="0 0 0 0 1 0 0 0 0 1 0 0 0 0 1 0 0 0 1 0"/>
<feBlend mode="normal" in2="effect1_dropShadow_110_9796" result="effect2_dropShadow_110_9796"/>
<feColorMatrix in="SourceAlpha" type="matrix" values="0 0 0 0 0 0 0 0 0 0 0 0 0 0 0 0 0 0 127 0" result="hardAlpha"/>
<feOffset/>
<feGaussianBlur stdDeviation="7.05"/>
<feColorMatrix type="matrix" values="0 0 0 0 1 0 0 0 0 1 0 0 0 0 1 0 0 0 1 0"/>
<feBlend mode="normal" in2="effect2_dropShadow_110_9796" result="effect3_dropShadow_110_9796"/>
<feBlend mode="normal" in="SourceGraphic" in2="effect3_dropShadow_110_9796" result="shape"/>
</filter>
<filter id="filter3_ddd_110_9796" x="1003.03" y="106.532" width="157.2" height="32.9787" filterUnits="userSpaceOnUse" color-interpolation-filters="sRGB">
<feFlood flood-opacity="0" result="BackgroundImageFix"/>
<feColorMatrix in="SourceAlpha" type="matrix" values="0 0 0 0 0 0 0 0 0 0 0 0 0 0 0 0 0 0 127 0" result="hardAlpha"/>
<feOffset/>
<feGaussianBlur stdDeviation="0.3267"/>
<feColorMatrix type="matrix" values="0 0 0 0 1 0 0 0 0 1 0 0 0 0 1 0 0 0 1 0"/>
<feBlend mode="normal" in2="BackgroundImageFix" result="effect1_dropShadow_110_9796"/>
<feColorMatrix in="SourceAlpha" type="matrix" values="0 0 0 0 0 0 0 0 0 0 0 0 0 0 0 0 0 0 127 0" result="hardAlpha"/>
<feOffset/>
<feGaussianBlur stdDeviation="0.6534"/>
<feColorMatrix type="matrix" values="0 0 0 0 1 0 0 0 0 1 0 0 0 0 1 0 0 0 1 0"/>
<feBlend mode="normal" in2="effect1_dropShadow_110_9796" result="effect2_dropShadow_110_9796"/>
<feColorMatrix in="SourceAlpha" type="matrix" values="0 0 0 0 0 0 0 0 0 0 0 0 0 0 0 0 0 0 127 0" result="hardAlpha"/>
<feOffset/>
<feGaussianBlur stdDeviation="7.05"/>
<feColorMatrix type="matrix" values="0 0 0 0 1 0 0 0 0 1 0 0 0 0 1 0 0 0 1 0"/>
<feBlend mode="normal" in2="effect2_dropShadow_110_9796" result="effect3_dropShadow_110_9796"/>
<feBlend mode="normal" in="SourceGraphic" in2="effect3_dropShadow_110_9796" result="shape"/>
</filter>
<filter id="filter4_ddd_110_9796" x="230.527" y="106.532" width="169.2" height="32.9787" filterUnits="userSpaceOnUse" color-interpolation-filters="sRGB">
<feFlood flood-opacity="0" result="BackgroundImageFix"/>
<feColorMatrix in="SourceAlpha" type="matrix" values="0 0 0 0 0 0 0 0 0 0 0 0 0 0 0 0 0 0 127 0" result="hardAlpha"/>
<feOffset/>
<feGaussianBlur stdDeviation="0.3267"/>
<feColorMatrix type="matrix" values="0 0 0 0 0.945098 0 0 0 0 0.368627 0 0 0 0 0.133333 0 0 0 1 0"/>
<feBlend mode="normal" in2="BackgroundImageFix" result="effect1_dropShadow_110_9796"/>
<feColorMatrix in="SourceAlpha" type="matrix" values="0 0 0 0 0 0 0 0 0 0 0 0 0 0 0 0 0 0 127 0" result="hardAlpha"/>
<feOffset/>
<feGaussianBlur stdDeviation="0.6534"/>
<feColorMatrix type="matrix" values="0 0 0 0 0.945098 0 0 0 0 0.368627 0 0 0 0 0.133333 0 0 0 1 0"/>
<feBlend mode="normal" in2="effect1_dropShadow_110_9796" result="effect2_dropShadow_110_9796"/>
<feColorMatrix in="SourceAlpha" type="matrix" values="0 0 0 0 0 0 0 0 0 0 0 0 0 0 0 0 0 0 127 0" result="hardAlpha"/>
<feOffset/>
<feGaussianBlur stdDeviation="7.05"/>
<feColorMatrix type="matrix" values="0 0 0 0 0.945098 0 0 0 0 0.368627 0 0 0 0 0.133333 0 0 0 1 0"/>
<feBlend mode="normal" in2="effect2_dropShadow_110_9796" result="effect3_dropShadow_110_9796"/>
<feBlend mode="normal" in="SourceGraphic" in2="effect3_dropShadow_110_9796" result="shape"/>
</filter>
<filter id="filter5_ddd_110_9796" x="230.527" y="106.532" width="169.2" height="32.9787" filterUnits="userSpaceOnUse" color-interpolation-filters="sRGB">
<feFlood flood-opacity="0" result="BackgroundImageFix"/>
<feColorMatrix in="SourceAlpha" type="matrix" values="0 0 0 0 0 0 0 0 0 0 0 0 0 0 0 0 0 0 127 0" result="hardAlpha"/>
<feOffset/>
<feGaussianBlur stdDeviation="0.3267"/>
<feColorMatrix type="matrix" values="0 0 0 0 0.945098 0 0 0 0 0.368627 0 0 0 0 0.133333 0 0 0 1 0"/>
<feBlend mode="normal" in2="BackgroundImageFix" result="effect1_dropShadow_110_9796"/>
<feColorMatrix in="SourceAlpha" type="matrix" values="0 0 0 0 0 0 0 0 0 0 0 0 0 0 0 0 0 0 127 0" result="hardAlpha"/>
<feOffset/>
<feGaussianBlur stdDeviation="0.6534"/>
<feColorMatrix type="matrix" values="0 0 0 0 0.945098 0 0 0 0 0.368627 0 0 0 0 0.133333 0 0 0 1 0"/>
<feBlend mode="normal" in2="effect1_dropShadow_110_9796" result="effect2_dropShadow_110_9796"/>
<feColorMatrix in="SourceAlpha" type="matrix" values="0 0 0 0 0 0 0 0 0 0 0 0 0 0 0 0 0 0 127 0" result="hardAlpha"/>
<feOffset/>
<feGaussianBlur stdDeviation="7.05"/>
<feColorMatrix type="matrix" values="0 0 0 0 0.945098 0 0 0 0 0.368627 0 0 0 0 0.133333 0 0 0 1 0"/>
<feBlend mode="normal" in2="effect2_dropShadow_110_9796" result="effect3_dropShadow_110_9796"/>
<feBlend mode="normal" in="SourceGraphic" in2="effect3_dropShadow_110_9796" result="shape"/>
</filter>
<filter id="filter6_ddd_110_9796" x="552.386" y="106.532" width="154.2" height="32.9787" filterUnits="userSpaceOnUse" color-interpolation-filters="sRGB">
<feFlood flood-opacity="0" result="BackgroundImageFix"/>
<feColorMatrix in="SourceAlpha" type="matrix" values="0 0 0 0 0 0 0 0 0 0 0 0 0 0 0 0 0 0 127 0" result="hardAlpha"/>
<feOffset/>
<feGaussianBlur stdDeviation="0.3267"/>
<feColorMatrix type="matrix" values="0 0 0 0 0.945098 0 0 0 0 0.368627 0 0 0 0 0.133333 0 0 0 1 0"/>
<feBlend mode="normal" in2="BackgroundImageFix" result="effect1_dropShadow_110_9796"/>
<feColorMatrix in="SourceAlpha" type="matrix" values="0 0 0 0 0 0 0 0 0 0 0 0 0 0 0 0 0 0 127 0" result="hardAlpha"/>
<feOffset/>
<feGaussianBlur stdDeviation="0.6534"/>
<feColorMatrix type="matrix" values="0 0 0 0 0.945098 0 0 0 0 0.368627 0 0 0 0 0.133333 0 0 0 1 0"/>
<feBlend mode="normal" in2="effect1_dropShadow_110_9796" result="effect2_dropShadow_110_9796"/>
<feColorMatrix in="SourceAlpha" type="matrix" values="0 0 0 0 0 0 0 0 0 0 0 0 0 0 0 0 0 0 127 0" result="hardAlpha"/>
<feOffset/>
<feGaussianBlur stdDeviation="7.05"/>
<feColorMatrix type="matrix" values="0 0 0 0 0.945098 0 0 0 0 0.368627 0 0 0 0 0.133333 0 0 0 1 0"/>
<feBlend mode="normal" in2="effect2_dropShadow_110_9796" result="effect3_dropShadow_110_9796"/>
<feBlend mode="normal" in="SourceGraphic" in2="effect3_dropShadow_110_9796" result="shape"/>
</filter>
<filter id="filter7_ddd_110_9796" x="552.386" y="106.532" width="154.2" height="32.9787" filterUnits="userSpaceOnUse" color-interpolation-filters="sRGB">
<feFlood flood-opacity="0" result="BackgroundImageFix"/>
<feColorMatrix in="SourceAlpha" type="matrix" values="0 0 0 0 0 0 0 0 0 0 0 0 0 0 0 0 0 0 127 0" result="hardAlpha"/>
<feOffset/>
<feGaussianBlur stdDeviation="0.3267"/>
<feColorMatrix type="matrix" values="0 0 0 0 0.945098 0 0 0 0 0.368627 0 0 0 0 0.133333 0 0 0 1 0"/>
<feBlend mode="normal" in2="BackgroundImageFix" result="effect1_dropShadow_110_9796"/>
<feColorMatrix in="SourceAlpha" type="matrix" values="0 0 0 0 0 0 0 0 0 0 0 0 0 0 0 0 0 0 127 0" result="hardAlpha"/>
<feOffset/>
<feGaussianBlur stdDeviation="0.6534"/>
<feColorMatrix type="matrix" values="0 0 0 0 0.945098 0 0 0 0 0.368627 0 0 0 0 0.133333 0 0 0 1 0"/>
<feBlend mode="normal" in2="effect1_dropShadow_110_9796" result="effect2_dropShadow_110_9796"/>
<feColorMatrix in="SourceAlpha" type="matrix" values="0 0 0 0 0 0 0 0 0 0 0 0 0 0 0 0 0 0 127 0" result="hardAlpha"/>
<feOffset/>
<feGaussianBlur stdDeviation="7.05"/>
<feColorMatrix type="matrix" values="0 0 0 0 0.945098 0 0 0 0 0.368627 0 0 0 0 0.133333 0 0 0 1 0"/>
<feBlend mode="normal" in2="effect2_dropShadow_110_9796" result="effect3_dropShadow_110_9796"/>
<feBlend mode="normal" in="SourceGraphic" in2="effect3_dropShadow_110_9796" result="shape"/>
</filter>
<filter id="filter8_ddd_110_9796" x="854.845" y="106.532" width="152.2" height="32.9787" filterUnits="userSpaceOnUse" color-interpolation-filters="sRGB">
<feFlood flood-opacity="0" result="BackgroundImageFix"/>
<feColorMatrix in="SourceAlpha" type="matrix" values="0 0 0 0 0 0 0 0 0 0 0 0 0 0 0 0 0 0 127 0" result="hardAlpha"/>
<feOffset/>
<feGaussianBlur stdDeviation="0.3267"/>
<feColorMatrix type="matrix" values="0 0 0 0 0.945098 0 0 0 0 0.368627 0 0 0 0 0.133333 0 0 0 1 0"/>
<feBlend mode="normal" in2="BackgroundImageFix" result="effect1_dropShadow_110_9796"/>
<feColorMatrix in="SourceAlpha" type="matrix" values="0 0 0 0 0 0 0 0 0 0 0 0 0 0 0 0 0 0 127 0" result="hardAlpha"/>
<feOffset/>
<feGaussianBlur stdDeviation="0.6534"/>
<feColorMatrix type="matrix" values="0 0 0 0 0.945098 0 0 0 0 0.368627 0 0 0 0 0.133333 0 0 0 1 0"/>
<feBlend mode="normal" in2="effect1_dropShadow_110_9796" result="effect2_dropShadow_110_9796"/>
<feColorMatrix in="SourceAlpha" type="matrix" values="0 0 0 0 0 0 0 0 0 0 0 0 0 0 0 0 0 0 127 0" result="hardAlpha"/>
<feOffset/>
<feGaussianBlur stdDeviation="7.05"/>
<feColorMatrix type="matrix" values="0 0 0 0 0.945098 0 0 0 0 0.368627 0 0 0 0 0.133333 0 0 0 1 0"/>
<feBlend mode="normal" in2="effect2_dropShadow_110_9796" result="effect3_dropShadow_110_9796"/>
<feBlend mode="normal" in="SourceGraphic" in2="effect3_dropShadow_110_9796" result="shape"/>
</filter>
<filter id="filter9_ddd_110_9796" x="854.845" y="106.532" width="152.2" height="32.9787" filterUnits="userSpaceOnUse" color-interpolation-filters="sRGB">
<feFlood flood-opacity="0" result="BackgroundImageFix"/>
<feColorMatrix in="SourceAlpha" type="matrix" values="0 0 0 0 0 0 0 0 0 0 0 0 0 0 0 0 0 0 127 0" result="hardAlpha"/>
<feOffset/>
<feGaussianBlur stdDeviation="0.3267"/>
<feColorMatrix type="matrix" values="0 0 0 0 0.945098 0 0 0 0 0.368627 0 0 0 0 0.133333 0 0 0 1 0"/>
<feBlend mode="normal" in2="BackgroundImageFix" result="effect1_dropShadow_110_9796"/>
<feColorMatrix in="SourceAlpha" type="matrix" values="0 0 0 0 0 0 0 0 0 0 0 0 0 0 0 0 0 0 127 0" result="hardAlpha"/>
<feOffset/>
<feGaussianBlur stdDeviation="0.6534"/>
<feColorMatrix type="matrix" values="0 0 0 0 0.945098 0 0 0 0 0.368627 0 0 0 0 0.133333 0 0 0 1 0"/>
<feBlend mode="normal" in2="effect1_dropShadow_110_9796" result="effect2_dropShadow_110_9796"/>
<feColorMatrix in="SourceAlpha" type="matrix" values="0 0 0 0 0 0 0 0 0 0 0 0 0 0 0 0 0 0 127 0" result="hardAlpha"/>
<feOffset/>
<feGaussianBlur stdDeviation="7.05"/>
<feColorMatrix type="matrix" values="0 0 0 0 0.945098 0 0 0 0 0.368627 0 0 0 0 0.133333 0 0 0 1 0"/>
<feBlend mode="normal" in2="effect2_dropShadow_110_9796" result="effect3_dropShadow_110_9796"/>
<feBlend mode="normal" in="SourceGraphic" in2="effect3_dropShadow_110_9796" result="shape"/>
</filter>
</defs>
</svg>
